<svg xmlns="http://www.w3.org/2000/svg" xmlns:xlink="http://www.w3.org/1999/xlink" width="1328" height="530.053" viewBox="0 0 1328 530.053">
  <defs>
    <linearGradient id="linear-gradient" x1="0.16" y1="0.425" x2="1" y2="1.054" gradientUnits="objectBoundingBox">
      <stop offset="0" stop-color="#f7f6fa"/>
      <stop offset="1" stop-color="#f2f6ff"/>
    </linearGradient>
    <clipPath id="clip-path">
      <rect id="Rect치ngulo_35460" data-name="Rect치ngulo 35460" width="914.748" height="521.567" transform="translate(0 0)" fill="url(#linear-gradient)"/>
    </clipPath>
    <clipPath id="clip-path-2">
      <rect id="Rect치ngulo_420893" data-name="Rect치ngulo 420893" width="650" height="463.063" fill="#4381b2"/>
    </clipPath>
  </defs>
  <g id="Grupo_1172430" data-name="Grupo 1172430" transform="translate(0 -839)">
    <path id="Trazado_872797" data-name="Trazado 872797" d="M0,0H1328V530.053H0Z" transform="translate(0 839)" fill="#ebf5fd"/>
    <g id="Enmascarar_grupo_129" data-name="Enmascarar grupo 129" transform="translate(2.009 847.485)" opacity="0.44" clip-path="url(#clip-path)">
      <g id="Grupo_1171757" data-name="Grupo 1171757" transform="translate(336.992 9.232)" opacity="0.2" clip-path="url(#clip-path-2)">
        <path id="Trazado_1031831" data-name="Trazado 1031831" d="M490.787,102.081a15.325,15.325,0,0,0-3.721-.578s-.637,1.657-1.472,1.657-.355-3-.355-3.9-2-1.951-5.181-4.293-9.087-7.151-13.8-9.1c-4.729-1.951-10.858.78-11.679.905s-2.478,2.076-3.665,1.3-4.829-.78-8.607-.251-2.83-3.513-2.944-6.118-6.609-2.858-8.621-2.217c-2,.654-4.954.654-6.482-1.813a53.75,53.75,0,0,0-4.247-5.727c-1.53-1.953-7.784-2.219-12.741-3s-3.651,3.9-4.247,6.118-9.2,1.828-11.676-.263c-2.476-2.076-1.882-1.174-2.831,3.779s-4.006-1.687-5.067-3.638-.355-3.779.355-5.729.111-3.122-5.309-5.729c-5.436-2.592-4.729-.642-4.729,2.217s-6.723-.125-8.137-2.342-8.848-1.951-11.679-2.467c-2.831-.532-5.536-.263-6.243-1.312-.709-1.03,4.954-6.369,7.9-10.273s-2.01-10.022-3.185-11.318-7.191-.123-7.43-1.56-3.895-2.076-4.956-1.951,1.305-1.953,2.012-2.858c.707-.92-2.833-2.871-4.729-2.217s-3.3,3.9-3.765,6.509c-.482,2.592-1.189,3.638-2.831,4.418-1.657.782-1.769,2.608-4.374,2.733a21.23,21.23,0,0,0-6.723,1.437c-1.53.639-2.592,2.2-5.663,2.2s-5.774,4.042-7.9,6.9,1.528,4.809.707,6.76-10.617,1.562-11.211,3.265c-.579,1.685,2.01,6.494,3.072,8.2,1.062,1.685.241,2.73-.948,2.73s-3.537-3.262-4.472-3.9-4.6,2.342-7.318,4.155-1.885,10.145-1.3,14.315-1.416,3-2.589,3-.355-8.726-.241-11.193-1.416-3-.355-8.071-2-5.855-3.892-6.369-2.237.657-3.3,4.684a102.033,102.033,0,0,1-3.779,10.273c-.709,1.951,1.062,5.993,3.313,9.365,2.237,3.388,0,3.9-.709,3.9s-2.362-1.953-4.486-4.543c-2.123-2.608-5.422-3-7.9-4.167s-3.665.125-2.476.78,2.237,3.9.227,4.806a20.4,20.4,0,0,1-6.243,1.314c-2.123.248-2.476,1.168-5.309-.391s-7.077,2.592-10.035,6.494-2.237,3.653-3.653,2.871-.466-3.26,1.064-4.167-1.771-3.776-2.478-4.293-2.01,2.076-2.362,4.558c-.357,2.467.862,4.809.862,6.277,0,1.452-1.062,1.171-2.833.187-1.769-.966-4.43,3.324-5.492,4.293-1.062.984,0,1.467.976,3.326s-3.269.78-4.954-.391-2.121.189-1.414,1.468,1.769,1.935,2.038,2.92-.89.984-1.868.874c-.962-.095-3-1.953-3.354-3.216a49.131,49.131,0,0,1-.624-6.448c-.042-.639-4.882-4.87-4.2-5.65.452-.516,6.115,4.121,9.711,4.73a5.593,5.593,0,0,0,4.233-.905c2.687-1.9,2.276-5.2.848-7.417a15.937,15.937,0,0,0-3.6-3.62,27.826,27.826,0,0,0-5.492-3.779c-3.384-1.608-7.46-1.871-10.179-4.543a.673.673,0,0,1-.07-.844,4.615,4.615,0,0,1,1.372-1.263.782.782,0,0,0,.169-1.186,9.112,9.112,0,0,0-7.515-2.779c-3.044.217-5.932,1.544-8.732,2.858a21.3,21.3,0,0,0-5.367,3.168,20.968,20.968,0,0,0-4.683,6.836c-2.619,5.4-4.588,11.18-7.263,16.564a38.825,38.825,0,0,1-7.091,10.4c-1.12,1.11-6.739,4.356-5.846,6.576.454,1.076.183,6.243.269,10.723s4.516,4.106,5.492,3.421a34.94,34.94,0,0,0,3.795-4c1.683-1.859,1.331,1.654,1.769,2.92s1.952,4.293,2.307,6.729.793,4.495,2.209,4.495,1.6-1.856,3.537-2.636,1.6-5.262,1.6-6.729,1.317-3.124,3.185-4.2.524-4.589-.452-5.558-2.026-1.951-1.94-4.106c.086-2.137,2.476-6.525,4.516-8.491a10.216,10.216,0,0,0,3-5.745,15.454,15.454,0,0,1,2.126-5.371c.976-1.373,3.183.3,4.952,1.749,1.771,1.468-.522,3.232-1.5,4.2-.976.984-3.723,5.072-5.137,6.353-1.416,1.266-.61,2.621-.255,4.091s.169,4.495.255,6.54,2.038,3.012,3.282,3.7,3.085-1.654,6.1-2.73c3-1.076,3.54.107,3.809.483.255.407,1.769.593,2.207,1.076s-.793.483-1.6.483-1.416,1.969-3.269,1.767a19.686,19.686,0,0,0-5.663.3c-1.062.281-1.5,1.56-1.331,3.027.185,1.452,1.6,1.452,1.685,2.045.083.578-.172,3.513-.709,3.7-.524.2-1.059-.187-1.852-1.358a1.571,1.571,0,0,0-2.564.095,9.085,9.085,0,0,0-1.159,5.558c.183,3.027.621,2.825-.255,2.935-.892.092-1.416.777-1.769,1.856-.355,1.061-1.416.78-2.478-.3s-.807-.984-2.223-.391c-1.414.578-4.061,2.436-5.392,2.531s-1.5-1.064-2.392-1.562-1.854,1.171-2.733,1.562-.452-.578-.1-1.171c.352-.578-.61-.486-1.416-.391s-1.062-.578-1.062-1.841c0-1.281,1.062-.406,1.6-.5s-.707-.969-.89-1.951.707.107,1.414.982a5.447,5.447,0,0,0,2.123,1.843c.892.407.1-2.436.454-3.216s-.1-2.045-1.161-1.749a2.006,2.006,0,0,1-1.854-.593,3.727,3.727,0,0,1-.976-3.027c.1-2.14-.793-1.36-1.147-.782-.355.593-1.233.89-2.83,2.935s-1.062,3.122.083,4.2c1.161,1.076.809,3.214,1.245,4.776s-1.952,1.562-3.89,1.654c-1.954.11-1.5.593-1.857,1.171-.352.6-.976.984-1.062.688s-.8.3-.8,1.171a8.3,8.3,0,0,1-1.586,3.7c-.793,1.076-2.564,1.186-3.454,2.155s-1.331,2.247-2.293,3.027-.809,1.468-2.661,1.562-1.147-.874-1.769-.78-.172,1.061,0,2.339-1.685.782-2.747.391a3.126,3.126,0,0,0-2.916.874c-.621.578.438,1.859,1.769,2.342s2.209.984,3.723,3.216c1.5,2.247,1.231,3.122,1.231,3.122,0,1.562-.707,5.76-1.769,5.949s-2.024-.125-6.639-.376c-3.537-.2-4.245-.2-5.392.281-1.147.5-1.147,1.764-.352,2.73.791.984.438,3.717.352,5.76s-1.586,3.03-1.231,5.558c.355,2.546.253,2.733,2.123,2.638,1.852-.092,3.269.3,3.709,1.953s2.038.389,3.721-.593,3.44-.095,5.209-1.657,1.871-3.513,2.123-4.87a11.56,11.56,0,0,1,1.954-4.293c1.062-1.562,3.454-1.859,4.061-2.935.624-1.076.183-3.513,1.416-3.9s3.454.887,4.6.483c1.161-.376,3.994-2.92,5.309-2.92,1.331,0,3.016,4.293,3.892,5.76.893,1.468,6.725,4.592,7.7,6.931s-1.062,3.216-1.5,3.607-2.916.187-3.623-.2-1.516.593-1.062,1.171c.438.6,2.123.984,3.537,2.25s1.671-.688,1.586-1.859.893-.391,1.6-.578c.707-.2,1.062-1.669,1.5-2.825.44-1.186-.621-1.859-.267-2.935s.89-.782,2.121,0c1.247.78.976-.3.892-.874-.1-.593-3.992-2.733-4.347-3.623-.352-.872-1.231-.575-1.669-.575-.454,0-1.769-1.767-2.307-2.828-.524-1.076-3.185-3.715-2.647-5.855.522-2.153,2.83-1.171,3.623,0a35.413,35.413,0,0,0,4.161,5.17c1.147.966,5.125.966,4.854,5.556-.253,4.592.624,6.057,2.123,6.057,1.516,0,.538,2.14,2.392,5.17s2.392-.874,2.392-2.25c0-1.358,1.062.2,2.038,0,.964-.187-1.062-3.122-1.952-4.98-.879-1.841.183-2.339,2.562-3.214s3.185,1.654,3.185,2.544a26.438,26.438,0,0,0,.624,5.262c.538,2.434,4.954,4.4,6.454,3.715,1.516-.688,2.123-.593,3.637.391,1.5.966,1.769.578,2.833-.3a3.09,3.09,0,0,1,3.892.092c1.059.984-1.6,7.228-1.954,8.68-.355,1.468-1.148,4.011-3.537,3.124s-5.04.3-6.37.887-5.747-1.168-11.679-4.011c-5.93-2.825-5.392,2.843-5.392,2.843.086,1.951-.893,2.731-2.038,2.434s-1.147-1.266-2.916-1.373a3.755,3.755,0,0,1-3.454-2.623c-.524-1.468-5.747-1.859-7.346-2.733-1.586-.89-.793-2.932-.707-6.151s-.879-3.6-2.026-3.6a113.862,113.862,0,0,0-12.031,1.467c-5.137.874-8.846,3.7-11.676,3.794-2.833.11-4.078-1.749-4.954-1.657-.892.095.28,3.592-2.395,4.888-4.683,2.232-4.33,7.212-4.513,9.071s-6.1,5.072-6.639,6.243-5.125,8.289-6.016,10.037c-.879,1.764-.962,2.247.538,7.805,1.5,5.573-1.769,8.4-1.769,8.884s.438,4.978,3.623,7.32a9.046,9.046,0,0,1,3.806,5.855c.355,1.171,8.494,9.759,11.493,7.6,3.016-2.14,10.093-.78,10.093-.78,5.309-2.922,9.641-2.718,11.324-1.749s-.086,3.6,4.333,2.932c6.44-1,4.075,7.212,4.075,7.212-.538,2.639-1.954,3.124-.538,4.98,5.054,6.6,6.368,10.444,7.518,15.8,1.159,5.372-1.771,8.493-2.733,14.161-.978,5.65,3.892,10.521,4.5,12.193.621,1.654.269,8.68,1.868,11.41s5.123,9.462,5.209,14.051,6.822,2.528,12.924,1.749,10.531-10.336,12.469-12.972c3.751-5.075-1.145-6.246,3.723-8.1,3.072-1.156,2.123-3.8,1.769-9.166s6.894-7.6,9.456-11.5-2.478-12.6-2.024-21.762c.169-3.6,11.493-13.957,14.947-17.173s6.016-11.426,6.454-14.642-2.562-.688-6.368.688-6.725.966-8.494-2.828c-1.769-3.809-4.771-5.167-6.37-7.711a32.82,32.82,0,0,1-4.161-10.053c-.879-4-3.709-8.682-5.125-11.318s-2.207-3.405-3.368-6.432c-1.145-3.03,1.062-.3,1.514.78s1.233,1.266,3.088,1.064,4.43,8.209,7.884,14.828c3.438,6.652,6.368,10.147,6.978,15.721.624,5.558,10.531-.78,15.133-3.027s9.908-7.509,13.176-11.914c3.285-4.385,1.331-5.259-.607-5.558a4.582,4.582,0,0,1-3.54-3.308c-.538-1.467-.707-1.764-1.245-1.467s-2.747,3.311-5.663,3.513-3.806-3.6-5.475-6.821c-1.685-3.232-3.723-5.185-1.161-6.65s3.282,2.746,3.368,3.715,4.161,3.216,4.516,3.607,5.478.107,6.271,2.043c.807,1.966,7.7,1.859,11.593,1.562,3.269-.235,6.368-1.843,8.408,3.418,2.872,7.432,5.93,6.151,6.992,5.76s1.317-1.856,1.317-.966a86.094,86.094,0,0,0,1.331,10.817c.793,3.717,6.284,15.314,7.26,16.69s4.247-2.825,4.771-4.98c.538-2.14.269-5.167.269-8.1,0-2.92,3.185-3.5,6.016-6.729a37.763,37.763,0,0,1,12.74-9.071c4.685-1.856,3.269,2.25,3.269,2.25.269,1.749,4.516,4.87,4.161,7.212-.779,5.182,2.209,3.418,3.978,1.764,1.771-1.672.438-.593,2.478,6.041s-.438,9.961,1.062,10.832,2.661,5.167,2.661,8.1c0,2.92,5.123,5.653,6.808,6.729s.707-1.951-.54-3.9c-1.231-1.953,0-2.828-.607-4.5-.624-1.654-3.016-2.436-5.309-5.262s-1.059-4.106-1.161-6.634c-.083-2.529,1.062-3.809,2.478-3.809s3.54,1.764,5.309,5.372.269,5.167,6.2.483,3.354-9.163.172-13.456-2.733-3.9-1.416-7.417,4.868-1.951,9.824-2.339,7.163-2.437,14.24-10.74,2.93-13.177.621-17.362c-2.293-4.2-1.231-4,2.207-6.837,3.456-2.825-1.669-2.92-4.685-2.342-3,.593-2.121-3.122,2.309-6.824s1.586,2.344,2.024,3.311c.454.984,3.185-1.951,5.137-2.342s1.685,1.764,1.233,3.513c-.44,1.764,1.416,1.951,3.1,2.546,1.685.575-.438,5.461-.707,7.414s.538.279,4.43-1.281,1.854-5.167.879-7.212-2.562-4-1.333-6.151c1.247-2.137,5.846-7.805,7.432-6.525,1.6,1.266,2.307,0,8.239-6.353,5.916-6.338,8.139-21.264,7.87-25.651-.269-4.4-3.623-1.966-7.7-2.746-4.061-.782-1.855-2.623,4.333-11.116s8.76-7.9,15.668-7.616c6.894.3,7.784,1.076,10.786.777,3.014-.279.183-2.043,1.331-3.993s5.832-6.931,8.139-6.931,1.331,3.62,1.583,5.182c.271,1.56.1.483,2.932-3.326,2.83-3.794,1.769-4.479,4.147-5.556s1.062,1.465.269,3.993c-.793,2.546-4.161,5.371-5.932,7.713s-8.137,10.242-9.808,13.177c-1.685,2.917,1.5,18.827,2.293,18.827s5.577-5.763,5.747-8.386c.185-2.636.976-3.122,2.478-3.807s1.161-1.654.89-3.124,1.064-1.761,2.478-2.73c1.414-.984-.624-5.277-1.5-6.246-.892-.984.61-4.794,2.379-7.322s3.1-.481,4.516-.092,3.89-6.246,5.392-3.03,2.576,1.859,2.661.391,10.346-8.1,11.493-8.68c1.159-.593,3.637.969,4.43.3s-.183-3.326-.976-4.308-.524-1.935-1.331-3.014-1.669-1.373-2.295-2.449.879-.782,1.685-.189,3.085-.685,4.333-2.043c1.231-1.375,0-3.809.169-4.888.183-1.061,1.685,0,1.514.593-.183.578,1.062,2.92,2.647,2.529s2.831,1.654,2.916,2.733,4.7,3.027,5.223,3.232c.538.189,1.5-4.684,2.038-5.573.526-.874,2.209-1.076,2.123-1.45-.083-.409.624-.69,1.333-1.969,0,0-3.188-3.9-3.456-4.387M217.6,194.3c-4.075-.2-4.247-2.748-7.787-2.748s-3.892,2.935-7.784,1.764-.352-6.634.524-8.79c.893-2.137,2.123-5.464,4.6-5.464s1.416,4.638,4.078,5.464c.906.3,2.647-.966,2.647-2.92s2.123-1.951,3.892-1.358c1.771.578.355,4.091,5.494,8.585,5.123,4.482-1.6,5.653-5.663,5.466m21.586,9.163c-2.661-.984.352-4.479.352-7.228,0-2.718-1.6-4.479-3.014-9.945s1.245-5.464,4.43-7.414a4.275,4.275,0,0,1,3.892-.782c2.478.6-.183,3.9-.893,4.091-.707.2-2.476,2.748-2.476,4.106s4.247,4.888,4.785,6.448a56.431,56.431,0,0,1,1.414,10.336c.172,3.712-5.846,1.373-8.491.389" transform="translate(155.757 5.33)" fill="#4381b2"/>
        <path id="Trazado_1031832" data-name="Trazado 1031832" d="M245.307,84.9c0-3.641.236-7.675-.707-6.113s-2.242,4.684-1.887,7.023a87.475,87.475,0,0,1,.118,9.5,13.109,13.109,0,0,0,.236,3.513c.352,1.951-.709,4.812-.473,5.464s1.532-1.171,1.532-1.69,1.18.128,1.535.261-1.062-2.214-1.062-3.774.237-5.466,1.18-5.075,1.887.91.825-2.47a33.028,33.028,0,0,1-1.3-6.637" transform="translate(319.729 122.098)" fill="#4381b2"/>
        <path id="Trazado_1031833" data-name="Trazado 1031833" d="M261.932,95.084a2.811,2.811,0,0,0-2.223-2.472c-1.018-.189-2.01-.473-2.01-.708,0-.389-2.358-4.032-2.476-2.731s.355,4.423-.707,5.333-3.422,2.472-3.185,3.774,1.18,2.212.825,2.991a8.594,8.594,0,0,0-.825,2.991c0,.913-.591,5.855-2.123,6.115s-3.656.649-4.01,1.82a4.3,4.3,0,0,1-2.715,2.733c-1.414.519-4.126.389-5.188,1.951a8.883,8.883,0,0,1-2.715,2.472s-1.532,1.171-1.416,1.82.828-.13,1.182.78a17.419,17.419,0,0,1,.352,3.255c.118.649,1.653.519,1.887-1.171a19.68,19.68,0,0,0,.355-3.9c-.118-.519.471-1.562,1.18-1.562s4.717-2.079,4.717-.258,1.416,1.82,3.067.13,5.9-2.6,6.841-3.124-.471-3.51.591-5.072,2.594-3.382,2.242-5.724-1.771-5.983-1.416-6.374a3.286,3.286,0,0,1,2.715,0c.352.391,1.651.13,2.121-.913s2.831-1.041,2.949-1.56a2,2,0,0,0-.014-.593" transform="translate(307.334 138.375)" fill="#4381b2"/>
        <path id="Trazado_1031834" data-name="Trazado 1031834" d="M236.022,101.644c-.709.391-.825,2.342-.825,2.342s1.532.78,1.532,0,.473-1.432.825-1.432a2.428,2.428,0,0,0,1.653-.128c.707-.391,1.18-2.6-1.889-1.953-1.252.266-1.3,1.171-1.3,1.171" transform="translate(310.023 156.215)" fill="#4381b2"/>
        <path id="Trazado_1031835" data-name="Trazado 1031835" d="M247.138,89.97c-.707.649-2.123,2.861-1.18,2.342a6.106,6.106,0,0,0,1.769-2.084Z" transform="translate(323.794 140.05)" fill="#4381b2"/>
        <path id="Trazado_1031836" data-name="Trazado 1031836" d="M249.193,88.952c-.352,0-2.83,1.82-2.242,2.081s3.3-1.951,3.3-1.951Z" transform="translate(325.398 138.466)" fill="#4381b2"/>
        <path id="Trazado_1031837" data-name="Trazado 1031837" d="M249.65,88.138c-.589.519-1.532,1.429-.589,1.429s1.414-1.171,1.414-1.171Z" transform="translate(327.771 137.199)" fill="#4381b2"/>
        <path id="Trazado_1031838" data-name="Trazado 1031838" d="M251.069,87.12l-.709.782,1.3-.13Z" transform="translate(330.009 135.614)" fill="#4381b2"/>
        <path id="Trazado_1031839" data-name="Trazado 1031839" d="M218.458,112.816c-1.18.782-2.242,2.733-1.769,3.382s2.712,1.171,3.185-.261,1.769-2.47.352-2.73a13.943,13.943,0,0,1-1.769-.391" transform="translate(285.476 175.613)" fill="#4381b2"/>
        <path id="Trazado_1031840" data-name="Trazado 1031840" d="M227.809,108.774c-.943.78-2.242,2.6-2.123,3.774s.355,2.991.825,3.122,2.008-3.643,2.008-4.162,1.178-2.863.587-2.863a8.557,8.557,0,0,0-1.3.13" transform="translate(297.475 169.119)" fill="#4381b2"/>
        <path id="Trazado_1031841" data-name="Trazado 1031841" d="M228.3,114.221a2.08,2.08,0,0,0-1.855,1.759,17.4,17.4,0,0,1-.765,2.979,4.781,4.781,0,0,0,.473,4.162c.825,1.171.355,2.6,1.416,2.342s3.538-.652,3.774-.13,1.3,1.823.352,2.342,2.242,1.432,2.005,0-.944-3.774-1.887-4.034-2.712-1.168-2.83-2.081,1.416-3.122,1.416-4.42,0-3.124-1.18-2.994c-.306.033-.624.059-.92.077" transform="translate(297.122 177.67)" fill="#4381b2"/>
        <path id="Trazado_1031842" data-name="Trazado 1031842" d="M226.937,120.731c-1.423.642-4.483,4.293-3.422,4.293s4.6-3.9,4.838-4.293-1.09-.148-1.416,0" transform="translate(294.336 187.604)" fill="#4381b2"/>
        <path id="Trazado_1031843" data-name="Trazado 1031843" d="M234.014,121.422c.352-.13,1.887,1.041,1.769,1.951s.118,2.733-.118,3.643-.707-.78-1.3-.391.121.91-.116,1.823-.709.78-1.653.258-.825-2.342-1.769-2.73-2.594-.782-2.83.389-1.416,1.171-1.18.261,1.653-2.6,2.36-2.6,2.712.389,2.712-.133,1.535-1.3,1.535-1.3Z" transform="translate(298.938 188.994)" fill="#4381b2"/>
        <path id="Trazado_1031844" data-name="Trazado 1031844" d="M230.737,124.573c-2.242,2.081-6.016,5.724-7.666,7.026s-2.36,2.081-3.894,2.081-2.358.391-2.242,2.472,1.416,4.162,1.653,5.594,0,2.212,3.3,2.472,3.774,1.041,5.424,1.3,3.54.261,3.895-2.47.116-4.814,1.532-5.6,2.594-1.56,1.887-1.951-2.6-3.252-2.005-4.551,4.6-3.382,2.242-4.556-2.063-2.779-3.067-2.991c-.369-.077-1.062,1.171-1.062,1.171" transform="translate(285.937 192.087)" fill="#4381b2"/>
        <path id="Trazado_1031845" data-name="Trazado 1031845" d="M207.528,124.52c-1.062,0-2.478.261-.352,2.211a28.049,28.049,0,0,1,5.306,6.5c1.887,2.991,7.077,12.231,8.846,13.4s5.427,1.562,4.956-1.168,1.887-3.515.589-4.684a13.6,13.6,0,0,0-3.422-2.084c-1.414-.78-2.005-2.472-2.358-3.252s-4.961-3.538-6.488-5.724c-3.185-4.553-7.077-5.2-7.077-5.2" transform="translate(271.634 193.832)" fill="#4381b2"/>
        <path id="Trazado_1031846" data-name="Trazado 1031846" d="M235.747,129.935c1.532-.391,5.19-1.3,5.19.782s.589,4.29,1.651,4.032,2.36-1.693,3.067-2.342,3.422-.91,6.843.78,7.311,3.124,8.257,4.032,3.419,2.994,3.89,4.423a17.588,17.588,0,0,0,3.067,5.075c1.18,1.3,3.894,2.733,1.18,2.733s-5.9-3.252-7.666-4.553-1.887.128-3.656,1.041-6.843-.13-8.73-.13-1.769-1.82-.236-2.994c1.351-1.03-1.178-4.032-3.3-4.812s-5.663-1.69-6.841-2.081-1.653-1.041-1.416-1.692.707-1.432.589-1.951-4.365-1.171-3.892-1.56a7.633,7.633,0,0,1,2.005-.782" transform="translate(308.056 201.425)" fill="#4381b2"/>
        <path id="Trazado_1031847" data-name="Trazado 1031847" d="M274.057,137.353c1.361,1.1,1.062,5.594,2.478,6.634s2.712,3.513,3.185,6.246,3.183,5.331,5.188,7.672a74.915,74.915,0,0,1,6.607,9.628c1.178,2.212,3.419,8.716,1.178,13.921s-4.717,10.8-5.188,13.269-.591,3.252-3.185,3.771-5.19,1.432-8.139,1.432-7.432-2.342-9.555-6.765-1.887-5.985-3.067-4.942-2.358,4.942-4.126.649-6.725-8.588-13.448-4.684-5.309,3.774-8.26,4.162-5.306,0-7.9,1.953-6.488-.261-5.9-2.081.707-8.2-1.887-14.182-1.769-5.072-1.416-7.545-.352-4.293,1.889-5.594a64.4,64.4,0,0,1,9.435-4.032c2.715-.913,4.838-2.863,4.72-4.684s-.118-2.6,1.3-2.994,4.247-3.122,5.781-4.423a2.758,2.758,0,0,1,3.892.13c.707.78,1.651,2.211,2.242.78s1.532-4.551,3.54-5.2,10.142-1.041,9.789.391-2.6,3.771-2.126,4.684,6.373,5.983,7.2,6.113,3.419.782,3.3-3.122a46.364,46.364,0,0,1,.827-10.147c.352-.91,1.268-1.353,1.651-1.041" transform="translate(290.271 213.653)" fill="#4381b2"/>
        <path id="Trazado_1031848" data-name="Trazado 1031848" d="M245.59,163.917c-.869.11-.54,1.557-.237,2.46.7,2.081.8,4.556,2.005,4.556,1.653,0,4.247-2.084,3.774-4.426s-.943-1.82-2.594-1.82c-.851,0-1.9-.9-2.949-.77" transform="translate(322.986 255.138)" fill="#4381b2"/>
        <path id="Trazado_1031849" data-name="Trazado 1031849" d="M267.065,158.583c3.185,5.2,3.658,8.209,2.536,9.756-2.83,3.9,3.185,2.148,1.122,6.374a1,1,0,0,0,1.945.327c.83-1.623,1.219-4.139,2.654-5.269,1.65-1.3,2.891-4.293.531-4.553s-3.834.389-4.307-1.69a21.467,21.467,0,0,0-1.456-3.858,2,2,0,0,0-2.019-1.2s-2.049-1.6-1.006.11" transform="translate(351.64 245.631)" fill="#4381b2"/>
        <path id="Trazado_1031850" data-name="Trazado 1031850" d="M273.431,164.134a2.152,2.152,0,0,0-2.868,1.772c-.35,2.084-.876,4.188-2.123,4.359-1.887.261-4.717,4.162-5.424,4.945s-1.653,5.724,1.651,4.942,4.01-2.6,5.19-5.2,4.01-4.162,4.247-5.985.707-4.423-.237-4.684c-.13-.036-.278-.087-.436-.146" transform="translate(345.782 255.281)" fill="#4381b2"/>
        <path id="Trazado_1031851" data-name="Trazado 1031851" d="M176.768,139a.485.485,0,0,0-.816.041c-.79,1.291-1.3,3.8-3.136,5.146-2.123,1.562-4.954,1.171-5.309,4.1s0,4.293-.352,6.634-1.593,2.148-1.593,4.487.176,5.466,1.593,6.634,5.485,1.174,6.723-4.1,3.538-11.124,3.538-13.269,0-3.318.531-3.318.709-.488.176-3.122A7.924,7.924,0,0,0,176.768,139" transform="translate(218.234 216.054)" fill="#4381b2"/>
        <path id="Trazado_1031852" data-name="Trazado 1031852" d="M194.772,121.71c-.352,2.212-1.059,5.072-.118,6.246s3.422,2.212,3.422.128a8.628,8.628,0,0,0-1.062-4.553c-.589-.91-.707-2.342-1.3-2.212a2.708,2.708,0,0,0-.946.391" transform="translate(255.963 188.837)" fill="#4381b2"/>
        <path id="Trazado_1031853" data-name="Trazado 1031853" d="M139.727,92a1.7,1.7,0,0,0-1.18,2.081c.234,1.041.589,1.432,1.062,1.3s.825-1.951.825-2.472-.707-.91-.707-.91" transform="translate(182.555 143.218)" fill="#4381b2"/>
        <path id="Trazado_1031854" data-name="Trazado 1031854" d="M139.886,93.649c-.352,0-1.416.389-1.532,1.171a10.17,10.17,0,0,0,.237,3.771c.352.782,1.544,1.457,1.885-.128,1.18-5.466-.589-4.814-.589-4.814" transform="translate(182.277 145.739)" fill="#4381b2"/>
        <path id="Trazado_1031855" data-name="Trazado 1031855" d="M133.672,95.389c-.352.389.338,1.171,1.284,1.171s.589-1.577,0-1.708-1.284.537-1.284.537" transform="translate(176.076 147.624)" fill="#4381b2"/>
        <path id="Trazado_1031856" data-name="Trazado 1031856" d="M128.38,77.24a1.126,1.126,0,0,0-.644,1.455c.188.562.188,1.074-1.029,1.153-2.005.13-3.422-.13-3.067.649s1.414,3.122,1.3,4.3-2.005,5.072.116,4.812,4.131-2.472,5.072-2.472,1.889-2.081,1.653-4.293,1.532-3.771-.118-5.2a3.4,3.4,0,0,0-3.28-.4" transform="translate(162.902 119.861)" fill="#4381b2"/>
        <path id="Trazado_1031857" data-name="Trazado 1031857" d="M128.659,102.45c1.032.629,1.532-.91,2.594-.91s1.3-1.82,2.6-1.693,4.6.394,5.545,0,2.594-2.079,1.532-2.079-.473-.261.118-1.171,1.414-3.643.118-3.643a3.191,3.191,0,0,1-2.6-2.472c0-.78-2.005-2.863-2.242-4.293s-.118-2.472-1.414-3.382-.825-1.69-.236-3.382,1.062-3.252-1.18-3.252-2.005-.91-1.18-2.211.591-2.342-1.062-2.084S128.3,74.223,128.186,75s-.116,1.3-.589,1.692-1.18,1.951-.471,1.951.825.649.352,1.3-.352,1.562,0,1.562,1.532,1.171.473,1.171-1.887.652-.709,1.041a7.951,7.951,0,0,0,2.242.391s1.3.258.591.91-1.3,2.733-.12,2.6,2.36.652,2.126,1.171a1.719,1.719,0,0,0,.116,1.823c.473.649,0,.261-1.059.78s-.118,1.432-.355,2.861-.943.913-1.3,1.823-.825,1.041.707,1.432,3.067-.522.828,1.429-3.227,2.984-2.36,3.513" transform="translate(166.964 111.826)" fill="#4381b2"/>
        <path id="Trazado_1031858" data-name="Trazado 1031858" d="M132.422,64.985c-.236,1.69-.236,3.382-2.476,4.553s-5.663,5.2-6.961,4.684-2.594-1.56-3.656-1.82-4.01.261-3.892-.391,1.532-1.3,1.532-2.081.236-2.342-1.178-2.342-4.131-.913-2.242-1.171,3.537-.91,3.067-1.562-2.123-.258-2.715-.258-1.887.389-.944-1.562a11.143,11.143,0,0,1,2.36-3.643,1.977,1.977,0,0,1,2.358,1.432c.236,1.3,1.653,4.162,1.889,2.342s.707-2.991,1.18-1.953-.118,1.823.825.261,1.651-1.69,2.594-1.041,1.887,1.562,1.887.391.709-2.861,1.535-2.212a12.577,12.577,0,0,1,2.712,2.081,26.188,26.188,0,0,1,2.123,4.293" transform="translate(148.456 91.013)" fill="#4381b2"/>
        <path id="Trazado_1031859" data-name="Trazado 1031859" d="M220.57,135.247a11.969,11.969,0,0,0-5.072-1.562c-1.18.133-1.889,2.472.707,2.863s6.725,1.951,9.083,1.951,5.545.652,6.252.652,1.651-.391.118-1.3-4.836-.78-3.892-1.041,2.242-1.951-.473-1.693-4.6.391-5.427.391a2.87,2.87,0,0,1-1.3-.261" transform="translate(282.657 208.083)" fill="#4381b2"/>
        <path id="Trazado_1031860" data-name="Trazado 1031860" d="M225.027,135.579c-1.532.261-3.774,1.432-1.887,1.432s4.365.389,4.836-.649-2.949-.782-2.949-.782" transform="translate(293.18 211.003)" fill="#4381b2"/>
        <path id="Trazado_1031861" data-name="Trazado 1031861" d="M231.107,136.22c-1.65.519-2.83,1.041-2.83,1.951s1.18,2.081,2.005,1.041,5.543-2.6,5.19-3.252-4.365.261-4.365.261" transform="translate(300.901 211.273)" fill="#4381b2"/>
        <path id="Trazado_1031862" data-name="Trazado 1031862" d="M226.385,136.068c-.943.522-1.651,1.432.118,1.432s4.363.519,5.19-.261,2.123-2.861.355-2.081a21.189,21.189,0,0,1-5.663.91" transform="translate(297.13 210.123)" fill="#4381b2"/>
        <path id="Trazado_1031863" data-name="Trazado 1031863" d="M224.816,136.712c.355.522,2.008,1.82,2.715,1.693s.471-1.562-.591-1.953a2.716,2.716,0,0,0-2.123.261" transform="translate(296.339 212.212)" fill="#4381b2"/>
        <path id="Trazado_1031864" data-name="Trazado 1031864" d="M193.128,43.293c3.185-.974,13.448-7.414,9.2-10.733s-4.423,4.492-10.262,5.269S177.2,48.953,174.372,60.077,172.427,75.1,176.143,77.05s7.608,4.3,3.185-4.1,7.608-24.59,9.729-26.54a28.317,28.317,0,0,1,4.071-3.122" transform="translate(227.647 49.413)" fill="#4381b2"/>
        <path id="Trazado_1031865" data-name="Trazado 1031865" d="M206.706,15.253c-3.361,5.072-2.888,5.008-2.536,8.13s3.009,5.466,5.663,3.71,4.6-1.756,4.775-5.466-2.3-6.7-3.183-6.893a25.279,25.279,0,0,0-4.72.519" transform="translate(268.801 22.882)" fill="#4381b2"/>
        <path id="Trazado_1031866" data-name="Trazado 1031866" d="M214.143,23.608c-2.652,4.1-6.192,13.075-4.423,13.271s8.846-1.759,10.441-4.1-.178-9.95-2.3-9.95a9.277,9.277,0,0,0-3.716.78" transform="translate(275.813 35.535)" fill="#4381b2"/>
        <path id="Trazado_1031867" data-name="Trazado 1031867" d="M206.1,21.3c-.707,1.951-2.123,8.779.176,9.953s7.432,2.73,8.67,2.145.533-3.9,1.416-7.22.707-6.634-2.654-6.634A24.391,24.391,0,0,0,206.1,21.3" transform="translate(270.236 30.426)" fill="#4381b2"/>
        <path id="Trazado_1031868" data-name="Trazado 1031868" d="M243.591,35.208a2.934,2.934,0,0,0-4.365,2.071c-.76,3.316-.626,7.386,1.76,7.91,3.537.782,6.723-1.756,9.553-1.756s4.778-3.513,1.416-5.658-6.725-1.562-8.317-2.539l-.046-.028" transform="translate(314.791 54.154)" fill="#4381b2"/>
        <path id="Trazado_1031869" data-name="Trazado 1031869" d="M246.135,36.861c-1.217,2.777,2.83,5.855,5.663,5.855s4.954-1.368,3.183-2.93-5.482-.974-6.192-2.339-2.36-1.258-2.654-.585" transform="translate(324.148 56.627)" fill="#4381b2"/>
        <path id="Trazado_1031870" data-name="Trazado 1031870" d="M89.587,120.517c2.123,1.041,3.537,3.122,8.257,2.081s10.381,5.985,13.211,6.507,11.324,4.162,12.5,7.545,1.65,6.5,5.661,8.064,13.684,3.643,16.042,4.684,11.088,4.423,6.37,12.228-5.9,8.846-7.314,16.393-1.18,10.408-9.435,14.31-6.37,7.547-9.2,12.489-5.663,10.927-8.494,12.228-3.537,7.286-6.134,9.107-5.427-.261-7.077,3.9c-3.178,8.012-5.661,10.666-6.843,13.008s-3.3,2.6-2.121,5.464,1.651,4.162-.707,7.286-3.3,12.228-.946,14.309,7.077,5.983,2.6,6.5-16.514-3.122-16.985-13.008,1.651-34.085,4.481-44.493,8.964-36.424.236-42.149-12.268-18.735-13.918-20.295-1.416-6.5-1.416-8.066.471-6.5,2.36-7.805a10.477,10.477,0,0,0,3.774-8.846c-.473-3.643,3.067-6.765,4.247-8.066s3.3-4.162,6.134-4.162a13.469,13.469,0,0,1,4.717.78" transform="translate(90.086 186.387)" fill="#4381b2"/>
        <path id="Trazado_1031871" data-name="Trazado 1031871" d="M87.356,176.383a2.145,2.145,0,0,0-2.49.12,2.707,2.707,0,0,0-.895,2.567,4.856,4.856,0,0,0,6.588-.312,2.028,2.028,0,0,0,.677-1.82,1.657,1.657,0,0,0-1.7-1.048,8.638,8.638,0,0,1-2.084.051Z" transform="translate(110.623 273.796)" fill="#4381b2"/>
        <path id="Trazado_1031872" data-name="Trazado 1031872" d="M75.846,113.109a17.514,17.514,0,0,1,8.61,2.592c.169.1.362.271.318.478-.037.176-.225.251-.385.291a28.244,28.244,0,0,1-10.6.757c-.172-.55.385-1.071.909-1.145s1.064.092,1.581-.033.994-.777.7-1.263a2.535,2.535,0,0,1-1.249-.171,1.137,1.137,0,0,1-.644-1.1c.058-.463.614-.8.943-.5Z" transform="translate(97.224 175.75)" fill="#4381b2"/>
        <path id="Trazado_1031873" data-name="Trazado 1031873" d="M82.058,114.5a3.488,3.488,0,0,0-2.979.243.624.624,0,0,0-.345.389c-.065.32.269.55.545.665a2.9,2.9,0,0,0,2.388.23c.749-.378,1.048-1.731.327-2.163Z" transform="translate(103.771 177.243)" fill="#4381b2"/>
        <path id="Trazado_1031874" data-name="Trazado 1031874" d="M79.244,118.253a1.775,1.775,0,0,1-1.087-.476c-.359-.4-.385-1.043-.663-1.516-.605-1.023-1.973-.813-3.065-1.018a10.209,10.209,0,0,1-3.1-1.562,3.785,3.785,0,0,0-3.269-.616c-.744.3-1.755.915-2.154.158-.285-.542.211-1.222.753-1.409s1.145-.107,1.678-.325c.874-.353,1.477-1.45,2.409-1.465,1.015-.018,1.66,1.266,2.64,1.577a5.165,5.165,0,0,0,1.815-.031c1.613-.072,3.069.977,4.4,1.981l4.347,3.283a1.147,1.147,0,0,1,.345.348A.851.851,0,0,1,84,118.2a1.8,1.8,0,0,1-1.018.274,16.832,16.832,0,0,1-3.741-.217" transform="translate(86.769 171.27)" fill="#4381b2"/>
        <path id="Trazado_1031875" data-name="Trazado 1031875" d="M70.548,114.823a1.713,1.713,0,0,1,1.915-.634,1.979,1.979,0,0,1,1.229,1.739,2.86,2.86,0,0,1-3.167-.8Z" transform="translate(92.962 177.615)" fill="#4381b2"/>
        <path id="Trazado_1031876" data-name="Trazado 1031876" d="M166.033,249.875c-.155-2.321-4.643-3.707-5.7-2.649-2.851,2.835-7.55-2.084-6.37-5.466s1.653-7.545-2.123-7.545-7.311.522-6.37-2.6,5.663-9.1,2.833-9.1-4.01.258-6.843,3.122-10.615,5.464-12.031-2.084-1.178-16.391,1.416-16.91,4.954-2.863,8.964-1.82,3.3-1.3,4.954-1.823,7.787-2.081,9.437,1.562,2.594,10.145,4.01,10.145,4.01-4.684.471-10.666,9.437-11.709,10.144-14.309-.471-5.466,2.123-9.107,7.55-4.945,7.787-6.5,3.538-7.805,5.19-7.805,2.83,4.942,4.247,3.9,11.088-7.284,9.908-8.585-3.776-.519-6.134-1.041-2.833-3.643-2.36-5.464,2.123-4.684,3.774-4.684,4.247-.522,5.427-1.562,7.314-3.9,6.134-7.026-.943-4.162-3.774-6.243-8.73-10.666-10.381-15.872-3.3-7.805-4.01-3.641-4.01,7.542-5.9,2.6-3.067-8.588-5.663-10.147-2.594-2.6-5.663-3.122-5.9-3.122-5.659,1.3.943,10.147-.236,11.968,4.481,7.026,2.83,10.147-6.134,4.945-5.663,7.284,4.247,10.408-.707,8.588-2.36-8.588-3.537-10.147-7.55-1.041-9.437-3.382-7.55-6.243-10.381-8.846-4.245-7.547-.236-14.57,12.268-13.53,12.975-17.173,9.2-4.423,8.73-7.284,0-10.408-.944-11.188-4.954-6.765-6.607-1.3-2.594,12.489-4.483,9.365-2.121-10.666-4.952-11.968-5.427-7.284-5.427-10.927,3.067-5.985,4.01-9.367,2.594-5.464-1.653-6.765-5.424,1.562-5.9,6.246.236,8.064-.946,11.707,2.83,12.489,1.416,15.35-1.887,5.205-7.314,4.423-11.561-6.5-14.627-3.9-12.738,8.846-14.152,4.423S90.5,69.78,86.015,69.262s-8.73.78-10.144-.782-1.653-5.464-4.483-3.643-8.964,8.588-11.561,8.588S50.392,68.74,41.9,66.656s-15.1-9.626-21.939-4.942S10.522,69.78,6.041,72.381s0,7.286,1.651,9.889.943,3.9-2.36,5.464c-1.1.519-3.03-2.2-4.8-.005-1.414,1.756.155,5.814,2.675,6.509,3.774,1.041,14.864,2.081,9.674,4.945S4.389,106.2,4.861,110.367s1.651,7.028,4.717,6.767,3.067,2.861,5.19,3.641,7.784.782,4.481,4.423-17.9,13.087-17.1,14.179c1.416,1.953,23.946-13.918,24.89-16.26s5.661-7.023,8.257-7.805,4.717-2.861,10.851-.78S59.593,126.5,63.367,129.363s11.088,13.53,13.918,21.593,1.887,15.611,3.067,23.158,5.663,18.472,9.2,21.335,14.391,24.457,16.042,24.457.709-4.162-3.537-10.927-7.077-14.312-.471-4.684,12.031,15.35,12.738,18.213,11.324,13.008,16.751,13.527,16.985,3.643,17.458,5.724,8.491,9.628,10.378,9.889,1.968-2.526,3.141-2.651c1.37-.148,2.126,2.475,2.478,3.073a15.247,15.247,0,0,0,1.5-2.2" transform="translate(0 64.11)" fill="#4381b2"/>
        <path id="Trazado_1031877" data-name="Trazado 1031877" d="M87.162,85.358a9.965,9.965,0,0,0-1.845,5.18,2.737,2.737,0,0,0,.158,1.3c.589,1.278,2.286.882,3.584.974,1.555.112,2.893,1.186,4.265,2s3.1,1.4,4.444.519a11.4,11.4,0,0,0-1.27-4.326l-1.161-2.6c-.844-1.892-1.79-3.9-3.475-4.9S87.568,83.229,87.2,85.3Z" transform="translate(112.444 129.312)" fill="#4381b2"/>
        <path id="Trazado_1031878" data-name="Trazado 1031878" d="M243.343,41.067a5.372,5.372,0,0,1-1.727,3.114c-.225.192-.494.427-.457.739a.828.828,0,0,0,.461.555c1.794,1.127,3.806,2.3,5.821,1.8a4.029,4.029,0,0,0-.542-3.523,10.281,10.281,0,0,0-2.534-2.449c-.378-.286-1.087-.417-1.113.087Z" transform="translate(317.877 63.903)" fill="#4381b2"/>
        <path id="Trazado_1031879" data-name="Trazado 1031879" d="M166.93,45.675a13.346,13.346,0,0,0-3.109-10,16.381,16.381,0,0,1-1.836-2.153,15.838,15.838,0,0,1-1.294-3.431,15.3,15.3,0,0,0-8.619-9.439c-3.055-2.539-3.6,4.556-5.54,2.774-.658-.606-1.115-1.491-1.882-1.912-1.579-.867-3.366.678-4.4,2.247a5.652,5.652,0,0,0-1.182,3.462c.144,1.733,1.576,2.981,2.151,4.6.733,2.068-.019,4.428.357,6.609a12.322,12.322,0,0,0,1.646,3.917l4.286,7.593a16.7,16.7,0,0,0,3.2,4.129,9.049,9.049,0,0,0,1.516,1.148,1.477,1.477,0,0,0,2.135-1.363l.542-9.825c.086-1.524.2-3.155,1.328-4.224a1.786,1.786,0,0,1,2.3-.24c1.1.839.756,2.531.848,3.93.206,3.083,3.466,5.412,6.1,4.356a2.19,2.19,0,0,0,1.025-.747,3.024,3.024,0,0,0,.42-1.429" transform="translate(183.29 31.277)" fill="#4381b2"/>
        <path id="Trazado_1031880" data-name="Trazado 1031880" d="M154.752,31.438c2.04,1.24,4.541.839,6.839.407,1.428-1.787,2.341-4.515,1.178-6.522-.42-.726-1.018-3.232-1.66-3.722-3.762-2.884-8.093-2.953-12.576-4a4.424,4.424,0,0,0-2.638,4.387,21.041,21.041,0,0,0,1.059,4.1c1.382,1.657,2.158,1.659,3.54,3.316.758.91,3.278,1.437,4.258,2.033" transform="translate(192.253 27.398)" fill="#4381b2"/>
        <path id="Trazado_1031881" data-name="Trazado 1031881" d="M225.739,139.19c.294.752,1.224,1.26,1.8.744l-.007-3.1a1.9,1.9,0,0,1,.417-1.475,1.478,1.478,0,0,1,1.094-.21,1.6,1.6,0,0,1,.777.194c.471.307.566.992.814,1.529a1.708,1.708,0,0,0,1.806,1.082,1.393,1.393,0,0,0,.876-1.861c-.336-.662-1.145-.785-1.706-1.227a2.214,2.214,0,0,1-.6-2.452,2.076,2.076,0,0,0,2-.424c2.042-2-1.287-2.554-2.436-2.424-1.521.174-3.679.1-5.058.925-1.706,1.018-1.275,1.406-.688,2.973a7.73,7.73,0,0,1,.844,2.892c.044.959-.3,1.889.07,2.83" transform="translate(295.669 201.664)" fill="#4381b2"/>
        <path id="Trazado_1031882" data-name="Trazado 1031882" d="M234.449,130.1l-6.945.238a5.705,5.705,0,0,0-2.054.325c.037-1.468,1.555-2.355,2.886-2.419s2.677.363,3.98.069a7.112,7.112,0,0,1,2.346-.514c.8.1,1.542,1.158,1.041,1.846a1.512,1.512,0,0,1-1.254.455" transform="translate(297.175 198.918)" fill="#4381b2"/>
        <path id="Trazado_1031883" data-name="Trazado 1031883" d="M231.635,128.8c-.079.849-.158,1.7-.237,2.544a3.05,3.05,0,0,0,.1,1.457c.188.45.7.772,1.1.545.8-.46.021-2.038.64-2.766.334-.391.941-.358,1.263-.757a1.185,1.185,0,0,0-.023-1.324,2.967,2.967,0,0,0-1.022-.862,2.17,2.17,0,0,0-.953-.389,1.177,1.177,0,0,0-1.145.864,1.368,1.368,0,0,0,.457,1.445Z" transform="translate(304.888 198.074)" fill="#4381b2"/>
        <path id="Trazado_1031884" data-name="Trazado 1031884" d="M232,131.05c.158.631-.491,1.46-.028,1.877a.821.821,0,0,0,.42.159c.663.12,1.328.238,1.991.358.517.095,1.034.184,1.548.279a2.5,2.5,0,0,0,1.669-.089.7.7,0,0,0,.385-.777.768.768,0,0,0-.209-.279A6.174,6.174,0,0,0,232,131Z" transform="translate(305.542 203.634)" fill="#4381b2"/>
        <path id="Trazado_1031885" data-name="Trazado 1031885" d="M227.224,119.388a8.146,8.146,0,0,0,.134,4.323c.058.184.144.389.313.442a.5.5,0,0,0,.41-.118,3.31,3.31,0,0,0,.471-4.6c-.452-.5-1.407-.667-1.588.01Z" transform="translate(299.171 185.233)" fill="#4381b2"/>
        <path id="Trazado_1031886" data-name="Trazado 1031886" d="M230.365,118.833a6.116,6.116,0,0,1-.264,1.9c-.222.644-.626,1.194-.874,1.828a2.05,2.05,0,0,0,.1,1.956.538.538,0,0,0,.255.2c.2.056.4-.095.556-.251a5.663,5.663,0,0,0,1.342-5.384c-.593-.026-1.623-.711-1.783-.079-.114.447.663.588.828,1.012Z" transform="translate(301.89 184.819)" fill="#4381b2"/>
        <path id="Trazado_1031887" data-name="Trazado 1031887" d="M228.251,120.861a4.669,4.669,0,0,1-.3,1.345,2.086,2.086,0,0,0-.044,1.358c.174.422.7.683,1.034.4a7.713,7.713,0,0,1,.431-3.459.709.709,0,0,0-.8.141Z" transform="translate(300.287 187.471)" fill="#4381b2"/>
        <path id="Trazado_1031888" data-name="Trazado 1031888" d="M255.438,132.962a.638.638,0,0,1,.3.289c.123.291-.111.6-.327.821-1.593,1.583-3.493,3.071-5.635,3.05-.962-.01-2.13-.654-2.04-1.71a1.518,1.518,0,0,1,1.034-1.242,3.252,3.252,0,0,1,1.607-.031,3.5,3.5,0,0,0,1.419.064,1.215,1.215,0,0,0,.943-1.035s.737-.966,1.444-.821a3.154,3.154,0,0,1,1.256.616" transform="translate(326.543 205.991)" fill="#4381b2"/>
        <path id="Trazado_1031889" data-name="Trazado 1031889" d="M252.981,133.021c.039-.181-.234-.271-.355-.141a.723.723,0,0,0-.107.527c.067,1.058.225,2.283,1.055,2.812a5.965,5.965,0,0,0,2.694.954c1.956-.268-1.539-.9-1.117-2.7a.732.732,0,0,0-.181-.557,1,1,0,0,0-.5-.3Z" transform="translate(332.851 206.75)" fill="#4381b2"/>
        <path id="Trazado_1031890" data-name="Trazado 1031890" d="M249.779,130.925c1.37.828,3.848,2.342,4.024,2.925s-.132,1.562-.352,1.465,0-.243-.443-.974-3.273-2.344-3.361-2.83.132-.585.132-.585" transform="translate(329.042 203.802)" fill="#4381b2"/>
        <path id="Trazado_1031891" data-name="Trazado 1031891" d="M88.064,90.171c7.077-.782,8.846-6.637,14.155,9.365s9.555,19.515,9.555,26.929-4.6,18.344-2.476,25.369,13.091,30.051,16.983,27.709,6.016-18.341,9.91-22.245,7.43-12.88,14.509-14.831,16.276-4.684,16.985-16.782,4.245-37.467,1.769-55.42c-1.764-12.783,11.679-25.367,14.862-30.83s1.416-13.66-3.892-11.318-8.494,8.2-9.908,5.855-1.416-10.538-4.247-9.756-17.34,6.243-14.507,2.339,18.754-4.681,12.031-10.927-4.6-17.953-17.34-15.22S126.99,13.285,118.144,17.969,100.8,25.775,96.2,30.849,86.648,41.777,87.357,47.24s5.661,8.585-1.771,13.269S71.077,69.1,76.74,72.61s5.309,6.243,4.6,8.585,0,7.023,2.833,8.194,3.892.782,3.892.782" transform="translate(98.449 0.001)" fill="#4381b2"/>
        <path id="Trazado_1031892" data-name="Trazado 1031892" d="M65.065,42.1c-1.769,3.513-4.954,14.44-2.83,17.173s3.892,6.634,9.908,7.023,9.2-1.171,11.679,1.174S97.267,78.4,92.313,84.251s-15.077,14.706-7.077,12.88c10.262-2.342,15.219,10.927,18.4,9.756s4.247-6.634,1.416-12.1-2.478-11.709.355-8.194,11.676,3.9,3.537-5.855-6.37-14.442-9.908-17.564S89.13,53.42,86.3,50.3s-1.414-1.951-6.723-5.855-8.846-3.122-9.2-1.171-2.123-.391-3.185-.78a6.916,6.916,0,0,0-2.123-.391" transform="translate(81.105 64.85)" fill="#4381b2"/>
        <path id="Trazado_1031893" data-name="Trazado 1031893" d="M107.142,35.264c1.771-2.733,8.846-11.318,10.969-16s2.833-10.538-4.954-12.489S94.872,2.966,90.512,5.213c-5.309,2.73-24.065,13.269-24.065,16s0,7.026,1.771,10.147,3.183,7.805,9.553,6.246,11.324,1.951,3.892,3.51-16.278-1.951-17.34-6.634-6.016-6.243-6.723-.389-1.771,12.878.355,17.173,1.769,9.365,7.077,10.927,9.2,4.293,7.43,7.414-4.245,8.976-7.784,8.2-8.491-5.855-8.491-3.122,1.414,3.51,4.954,7.414-.709,9.365,2.476,10.927S85.558,98.1,85.91,95.365s3.54-10.538-3.185-10.147-13.093,3.513-13.448,0,1.416-7.805,6.37-6.243S88.034,80.537,88.388,77.8s-1.062-8.976,1.769-11.318,8.494-10.927,7.077-14.44,9.908-16.782,9.908-16.782" transform="translate(74.062 6.514)" fill="#4381b2"/>
        <path id="Trazado_1031894" data-name="Trazado 1031894" d="M37.838,40.232A3.187,3.187,0,0,0,34.883,43.1c-.563,3.881-1.824,10.613-.5,12.954,1.771,3.122,3.54,8.976,6.37,5.072s2.478-8.976,4.954-10.147,11.679-5.464,4.247-8.585a30.034,30.034,0,0,0-12.117-2.158" transform="translate(44.551 62.612)" fill="#4381b2"/>
        <path id="Trazado_1031895" data-name="Trazado 1031895" d="M40.261,49.187c-1.416,2.73-1.769,6.634-.355,7.026s.355,2.73.709,4.293,3.185,1.171,6.016,1.171,6.723,1.56,2.123,2.73S40.97,65.969,43.8,68.7s3.892,8.974,8.491,7.023,9.555-4.684,11.679-4.684,8.846,2.733,6.37-3.122-4.956-6.634-5.663-10.927.707-18.344-3.185-14.442-4.6,9.367-7.43,7.028-6.725-5.855-9.2-4.3a25.769,25.769,0,0,0-4.6,3.9" transform="translate(51.415 65.181)" fill="#4381b2"/>
        <path id="Trazado_1031896" data-name="Trazado 1031896" d="M43.671,30.84c-4.247,2.73-9.555,9.756-6.725,11.318s8.158-2.817,9.91-5.075c8.494-10.927-3.185-6.243-3.185-6.243" transform="translate(47.652 46.453)" fill="#4381b2"/>
        <path id="Trazado_1031897" data-name="Trazado 1031897" d="M43.1,35.505c-2.123,5.075-6.018,10.147-1.416,10.538s5.309,1.951,5.663,3.513,4.245-.391,7.784-1.562,7.077-.78,7.784-4.684-.707-5.852-3.185-8.976-4.954-.78-7.077,2.342-5.661.782-6.368-.78-3.185-.391-3.185-.391" transform="translate(52.113 51.152)" fill="#4381b2"/>
        <path id="Trazado_1031898" data-name="Trazado 1031898" d="M43.553,26.877a1.267,1.267,0,0,0-.188,1.365c.661,1.22,2.4,1.644,3.813,1.746,1.134.082,2.462.064,3.15-.933.872-1.263-.063-3.229-1.407-3.794a6.445,6.445,0,0,0-4.235.24Z" transform="translate(56.998 38.892)" fill="#4381b2"/>
        <path id="Trazado_1031899" data-name="Trazado 1031899" d="M72.885,61.705a1.1,1.1,0,0,0,1.229.248c1.131-.575,1.593-2.224,1.746-3.584.123-1.089.165-2.37-.707-3.083-1.106-.9-2.93-.1-3.5,1.168a6.558,6.558,0,0,0,.032,4.093Z" transform="translate(94.028 85.46)" fill="#4381b2"/>
        <path id="Trazado_1031900" data-name="Trazado 1031900" d="M66.431,60.332a1.417,1.417,0,0,0-.934,1.135c-.475,3.111-2.752,5.617-1.451,8.125,1.414,2.73,5.306,4.684,6.016,2.73s2.83-1.171,3.89-1.171,3.187-.389.709-4.293c-1.72-2.71-3.449-.974-6.023-6.044a1.454,1.454,0,0,0-1.785-.624Z" transform="translate(83.899 93.562)" fill="#4381b2"/>
        <path id="Trazado_1031901" data-name="Trazado 1031901" d="M54.638,44.052a1.546,1.546,0,0,0-.672,1.848c.533,1.526,1.08,2.406-.821,3.454-2.358,1.3-1.414,1.3.946,5.2s3.537,7.026,5.427,4.423,4.717-7.023,2.594-9.1.943-8.849-2.36-9.107c-2.177-.171-3.883,2.61-5.114,3.283" transform="translate(68.253 63.452)" fill="#4381b2"/>
        <path id="Trazado_1031902" data-name="Trazado 1031902" d="M48.915,23.973c.943,2.6,3.067,3.122,3.067,5.2s-3.3,3.643,1.178,5.724,7.314,6.5,7.787,4.162.707-6.765-.709-8.846-3.642-5.671-5.9-6.765c-5.9-2.861-5.424.522-5.424.522" transform="translate(64.465 34.717)" fill="#4381b2"/>
        <path id="Trazado_1031903" data-name="Trazado 1031903" d="M43.769,29.084c-1.18.522-.709,5.464,1.651,5.464S52.374,29.215,49.9,28.3a6.573,6.573,0,0,0-6.134.78" transform="translate(56.873 43.394)" fill="#4381b2"/>
        <path id="Trazado_1031904" data-name="Trazado 1031904" d="M50.538,33.883c1.18,2.6.707,8.585,2.83,8.585s2.36.782,3.54,2.342,5.188,2.6,5.188-3.382-1.178-9.107-3.3-8.324-5.663,2.6-6.134,1.82-2.123-1.041-2.123-1.041" transform="translate(66.616 51.345)" fill="#4381b2"/>
        <path id="Trazado_1031905" data-name="Trazado 1031905" d="M54.812,25.516c.709,1.82.473,8.064,3.3,8.064s4.247-4.681.943-7.023-4.247-1.041-4.247-1.041" transform="translate(72.25 39.157)" fill="#4381b2"/>
        <path id="Trazado_1031906" data-name="Trazado 1031906" d="M58.356,36.7c-2.123,2.342-2.594,4.942-.944,5.985s4.954,3.9,3.774-2.084-2.83-3.9-2.83-3.9" transform="translate(74.369 56.59)" fill="#4381b2"/>
      </g>
    </g>
  </g>
</svg>
