<svg xmlns="http://www.w3.org/2000/svg" xmlns:xlink="http://www.w3.org/1999/xlink" width="85.332" height="85.332" viewBox="0 0 85.332 85.332">
  <defs>
    <clipPath id="clip-path">
      <path id="path1044" d="M0-682.665H85.332v85.332H0Z" transform="translate(0 682.665)"/>
    </clipPath>
  </defs>
  <g id="g1038" transform="translate(0 682.665)">
    <g id="g1040" transform="translate(0 -682.665)">
      <g id="g1042" clip-path="url(#clip-path)">
        <g id="g1048" transform="translate(30.611 1.25)">
          <path id="path1050" d="M-148.93,0h-20.44a.835.835,0,0,0-.835.835V13.506a.835.835,0,0,0,.835.835h6.081a1.01,1.01,0,0,1,.811.408l2.417,3.259a1.133,1.133,0,0,0,1.82,0l2.417-3.259a1.01,1.01,0,0,1,.812-.408h6.081a.835.835,0,0,0,.835-.835V.835A.835.835,0,0,0-148.93,0" transform="translate(170.205)" fill="#b3dbf9"/>
        </g>
        <g id="g1052" transform="translate(3.97 43.16)">
          <path id="path1054" d="M0-5.853v33.4a1.672,1.672,0,0,0,1.672,1.672H46.953V-5.853a.836.836,0,0,0-.836-.836H.835A.836.836,0,0,0,0-5.853" transform="translate(0 6.689)" fill="#feec9a"/>
        </g>
        <g id="g1056" transform="translate(45.921 43.16)">
          <path id="path1058" d="M-29.167,0h-4.167A.836.836,0,0,1-32.5.836V35.907h4.167V.836A.836.836,0,0,0-29.167,0" transform="translate(33.333)" fill="#af9002"/>
        </g>
        <g id="g1060" transform="translate(3.97 71.42)">
          <path id="path1062" d="M0,0V5.975A1.672,1.672,0,0,0,1.672,7.647H46.953V0Z" fill="#ffe177"/>
        </g>
        <path id="path1064" d="M374.059-103.65h4.167V-111.3h-4.167Z" transform="translate(-327.302 182.717)" fill="#fec165"/>
        <g id="g1066" transform="translate(50.923 48.016)">
          <path id="path1068" d="M0,0H17.214A2.882,2.882,0,0,1,19.86,1.738l4.559,10.537,4.376,3.7a4.647,4.647,0,0,1,1.645,3.547v10.69a.836.836,0,0,1-.836.836H0Z" fill="#d9ecfc"/>
        </g>
        <g id="g1070" transform="translate(63.97 48.016)">
          <path id="path1072" d="M-110.231-111.847l-4.376-3.7-4.559-10.537a2.883,2.883,0,0,0-2.645-1.738h-4.167a2.883,2.883,0,0,1,2.646,1.738l4.559,10.537,4.376,3.7a4.647,4.647,0,0,1,1.645,3.548V-97.61a.836.836,0,0,1-.836.836h4.167a.836.836,0,0,0,.836-.836V-108.3a4.646,4.646,0,0,0-1.645-3.547" transform="translate(125.978 127.825)" fill="#b3dbf9"/>
        </g>
        <g id="g1074" transform="translate(65.5 53.184)">
          <path id="path1076" d="M-5.851-49.754H3.155L.08-56.861h-5.93a.836.836,0,0,0-.836.836v5.436a.836.836,0,0,0,.836.836" transform="translate(6.687 56.861)" fill="#3692bc"/>
        </g>
        <g id="g1078" transform="translate(68.1 53.184)">
          <path id="path1080" d="M-29.167,0h-4.167l3.075,7.108h4.167Z" transform="translate(33.333)" fill="#0681af"/>
        </g>
        <g id="g1082" transform="translate(55.761 53.184)">
          <path id="path1084" d="M-35.413-5.852V-.416a.836.836,0,0,1-.836.836h-3.387a.836.836,0,0,1-.836-.836V-5.852a.836.836,0,0,1,.836-.836h3.387a.836.836,0,0,1,.836.836" transform="translate(40.472 6.688)" fill="#3692bc"/>
        </g>
        <g id="g1086" transform="translate(58.951 68.629)">
          <path id="path1088" d="M-54.089-108.177a7.736,7.736,0,0,1-7.727-7.727,7.736,7.736,0,0,1,7.727-7.727,7.736,7.736,0,0,1,7.727,7.727,7.736,7.736,0,0,1-7.727,7.727" transform="translate(61.816 123.63)" fill="#a8aeb5"/>
        </g>
        <g id="g1090" transform="translate(63.966 73.644)">
          <path id="path1092" d="M-18.98,0a2.712,2.712,0,0,0-2.711,2.711A2.712,2.712,0,0,0-18.98,5.423a2.712,2.712,0,0,0,2.712-2.711A2.712,2.712,0,0,0-18.98,0" transform="translate(21.692)" fill="#fff9df"/>
        </g>
        <g id="g1094" transform="translate(12.956 68.629)">
          <path id="path1096" d="M-54.089-108.177a7.736,7.736,0,0,1-7.727-7.727,7.736,7.736,0,0,1,7.727-7.727,7.735,7.735,0,0,1,7.727,7.727,7.735,7.735,0,0,1-7.727,7.727" transform="translate(61.816 123.63)" fill="#a8aeb5"/>
        </g>
        <g id="g1098" transform="translate(17.972 73.644)">
          <path id="path1100" d="M-18.98,0a2.711,2.711,0,0,0-2.711,2.711A2.711,2.711,0,0,0-18.98,5.423a2.712,2.712,0,0,0,2.712-2.711A2.712,2.712,0,0,0-18.98,0" transform="translate(21.692)" fill="#fff9df"/>
        </g>
        <g id="g1102" transform="translate(3.762 24.603)">
          <path id="path1104" d="M-260.044-13.6h-28.942a4.5,4.5,0,0,0-3.7-1.943,4.5,4.5,0,0,0-4.5,4.5,4.5,4.5,0,0,0,4.5,4.5,4.5,4.5,0,0,0,3.7-1.944h28.942Z" transform="translate(297.193 15.548)" fill="#44a6f1"/>
        </g>
        <g id="g1106" transform="translate(37.096 24.603)">
          <path id="path1108" d="M-184.207-13.6h-18.109a4.5,4.5,0,0,0-3.7-1.943,4.5,4.5,0,0,0-4.5,4.5,4.5,4.5,0,0,0,4.5,4.5,4.5,4.5,0,0,0,3.7-1.944h18.109Z" transform="translate(210.522 15.548)" fill="#ffe177"/>
        </g>
        <g id="g1110" transform="translate(62.338 19.488)">
          <path id="path1112" d="M-67.315-88.642a3.047,3.047,0,0,1-3.047-3.047,3.047,3.047,0,0,1,3.047-3.047,3.047,3.047,0,0,1,3.047,3.047,3.047,3.047,0,0,1-3.047,3.047m0-12.663a9.616,9.616,0,0,0-9.616,9.616c0,5.936,6.578,10.911,8.853,12.454a1.358,1.358,0,0,0,1.526,0c2.275-1.543,8.853-6.518,8.853-12.454a9.616,9.616,0,0,0-9.616-9.616" transform="translate(76.932 101.305)" fill="#a8aeb5"/>
        </g>
        <g id="g1114" transform="translate(69.954 19.488)">
          <path id="path1116" d="M-14,0a9.641,9.641,0,0,0-2,.21A9.619,9.619,0,0,1-8.382,9.616c0,5.071-4.8,9.439-7.616,11.567.481.363.9.662,1.237.887a1.358,1.358,0,0,0,1.526,0c2.275-1.543,8.853-6.518,8.853-12.454A9.616,9.616,0,0,0-14,0" transform="translate(15.999)" fill="#66757e"/>
        </g>
        <g id="g1118" transform="translate(27.918 79.067)">
          <path id="path1120" d="M-59.488,0h-8.5" transform="translate(67.987)" fill="none" stroke="#000" stroke-linecap="round" stroke-linejoin="round" stroke-miterlimit="10" stroke-width="1"/>
        </g>
        <g id="g1122" transform="translate(3.97 43.16)">
          <path id="path1124" d="M-66.351-251.355h-7.807a1.672,1.672,0,0,1-1.672-1.672v-33.4a.836.836,0,0,1,.835-.836h7.6" transform="translate(75.829 287.262)" fill="none" stroke="#000" stroke-linecap="round" stroke-linejoin="round" stroke-miterlimit="10" stroke-width="1"/>
        </g>
        <g id="g1126" transform="translate(18.191 43.16)">
          <path id="path1128" d="M-168.093-251.355h8.719v-35.071a.836.836,0,0,0-.836-.836h-31.9" transform="translate(192.106 287.262)" fill="none" stroke="#000" stroke-linecap="round" stroke-linejoin="round" stroke-miterlimit="10" stroke-width="1"/>
        </g>
        <g id="g1130" transform="translate(3.97 71.42)">
          <path id="path1132" d="M-75.416,0H-86.189" transform="translate(86.189)" fill="none" stroke="#000" stroke-linecap="round" stroke-linejoin="round" stroke-miterlimit="10" stroke-width="1"/>
        </g>
        <g id="g1134" transform="translate(26.623 71.42)">
          <path id="path1136" d="M-170.1,0h-24.3" transform="translate(194.404)" fill="none" stroke="#000" stroke-linecap="round" stroke-linejoin="round" stroke-miterlimit="10" stroke-width="1"/>
        </g>
        <g id="g1138" transform="translate(50.923 79.067)">
          <path id="path1140" d="M-59.636,0h-8.519" transform="translate(68.156)" fill="none" stroke="#000" stroke-linecap="round" stroke-linejoin="round" stroke-miterlimit="10" stroke-width="1"/>
        </g>
        <g id="g1142" transform="translate(50.923 48.016)">
          <path id="path1144" d="M0,0H17.214A2.884,2.884,0,0,1,19.86,1.738l4.559,10.537,4.376,3.7a4.648,4.648,0,0,1,1.645,3.547v10.69a.836.836,0,0,1-.836.836H22.989" fill="none" stroke="#000" stroke-linecap="round" stroke-linejoin="round" stroke-miterlimit="10" stroke-width="1"/>
        </g>
        <g id="g1146" transform="translate(65.5 53.184)">
          <path id="path1148" d="M-47.364,0h-5.93a.836.836,0,0,0-.836.836V6.272a.836.836,0,0,0,.836.836h9.006" transform="translate(54.131)" fill="none" stroke="#000" stroke-linecap="round" stroke-linejoin="round" stroke-miterlimit="10" stroke-width="1"/>
        </g>
        <g id="g1150" transform="translate(55.761 53.184)">
          <path id="path1152" d="M-35.413-5.852V-.416a.836.836,0,0,1-.836.836h-3.387a.836.836,0,0,1-.836-.836V-5.852a.836.836,0,0,1,.836-.836h3.387A.836.836,0,0,1-35.413-5.852Z" transform="translate(40.472 6.688)" fill="none" stroke="#000" stroke-linecap="round" stroke-linejoin="round" stroke-miterlimit="10" stroke-width="1"/>
        </g>
        <g id="g1154" transform="translate(58.951 68.629)">
          <path id="path1156" d="M-54.089-108.177a7.736,7.736,0,0,1-7.727-7.727,7.736,7.736,0,0,1,7.727-7.727,7.736,7.736,0,0,1,7.727,7.727A7.736,7.736,0,0,1-54.089-108.177Z" transform="translate(61.816 123.63)" fill="none" stroke="#000" stroke-linecap="round" stroke-linejoin="round" stroke-miterlimit="10" stroke-width="1"/>
        </g>
        <g id="g1158" transform="translate(63.966 73.644)">
          <path id="path1160" d="M-18.98,0a2.712,2.712,0,0,0-2.711,2.711A2.712,2.712,0,0,0-18.98,5.423a2.712,2.712,0,0,0,2.712-2.711A2.712,2.712,0,0,0-18.98,0Z" transform="translate(21.692)" fill="none" stroke="#000" stroke-linecap="round" stroke-linejoin="round" stroke-miterlimit="10" stroke-width="1"/>
        </g>
        <g id="g1162" transform="translate(12.956 68.629)">
          <path id="path1164" d="M-54.089-108.177a7.736,7.736,0,0,1-7.727-7.727,7.736,7.736,0,0,1,7.727-7.727,7.735,7.735,0,0,1,7.727,7.727A7.735,7.735,0,0,1-54.089-108.177Z" transform="translate(61.816 123.63)" fill="none" stroke="#000" stroke-linecap="round" stroke-linejoin="round" stroke-miterlimit="10" stroke-width="1"/>
        </g>
        <g id="g1166" transform="translate(17.972 73.644)">
          <path id="path1168" d="M-18.98,0a2.711,2.711,0,0,0-2.711,2.711A2.711,2.711,0,0,0-18.98,5.423a2.712,2.712,0,0,0,2.712-2.711A2.712,2.712,0,0,0-18.98,0Z" transform="translate(21.692)" fill="none" stroke="#000" stroke-linecap="round" stroke-linejoin="round" stroke-miterlimit="10" stroke-width="1"/>
        </g>
        <g id="g1170" transform="translate(3.762 24.603)">
          <path id="path1172" d="M-238.931-49.42h-25.926a4.5,4.5,0,0,1-3.7,1.944,4.5,4.5,0,0,1-4.5-4.5,4.5,4.5,0,0,1,4.5-4.5,4.493,4.493,0,0,1,3.7,1.943h25.926" transform="translate(273.063 56.48)" fill="none" stroke="#000" stroke-linecap="round" stroke-linejoin="round" stroke-miterlimit="10" stroke-width="1"/>
        </g>
        <g id="g1174" transform="translate(37.096 24.603)">
          <path id="path1176" d="M-179.108-13.6h-17.38a4.5,4.5,0,0,0-3.7-1.943,4.5,4.5,0,0,0-4.5,4.5,4.5,4.5,0,0,0,4.5,4.5,4.5,4.5,0,0,0,3.7-1.944h17.432" transform="translate(204.694 15.548)" fill="none" stroke="#000" stroke-linecap="round" stroke-linejoin="round" stroke-miterlimit="10" stroke-width="1"/>
        </g>
        <g id="g1178" transform="translate(62.338 19.488)">
          <path id="path1180" d="M-67.315-88.642a3.047,3.047,0,0,1-3.047-3.047,3.047,3.047,0,0,1,3.047-3.047,3.047,3.047,0,0,1,3.047,3.047A3.047,3.047,0,0,1-67.315-88.642Zm0-12.663a9.616,9.616,0,0,0-9.616,9.616c0,5.936,6.578,10.911,8.853,12.454a1.358,1.358,0,0,0,1.526,0c2.275-1.543,8.853-6.518,8.853-12.454a9.616,9.616,0,0,0-9.616-9.616Z" transform="translate(76.932 101.305)" fill="none" stroke="#000" stroke-linecap="round" stroke-linejoin="round" stroke-miterlimit="10" stroke-width="1"/>
        </g>
        <g id="g1182" transform="translate(30.611 1.25)">
          <path id="path1184" d="M-148.93,0h-20.44a.835.835,0,0,0-.835.835V13.506a.835.835,0,0,0,.835.835h6.081a1.01,1.01,0,0,1,.811.408l2.417,3.259a1.133,1.133,0,0,0,1.82,0l2.417-3.259a1.01,1.01,0,0,1,.812-.408h6.081a.835.835,0,0,0,.835-.835V.835A.835.835,0,0,0-148.93,0Z" transform="translate(170.205)" fill="none" stroke="#000" stroke-linecap="round" stroke-linejoin="round" stroke-miterlimit="10" stroke-width="1"/>
        </g>
        <g id="g1186" transform="translate(37.271 5.961)">
          <path id="path1188" d="M0,0H5.457" fill="none" stroke="#000" stroke-linecap="round" stroke-linejoin="round" stroke-miterlimit="10" stroke-width="1"/>
        </g>
        <g id="g1190" transform="translate(37.271 10.71)">
          <path id="path1192" d="M0,0H8.791" fill="none" stroke="#000" stroke-linecap="round" stroke-linejoin="round" stroke-miterlimit="10" stroke-width="1"/>
        </g>
      </g>
    </g>
  </g>
</svg>
