<svg xmlns="http://www.w3.org/2000/svg" xmlns:xlink="http://www.w3.org/1999/xlink" width="96" height="95" viewBox="0 0 96 95">
  <defs>
    <linearGradient id="linear-gradient" x1="0.5" x2="0.5" y2="1" gradientUnits="objectBoundingBox">
      <stop offset="0" stop-color="#fff"/>
      <stop offset="1" stop-color="#e9e9e9"/>
    </linearGradient>
    <filter id="Elipse_7662" x="0" y="0" width="96" height="95" filterUnits="userSpaceOnUse">
      <feOffset dy="3" input="SourceAlpha"/>
      <feGaussianBlur stdDeviation="3" result="blur"/>
      <feFlood flood-opacity="0.161"/>
      <feComposite operator="in" in2="blur"/>
      <feComposite in="SourceGraphic"/>
    </filter>
  </defs>
  <g id="Grupo_1173063" data-name="Grupo 1173063" transform="translate(-813.757 -1475)">
    <g transform="matrix(1, 0, 0, 1, 813.76, 1475)" filter="url(#Elipse_7662)">
      <ellipse id="Elipse_7662-2" data-name="Elipse 7662" cx="39" cy="38.5" rx="39" ry="38.5" transform="translate(9 6)" fill="url(#linear-gradient)"/>
    </g>
    <g id="Grupo_1172764" data-name="Grupo 1172764" transform="translate(833.685 1491.43)">
      <g id="Grupo_1172740" data-name="Grupo 1172740" transform="translate(5.029 5.01)">
        <g id="Grupo_1172719" data-name="Grupo 1172719" transform="translate(18.085 5.543)">
          <path id="Trazado_1036231" data-name="Trazado 1036231" d="M30.12,12.7h2.941V41.249H30.12Z" transform="translate(-30.12 -12.7)" fill="#dce6eb"/>
        </g>
        <g id="Grupo_1172720" data-name="Grupo 1172720" transform="translate(17.544 5.002)">
          <path id="Trazado_1036232" data-name="Trazado 1036232" d="M32.851,41.58H29.911a.545.545,0,0,1-.541-.541V12.491a.545.545,0,0,1,.541-.541h2.941a.545.545,0,0,1,.541.541V41.04A.54.54,0,0,1,32.851,41.58Zm-2.4-1.081h1.86V13.031h-1.86Z" transform="translate(-29.37 -11.95)"/>
        </g>
        <g id="Grupo_1172721" data-name="Grupo 1172721" transform="translate(2.819 4.281)">
          <path id="Trazado_1036233" data-name="Trazado 1036233" d="M8.94,10.95H42.419v2.638H8.94Z" transform="translate(-8.94 -10.95)" fill="#dce6eb"/>
        </g>
        <g id="Grupo_1172722" data-name="Grupo 1172722" transform="translate(2.278 3.741)">
          <path id="Trazado_1036234" data-name="Trazado 1036234" d="M42.21,13.919H8.731a.545.545,0,0,1-.541-.541V10.741a.545.545,0,0,1,.541-.541H42.21a.545.545,0,0,1,.541.541v2.638A.545.545,0,0,1,42.21,13.919ZM9.271,12.838h32.4V11.281H9.271Z" transform="translate(-8.19 -10.2)"/>
        </g>
        <g id="Grupo_1172727" data-name="Grupo 1172727" transform="translate(27.483 6.546)">
          <g id="Grupo_1172723" data-name="Grupo 1172723">
            <path id="Trazado_1036235" data-name="Trazado 1036235" d="M55.276,29.919H43.7a.532.532,0,0,1-.447-.238.548.548,0,0,1-.058-.5L48.983,14.4a.567.567,0,0,1,1.009,0L55.78,29.176a.548.548,0,0,1-.058.5A.532.532,0,0,1,55.276,29.919ZM44.493,28.837h9.99l-4.995-12.75Z" transform="translate(-43.159 -14.092)"/>
          </g>
          <g id="Grupo_1172724" data-name="Grupo 1172724" transform="translate(0.541 15.285)">
            <path id="Trazado_1036236" data-name="Trazado 1036236" d="M55.485,35.3a5.794,5.794,0,1,1-11.575,0Z" transform="translate(-43.91 -35.3)" fill="#6dc54a"/>
          </g>
          <g id="Grupo_1172725" data-name="Grupo 1172725" transform="translate(6.192 15.285)">
            <path id="Trazado_1036237" data-name="Trazado 1036237" d="M51.75,35.3v6.047A5.682,5.682,0,0,0,57.675,35.3Z" transform="translate(-51.75 -35.3)" fill="#63b23f"/>
          </g>
          <g id="Grupo_1172726" data-name="Grupo 1172726" transform="translate(0.001 14.752)">
            <path id="Trazado_1036238" data-name="Trazado 1036238" d="M49.488,41.7a6.35,6.35,0,0,1-4.346-1.658A6.522,6.522,0,0,1,43.16,35.1a.541.541,0,0,1,.541-.541H55.276a.545.545,0,0,1,.541.541A6.249,6.249,0,0,1,49.488,41.7Zm-5.225-6.062a5.092,5.092,0,0,0,5.225,4.973,5.1,5.1,0,0,0,5.225-4.973Z" transform="translate(-43.16 -34.56)"/>
          </g>
        </g>
        <g id="Grupo_1172732" data-name="Grupo 1172732" transform="translate(0 6.546)">
          <g id="Grupo_1172728" data-name="Grupo 1172728">
            <path id="Trazado_1036239" data-name="Trazado 1036239" d="M17.153,29.919H5.57a.532.532,0,0,1-.447-.238.548.548,0,0,1-.058-.5L10.853,14.4a.567.567,0,0,1,1.009,0L17.65,29.176a.548.548,0,0,1-.058.5A.529.529,0,0,1,17.153,29.919ZM6.363,28.837h9.99l-4.995-12.75Z" transform="translate(-5.029 -14.092)"/>
          </g>
          <g id="Grupo_1172729" data-name="Grupo 1172729" transform="translate(0.549 15.285)">
            <path id="Trazado_1036240" data-name="Trazado 1036240" d="M17.365,35.3a5.794,5.794,0,1,1-11.575,0Z" transform="translate(-5.79 -35.3)" fill="#2f73a8"/>
          </g>
          <g id="Grupo_1172730" data-name="Grupo 1172730" transform="translate(6.192 15.285)">
            <path id="Trazado_1036241" data-name="Trazado 1036241" d="M13.62,35.3v6.047A5.682,5.682,0,0,0,19.545,35.3Z" transform="translate(-13.62 -35.3)" fill="#215278"/>
          </g>
          <g id="Grupo_1172731" data-name="Grupo 1172731" transform="translate(0.008 14.752)">
            <path id="Trazado_1036242" data-name="Trazado 1036242" d="M11.368,41.7a6.35,6.35,0,0,1-4.346-1.658A6.522,6.522,0,0,1,5.04,35.1a.541.541,0,0,1,.541-.541H17.156a.545.545,0,0,1,.541.541A6.257,6.257,0,0,1,11.368,41.7ZM6.136,35.634a5.323,5.323,0,0,0,1.614,3.6,5.291,5.291,0,0,0,3.611,1.369,5.1,5.1,0,0,0,5.225-4.973Z" transform="translate(-5.04 -34.56)"/>
          </g>
        </g>
        <g id="Grupo_1172733" data-name="Grupo 1172733" transform="translate(11.273 31.944)">
          <path id="Trazado_1036243" data-name="Trazado 1036243" d="M37.233,54.736a9.046,9.046,0,0,0-16.563,0Z" transform="translate(-20.67 -49.33)" fill="#af9002"/>
        </g>
        <g id="Grupo_1172734" data-name="Grupo 1172734" transform="translate(20.081 31.98)">
          <path id="Trazado_1036244" data-name="Trazado 1036244" d="M32.89,54.75h7.755a9.047,9.047,0,0,0-7.755-5.37Z" transform="translate(-32.89 -49.38)" fill="#7d6701"/>
        </g>
        <g id="Grupo_1172735" data-name="Grupo 1172735" transform="translate(10.731 31.403)">
          <path id="Trazado_1036245" data-name="Trazado 1036245" d="M37.023,55.067H20.46a.551.551,0,0,1-.454-.245.539.539,0,0,1-.043-.512,9.584,9.584,0,0,1,17.55,0,.539.539,0,0,1-.043.512A.52.52,0,0,1,37.023,55.067ZM21.339,53.986H36.151a8.5,8.5,0,0,0-14.812,0Z" transform="translate(-19.918 -48.58)"/>
        </g>
        <g id="Grupo_1172736" data-name="Grupo 1172736" transform="translate(0.541 37.033)">
          <path id="Trazado_1036246" data-name="Trazado 1036246" d="M5.78,56.39H44.838v2.559H5.78Z" transform="translate(-5.78 -56.39)" fill="#fcd004"/>
        </g>
        <g id="Grupo_1172737" data-name="Grupo 1172737" transform="translate(0.001 36.492)">
          <path id="Trazado_1036247" data-name="Trazado 1036247" d="M44.628,59.28H5.571a.545.545,0,0,1-.541-.541V56.181a.545.545,0,0,1,.541-.541H44.628a.545.545,0,0,1,.541.541v2.559A.535.535,0,0,1,44.628,59.28ZM6.111,58.2H44.088V56.721H6.111Z" transform="translate(-5.03 -55.64)"/>
        </g>
        <g id="Grupo_1172738" data-name="Grupo 1172738" transform="translate(17.688 0.533)">
          <path id="Trazado_1036248" data-name="Trazado 1036248" d="M33.318,7.617A1.874,1.874,0,1,1,31.444,5.75,1.875,1.875,0,0,1,33.318,7.617Z" transform="translate(-29.57 -5.75)" fill="#dce6eb"/>
        </g>
        <g id="Grupo_1172739" data-name="Grupo 1172739" transform="translate(17.14)">
          <path id="Trazado_1036249" data-name="Trazado 1036249" d="M31.225,9.832a2.411,2.411,0,1,1,2.415-2.415A2.415,2.415,0,0,1,31.225,9.832Zm0-3.748A1.33,1.33,0,1,0,32.558,7.41,1.333,1.333,0,0,0,31.225,6.084Z" transform="translate(-28.81 -5.01)"/>
        </g>
      </g>
      <g id="Grupo_1172763" data-name="Grupo 1172763" transform="translate(29.096 15.144)">
        <g id="Grupo_1172741" data-name="Grupo 1172741" transform="translate(1.031 6.17)">
          <path id="Trazado_1036250" data-name="Trazado 1036250" d="M57.689,35.227H53.725a3.011,3.011,0,0,1-3.013-3.013,1.784,1.784,0,0,1,1.78-1.78h5.1a2.707,2.707,0,0,1,2.71,2.71v2.962a3.468,3.468,0,0,1-1.607,2.926l-1.939,1.232a3.459,3.459,0,0,0-1.607,2.926v.959H41.9v-1.2A3.966,3.966,0,0,0,40.873,40.3a3.966,3.966,0,0,1-1.023-2.652V27.63H51.685" transform="translate(-39.85 -27.63)" fill="#f2bb88"/>
        </g>
        <g id="Grupo_1172742" data-name="Grupo 1172742" transform="translate(10.71 6.17)">
          <path id="Trazado_1036251" data-name="Trazado 1036251" d="M61.331,30.434H57.648l-2.213-2.8H53.28V44.15H58.9v-.959a3.468,3.468,0,0,1,1.607-2.926l1.939-1.232a3.459,3.459,0,0,0,1.607-2.926V33.144A2.724,2.724,0,0,0,61.331,30.434Z" transform="translate(-53.28 -27.63)" fill="#dda678"/>
        </g>
        <g id="Grupo_1172743" data-name="Grupo 1172743" transform="translate(1.038 2.227)">
          <path id="Trazado_1036252" data-name="Trazado 1036252" d="M44,24.229v4.584a2.069,2.069,0,0,1-4.137,0V24.229a2.069,2.069,0,0,1,4.137,0Z" transform="translate(-39.86 -22.16)" fill="#f2bb88"/>
        </g>
        <g id="Grupo_1172744" data-name="Grupo 1172744" transform="translate(3.38 2.256)">
          <path id="Trazado_1036253" data-name="Trazado 1036253" d="M43.11,22.2v8.664a2.067,2.067,0,0,0,1.795-2.04V24.24A2.056,2.056,0,0,0,43.11,22.2Z" transform="translate(-43.11 -22.2)" fill="#dda678"/>
        </g>
        <g id="Grupo_1172745" data-name="Grupo 1172745" transform="translate(5.175 0.541)">
          <path id="Trazado_1036254" data-name="Trazado 1036254" d="M49.737,21.889v6.271a2.069,2.069,0,0,1-4.137,0V21.889a2.069,2.069,0,0,1,4.137,0Z" transform="translate(-45.6 -19.82)" fill="#f2bb88"/>
        </g>
        <g id="Grupo_1172746" data-name="Grupo 1172746" transform="translate(7.381 0.555)">
          <path id="Trazado_1036255" data-name="Trazado 1036255" d="M48.66,19.84V30.219a2.059,2.059,0,0,0,1.932-2.054V21.894A2.06,2.06,0,0,0,48.66,19.84Z" transform="translate(-48.66 -19.84)" fill="#dda678"/>
        </g>
        <g id="Grupo_1172747" data-name="Grupo 1172747" transform="translate(9.312 0.923)">
          <path id="Trazado_1036256" data-name="Trazado 1036256" d="M55.477,22.419v5.889a2.069,2.069,0,0,1-4.137,0V22.419a2.069,2.069,0,1,1,4.137,0Z" transform="translate(-51.34 -20.35)" fill="#f2bb88"/>
        </g>
        <g id="Grupo_1172748" data-name="Grupo 1172748" transform="translate(11.381 0.923)">
          <path id="Trazado_1036257" data-name="Trazado 1036257" d="M54.21,20.35V30.376a2.069,2.069,0,0,0,2.069-2.069V22.419A2.069,2.069,0,0,0,54.21,20.35Z" transform="translate(-54.21 -20.35)" fill="#dda678"/>
        </g>
        <g id="Grupo_1172749" data-name="Grupo 1172749" transform="translate(13.449 2.227)">
          <path id="Trazado_1036258" data-name="Trazado 1036258" d="M61.217,24.229v4.584a2.069,2.069,0,1,1-4.137,0V24.229a2.069,2.069,0,0,1,4.137,0Z" transform="translate(-57.08 -22.16)" fill="#f2bb88"/>
        </g>
        <g id="Grupo_1172750" data-name="Grupo 1172750" transform="translate(15.691 2.242)">
          <path id="Trazado_1036259" data-name="Trazado 1036259" d="M60.19,22.18v8.685a2.065,2.065,0,0,0,1.9-2.054V24.227a2.068,2.068,0,0,0-1.9-2.047Z" transform="translate(-60.19 -22.18)" fill="#dda678"/>
        </g>
        <g id="Grupo_1172751" data-name="Grupo 1172751" transform="translate(0.497 1.687)">
          <path id="Trazado_1036260" data-name="Trazado 1036260" d="M41.719,31.212A2.608,2.608,0,0,1,39.11,28.6V24.019a2.609,2.609,0,1,1,5.218,0V28.6A2.618,2.618,0,0,1,41.719,31.212Zm0-8.721a1.529,1.529,0,0,0-1.528,1.528V28.6a1.528,1.528,0,0,0,3.056,0V24.019a1.529,1.529,0,0,0-1.528-1.528Z" transform="translate(-39.11 -21.41)"/>
        </g>
        <g id="Grupo_1172752" data-name="Grupo 1172752" transform="translate(4.634)">
          <path id="Trazado_1036261" data-name="Trazado 1036261" d="M47.459,30.559A2.608,2.608,0,0,1,44.85,27.95V21.679a2.609,2.609,0,0,1,5.218,0V27.95A2.618,2.618,0,0,1,47.459,30.559Zm0-10.408a1.529,1.529,0,0,0-1.528,1.528V27.95a1.528,1.528,0,1,0,3.056,0V21.679A1.529,1.529,0,0,0,47.459,20.151Z" transform="translate(-44.85 -19.07)"/>
        </g>
        <g id="Grupo_1172753" data-name="Grupo 1172753" transform="translate(8.772 0.382)">
          <path id="Trazado_1036262" data-name="Trazado 1036262" d="M53.2,30.707A2.608,2.608,0,0,1,50.59,28.1V22.209a2.609,2.609,0,1,1,5.218,0V28.1A2.613,2.613,0,0,1,53.2,30.707Zm0-10.026a1.529,1.529,0,0,0-1.528,1.528V28.1a1.528,1.528,0,1,0,3.056,0V22.209A1.529,1.529,0,0,0,53.2,20.681Z" transform="translate(-50.59 -19.6)"/>
        </g>
        <g id="Grupo_1172754" data-name="Grupo 1172754" transform="translate(12.909 1.687)">
          <path id="Trazado_1036263" data-name="Trazado 1036263" d="M58.939,31.212A2.608,2.608,0,0,1,56.33,28.6V24.019a2.609,2.609,0,1,1,5.218,0V28.6A2.613,2.613,0,0,1,58.939,31.212Zm0-8.721a1.529,1.529,0,0,0-1.528,1.528V28.6a1.528,1.528,0,0,0,3.056,0V24.019a1.529,1.529,0,0,0-1.528-1.528Z" transform="translate(-56.33 -21.41)"/>
        </g>
        <g id="Grupo_1172755" data-name="Grupo 1172755" transform="translate(11.893 8.973)">
          <path id="Trazado_1036264" data-name="Trazado 1036264" d="M61.9,36.313H57.933A3.011,3.011,0,0,1,54.92,33.3a1.784,1.784,0,0,1,1.78-1.78h5.1" transform="translate(-54.92 -31.52)" fill="#dda678"/>
        </g>
        <g id="Grupo_1172756" data-name="Grupo 1172756" transform="translate(0.497 8.433)">
          <path id="Trazado_1036265" data-name="Trazado 1036265" d="M54.945,45.56H41.69a.545.545,0,0,1-.541-.541v-1.2a3.394,3.394,0,0,0-.879-2.285,4.477,4.477,0,0,1-1.16-3.013V31.311a.541.541,0,1,1,1.081,0v7.222a3.381,3.381,0,0,0,.879,2.285,4.477,4.477,0,0,1,1.16,3.013v.656H54.4v-.418a3.993,3.993,0,0,1,1.852-3.38L58.2,39.455a2.911,2.911,0,0,0,1.355-2.472V34.021a2.172,2.172,0,0,0-2.169-2.169h-5.1a1.24,1.24,0,0,0-1.24,1.24,2.476,2.476,0,0,0,2.472,2.472h3.964a.541.541,0,1,1,0,1.081H53.518a3.556,3.556,0,0,1-3.553-3.553,2.319,2.319,0,0,1,2.321-2.321h5.1a3.251,3.251,0,0,1,3.251,3.251v2.962a3.984,3.984,0,0,1-1.852,3.38L56.841,41.6a2.911,2.911,0,0,0-1.355,2.472v.959A.538.538,0,0,1,54.945,45.56Z" transform="translate(-39.11 -30.77)"/>
        </g>
        <g id="Grupo_1172757" data-name="Grupo 1172757" transform="translate(0.541 22.682)">
          <path id="Trazado_1036266" data-name="Trazado 1036266" d="M39.17,50.54H57.5V55.3H39.17Z" transform="translate(-39.17 -50.54)" fill="#8fa4b1"/>
        </g>
        <g id="Grupo_1172758" data-name="Grupo 1172758" transform="translate(2.696 27.446)">
          <path id="Trazado_1036267" data-name="Trazado 1036267" d="M42.16,57.15H56.179v8H42.16Z" transform="translate(-42.16 -57.15)" fill="#2f73a8"/>
        </g>
        <g id="Grupo_1172759" data-name="Grupo 1172759" transform="translate(9.658 22.682)">
          <path id="Trazado_1036268" data-name="Trazado 1036268" d="M51.82,50.54h9.2V55.3h-9.2Z" transform="translate(-51.82 -50.54)" fill="#66757e"/>
        </g>
        <g id="Grupo_1172760" data-name="Grupo 1172760" transform="translate(9.658 27.446)">
          <path id="Trazado_1036269" data-name="Trazado 1036269" d="M51.82,57.15h7.056v8H51.82Z" transform="translate(-51.82 -57.15)" fill="#215278"/>
        </g>
        <g id="Grupo_1172761" data-name="Grupo 1172761" transform="translate(0 22.149)">
          <path id="Trazado_1036270" data-name="Trazado 1036270" d="M57.289,55.638H38.961a.545.545,0,0,1-.541-.541V50.341a.545.545,0,0,1,.541-.541H57.289a.545.545,0,0,1,.541.541V55.1A.545.545,0,0,1,57.289,55.638ZM39.5,54.557H56.749V50.881H39.5Z" transform="translate(-38.42 -49.8)"/>
        </g>
        <g id="Grupo_1172762" data-name="Grupo 1172762" transform="translate(2.155 26.906)">
          <path id="Trazado_1036271" data-name="Trazado 1036271" d="M55.969,65.482H41.951a.545.545,0,0,1-.541-.541v-8a.545.545,0,0,1,.541-.541H55.969a.545.545,0,0,1,.541.541v8A.544.544,0,0,1,55.969,65.482ZM42.491,64.4H55.429V57.481H42.491Z" transform="translate(-41.41 -56.4)"/>
        </g>
      </g>
    </g>
  </g>
</svg>
