<svg xmlns="http://www.w3.org/2000/svg" xmlns:xlink="http://www.w3.org/1999/xlink" width="108.914" height="108.914" viewBox="0 0 108.914 108.914">
  <defs>
    <filter id="Trazado_1002829" x="0" y="0" width="108.914" height="108.914" filterUnits="userSpaceOnUse">
      <feOffset dy="3" input="SourceAlpha"/>
      <feGaussianBlur stdDeviation="3" result="blur"/>
      <feFlood flood-opacity="0.161"/>
      <feComposite operator="in" in2="blur"/>
      <feComposite in="SourceGraphic"/>
    </filter>
  </defs>
  <g id="Grupo_1172310" data-name="Grupo 1172310" transform="translate(6604.464 9333.495)">
    <g transform="matrix(1, 0, 0, 1, -6604.46, -9333.5)" filter="url(#Trazado_1002829)">
      <g id="Trazado_1002829-2" data-name="Trazado 1002829" transform="translate(9 6)" fill="#a8aeb5" opacity="0.859">
        <path d="M 45.45676803588867 89.41407012939453 C 39.52198028564453 89.41407012939453 33.76551818847656 88.25206756591797 28.34726715087891 85.96034240722656 C 23.11311721801758 83.74648284912109 18.41204261779785 80.57682800292969 14.37464332580566 76.5394287109375 C 10.33724308013916 72.50202941894531 7.167593002319336 67.80095672607422 4.953730583190918 62.56679534912109 C 2.662005424499512 57.14855575561523 1.500005483627319 51.39208221435547 1.500005483627319 45.45729446411133 C 1.500005483627319 39.52198028564453 2.662005424499512 33.76551818847656 4.953730583190918 28.34726905822754 C 7.167593002319336 23.11310577392578 10.33724308013916 18.41203117370605 14.37464332580566 14.37464332580566 C 18.41204261779785 10.33724403381348 23.11311721801758 7.167593955993652 28.34726715087891 4.953731060028076 C 33.76551818847656 2.662006139755249 39.52198028564453 1.500006198883057 45.45676803588867 1.500006198883057 C 51.39155578613281 1.500006198883057 57.14802932739258 2.662006139755249 62.56626892089844 4.953731060028076 C 67.80043029785156 7.167593955993652 72.50150299072266 10.33724403381348 76.53890228271484 14.37464332580566 C 80.57630920410156 18.41203117370605 83.74595642089844 23.11310577392578 85.95981597900391 28.34726905822754 C 88.25154113769531 33.76551818847656 89.41354370117188 39.52198028564453 89.41354370117188 45.45676803588867 C 89.41354370117188 51.39208221435547 88.25154113769531 57.14855575561523 85.95981597900391 62.56679534912109 C 83.74595642089844 67.80095672607422 80.57630920410156 72.50202941894531 76.53890228271484 76.5394287109375 C 72.50150299072266 80.57682800292969 67.80043029785156 83.74648284912109 62.56626892089844 85.96034240722656 C 57.14802932739258 88.25206756591797 51.39155578613281 89.41407012939453 45.45676803588867 89.41407012939453 Z" stroke="none"/>
        <path d="M 45.45676803588867 3 C 39.72381210327148 3 34.1639404296875 4.12213134765625 28.93159484863281 6.335227966308594 C 23.87622833251953 8.473472595214844 19.33542633056641 11.53517150878906 15.43529510498047 15.435302734375 C 11.53517150878906 19.33543395996094 8.473464965820312 23.87622833251953 6.335227966308594 28.93160247802734 C 4.122123718261719 34.16394424438477 3 39.72381591796875 3 45.4572868347168 C 3 51.19024658203125 4.122123718261719 56.75011825561523 6.335227966308594 61.98246002197266 C 8.473464965820312 67.03782653808594 11.53517150878906 71.57862854003906 15.43529510498047 75.478759765625 C 19.33542633056641 79.37889099121094 23.87622833251953 82.44058990478516 28.93159484863281 84.57883453369141 C 34.1639404296875 86.79193115234375 39.72381210327148 87.9140625 45.45676803588867 87.9140625 C 51.18972396850586 87.9140625 56.74959564208984 86.79193115234375 61.98194122314453 84.57883453369141 C 67.03730773925781 82.44058990478516 71.57810974121094 79.37889099121094 75.47824096679688 75.478759765625 C 79.37837219238281 71.57862854003906 82.44007110595703 67.03782653808594 84.57830810546875 61.98246002197266 C 86.79141235351562 56.75011825561523 87.91353607177734 51.19024658203125 87.91353607177734 45.4567756652832 C 87.91353607177734 39.72381591796875 86.79141235351562 34.16394424438477 84.57830810546875 28.93160247802734 C 82.44007110595703 23.87622833251953 79.37837219238281 19.33543395996094 75.47824096679688 15.435302734375 C 71.57810974121094 11.53517150878906 67.03730773925781 8.473472595214844 61.98194122314453 6.335227966308594 C 56.74959564208984 4.12213134765625 51.18972396850586 3 45.45676803588867 3 M 45.45676803588867 0 C 70.56185150146484 0 90.91353607177734 20.35169219970703 90.91353607177734 45.4567756652832 L 90.91353607177734 45.4572868347168 C 90.91353607177734 70.5623779296875 70.56185150146484 90.9140625 45.45676803588867 90.9140625 C 20.3516845703125 90.9140625 0 70.5623779296875 0 45.4572868347168 L 0 45.4567756652832 C 0 20.35169219970703 20.3516845703125 0 45.45676803588867 0 Z" stroke="none" fill="#fff"/>
      </g>
    </g>
    <g id="Grupo_1172306" data-name="Grupo 1172306" transform="translate(-6602.865 -9317.463)">
      <g id="Grupo_1172305" data-name="Grupo 1172305" transform="translate(27.911 7.898)">
        <g id="Grupo_1172303" data-name="Grupo 1172303" transform="translate(12.955 32.731)">
          <path id="Trazado_1034159" data-name="Trazado 1034159" d="M159.832,324.623A10.93,10.93,0,1,0,148.9,313.695,10.948,10.948,0,0,0,159.832,324.623Z" transform="translate(-148.9 -302.763)" fill="#8ac9fe" fill-rule="evenodd"/>
          <path id="Trazado_1034160" data-name="Trazado 1034160" d="M240.014,324.609a10.93,10.93,0,0,0,0-21.831q.283-.015.569-.015a10.93,10.93,0,0,1,0,21.86Q240.3,324.623,240.014,324.609Z" transform="translate(-229.651 -302.763)" fill="#60b7ff" fill-rule="evenodd"/>
          <path id="Trazado_1034161" data-name="Trazado 1034161" d="M191.8,361.794l5.313-5.368a1.619,1.619,0,0,1,2.3,2.283c-2.156,2.175-4.3,4.364-6.461,6.529a1.622,1.622,0,0,1-2.293,0l-3.591-3.594a1.621,1.621,0,1,1,2.293-2.293Z" transform="translate(-182.305 -349.9)" fill="#eceff1" fill-rule="evenodd"/>
        </g>
        <g id="Grupo_1172304" data-name="Grupo 1172304" transform="translate(0 0)">
          <path id="Trazado_1034162" data-name="Trazado 1034162" d="M42.437,161.832a.63.63,0,0,1-1.019.495l-6.177-4.863a.63.63,0,0,1,0-.99l6.177-4.863a.63.63,0,0,1,1.019.495v1.914h11.9a7.4,7.4,0,0,1,7.393,7.393v4.136a14.456,14.456,0,0,0-5.687,0v-4.136a1.714,1.714,0,0,0-1.706-1.706h-11.9Z" transform="translate(-35.001 -135.951)" fill="#fcd004" fill-rule="evenodd"/>
          <path id="Trazado_1034163" data-name="Trazado 1034163" d="M35.335,157.538l-.094-.074a.63.63,0,0,1,0-.99l6.177-4.863a.63.63,0,0,1,1.019.495v1.137a.63.63,0,0,0-1.019-.495Zm7.1-3.518h11.9a7.4,7.4,0,0,1,7.393,7.393v1.137a7.4,7.4,0,0,0-7.393-7.393h-11.9Z" transform="translate(-35.001 -135.951)" fill="#00e499" fill-rule="evenodd"/>
          <path id="Trazado_1034164" data-name="Trazado 1034164" d="M197.322,22.423a.63.63,0,0,1-.495-1.019l4.863-6.177a.63.63,0,0,1,.99,0l4.863,6.177a.63.63,0,0,1-.495,1.019h-2.019v9.015a10.785,10.785,0,0,0-5.687-2.8V22.423Z" transform="translate(-178.3 -14.987)" fill="#44a6f1" fill-rule="evenodd"/>
          <path id="Trazado_1034165" data-name="Trazado 1034165" d="M240,15.321l.074-.094a.63.63,0,0,1,.99,0l4.863,6.177a.63.63,0,0,1-.495,1.019h-1.137a.63.63,0,0,0,.495-1.019Zm3.412,7.1v9.015a10.865,10.865,0,0,0-1.137-.932V22.423Z" transform="translate(-216.684 -14.987)" fill="#60b7ff" fill-rule="evenodd"/>
          <path id="Trazado_1034166" data-name="Trazado 1034166" d="M316.659,263.015a.63.63,0,0,1,.1,1.129l-6.744,4.039a.63.63,0,0,1-.925-.353l-2.343-7.5a.63.63,0,0,1,.825-.776l1.517.579A14.484,14.484,0,0,0,300,245.152v-5.973A20.156,20.156,0,0,1,314.513,262.2Z" transform="translate(-269.859 -213.68)" fill="#2f73a8" fill-rule="evenodd"/>
          <path id="Trazado_1034167" data-name="Trazado 1034167" d="M300,239.549v-.37A20.156,20.156,0,0,1,314.513,262.2l2.146.818a.63.63,0,0,1,.1,1.129l-6.744,4.039a.632.632,0,0,1-.858-.2l6.4-3.834a.63.63,0,0,0-.1-1.129l-2.146-.818A20.152,20.152,0,0,0,300,239.549Z" transform="translate(-269.859 -213.68)" fill="#215278" fill-rule="evenodd"/>
          <path id="Trazado_1034168" data-name="Trazado 1034168" d="M290.271,161.832a.63.63,0,0,0,1.019.495l6.176-4.863a.63.63,0,0,0,0-.99l-6.177-4.863a.63.63,0,0,0-1.019.495v1.914H276.1a7.406,7.406,0,0,0-1.143.088,10.783,10.783,0,0,1,2.713,5.6h12.6Z" transform="translate(-247.662 -135.951)" fill="#feec9a" fill-rule="evenodd"/>
          <path id="Trazado_1034169" data-name="Trazado 1034169" d="M290.271,154.02v1.137H276.1q-.145,0-.289.006a10.867,10.867,0,0,0-.854-1.055,7.408,7.408,0,0,1,1.143-.088Zm7.1,3.518-6.083-4.789a.63.63,0,0,0-1.019.495v-1.137a.63.63,0,0,1,1.019-.495l6.177,4.863a.63.63,0,0,1,0,.99Z" transform="translate(-247.662 -135.951)" fill="#ffd064" fill-rule="evenodd"/>
        </g>
      </g>
      <path id="Trazado_1034170" data-name="Trazado 1034170" d="M54.786,25.246a.91.91,0,0,1-.77-.235,9.876,9.876,0,0,0-5.207-2.56.91.91,0,0,1-.766-.9V16.244h-1.11a1.54,1.54,0,0,1-1.21-2.492l4.863-6.177a1.54,1.54,0,0,1,2.419,0l4.863,6.177a1.54,1.54,0,0,1-1.21,2.492h-1.11v8.1a.91.91,0,0,1-.494.809h.007a8.316,8.316,0,0,1,1.283-.1H69.609v-1a1.54,1.54,0,0,1,2.492-1.21l6.177,4.863a1.54,1.54,0,0,1,0,2.419L72.1,34.989a1.509,1.509,0,0,1-1.624.175h0a1.509,1.509,0,0,1-.867-1.385V32.564H58.451A21.067,21.067,0,0,1,73.582,55.829l1.453.554a1.54,1.54,0,0,1,.242,2.759l-6.744,4.039h0a1.494,1.494,0,0,1-1.339.118h0a1.5,1.5,0,0,1-.92-.98l-2.343-7.5a1.54,1.54,0,0,1,2.018-1.9l.36.137a13.574,13.574,0,0,0-8.59-12.839.91.91,0,0,1-.576-.846V33.4a.91.91,0,0,1,.59-.852.91.91,0,0,1-.714-.748,9.874,9.874,0,0,0-2.485-5.126.91.91,0,0,1,.254-1.425ZM47.51,14.424h1.442a.91.91,0,0,1,.91.91V20.8a11.679,11.679,0,0,1,3.867,1.665V15.334a.91.91,0,0,1,.91-.91h1.442L51.8,8.98ZM57,26.877a11.681,11.681,0,0,1,1.665,3.867H70.519a.91.91,0,0,1,.91.91V33.2l5.443-4.286-5.443-4.286v1.336a.91.91,0,0,1-.91.91Zm8.838,27.947L67.9,61.437l5.944-3.559-1.607-.613a.91.91,0,0,1-.571-1.013A19.243,19.243,0,0,0,58.961,34.629v4.135a15.394,15.394,0,0,1,9.085,15.678.91.91,0,0,1-1.229.755ZM51.8,63.4A11.84,11.84,0,1,1,63.636,51.561,11.863,11.863,0,0,1,51.8,63.4Zm0-1.82A10.02,10.02,0,1,0,41.775,51.561,10.037,10.037,0,0,0,51.8,61.579ZM50.359,51.233l4.669-4.718,0,0a2.529,2.529,0,0,1,3.588,3.565h0c-2.157,2.176-4.3,4.365-6.463,6.532a2.532,2.532,0,0,1-3.579,0l-3.591-3.594a2.531,2.531,0,0,1,0-3.578l0,0a2.532,2.532,0,0,1,3.579,0Zm-.64,1.934-2.443-2.443a.711.711,0,0,0-1.006,1.006l3.591,3.594a.712.712,0,0,0,1.006,0c2.164-2.164,4.3-4.352,6.457-6.526a.709.709,0,1,0-1-1l-5.311,5.367a.91.91,0,0,1-1.29,0ZM36.257,33.779a1.509,1.509,0,0,1-.867,1.385h0a1.509,1.509,0,0,1-1.625-.175l-6.176-4.863a1.54,1.54,0,0,1,0-2.42l6.177-4.863a1.54,1.54,0,0,1,2.492,1.21v1H47.246a8.313,8.313,0,0,1,8.3,8.3V37.5a.91.91,0,0,1-1.089.892,13.545,13.545,0,0,0-5.328,0,.91.91,0,0,1-1.089-.892V33.36a.8.8,0,0,0-.8-.8H36.257Zm-7.263-4.863L34.437,33.2V31.654a.91.91,0,0,1,.91-.91h11.9a2.608,2.608,0,0,1,1.847.769h0a2.609,2.609,0,0,1,.768,1.847v3.066a15.392,15.392,0,0,1,3.867,0V33.36a6.493,6.493,0,0,0-6.483-6.483h-11.9a.91.91,0,0,1-.91-.91V24.631Z" fill-rule="evenodd"/>
    </g>
  </g>
</svg>
