<svg xmlns="http://www.w3.org/2000/svg" xmlns:xlink="http://www.w3.org/1999/xlink" width="108.914" height="108.914" viewBox="0 0 108.914 108.914">
  <defs>
    <filter id="Trazado_1002827" x="0" y="0" width="108.914" height="108.914" filterUnits="userSpaceOnUse">
      <feOffset dy="3" input="SourceAlpha"/>
      <feGaussianBlur stdDeviation="3" result="blur"/>
      <feFlood flood-opacity="0.161"/>
      <feComposite operator="in" in2="blur"/>
      <feComposite in="SourceGraphic"/>
    </filter>
  </defs>
  <g id="Grupo_1172311" data-name="Grupo 1172311" transform="translate(6919.139 9333.724)">
    <g transform="matrix(1, 0, 0, 1, -6919.14, -9333.72)" filter="url(#Trazado_1002827)">
      <g id="Trazado_1002827-2" data-name="Trazado 1002827" transform="translate(9 6)" fill="#a8aeb5" opacity="0.859">
        <path d="M 45.45676803588867 89.41407012939453 C 39.52198028564453 89.41407012939453 33.76551818847656 88.25206756591797 28.34726715087891 85.96034240722656 C 23.11311721801758 83.74648284912109 18.41204261779785 80.57682800292969 14.37464332580566 76.5394287109375 C 10.33724308013916 72.50202941894531 7.167593002319336 67.80095672607422 4.953730583190918 62.56679534912109 C 2.662005424499512 57.14855575561523 1.500005483627319 51.39208221435547 1.500005483627319 45.45729446411133 C 1.500005483627319 39.52198028564453 2.662005424499512 33.76551818847656 4.953730583190918 28.34726905822754 C 7.167593002319336 23.11310577392578 10.33724308013916 18.41203117370605 14.37464332580566 14.37464332580566 C 18.41204261779785 10.33724403381348 23.11311721801758 7.167593955993652 28.34726715087891 4.953731060028076 C 33.76551818847656 2.662006139755249 39.52198028564453 1.500006198883057 45.45676803588867 1.500006198883057 C 51.39155578613281 1.500006198883057 57.14802932739258 2.662006139755249 62.56626892089844 4.953731060028076 C 67.80043029785156 7.167593955993652 72.50150299072266 10.33724403381348 76.53890228271484 14.37464332580566 C 80.57630920410156 18.41203117370605 83.74595642089844 23.11310577392578 85.95981597900391 28.34726905822754 C 88.25154113769531 33.76551818847656 89.41354370117188 39.52198028564453 89.41354370117188 45.45676803588867 C 89.41354370117188 51.39208221435547 88.25154113769531 57.14855575561523 85.95981597900391 62.56679534912109 C 83.74595642089844 67.80095672607422 80.57630920410156 72.50202941894531 76.53890228271484 76.5394287109375 C 72.50150299072266 80.57682800292969 67.80043029785156 83.74648284912109 62.56626892089844 85.96034240722656 C 57.14802932739258 88.25206756591797 51.39155578613281 89.41407012939453 45.45676803588867 89.41407012939453 Z" stroke="none"/>
        <path d="M 45.45676803588867 3 C 39.72381210327148 3 34.1639404296875 4.12213134765625 28.93159484863281 6.335227966308594 C 23.87622833251953 8.473472595214844 19.33542633056641 11.53517150878906 15.43529510498047 15.435302734375 C 11.53517150878906 19.33543395996094 8.473464965820312 23.87622833251953 6.335227966308594 28.93160247802734 C 4.122123718261719 34.16394424438477 3 39.72381591796875 3 45.4572868347168 C 3 51.19024658203125 4.122123718261719 56.75011825561523 6.335227966308594 61.98246002197266 C 8.473464965820312 67.03782653808594 11.53517150878906 71.57862854003906 15.43529510498047 75.478759765625 C 19.33542633056641 79.37889099121094 23.87622833251953 82.44058990478516 28.93159484863281 84.57883453369141 C 34.1639404296875 86.79193115234375 39.72381210327148 87.9140625 45.45676803588867 87.9140625 C 51.18972396850586 87.9140625 56.74959564208984 86.79193115234375 61.98194122314453 84.57883453369141 C 67.03730773925781 82.44058990478516 71.57810974121094 79.37889099121094 75.47824096679688 75.478759765625 C 79.37837219238281 71.57862854003906 82.44007110595703 67.03782653808594 84.57830810546875 61.98246002197266 C 86.79141235351562 56.75011825561523 87.91353607177734 51.19024658203125 87.91353607177734 45.4567756652832 C 87.91353607177734 39.72381591796875 86.79141235351562 34.16394424438477 84.57830810546875 28.93160247802734 C 82.44007110595703 23.87622833251953 79.37837219238281 19.33543395996094 75.47824096679688 15.435302734375 C 71.57810974121094 11.53517150878906 67.03730773925781 8.473472595214844 61.98194122314453 6.335227966308594 C 56.74959564208984 4.12213134765625 51.18972396850586 3 45.45676803588867 3 M 45.45676803588867 0 C 70.56185150146484 0 90.91353607177734 20.35169219970703 90.91353607177734 45.4567756652832 L 90.91353607177734 45.4572868347168 C 90.91353607177734 70.5623779296875 70.56185150146484 90.9140625 45.45676803588867 90.9140625 C 20.3516845703125 90.9140625 0 70.5623779296875 0 45.4572868347168 L 0 45.4567756652832 C 0 20.35169219970703 20.3516845703125 0 45.45676803588867 0 Z" stroke="none" fill="#fff"/>
      </g>
    </g>
    <g id="Grupo_1172302" data-name="Grupo 1172302" transform="translate(-6888.855 -9333.653)">
      <g id="Grupo_1172300" data-name="Grupo 1172300" transform="translate(0.773 31.066)">
        <path id="Trazado_1034142" data-name="Trazado 1034142" d="M16.467,38.31A8.467,8.467,0,0,1,8,46.775C10.5,63.243,17.184,70.714,26,73.6c8.817-2.884,15.5-10.356,18-26.823a8.467,8.467,0,0,1-8.467-8.465Z" transform="translate(-8 -38.31)" fill="#44a6f1" fill-rule="evenodd"/>
        <path id="Trazado_1034143" data-name="Trazado 1034143" d="M65.638,104.138c8.581-3.367,12.187-11.678,13.92-20.254a12.028,12.028,0,0,1-7.389-7.754H59.109a12.03,12.03,0,0,1-7.389,7.754C53.453,92.46,57.059,100.771,65.638,104.138Z" transform="translate(-47.639 -72.6)" fill="#daeafa" fill-rule="evenodd"/>
        <path id="Trazado_1034144" data-name="Trazado 1034144" d="M138.475,155.27h9.983a.917.917,0,0,1,.915.915v9.983a.917.917,0,0,1-.915.915h-9.983a.917.917,0,0,1-.915-.915v-9.983A.917.917,0,0,1,138.475,155.27Z" transform="translate(-125.466 -144.353)" fill="#ffd400" fill-rule="evenodd"/>
        <path id="Trazado_1034145" data-name="Trazado 1034145" d="M180.87,155.27H184.6v3.876H180.87Z" transform="translate(-164.734 -144.353)" fill="#44a6f1" fill-rule="evenodd"/>
        <path id="Trazado_1034146" data-name="Trazado 1034146" d="M413.37,347.9h4.813l3.647,4.621v4.9h-8.46Z" transform="translate(-375.531 -319.002)" fill="#44a6f1" fill-rule="evenodd"/>
        <path id="Trazado_1034147" data-name="Trazado 1034147" d="M437.5,372.03v3.148h3.955l-2.486-3.148Z" transform="translate(-397.409 -340.879)" fill="#8fa4b1" fill-rule="evenodd"/>
        <path id="Trazado_1034148" data-name="Trazado 1034148" d="M230.29,314.08h17.089v12.68H230.29Z" transform="translate(-209.541 -288.339)" fill="#ffd400" fill-rule="evenodd"/>
        <path id="Trazado_1034149" data-name="Trazado 1034149" d="M437.1,430.588a2.219,2.219,0,1,0-2.222-2.219A2.223,2.223,0,0,0,437.1,430.588Z" transform="translate(-395.033 -389.948)" fill="#dbdee1" fill-rule="evenodd"/>
        <path id="Trazado_1034150" data-name="Trazado 1034150" d="M259.969,430.588a2.219,2.219,0,1,0-2.219-2.219A2.223,2.223,0,0,0,259.969,430.588Z" transform="translate(-234.437 -389.948)" fill="#dbdee1" fill-rule="evenodd"/>
        <path id="Trazado_1034151" data-name="Trazado 1034151" d="M67.009,103.537C59.41,99.857,56.1,91.99,54.461,83.884a12.032,12.032,0,0,0,7.392-7.754H59.109a12.03,12.03,0,0,1-7.389,7.754c1.733,8.575,5.339,16.887,13.918,20.254Q66.346,103.86,67.009,103.537Z" transform="translate(-47.639 -72.6)" fill="#c4d3e1" fill-rule="evenodd"/>
        <path id="Trazado_1034152" data-name="Trazado 1034152" d="M138.773,166.167v-9.982a.917.917,0,0,1,.915-.915h-1.213a.917.917,0,0,0-.915.915v9.983a.917.917,0,0,0,.915.915h1.213A.918.918,0,0,1,138.773,166.167Z" transform="translate(-125.466 -144.353)" fill="#e6bf00" fill-rule="evenodd"/>
        <path id="Trazado_1034153" data-name="Trazado 1034153" d="M180.87,155.27h1.21v3.876h-1.21Z" transform="translate(-164.734 -144.353)" fill="#2f73a8" fill-rule="evenodd"/>
        <path id="Trazado_1034154" data-name="Trazado 1034154" d="M232.041,326.76V314.08H230.29v12.68Z" transform="translate(-209.541 -288.339)" fill="#e6bf00" fill-rule="evenodd"/>
        <path id="Trazado_1034155" data-name="Trazado 1034155" d="M437.5,372.03h.714v3.148H437.5Z" transform="translate(-397.409 -340.879)" fill="#00b8e6" fill-rule="evenodd"/>
        <path id="Trazado_1034156" data-name="Trazado 1034156" d="M260.3,430.562a2.22,2.22,0,0,1,0-4.389,2.484,2.484,0,0,0-.336-.023,2.219,2.219,0,1,0,0,4.438A2.1,2.1,0,0,0,260.3,430.562Z" transform="translate(-234.437 -389.948)" fill="#2a4a68" fill-rule="evenodd"/>
        <path id="Trazado_1034157" data-name="Trazado 1034157" d="M434.88,428.36a2.22,2.22,0,0,0,2.222,2.219,2.014,2.014,0,0,0,.336-.026,2.22,2.22,0,0,1,0-4.389,2.51,2.51,0,0,0-.336-.023A2.222,2.222,0,0,0,434.88,428.36Z" transform="translate(-395.033 -389.939)" fill="#2a4a68" fill-rule="evenodd"/>
      </g>
      <g id="Grupo_1172301" data-name="Grupo 1172301" transform="translate(0.029 30.32)">
        <path id="Trazado_1034158" data-name="Trazado 1034158" d="M23.765,41.238H13.781A1.662,1.662,0,0,0,12.123,42.9v9.98a1.662,1.662,0,0,0,1.659,1.662h9.983a1.663,1.663,0,0,0,1.662-1.662V42.9a1.662,1.662,0,0,0-1.662-1.662ZM17.655,42.73h2.236v2.384H17.655Zm6.279,10.15a.171.171,0,0,1-.169.169H13.781a.169.169,0,0,1-.167-.169V42.9a.168.168,0,0,1,.167-.169h2.381v3.13a.746.746,0,0,0,.746.746h3.728a.746.746,0,0,0,.746-.746v-3.13h2.381a.171.171,0,0,1,.169.169v9.98Zm23.721,11.24L44.01,59.5a.747.747,0,0,0-.585-.284H39.358v-2.41a.746.746,0,0,0-.746-.746H32.3a47.362,47.362,0,0,0,5.215-16.414.746.746,0,0,0-.737-.858,7.731,7.731,0,0,1-7.72-7.723.746.746,0,0,0-.746-.746H9.241a.746.746,0,0,0-.746.746,7.731,7.731,0,0,1-7.72,7.723.746.746,0,0,0-.737.858c1.22,8.042,3.432,14.2,6.762,18.827a22.7,22.7,0,0,0,11.744,8.592.748.748,0,0,0,.464,0c.6-.194,1.189-.414,1.772-.653v3.077a.746.746,0,0,0,.746.746h1.911a2.967,2.967,0,0,0,5.741,0h10.8a2.967,2.967,0,0,0,5.742,0h1.357a.746.746,0,0,0,.746-.746V64.585a.752.752,0,0,0-.161-.465Zm-28.88,1.449C9.524,62.436,3.912,54.143,1.64,40.24a9.231,9.231,0,0,0,8.317-8.429H27.592a9.231,9.231,0,0,0,8.317,8.429c-1.059,6.467-2.855,11.784-5.347,15.821H28.123c2.419-3.448,4.158-7.9,5.3-13.561a.746.746,0,0,0-.478-.849,11.316,11.316,0,0,1-6.931-7.273.746.746,0,0,0-.713-.526H12.244a.746.746,0,0,0-.713.526A11.318,11.318,0,0,1,4.6,41.65a.747.747,0,0,0-.478.849A37.523,37.523,0,0,0,8.61,54.822,20.088,20.088,0,0,0,18.5,63.3a.749.749,0,0,0,.545,0q.885-.347,1.731-.776v2.264c-.654.291-1.325.554-2,.783Zm2.748-9.509a.746.746,0,0,0-.746.746v4.026a18.413,18.413,0,0,1-2,.967C12.138,59.075,7.86,52.859,5.713,42.816a12.833,12.833,0,0,0,7.07-7.474H24.764a12.83,12.83,0,0,0,7.07,7.474c-1.2,5.642-3.026,9.983-5.565,13.244H21.523Zm.747,1.493H37.865v11.19H29.176a2.967,2.967,0,0,0-5.742,0H22.27ZM26.305,70.96a1.472,1.472,0,1,1,1.474-1.471A1.474,1.474,0,0,1,26.305,70.96Zm16.537,0a1.472,1.472,0,1,1,1.474-1.471A1.474,1.474,0,0,1,42.842,70.96Zm3.482-2.217h-.611a2.967,2.967,0,0,0-5.742,0h-.613V60.71h3.7l3.261,4.132v3.9Zm-3.989-7.274H40.863a.746.746,0,0,0-.746.746v3.151a.746.746,0,0,0,.746.746h3.956A.746.746,0,0,0,45.4,64.9L42.92,61.752A.746.746,0,0,0,42.334,61.469Zm-.725,3.151V62.961h.363L43.28,64.62Zm1.982,4.869a.747.747,0,1,1-.75-.746h.006A.746.746,0,0,1,43.591,69.489Zm-16.537,0a.747.747,0,1,1-.75-.746h.006a.746.746,0,0,1,.745.746Z" transform="translate(-0.029 -30.32)"/>
      </g>
    </g>
  </g>
</svg>
