<svg xmlns="http://www.w3.org/2000/svg" xmlns:xlink="http://www.w3.org/1999/xlink" width="108.914" height="108.914" viewBox="0 0 108.914 108.914">
  <defs>
    <filter id="Trazado_1002827" x="0" y="0" width="108.914" height="108.914" filterUnits="userSpaceOnUse">
      <feOffset dy="3" input="SourceAlpha"/>
      <feGaussianBlur stdDeviation="3" result="blur"/>
      <feFlood flood-opacity="0.161"/>
      <feComposite operator="in" in2="blur"/>
      <feComposite in="SourceGraphic"/>
    </filter>
  </defs>
  <g id="Grupo_1172312" data-name="Grupo 1172312" transform="translate(-800.618 -2270.276)">
    <g transform="matrix(1, 0, 0, 1, 800.62, 2270.28)" filter="url(#Trazado_1002827)">
      <g id="Trazado_1002827-2" data-name="Trazado 1002827" transform="translate(9 6)" fill="#a8aeb5" opacity="0.859">
        <path d="M 45.45676803588867 89.41407012939453 C 39.52198028564453 89.41407012939453 33.76551818847656 88.25206756591797 28.34726715087891 85.96034240722656 C 23.11311721801758 83.74648284912109 18.41204261779785 80.57682800292969 14.37464332580566 76.5394287109375 C 10.33724308013916 72.50202941894531 7.167593002319336 67.80095672607422 4.953730583190918 62.56679534912109 C 2.662005424499512 57.14855575561523 1.500005483627319 51.39208221435547 1.500005483627319 45.45729446411133 C 1.500005483627319 39.52198028564453 2.662005424499512 33.76551818847656 4.953730583190918 28.34726905822754 C 7.167593002319336 23.11310577392578 10.33724308013916 18.41203117370605 14.37464332580566 14.37464332580566 C 18.41204261779785 10.33724403381348 23.11311721801758 7.167593955993652 28.34726715087891 4.953731060028076 C 33.76551818847656 2.662006139755249 39.52198028564453 1.500006198883057 45.45676803588867 1.500006198883057 C 51.39155578613281 1.500006198883057 57.14802932739258 2.662006139755249 62.56626892089844 4.953731060028076 C 67.80043029785156 7.167593955993652 72.50150299072266 10.33724403381348 76.53890228271484 14.37464332580566 C 80.57630920410156 18.41203117370605 83.74595642089844 23.11310577392578 85.95981597900391 28.34726905822754 C 88.25154113769531 33.76551818847656 89.41354370117188 39.52198028564453 89.41354370117188 45.45676803588867 C 89.41354370117188 51.39208221435547 88.25154113769531 57.14855575561523 85.95981597900391 62.56679534912109 C 83.74595642089844 67.80095672607422 80.57630920410156 72.50202941894531 76.53890228271484 76.5394287109375 C 72.50150299072266 80.57682800292969 67.80043029785156 83.74648284912109 62.56626892089844 85.96034240722656 C 57.14802932739258 88.25206756591797 51.39155578613281 89.41407012939453 45.45676803588867 89.41407012939453 Z" stroke="none"/>
        <path d="M 45.45676803588867 3 C 39.72381210327148 3 34.1639404296875 4.12213134765625 28.93159484863281 6.335227966308594 C 23.87622833251953 8.473472595214844 19.33542633056641 11.53517150878906 15.43529510498047 15.435302734375 C 11.53517150878906 19.33543395996094 8.473464965820312 23.87622833251953 6.335227966308594 28.93160247802734 C 4.122123718261719 34.16394424438477 3 39.72381591796875 3 45.4572868347168 C 3 51.19024658203125 4.122123718261719 56.75011825561523 6.335227966308594 61.98246002197266 C 8.473464965820312 67.03782653808594 11.53517150878906 71.57862854003906 15.43529510498047 75.478759765625 C 19.33542633056641 79.37889099121094 23.87622833251953 82.44058990478516 28.93159484863281 84.57883453369141 C 34.1639404296875 86.79193115234375 39.72381210327148 87.9140625 45.45676803588867 87.9140625 C 51.18972396850586 87.9140625 56.74959564208984 86.79193115234375 61.98194122314453 84.57883453369141 C 67.03730773925781 82.44058990478516 71.57810974121094 79.37889099121094 75.47824096679688 75.478759765625 C 79.37837219238281 71.57862854003906 82.44007110595703 67.03782653808594 84.57830810546875 61.98246002197266 C 86.79141235351562 56.75011825561523 87.91353607177734 51.19024658203125 87.91353607177734 45.4567756652832 C 87.91353607177734 39.72381591796875 86.79141235351562 34.16394424438477 84.57830810546875 28.93160247802734 C 82.44007110595703 23.87622833251953 79.37837219238281 19.33543395996094 75.47824096679688 15.435302734375 C 71.57810974121094 11.53517150878906 67.03730773925781 8.473472595214844 61.98194122314453 6.335227966308594 C 56.74959564208984 4.12213134765625 51.18972396850586 3 45.45676803588867 3 M 45.45676803588867 0 C 70.56185150146484 0 90.91353607177734 20.35169219970703 90.91353607177734 45.4567756652832 L 90.91353607177734 45.4572868347168 C 90.91353607177734 70.5623779296875 70.56185150146484 90.9140625 45.45676803588867 90.9140625 C 20.3516845703125 90.9140625 0 70.5623779296875 0 45.4572868347168 L 0 45.4567756652832 C 0 20.35169219970703 20.3516845703125 0 45.45676803588867 0 Z" stroke="none" fill="#fff"/>
      </g>
    </g>
    <g id="Grupo_1172299" data-name="Grupo 1172299" transform="translate(818.383 2276.756)">
      <path id="Trazado_1034134" data-name="Trazado 1034134" d="M51.2,70.053A11.611,11.611,0,1,1,62.815,58.442,11.611,11.611,0,0,1,51.2,70.053ZM38.024,58.442A13.2,13.2,0,0,1,49.91,45.325c.034-.413.052-.827.052-1.237A15.2,15.2,0,1,0,38.036,58.934c-.008-.163-.012-.327-.012-.492Zm.816,5.79c.158-.032.317-.067.475-.1a13.066,13.066,0,0,1-1.129-3.621A16.773,16.773,0,1,1,51.53,44.088c0,.391-.016.785-.043,1.177a13.094,13.094,0,0,1,6.09,1.643l.926-.295a.618.618,0,0,0,.442-.605V42.171a.618.618,0,0,0-.444-.606L55.434,40.6a.786.786,0,0,1-.534-.594,20.328,20.328,0,0,0-3.006-7.26.785.785,0,0,1-.043-.794l1.482-2.868a.618.618,0,0,0-.114-.741l-2.714-2.713a.617.617,0,0,0-.742-.114L46.909,27a.784.784,0,0,1-.8-.042,20.353,20.353,0,0,0-7.258-3.011.785.785,0,0,1-.592-.531l-.979-3.075a.618.618,0,0,0-.605-.443H32.841a.618.618,0,0,0-.606.444l-.966,3.067a.785.785,0,0,1-.594.534,20.346,20.346,0,0,0-7.26,3.006.785.785,0,0,1-.794.043l-2.868-1.483a.618.618,0,0,0-.741.115L16.3,28.339a.617.617,0,0,0-.114.743l1.487,2.854a.785.785,0,0,1-.042.8,20.349,20.349,0,0,0-3.012,7.258.784.784,0,0,1-.531.592l-3.074.979a.618.618,0,0,0-.443.605v3.838a.617.617,0,0,0,.445.605l3.067.967a.785.785,0,0,1,.534.594,20.352,20.352,0,0,0,3.006,7.26.785.785,0,0,1,.043.794l-1.482,2.868a.618.618,0,0,0,.115.741l2.713,2.714a.617.617,0,0,0,.743.113l2.854-1.487a.785.785,0,0,1,.8.043,20.35,20.35,0,0,0,7.257,3.011.783.783,0,0,1,.592.53l.979,3.075a.619.619,0,0,0,.605.443h3.837a.617.617,0,0,0,.606-.445l.966-3.066a.783.783,0,0,1,.593-.534Zm20.4-16.227a2.2,2.2,0,0,0,1.271-2V42.171a2.2,2.2,0,0,0-1.543-2.1l-2.63-.828a21.89,21.89,0,0,0-2.887-6.972L54.729,29.8a2.2,2.2,0,0,0-.4-2.572l-2.713-2.713a2.2,2.2,0,0,0-2.578-.4L46.591,25.4a21.9,21.9,0,0,0-6.971-2.891l-.841-2.641a2.2,2.2,0,0,0-2.1-1.536H32.841a2.2,2.2,0,0,0-2.1,1.543l-.828,2.63a21.893,21.893,0,0,0-6.972,2.887l-2.464-1.274a2.2,2.2,0,0,0-2.572.4L15.189,27.23a2.2,2.2,0,0,0-.4,2.579l1.275,2.448a21.887,21.887,0,0,0-2.892,6.971l-2.64.841A2.2,2.2,0,0,0,9,42.168V46a2.2,2.2,0,0,0,1.543,2.1l2.63.828a21.885,21.885,0,0,0,2.887,6.972l-1.273,2.463a2.2,2.2,0,0,0,.4,2.572L17.9,63.657a2.2,2.2,0,0,0,2.578.4l2.448-1.276a21.894,21.894,0,0,0,6.97,2.893l.841,2.64a2.2,2.2,0,0,0,2.1,1.536h3.837a2.2,2.2,0,0,0,2.1-1.543l.828-2.631c.168-.037.337-.077.5-.119A13.177,13.177,0,1,0,59.244,48.005Zm-4.89,11a3.906,3.906,0,0,0-2.77-1.336,5.931,5.931,0,0,1-1.151-.252c-.674-.276-1.039-.705-1.033-1.21a1.469,1.469,0,0,1,1.035-1.262,2.252,2.252,0,0,1,3.019,1.443.785.785,0,1,0,1.468-.556,3.908,3.908,0,0,0-2.87-2.551v-.924a.785.785,0,0,0-1.57,0V53.3a4.216,4.216,0,0,0-.593.174,3,3,0,0,0-2.057,2.71,2.908,2.908,0,0,0,2.024,2.693l.024.009a7.17,7.17,0,0,0,1.472.335,2.427,2.427,0,0,1,1.8.788,1.1,1.1,0,0,1,.231,1.132,1.737,1.737,0,0,1-1.453.952c-1.264.164-2.676-.276-2.987-1.629a.785.785,0,0,0-1.53.352A3.664,3.664,0,0,0,50.481,63.6v.931a.785.785,0,1,0,1.57,0v-.878c.025,0,.052,0,.076-.007a3.247,3.247,0,0,0,2.713-1.935A2.671,2.671,0,0,0,54.354,59ZM51.2,66.35A7.907,7.907,0,1,0,43.3,58.442,7.907,7.907,0,0,0,51.2,66.35Zm0-17.385a9.477,9.477,0,1,0,9.477,9.477A9.477,9.477,0,0,0,51.2,48.965Zm-12.294-4.3a.783.783,0,1,1,.783-.783A.783.783,0,0,1,38.911,44.666ZM31.6,43.842a.783.783,0,1,1,.783-.783A.783.783,0,0,1,31.6,43.842ZM24,49.07a.783.783,0,1,1,.783-.783A.783.783,0,0,1,24,49.07Zm20.855-8.434-.035.943a.784.784,0,0,0,.755.813h.03a.785.785,0,0,0,.784-.756l.108-2.91a.749.749,0,0,0,0-.1.153.153,0,0,0,0-.022.955.955,0,0,0-.018-.1.007.007,0,0,1,0,0,1.051,1.051,0,0,0-.036-.1l0-.008s0-.006,0-.009a.646.646,0,0,0-.052-.1s0,0,0,0a.834.834,0,0,0-.062-.083L46.3,38.18a.765.765,0,0,0-.076-.075l-.007-.006a.75.75,0,0,0-.085-.063l-.006,0a.783.783,0,0,0-.1-.052l-.007,0a.7.7,0,0,0-.1-.036l-.007,0a.777.777,0,0,0-.107-.02l-.02,0-.044,0c-.018,0-.035,0-.053,0h-.029l-2.886.125a.785.785,0,1,0,.067,1.568l.858-.037-2.935,2.872a2.349,2.349,0,0,0-4.024.522l-2.891-.572A2.351,2.351,0,0,0,29.336,43.7l-3.93,2.7a2.37,2.37,0,1,0,.875,1.3l3.963-2.726a2.348,2.348,0,0,0,3.519-1l2.892.571a2.351,2.351,0,0,0,4.588-.372Z" fill="#242222" fill-rule="evenodd"/>
      <path id="Trazado_1034135" data-name="Trazado 1034135" d="M51.742,76.56a13.066,13.066,0,0,1-1.129-3.621A16.773,16.773,0,1,1,63.957,56.519c0,.391-.016.785-.043,1.177A13.093,13.093,0,0,1,70,59.34l.926-.295a.618.618,0,0,0,.442-.605V54.6A.618.618,0,0,0,70.928,54l-3.067-.966a.786.786,0,0,1-.534-.594,20.328,20.328,0,0,0-3.006-7.26.785.785,0,0,1-.043-.794l1.482-2.868a.618.618,0,0,0-.114-.741L62.932,38.06a.617.617,0,0,0-.742-.114l-2.855,1.487a.784.784,0,0,1-.8-.042,20.353,20.353,0,0,0-7.258-3.011.785.785,0,0,1-.592-.531l-.979-3.075a.618.618,0,0,0-.605-.443H45.267a.618.618,0,0,0-.606.444l-.966,3.067a.785.785,0,0,1-.594.534,20.346,20.346,0,0,0-7.26,3.006.785.785,0,0,1-.794.043l-2.868-1.483a.618.618,0,0,0-.741.115l-2.713,2.713a.617.617,0,0,0-.114.743L30.1,44.367a.785.785,0,0,1-.042.8,20.349,20.349,0,0,0-3.012,7.258.784.784,0,0,1-.531.592l-3.074.979a.618.618,0,0,0-.443.605v3.838a.617.617,0,0,0,.445.605l3.067.967a.785.785,0,0,1,.534.594,20.352,20.352,0,0,0,3.006,7.26.785.785,0,0,1,.043.794l-1.482,2.868a.618.618,0,0,0,.115.741l2.713,2.714a.617.617,0,0,0,.743.113l2.854-1.487a.785.785,0,0,1,.8.043,20.349,20.349,0,0,0,7.257,3.011.783.783,0,0,1,.592.53l.979,3.075a.619.619,0,0,0,.605.443H49.1a.617.617,0,0,0,.606-.445l.966-3.066a.783.783,0,0,1,.593-.534c.158-.032.317-.067.476-.1Z" transform="translate(-12.426 -12.431)" fill="#fdc72e" fill-rule="evenodd"/>
      <path id="Trazado_1034136" data-name="Trazado 1034136" d="M281.876,284.155a11.611,11.611,0,1,0,11.611-11.611A11.611,11.611,0,0,0,281.876,284.155Zm11.611,9.477a9.477,9.477,0,1,1,9.477-9.477A9.477,9.477,0,0,1,293.487,293.632Z" transform="translate(-242.283 -225.713)" fill="#ebf7ff" fill-rule="evenodd"/>
      <path id="Trazado_1034137" data-name="Trazado 1034137" d="M314.91,313.487a7.907,7.907,0,1,0,7.908-7.907A7.908,7.908,0,0,0,314.91,313.487Zm9.85,1.563a2.427,2.427,0,0,0-1.8-.788,7.168,7.168,0,0,1-1.472-.335l-.024-.009a2.908,2.908,0,0,1-2.024-2.693,3,3,0,0,1,2.057-2.71,4.207,4.207,0,0,1,.593-.174V307.4a.785.785,0,1,1,1.57,0v.924a3.908,3.908,0,0,1,2.87,2.551.785.785,0,1,1-1.468.556,2.252,2.252,0,0,0-3.019-1.443,1.469,1.469,0,0,0-1.035,1.262c-.007.5.359.934,1.033,1.21a5.929,5.929,0,0,0,1.151.252,3.906,3.906,0,0,1,2.77,1.336,2.671,2.671,0,0,1,.487,2.709,3.247,3.247,0,0,1-2.713,1.935c-.025,0-.052,0-.076.007v.878a.785.785,0,1,1-1.57,0v-.931a3.664,3.664,0,0,1-3.073-2.787.785.785,0,0,1,1.53-.352c.311,1.353,1.723,1.793,2.987,1.629a1.737,1.737,0,0,0,1.453-.952A1.1,1.1,0,0,0,324.76,315.05Z" transform="translate(-271.613 -255.045)" fill="#b3dbf9" fill-rule="evenodd"/>
      <path id="Trazado_1034138" data-name="Trazado 1034138" d="M121.618,142.031A13.2,13.2,0,0,1,133.5,128.914c.034-.413.052-.827.052-1.237a15.2,15.2,0,1,0-11.925,14.846c-.008-.163-.012-.327-.012-.492Zm.887-12.207a2.356,2.356,0,0,1-2.255-1.688l-2.892-.571a2.348,2.348,0,0,1-3.519,1l-3.963,2.726a2.359,2.359,0,1,1-.874-1.3l3.93-2.7a2.351,2.351,0,1,1,4.517-1.306l2.891.572a2.349,2.349,0,0,1,4.024-.522l2.934-2.872-.858.037a.785.785,0,1,1-.067-1.568l2.886-.125h.029c.018,0,.035,0,.053,0a.411.411,0,0,1,.044,0l.02,0a.774.774,0,0,1,.107.02l.007,0a.7.7,0,0,1,.1.036l.007,0a.784.784,0,0,1,.1.052l.006,0a.752.752,0,0,1,.085.063l.007.006a.764.764,0,0,1,.076.075l.012.015a.842.842,0,0,1,.062.083s0,0,0,0a.645.645,0,0,1,.052.1l0,.009,0,.008a1.045,1.045,0,0,1,.036.1.007.007,0,0,0,0,0,.955.955,0,0,1,.018.1.154.154,0,0,1,0,.022.748.748,0,0,1,0,.1l-.108,2.91a.785.785,0,0,1-.784.756h-.03a.784.784,0,0,1-.755-.813l.035-.943-3.615,3.539A2.354,2.354,0,0,1,122.505,129.824Z" transform="translate(-83.594 -83.589)" fill="#eceaec" fill-rule="evenodd"/>
      <path id="Trazado_1034139" data-name="Trazado 1034139" d="M269.587,240.828a.783.783,0,1,0-.783-.783A.783.783,0,0,0,269.587,240.828Z" transform="translate(-230.676 -196.162)" fill="#37cba1" fill-rule="evenodd"/>
      <path id="Trazado_1034140" data-name="Trazado 1034140" d="M204.356,233.48a.783.783,0,1,0-.783-.783A.783.783,0,0,0,204.356,233.48Z" transform="translate(-172.758 -189.638)" fill="#8ac9fe" fill-rule="evenodd"/>
      <path id="Trazado_1034141" data-name="Trazado 1034141" d="M137.408,279.328a.783.783,0,1,0-.783.783A.783.783,0,0,0,137.408,279.328Z" transform="translate(-112.621 -231.041)" fill="#fb545c" fill-rule="evenodd"/>
    </g>
  </g>
</svg>
