<svg xmlns="http://www.w3.org/2000/svg" xmlns:xlink="http://www.w3.org/1999/xlink" width="108.914" height="108.914" viewBox="0 0 108.914 108.914">
  <defs>
    <filter id="Trazado_1002827" x="0" y="0" width="108.914" height="108.914" filterUnits="userSpaceOnUse">
      <feOffset dy="3" input="SourceAlpha"/>
      <feGaussianBlur stdDeviation="3" result="blur"/>
      <feFlood flood-opacity="0.161"/>
      <feComposite operator="in" in2="blur"/>
      <feComposite in="SourceGraphic"/>
    </filter>
    <clipPath id="clip-path">
      <path id="path4596" d="M0-682.664H49.4v49.4H0Z" transform="translate(0 682.664)"/>
    </clipPath>
  </defs>
  <g id="Grupo_1172309" data-name="Grupo 1172309" transform="translate(6289.464 9333.724)">
    <g transform="matrix(1, 0, 0, 1, -6289.46, -9333.72)" filter="url(#Trazado_1002827)">
      <g id="Trazado_1002827-2" data-name="Trazado 1002827" transform="translate(9 6)" fill="#a8aeb5" opacity="0.859">
        <path d="M 45.45676803588867 89.41407012939453 C 39.52198028564453 89.41407012939453 33.76551818847656 88.25206756591797 28.34726715087891 85.96034240722656 C 23.11311721801758 83.74648284912109 18.41204261779785 80.57682800292969 14.37464332580566 76.5394287109375 C 10.33724308013916 72.50202941894531 7.167593002319336 67.80095672607422 4.953730583190918 62.56679534912109 C 2.662005424499512 57.14855575561523 1.500005483627319 51.39208221435547 1.500005483627319 45.45729446411133 C 1.500005483627319 39.52198028564453 2.662005424499512 33.76551818847656 4.953730583190918 28.34726905822754 C 7.167593002319336 23.11310577392578 10.33724308013916 18.41203117370605 14.37464332580566 14.37464332580566 C 18.41204261779785 10.33724403381348 23.11311721801758 7.167593955993652 28.34726715087891 4.953731060028076 C 33.76551818847656 2.662006139755249 39.52198028564453 1.500006198883057 45.45676803588867 1.500006198883057 C 51.39155578613281 1.500006198883057 57.14802932739258 2.662006139755249 62.56626892089844 4.953731060028076 C 67.80043029785156 7.167593955993652 72.50150299072266 10.33724403381348 76.53890228271484 14.37464332580566 C 80.57630920410156 18.41203117370605 83.74595642089844 23.11310577392578 85.95981597900391 28.34726905822754 C 88.25154113769531 33.76551818847656 89.41354370117188 39.52198028564453 89.41354370117188 45.45676803588867 C 89.41354370117188 51.39208221435547 88.25154113769531 57.14855575561523 85.95981597900391 62.56679534912109 C 83.74595642089844 67.80095672607422 80.57630920410156 72.50202941894531 76.53890228271484 76.5394287109375 C 72.50150299072266 80.57682800292969 67.80043029785156 83.74648284912109 62.56626892089844 85.96034240722656 C 57.14802932739258 88.25206756591797 51.39155578613281 89.41407012939453 45.45676803588867 89.41407012939453 Z" stroke="none"/>
        <path d="M 45.45676803588867 3 C 39.72381210327148 3 34.1639404296875 4.12213134765625 28.93159484863281 6.335227966308594 C 23.87622833251953 8.473472595214844 19.33542633056641 11.53517150878906 15.43529510498047 15.435302734375 C 11.53517150878906 19.33543395996094 8.473464965820312 23.87622833251953 6.335227966308594 28.93160247802734 C 4.122123718261719 34.16394424438477 3 39.72381591796875 3 45.4572868347168 C 3 51.19024658203125 4.122123718261719 56.75011825561523 6.335227966308594 61.98246002197266 C 8.473464965820312 67.03782653808594 11.53517150878906 71.57862854003906 15.43529510498047 75.478759765625 C 19.33542633056641 79.37889099121094 23.87622833251953 82.44058990478516 28.93159484863281 84.57883453369141 C 34.1639404296875 86.79193115234375 39.72381210327148 87.9140625 45.45676803588867 87.9140625 C 51.18972396850586 87.9140625 56.74959564208984 86.79193115234375 61.98194122314453 84.57883453369141 C 67.03730773925781 82.44058990478516 71.57810974121094 79.37889099121094 75.47824096679688 75.478759765625 C 79.37837219238281 71.57862854003906 82.44007110595703 67.03782653808594 84.57830810546875 61.98246002197266 C 86.79141235351562 56.75011825561523 87.91353607177734 51.19024658203125 87.91353607177734 45.4567756652832 C 87.91353607177734 39.72381591796875 86.79141235351562 34.16394424438477 84.57830810546875 28.93160247802734 C 82.44007110595703 23.87622833251953 79.37837219238281 19.33543395996094 75.47824096679688 15.435302734375 C 71.57810974121094 11.53517150878906 67.03730773925781 8.473472595214844 61.98194122314453 6.335227966308594 C 56.74959564208984 4.12213134765625 51.18972396850586 3 45.45676803588867 3 M 45.45676803588867 0 C 70.56185150146484 0 90.91353607177734 20.35169219970703 90.91353607177734 45.4567756652832 L 90.91353607177734 45.4572868347168 C 90.91353607177734 70.5623779296875 70.56185150146484 90.9140625 45.45676803588867 90.9140625 C 20.3516845703125 90.9140625 0 70.5623779296875 0 45.4572868347168 L 0 45.4567756652832 C 0 20.35169219970703 20.3516845703125 0 45.45676803588867 0 Z" stroke="none" fill="#fff"/>
      </g>
    </g>
    <g id="g4590" transform="translate(-6259.958 -8624.074)">
      <g id="g4592" transform="translate(0 -682.664)">
        <g id="g4594" clip-path="url(#clip-path)">
          <g id="g4600" transform="translate(25.214 0.8)">
            <path id="path4602" d="M-168.663-183.806l1.242-2.947-4.317-10.417-1.09-.886c-.2-.036-.4-.064-.6-.089h-.981l-2.676,1.279v.76l-3.311,3.637-1.419,1.694v2.209L-177-185.7l-1.567,3.564.443,1.509-.213.537.568.658,3.171,1.549,1.172.146a10.267,10.267,0,0,0,6.795-3.8Z" transform="translate(181.821 198.145)" fill="#60b9fe"/>
          </g>
          <g id="g4604" transform="translate(29.945 0.723)">
            <path id="path4606" d="M-46.879-.977a10.347,10.347,0,0,0-1.237-.076,10.338,10.338,0,0,0-1.961.188l-.459.656V.626a10.4,10.4,0,0,1,3.657-1.6" transform="translate(50.536 1.053)" fill="#1ca8ff"/>
          </g>
          <g id="g4608" transform="translate(28.378 18.663)">
            <path id="path4610" d="M-5.076,0l-.4,1,.248.921a10.254,10.254,0,0,0,3.739.7A10.386,10.386,0,0,0-.242,2.546,10.429,10.429,0,0,1-5.076,0" transform="translate(5.472)" fill="#1ca8ff"/>
          </g>
          <g id="g4612" transform="translate(25.214 1.719)">
            <path id="path4614" d="M-57.308-211.546l-.009-.018c-.666-1.229-.333-1.639.717-3.791s-1.1-1.46-1.742-2.817-2.664-.846-2.741-2.434,1.793-.871,1.87-2.561,1.281-1.614,2.356-2.51a2.373,2.373,0,0,0,.6-2.251l-.044-.121-1.136.543-2.927,3.149-1.419,2.758v4.771l1.34,3.43,2.71,3.144.369.18a1.493,1.493,0,0,0,.051-1.473" transform="translate(61.779 228.049)" fill="#bced6b"/>
          </g>
          <g id="g4616" transform="translate(22.084 0.911)">
            <path id="path4618" d="M-42.947-129.379a10.452,10.452,0,0,1,5.315-9.106c0-.019-.006-.04-.009-.058l-.336-.928a10.283,10.283,0,0,0-8.32,10.093h0a10.284,10.284,0,0,0,6.541,9.579l.6-.441a1.537,1.537,0,0,0,.521-.677,10.441,10.441,0,0,1-4.313-8.461" transform="translate(46.297 139.472)" fill="#a2e82d"/>
          </g>
          <g id="g4620" transform="translate(33.335 0.888)">
            <path id="path4622" d="M-11.172,0l1.438,2.976c.356.648.347,1.383-.32,1.628-.028.011-.058.02-.088.028a2.008,2.008,0,0,0-1.444,1.2c-.745,1.873-.75,3.22,1.259,3.818s2.775-.1,2.956,1.321-.857,1.9-.722,3.182a3.2,3.2,0,0,0,1.014,1.79,2.3,2.3,0,0,0,1.73.607l.372-.025a10.236,10.236,0,0,0,2.243-6.409h0A10.283,10.283,0,0,0-11.172,0" transform="translate(12.043)" fill="#bced6b"/>
          </g>
          <g id="g4624" transform="translate(16.068 25.637)">
            <path id="path4626" d="M-352.826-11.862c-1.018-1.642-2.837-.615-2.991-.538l-7.842,3.28a1.832,1.832,0,0,0-1.376-2.178c-2.486-.692-3.854-1.1-4.756-1.311l-.814-.044-2.726.7-3.739,2.341-3.281,3.4,4.836,3.1h.368a4.365,4.365,0,0,1,3.836-.55l3.893,1.083a4.832,4.832,0,0,0,3.707-.63h0l9.984-5.782c.3-.2,1.792-1.329.9-2.878" transform="translate(380.35 12.787)" fill="#ffcebe"/>
          </g>
          <g id="g4628" transform="translate(13.443 25.609)">
            <path id="path4630" d="M-49.772-92.743a.729.729,0,0,1-.308-.4.733.733,0,0,1,.1-.647A16.547,16.547,0,0,1-44.9-98.437a9.168,9.168,0,0,1,4.425-1.333,5.105,5.105,0,0,0-1.872-.185h0c-3.641.409-4.3.511-6.02,1.518a16.576,16.576,0,0,0-5.292,4.952l.189.6L-47.279-89l.505-.106.054-.1a3.325,3.325,0,0,1,.894-1.058Z" transform="translate(53.655 99.978)" fill="#ffb1a0"/>
          </g>
          <g id="g4632" transform="translate(8.53 33.579)">
            <path id="path4634" d="M-155.48-39.9l-4.893-3.113-.373.087L-167.609-31.7l.072.45,5.073,3.227a.678.678,0,0,0,.947-.225l6.313-10.567a.817.817,0,0,0-.275-1.088" transform="translate(167.609 43.012)" fill="#2f73a8"/>
          </g>
          <g id="g4636" transform="translate(5.527 31.753)">
            <path id="path4638" d="M-42.707-166.807l6.46-10.726a.83.83,0,0,1,.558-.391l-2.779-1.768a.817.817,0,0,0-1.141.271l-6.332,10.514a.679.679,0,0,0,.217.922l3.049,1.939a.692.692,0,0,1-.032-.762" transform="translate(46.039 179.819)" fill="#215278"/>
          </g>
          <g id="g4640" transform="translate(26.241 29.305)">
            <path id="path4642" d="M-83.55,0a1.5,1.5,0,0,1-1.691,1.232c-1.434-.19-4.827-.626-4.827-.626" transform="translate(90.068)" fill="none" stroke="#000" stroke-linecap="round" stroke-linejoin="round" stroke-miterlimit="10" stroke-width="1"/>
          </g>
          <g id="g4644" transform="translate(22.085 0.724)">
            <path id="path4646" d="M-131.782,0h0a10.28,10.28,0,0,0-10.28,10.28h0a10.28,10.28,0,0,0,10.28,10.28A10.28,10.28,0,0,0-121.5,10.28h0A10.28,10.28,0,0,0-131.782,0Z" transform="translate(142.062)" fill="none" stroke="#000" stroke-linecap="round" stroke-linejoin="round" stroke-miterlimit="10" stroke-width="1"/>
          </g>
          <g id="g4648" transform="translate(22.085 0.911)">
            <path id="path4650" d="M0-129.378H0A10.284,10.284,0,0,0,6.541-119.8l.6-.441a1.512,1.512,0,0,0,.458-1.92l-.009-.018c-.666-1.23-.333-1.639.717-3.791s-1.1-1.46-1.742-2.817-2.664-.846-2.741-2.434,1.793-.871,1.87-2.561,1.281-1.614,2.356-2.51a2.374,2.374,0,0,0,.6-2.251l-.336-.928A10.283,10.283,0,0,0,0-129.378Z" transform="translate(0 139.47)" fill="none" stroke="#000" stroke-linecap="round" stroke-linejoin="round" stroke-miterlimit="10" stroke-width="1"/>
          </g>
          <g id="g4652" transform="translate(33.335 0.888)">
            <path id="path4654" d="M-11.172,0l1.439,2.976c.356.648.347,1.383-.32,1.628-.028.011-.058.02-.088.028a2.008,2.008,0,0,0-1.444,1.2c-.745,1.873-.75,3.22,1.259,3.818s2.775-.1,2.956,1.321-.857,1.9-.722,3.182a3.2,3.2,0,0,0,1.014,1.79,2.3,2.3,0,0,0,1.73.607l.372-.025a10.236,10.236,0,0,0,2.243-6.409h0A10.283,10.283,0,0,0-11.172,0Z" transform="translate(12.043)" fill="none" stroke="#000" stroke-linecap="round" stroke-linejoin="round" stroke-miterlimit="10" stroke-width="1"/>
          </g>
          <g id="g4656" transform="translate(5.527 31.753)">
            <path id="path4658" d="M-73-195.585l2.453,1.56a.678.678,0,0,0,.946-.224l6.313-10.567a.817.817,0,0,0-.275-1.088l-7.562-4.81a.817.817,0,0,0-1.14.271L-78.6-199.929a.678.678,0,0,0,.217.922l2.527,1.607" transform="translate(78.694 210.842)" fill="none" stroke="#000" stroke-linecap="round" stroke-linejoin="round" stroke-miterlimit="10" stroke-width="1"/>
          </g>
          <g id="g4660" transform="translate(13.444 25.609)">
            <path id="path4662" d="M-324.747-78.191l3.916-2.268c.3-.2,1.792-1.329.9-2.878-1.018-1.642-2.837-.615-2.991-.538l-7.842,3.28a1.832,1.832,0,0,0-1.376-2.178c-4.858-1.351-5.448-1.605-6.628-1.5h0c-3.641.409-4.3.511-6.02,1.518A16.575,16.575,0,0,0-350.08-77.8l6.881,4.377.054-.1c.927-1.711,2.912-2.113,4.729-1.608l3.893,1.083a4.832,4.832,0,0,0,3.707-.63h0l3.144-1.821" transform="translate(350.08 84.29)" fill="none" stroke="#000" stroke-linecap="round" stroke-linejoin="round" stroke-miterlimit="10" stroke-width="1"/>
          </g>
        </g>
      </g>
    </g>
  </g>
</svg>
