<svg xmlns="http://www.w3.org/2000/svg" xmlns:xlink="http://www.w3.org/1999/xlink" width="108.914" height="108.914" viewBox="0 0 108.914 108.914">
  <defs>
    <filter id="Trazado_1002829" x="0" y="0" width="108.914" height="108.914" filterUnits="userSpaceOnUse">
      <feOffset dy="3" input="SourceAlpha"/>
      <feGaussianBlur stdDeviation="3" result="blur"/>
      <feFlood flood-opacity="0.161"/>
      <feComposite operator="in" in2="blur"/>
      <feComposite in="SourceGraphic"/>
    </filter>
    <clipPath id="clip-path">
      <path id="path4148" d="M0-682.665H49.732v49.732H0Z" transform="translate(0 682.665)"/>
    </clipPath>
  </defs>
  <g id="Grupo_1172313" data-name="Grupo 1172313" transform="translate(-1115.292 -2270.505)">
    <g transform="matrix(1, 0, 0, 1, 1115.29, 2270.5)" filter="url(#Trazado_1002829)">
      <g id="Trazado_1002829-2" data-name="Trazado 1002829" transform="translate(9 6)" fill="#a8aeb5" opacity="0.859">
        <path d="M 45.45676803588867 89.41407012939453 C 39.52198028564453 89.41407012939453 33.76551818847656 88.25206756591797 28.34726715087891 85.96034240722656 C 23.11311721801758 83.74648284912109 18.41204261779785 80.57682800292969 14.37464332580566 76.5394287109375 C 10.33724308013916 72.50202941894531 7.167593002319336 67.80095672607422 4.953730583190918 62.56679534912109 C 2.662005424499512 57.14855575561523 1.500005483627319 51.39208221435547 1.500005483627319 45.45729446411133 C 1.500005483627319 39.52198028564453 2.662005424499512 33.76551818847656 4.953730583190918 28.34726905822754 C 7.167593002319336 23.11310577392578 10.33724308013916 18.41203117370605 14.37464332580566 14.37464332580566 C 18.41204261779785 10.33724403381348 23.11311721801758 7.167593955993652 28.34726715087891 4.953731060028076 C 33.76551818847656 2.662006139755249 39.52198028564453 1.500006198883057 45.45676803588867 1.500006198883057 C 51.39155578613281 1.500006198883057 57.14802932739258 2.662006139755249 62.56626892089844 4.953731060028076 C 67.80043029785156 7.167593955993652 72.50150299072266 10.33724403381348 76.53890228271484 14.37464332580566 C 80.57630920410156 18.41203117370605 83.74595642089844 23.11310577392578 85.95981597900391 28.34726905822754 C 88.25154113769531 33.76551818847656 89.41354370117188 39.52198028564453 89.41354370117188 45.45676803588867 C 89.41354370117188 51.39208221435547 88.25154113769531 57.14855575561523 85.95981597900391 62.56679534912109 C 83.74595642089844 67.80095672607422 80.57630920410156 72.50202941894531 76.53890228271484 76.5394287109375 C 72.50150299072266 80.57682800292969 67.80043029785156 83.74648284912109 62.56626892089844 85.96034240722656 C 57.14802932739258 88.25206756591797 51.39155578613281 89.41407012939453 45.45676803588867 89.41407012939453 Z" stroke="none"/>
        <path d="M 45.45676803588867 3 C 39.72381210327148 3 34.1639404296875 4.12213134765625 28.93159484863281 6.335227966308594 C 23.87622833251953 8.473472595214844 19.33542633056641 11.53517150878906 15.43529510498047 15.435302734375 C 11.53517150878906 19.33543395996094 8.473464965820312 23.87622833251953 6.335227966308594 28.93160247802734 C 4.122123718261719 34.16394424438477 3 39.72381591796875 3 45.4572868347168 C 3 51.19024658203125 4.122123718261719 56.75011825561523 6.335227966308594 61.98246002197266 C 8.473464965820312 67.03782653808594 11.53517150878906 71.57862854003906 15.43529510498047 75.478759765625 C 19.33542633056641 79.37889099121094 23.87622833251953 82.44058990478516 28.93159484863281 84.57883453369141 C 34.1639404296875 86.79193115234375 39.72381210327148 87.9140625 45.45676803588867 87.9140625 C 51.18972396850586 87.9140625 56.74959564208984 86.79193115234375 61.98194122314453 84.57883453369141 C 67.03730773925781 82.44058990478516 71.57810974121094 79.37889099121094 75.47824096679688 75.478759765625 C 79.37837219238281 71.57862854003906 82.44007110595703 67.03782653808594 84.57830810546875 61.98246002197266 C 86.79141235351562 56.75011825561523 87.91353607177734 51.19024658203125 87.91353607177734 45.4567756652832 C 87.91353607177734 39.72381591796875 86.79141235351562 34.16394424438477 84.57830810546875 28.93160247802734 C 82.44007110595703 23.87622833251953 79.37837219238281 19.33543395996094 75.47824096679688 15.435302734375 C 71.57810974121094 11.53517150878906 67.03730773925781 8.473472595214844 61.98194122314453 6.335227966308594 C 56.74959564208984 4.12213134765625 51.18972396850586 3 45.45676803588867 3 M 45.45676803588867 0 C 70.56185150146484 0 90.91353607177734 20.35169219970703 90.91353607177734 45.4567756652832 L 90.91353607177734 45.4572868347168 C 90.91353607177734 70.5623779296875 70.56185150146484 90.9140625 45.45676803588867 90.9140625 C 20.3516845703125 90.9140625 0 70.5623779296875 0 45.4572868347168 L 0 45.4567756652832 C 0 20.35169219970703 20.3516845703125 0 45.45676803588867 0 Z" stroke="none" fill="#fff"/>
      </g>
    </g>
    <g id="g4134" transform="translate(1144.958 2979.76)">
      <path id="path4136" d="M39.735-395.139H10V-425.4H39.735Z" transform="translate(-9.271 -238.522)" fill="#fff6cc"/>
      <path id="path4138" d="M364.835-395.139h3.885V-425.4h-3.885Z" transform="translate(-338.257 -238.522)" fill="#feec9a"/>
      <path id="path4140" d="M169.313-414.6h-7.636v-10.8h7.636Z" transform="translate(-149.899 -238.522)" fill="#fcd004"/>
      <path id="path4142" d="M73.909-192.17h-10.1v-9.874h10.1Z" transform="translate(-59.158 -445.608)" fill="#fff"/>
      <g id="g4144" transform="translate(0 -682.665)">
        <g id="g4146" clip-path="url(#clip-path)">
          <g id="g4152" transform="translate(22.393 0.728)">
            <path id="path4154" d="M-156.481-338.179a13.32,13.32,0,0,1-12.257-14.277,13.32,13.32,0,0,1,14.277-12.257A13.32,13.32,0,0,1-142.2-350.435a13.32,13.32,0,0,1-14.277,12.257" transform="translate(168.777 364.751)" fill="#44a6f1"/>
          </g>
          <g id="g4156" transform="translate(33.751 0.729)">
            <path id="path4158" d="M-37.637-.493a13.3,13.3,0,0,0-2.957.1A13.322,13.322,0,0,1-29.266,13.784,13.328,13.328,0,0,1-40.585,25.937c.306.045.615.08.928.1A13.32,13.32,0,0,0-25.381,13.784,13.32,13.32,0,0,0-37.637-.493" transform="translate(40.595 0.531)" fill="#4d99ff"/>
          </g>
          <g id="g4160" transform="translate(25.567 3.903)">
            <path id="path4162" d="M-128.937-257.873A10.143,10.143,0,0,1-139.068-268a10.143,10.143,0,0,1,10.131-10.131A10.143,10.143,0,0,1-118.805-268a10.143,10.143,0,0,1-10.131,10.131" transform="translate(139.068 278.135)" fill="#fff"/>
          </g>
          <g id="g4164" transform="translate(35.891 33.181)">
            <path id="path4166" d="M0,0H9.228" transform="translate(0 0)" fill="none" stroke="#000" stroke-linecap="round" stroke-linejoin="round" stroke-miterlimit="10" stroke-width="1"/>
          </g>
          <g id="g4168" transform="translate(35.891 38.161)">
            <path id="path4170" d="M0,0H13.113" fill="none" stroke="#000" stroke-linecap="round" stroke-linejoin="round" stroke-miterlimit="10" stroke-width="1"/>
          </g>
          <g id="g4172" transform="translate(35.891 43.142)">
            <path id="path4174" d="M0,0H9.228" fill="none" stroke="#000" stroke-linecap="round" stroke-linejoin="round" stroke-miterlimit="10" stroke-width="1"/>
          </g>
          <g id="g4176" transform="translate(0.729 18.742)">
            <path id="path4178" d="M0-247.144v-19.419H22.475" transform="translate(0 266.563)" fill="none" stroke="#060606" stroke-linecap="round" stroke-linejoin="round" stroke-miterlimit="10" stroke-width="1"/>
          </g>
          <g id="g4180" transform="translate(0.729 26.267)">
            <path id="path4182" d="M-378.433,0V22.737h-29.735V16.143" transform="translate(408.168)" fill="none" stroke="#060606" stroke-linecap="round" stroke-linejoin="round" stroke-miterlimit="10" stroke-width="1"/>
          </g>
          <path id="path4184" d="M169.313-414.6h-7.636v-10.8h7.636Z" transform="translate(-149.899 444.143)" fill="none" stroke="#060606" stroke-linecap="round" stroke-linejoin="round" stroke-miterlimit="10" stroke-width="1"/>
          <path id="path4186" d="M73.909-192.17h-10.1v-9.874h10.1Z" transform="translate(-59.158 237.057)" fill="none" stroke="#000" stroke-linecap="round" stroke-linejoin="round" stroke-miterlimit="10" stroke-width="1"/>
          <g id="g4188" transform="translate(7.485 38.455)">
            <path id="path4190" d="M0,0H4.429" fill="none" stroke="#000" stroke-linecap="round" stroke-linejoin="round" stroke-miterlimit="10" stroke-width="1"/>
          </g>
          <g id="g4192" transform="translate(7.485 41.446)">
            <path id="path4194" d="M0,0H4.429" fill="none" stroke="#000" stroke-linecap="round" stroke-linejoin="round" stroke-miterlimit="10" stroke-width="1"/>
          </g>
          <g id="g4196" transform="translate(22.393 0.728)">
            <path id="path4198" d="M-281.434-42.522a13.237,13.237,0,0,0-7.8-3.3,13.32,13.32,0,0,0-14.277,12.257,13.32,13.32,0,0,0,12.257,14.277,13.32,13.32,0,0,0,14.277-12.257,13.233,13.233,0,0,0-1.968-8.025" transform="translate(303.547 45.864)" fill="none" stroke="#000" stroke-linecap="round" stroke-linejoin="round" stroke-miterlimit="10" stroke-width="1"/>
          </g>
          <g id="g4200" transform="translate(25.567 3.903)">
            <path id="path4202" d="M-128.937-257.873A10.143,10.143,0,0,1-139.068-268a10.143,10.143,0,0,1,10.131-10.131A10.143,10.143,0,0,1-118.805-268,10.143,10.143,0,0,1-128.937-257.873Z" transform="translate(139.068 278.135)" fill="none" stroke="#000" stroke-linecap="round" stroke-linejoin="round" stroke-miterlimit="10" stroke-width="1"/>
          </g>
          <g id="g4204" transform="translate(31.937 8.402)">
            <path id="path4206" d="M0-70.425l3.86.039,3.267-5.572" transform="translate(0 75.958)" fill="none" stroke="#060606" stroke-linecap="round" stroke-linejoin="round" stroke-miterlimit="10" stroke-width="1"/>
          </g>
          <g id="g4208" transform="translate(35.094 6.745)">
            <path id="path4210" d="M-8.956-18.543a.729.729,0,0,0,0-1.457.729.729,0,0,0,0,1.457" transform="translate(9.659 20)" fill="#060606"/>
          </g>
          <g id="g4212" transform="translate(31.8 7.574)">
            <path id="path4214" d="M-8.956-18.543a.729.729,0,0,0,0-1.457.729.729,0,0,0,0,1.457" transform="translate(9.66 20)" fill="#060606"/>
          </g>
          <g id="g4216" transform="translate(29.362 9.939)">
            <path id="path4218" d="M-8.956-18.543a.729.729,0,0,0,0-1.457.729.729,0,0,0,0,1.457" transform="translate(9.66 20)" fill="#060606"/>
          </g>
          <g id="g4220" transform="translate(28.434 13.207)">
            <path id="path4222" d="M-8.956-18.543a.729.729,0,0,0,0-1.457.729.729,0,0,0,0,1.457" transform="translate(9.659 20)" fill="#060606"/>
          </g>
          <g id="g4224" transform="translate(29.263 16.5)">
            <path id="path4226" d="M-8.956-18.543a.729.729,0,0,0,0-1.457.729.729,0,0,0,0,1.457" transform="translate(9.66 20)" fill="#060606"/>
          </g>
          <g id="g4228" transform="translate(31.629 18.938)">
            <path id="path4230" d="M-8.956-18.543a.729.729,0,0,0,0-1.457.729.729,0,0,0,0,1.457" transform="translate(9.66 20)" fill="#060606"/>
          </g>
          <g id="g4232" transform="translate(34.896 19.866)">
            <path id="path4234" d="M-8.956-18.543a.729.729,0,0,0,0-1.457.729.729,0,0,0,0,1.457" transform="translate(9.659 20)" fill="#060606"/>
          </g>
          <g id="g4236" transform="translate(38.19 19.037)">
            <path id="path4238" d="M-8.956-18.543a.729.729,0,0,0,0-1.457.729.729,0,0,0,0,1.457" transform="translate(9.66 20)" fill="#060606"/>
          </g>
          <g id="g4240" transform="translate(40.627 16.672)">
            <path id="path4242" d="M-8.955-18.543a.729.729,0,0,0,0-1.457.729.729,0,0,0,0,1.457" transform="translate(9.659 20)" fill="#060606"/>
          </g>
          <g id="g4244" transform="translate(41.556 13.404)">
            <path id="path4246" d="M-8.956-18.543a.729.729,0,0,0,0-1.457.729.729,0,0,0,0,1.457" transform="translate(9.659 20)" fill="#060606"/>
          </g>
          <g id="g4248" transform="translate(40.726 10.111)">
            <path id="path4250" d="M-8.956-18.543a.729.729,0,0,0,0-1.457.729.729,0,0,0,0,1.457" transform="translate(9.66 20)" fill="#060606"/>
          </g>
        </g>
      </g>
    </g>
  </g>
</svg>
