<svg xmlns="http://www.w3.org/2000/svg" xmlns:xlink="http://www.w3.org/1999/xlink" width="108.914" height="108.914" viewBox="0 0 108.914 108.914">
  <defs>
    <filter id="Trazado_1002829" x="0" y="0" width="108.914" height="108.914" filterUnits="userSpaceOnUse">
      <feOffset dy="3" input="SourceAlpha"/>
      <feGaussianBlur stdDeviation="3" result="blur"/>
      <feFlood flood-opacity="0.161"/>
      <feComposite operator="in" in2="blur"/>
      <feComposite in="SourceGraphic"/>
    </filter>
  </defs>
  <g id="Grupo_1172308" data-name="Grupo 1172308" transform="translate(5974.79 9333.495)">
    <g transform="matrix(1, 0, 0, 1, -5974.79, -9333.5)" filter="url(#Trazado_1002829)">
      <g id="Trazado_1002829-2" data-name="Trazado 1002829" transform="translate(9 6)" fill="#a8aeb5" opacity="0.859">
        <path d="M 45.45676803588867 89.41407012939453 C 39.52198028564453 89.41407012939453 33.76551818847656 88.25206756591797 28.34726715087891 85.96034240722656 C 23.11311721801758 83.74648284912109 18.41204261779785 80.57682800292969 14.37464332580566 76.5394287109375 C 10.33724308013916 72.50202941894531 7.167593002319336 67.80095672607422 4.953730583190918 62.56679534912109 C 2.662005424499512 57.14855575561523 1.500005483627319 51.39208221435547 1.500005483627319 45.45729446411133 C 1.500005483627319 39.52198028564453 2.662005424499512 33.76551818847656 4.953730583190918 28.34726905822754 C 7.167593002319336 23.11310577392578 10.33724308013916 18.41203117370605 14.37464332580566 14.37464332580566 C 18.41204261779785 10.33724403381348 23.11311721801758 7.167593955993652 28.34726715087891 4.953731060028076 C 33.76551818847656 2.662006139755249 39.52198028564453 1.500006198883057 45.45676803588867 1.500006198883057 C 51.39155578613281 1.500006198883057 57.14802932739258 2.662006139755249 62.56626892089844 4.953731060028076 C 67.80043029785156 7.167593955993652 72.50150299072266 10.33724403381348 76.53890228271484 14.37464332580566 C 80.57630920410156 18.41203117370605 83.74595642089844 23.11310577392578 85.95981597900391 28.34726905822754 C 88.25154113769531 33.76551818847656 89.41354370117188 39.52198028564453 89.41354370117188 45.45676803588867 C 89.41354370117188 51.39208221435547 88.25154113769531 57.14855575561523 85.95981597900391 62.56679534912109 C 83.74595642089844 67.80095672607422 80.57630920410156 72.50202941894531 76.53890228271484 76.5394287109375 C 72.50150299072266 80.57682800292969 67.80043029785156 83.74648284912109 62.56626892089844 85.96034240722656 C 57.14802932739258 88.25206756591797 51.39155578613281 89.41407012939453 45.45676803588867 89.41407012939453 Z" stroke="none"/>
        <path d="M 45.45676803588867 3 C 39.72381210327148 3 34.1639404296875 4.12213134765625 28.93159484863281 6.335227966308594 C 23.87622833251953 8.473472595214844 19.33542633056641 11.53517150878906 15.43529510498047 15.435302734375 C 11.53517150878906 19.33543395996094 8.473464965820312 23.87622833251953 6.335227966308594 28.93160247802734 C 4.122123718261719 34.16394424438477 3 39.72381591796875 3 45.4572868347168 C 3 51.19024658203125 4.122123718261719 56.75011825561523 6.335227966308594 61.98246002197266 C 8.473464965820312 67.03782653808594 11.53517150878906 71.57862854003906 15.43529510498047 75.478759765625 C 19.33542633056641 79.37889099121094 23.87622833251953 82.44058990478516 28.93159484863281 84.57883453369141 C 34.1639404296875 86.79193115234375 39.72381210327148 87.9140625 45.45676803588867 87.9140625 C 51.18972396850586 87.9140625 56.74959564208984 86.79193115234375 61.98194122314453 84.57883453369141 C 67.03730773925781 82.44058990478516 71.57810974121094 79.37889099121094 75.47824096679688 75.478759765625 C 79.37837219238281 71.57862854003906 82.44007110595703 67.03782653808594 84.57830810546875 61.98246002197266 C 86.79141235351562 56.75011825561523 87.91353607177734 51.19024658203125 87.91353607177734 45.4567756652832 C 87.91353607177734 39.72381591796875 86.79141235351562 34.16394424438477 84.57830810546875 28.93160247802734 C 82.44007110595703 23.87622833251953 79.37837219238281 19.33543395996094 75.47824096679688 15.435302734375 C 71.57810974121094 11.53517150878906 67.03730773925781 8.473472595214844 61.98194122314453 6.335227966308594 C 56.74959564208984 4.12213134765625 51.18972396850586 3 45.45676803588867 3 M 45.45676803588867 0 C 70.56185150146484 0 90.91353607177734 20.35169219970703 90.91353607177734 45.4567756652832 L 90.91353607177734 45.4572868347168 C 90.91353607177734 70.5623779296875 70.56185150146484 90.9140625 45.45676803588867 90.9140625 C 20.3516845703125 90.9140625 0 70.5623779296875 0 45.4572868347168 L 0 45.4567756652832 C 0 20.35169219970703 20.3516845703125 0 45.45676803588867 0 Z" stroke="none" fill="#fff"/>
      </g>
    </g>
    <g id="Layer_x0020_1" transform="translate(-5954.461 -9316.792)">
      <g id="_344241480" transform="translate(9.144 10.792)">
        <g id="Grupo_1172307" data-name="Grupo 1172307" transform="translate(0)">
          <path id="_405026488" d="M110.387,71.469l-3.154-5.463a1.83,1.83,0,0,1,3.17-1.83L112.09,67.1a1.828,1.828,0,0,1,1.967-.706A1.826,1.826,0,0,1,116.3,65.1a1.831,1.831,0,0,1,3.353-.445l3.946,6.835a3.5,3.5,0,0,1-1.277,4.765l-5.148,2.972a2.665,2.665,0,0,1-1.355.365c-1.772,0-3.609-1.639-5.03-2.906-.278-.248-.541-.483-.774-.677l-3.459-2a2.057,2.057,0,0,1,2.057-3.563Zm7.024-5.521,1.632,2.826a.535.535,0,0,1-.926.535l-1.631-2.826a.761.761,0,1,0-1.319.761L116.8,70.07a.534.534,0,0,1-.925.535l-1.631-2.826a.762.762,0,0,0-1.335.732l1.648,2.855a.535.535,0,0,1-.926.535l-4.151-7.19a.761.761,0,0,0-1.319.761l4.146,7.18a.536.536,0,0,1-.725.74l-3.5-2.02a.988.988,0,1,0-.988,1.712l3.5,2.019a.5.5,0,0,1,.073.051c.257.212.539.464.838.731,1.546,1.378,3.662,3.266,5.139,2.413l5.148-2.972a2.427,2.427,0,0,0,.885-3.3l-3.946-6.835a.76.76,0,0,0-1.393.184A.761.761,0,0,0,117.41,65.948Z" transform="translate(-75.104 -46.698)" fill-rule="evenodd"/>
          <path id="_405027016" d="M56.537,53.61A.534.534,0,0,1,56,53.076V38.659H48.574a.534.534,0,1,1,0-1.069h7.963a.535.535,0,0,1,.534.535V53.076A.535.535,0,0,1,56.537,53.61Zm0,14.016H9.678a.535.535,0,0,1-.535-.535V38.125a.534.534,0,0,1,.534-.534H17.64a.535.535,0,0,1,0,1.069H10.213v27.9H56V57.912a.534.534,0,0,1,1.069,0v9.179a.535.535,0,0,1-.534.535Z" transform="translate(-9.144 -29.131)" fill-rule="evenodd"/>
          <path id="_405026992" d="M59.728,54.8a.535.535,0,0,1-.535-.534V47.314H54.5a.534.534,0,1,1,0-1.069h5.23a.535.535,0,0,1,.534.535v7.486a.534.534,0,0,1-.535.534Zm0,16.016H18.334a.534.534,0,0,1-.535-.534V46.78a.534.534,0,0,1,.534-.534h5.229a.535.535,0,0,1,0,1.069H18.869V69.748H59.193V65.469a.534.534,0,1,1,1.069,0v4.813a.534.534,0,0,1-.535.534Z" transform="translate(-15.067 -35.054)" fill-rule="evenodd"/>
          <path id="_405026416" d="M80.149,137.439H73.727a.534.534,0,0,1-.535-.534v-7a.535.535,0,0,1,1.069,0v6.468h5.353V129.9a.535.535,0,0,1,1.069,0v7A.534.534,0,0,1,80.149,137.439Z" transform="translate(-52.974 -91.941)" fill-rule="evenodd"/>
          <path id="_405027088" d="M71.174,151.236H49.385a.534.534,0,0,1-.488-.752l1.639-3.688a.534.534,0,0,1,.445-.316l6.045-.487a.535.535,0,0,1,.086,1.066l-5.729.461-1.176,2.647H70.353l-1.177-2.647-5.728-.461a.534.534,0,1,1,.086-1.065l6.045.487a.536.536,0,0,1,.445.316l1.639,3.688a.534.534,0,0,1-.489.752Z" transform="translate(-36.316 -103.313)" fill-rule="evenodd"/>
          <path id="_405026392" d="M65.281,43.1H34.9a.535.535,0,0,1-.535-.534V11.327a.534.534,0,0,1,.534-.534H65.834a.535.535,0,0,1,.534.535V31.057a.535.535,0,0,1-1.069,0v-19.2H35.434V42.034H65.281Z" transform="translate(-26.403 -10.792)" fill-rule="evenodd"/>
          <path id="_405026848" d="M65.834,29.753H34.9a.535.535,0,0,1,0-1.069H65.834a.535.535,0,0,1,0,1.069Z" transform="translate(-26.404 -23.036)" fill-rule="evenodd"/>
          <path id="_405027112" d="M120.47,20.6h-2.092a.535.535,0,1,1,0-1.069h2.092a.535.535,0,0,1,0,1.069Z" transform="translate(-83.53 -16.775)" fill-rule="evenodd"/>
          <path id="_405026752" d="M107.216,20.6h-2.091a.535.535,0,0,1,0-1.069h2.091a.535.535,0,0,1,0,1.069Z" transform="translate(-74.46 -16.775)" fill-rule="evenodd"/>
          <path id="_405026632" d="M93.964,20.6H91.872a.535.535,0,0,1,0-1.069h2.091a.535.535,0,0,1,0,1.069Z" transform="translate(-65.391 -16.775)" fill-rule="evenodd"/>
          <path id="_405025792" d="M52.074,20.6H42.791a.534.534,0,1,1,0-1.069h9.284a.534.534,0,0,1,0,1.069Z" transform="translate(-31.804 -16.775)" fill-rule="evenodd"/>
          <path id="_405026104" d="M43.325,44.862H55.232V39.656H43.325Zm12.442,1.069H42.791a.535.535,0,0,1-.534-.534V39.121a.534.534,0,0,1,.534-.534H55.767a.535.535,0,0,1,.534.535V45.4a.535.535,0,0,1-.534.535Z" transform="translate(-31.804 -29.813)" fill-rule="evenodd"/>
          <path id="_405026080" d="M59.967,69.476H42.791a.534.534,0,0,1,0-1.069H59.967a.534.534,0,0,1,0,1.069Z" transform="translate(-31.804 -50.219)" fill-rule="evenodd"/>
          <path id="_405026344" d="M59.967,79.416H42.791a.534.534,0,1,1,0-1.069H59.967a.534.534,0,0,1,0,1.069Z" transform="translate(-31.804 -57.021)" fill-rule="evenodd"/>
          <path id="_405025720" d="M59.967,89.355H42.791a.534.534,0,1,1,0-1.069H59.967a.534.534,0,0,1,0,1.069Z" transform="translate(-31.804 -63.823)" fill-rule="evenodd"/>
          <path id="_405025624" d="M59.967,99.295H42.791a.534.534,0,1,1,0-1.069H59.967a.534.534,0,0,1,0,1.069Z" transform="translate(-31.804 -70.625)" fill-rule="evenodd"/>
          <path id="_405026320" d="M94.708,51.9a.672.672,0,0,0,0,1.343h4.5a.671.671,0,1,0,0-1.343Zm4.5,2.412h-4.5a1.74,1.74,0,1,1,0-3.481h4.5a1.74,1.74,0,0,1,0,3.481Z" transform="translate(-66.506 -38.188)" fill-rule="evenodd"/>
          <path id="_405026128" d="M100.415,44.856H93.5a.534.534,0,1,1,0-1.069h6.913a.535.535,0,0,1,0,1.069Z" transform="translate(-66.506 -33.371)" fill-rule="evenodd"/>
        </g>
        <path id="_405025888" d="M81.932,132.739H76.579v4.695c0,.016,0,.031,0,.046v1.192h5.353v-1.19c0-.017,0-.034,0-.051Z" transform="translate(-55.291 -94.244)" fill="#a9c2d6" fill-rule="evenodd"/>
        <path id="_344246232" d="M72.118,149.935l-5.15-.415v1.171a.534.534,0,0,1-.535.534H60.012a.534.534,0,0,1-.535-.534v-1.171l-5.151.415-1.176,2.647H73.295Z" transform="translate(-39.258 -105.728)" fill="#a9c2d6" fill-rule="evenodd"/>
        <path id="_344241864" d="M12.53,68.874H58.319V61.211l-1.664.961v4.5a.534.534,0,0,1-.535.534H14.728a.534.534,0,0,1-.535-.534v-23.5a.534.534,0,0,1,.534-.534h4.695V40.977H12.529v27.9Z" transform="translate(-11.461 -31.448)" fill="#d7d0d6" fill-rule="evenodd"/>
        <path id="_344242320" d="M21.187,72.065H61.511V68.712L59.458,69.9a2.664,2.664,0,0,1-1.355.365,4.258,4.258,0,0,1-1.986-.58H25.882a.535.535,0,0,1-.535-.534V49.632h-4.16V72.065Z" transform="translate(-17.385 -37.371)" fill="#b3dbf9" fill-rule="evenodd"/>
        <path id="_344241912" d="M37.752,56.6H65.875c-.521-.414-1.015-.854-1.467-1.257-.278-.248-.541-.483-.774-.677l-3.459-2A2.057,2.057,0,0,1,62.233,49.1L64,50.125,60.85,44.662a1.83,1.83,0,0,1,3.17-1.83l1.688,2.923a1.828,1.828,0,0,1,1.909-.72V37.087s0,0,0-.007,0,0,0-.007V34.356s0-.005,0-.008,0-.005,0-.008V32.071H37.752V56.6ZM61.423,41.472h-4.5a1.74,1.74,0,1,1,0-3.481h4.5a1.74,1.74,0,0,1,0,3.481Zm1.206-4.634H55.716a.534.534,0,1,1,0-1.069h6.913a.534.534,0,0,1,0,1.069ZM56.885,54.023H39.708a.534.534,0,1,1,0-1.069H56.885a.534.534,0,0,1,0,1.069Zm0-3.138H39.708a.534.534,0,1,1,0-1.069H56.885a.534.534,0,1,1,0,1.069Zm0-3.138H39.708a.534.534,0,1,1,0-1.069H56.885a.534.534,0,1,1,0,1.069Zm0-3.138H39.708a.534.534,0,1,1,0-1.069H56.885a.534.534,0,0,1,0,1.069Zm-4.2-3.138H39.708a.535.535,0,0,1-.534-.534V34.662a.534.534,0,0,1,.534-.534H52.684a.535.535,0,0,1,.534.535v6.275A.535.535,0,0,1,52.684,41.472Z" transform="translate(-28.721 -25.354)" fill="#e5ecf5" fill-rule="evenodd"/>
        <path id="_344242248" d="M112.981,77.472c.257.212.539.464.838.731,1.546,1.378,3.662,3.266,5.139,2.413l5.148-2.972a2.427,2.427,0,0,0,.885-3.3L121.045,67.5a.76.76,0,0,0-1.393.184.761.761,0,0,0,.075.577l1.632,2.826a.535.535,0,0,1-.926.535L118.8,68.8a.761.761,0,0,0-1.416.3v.158a.755.755,0,0,0,.1.3l1.631,2.826a.534.534,0,0,1-.925.534L116.558,70.1a.762.762,0,0,0-1.335.732l1.648,2.855a.535.535,0,0,1-.926.535l-4.151-7.19a.761.761,0,0,0-1.319.761l4.146,7.18a.536.536,0,0,1-.725.74l-3.5-2.02a.988.988,0,1,0-.988,1.712l3.5,2.019a.5.5,0,0,1,.073.051Z" transform="translate(-77.42 -49.016)" fill="#fed2a5" fill-rule="evenodd"/>
        <path id="_344242008" d="M135.745,55.87a1.822,1.822,0,0,1,1.234-.1,1.833,1.833,0,0,1,2.927-.946V49.632h-4.161Z" transform="translate(-95.78 -37.371)" fill="#b3dbf9" fill-rule="evenodd"/>
        <path id="_344242344" d="M135.745,42.64h4.7a.535.535,0,0,1,.535.535v7.343l1.664,2.881V40.977h-6.894Z" transform="translate(-95.78 -31.448)" fill="#d7d0d6" fill-rule="evenodd"/>
        <path id="_344242224" d="M101.526,54.213h-4.5a.672.672,0,0,0,0,1.343h4.5a.671.671,0,1,0,0-1.343Z" transform="translate(-68.824 -40.506)" fill="#ffe600" fill-rule="evenodd"/>
        <path id="_344242080" d="M57.55,47.18V41.973H45.643V47.18Z" transform="translate(-34.121 -32.13)" fill="#ffe600" fill-rule="evenodd"/>
        <path id="_344240928" d="M37.752,18.758H67.617V14.179H37.752Zm11.24-2.888a.534.534,0,0,1,0,1.069H39.708a.534.534,0,1,1,0-1.069Zm6.21,1.069a.535.535,0,0,1,0-1.069h2.091a.535.535,0,0,1,0,1.069Zm4.184,0a.535.535,0,0,1,0-1.069h2.091a.535.535,0,0,1,0,1.069Zm4.184,0a.535.535,0,1,1,0-1.069h2.092a.535.535,0,0,1,0,1.069Z" transform="translate(-28.721 -13.11)" fill="#fcd004" fill-rule="evenodd"/>
      </g>
    </g>
  </g>
</svg>
