<svg xmlns="http://www.w3.org/2000/svg" width="60.977" height="60.015" viewBox="0 0 60.977 60.015">
  <g id="Grupo_1172417" data-name="Grupo 1172417" transform="translate(0 -4.041)">
    <g id="Grupo_1172403" data-name="Grupo 1172403" transform="translate(16.884 4.934)">
      <g id="Grupo_1172397" data-name="Grupo 1172397" transform="translate(0 14.788)">
        <path id="Trazado_1034691" data-name="Trazado 1034691" d="M141.767,149.311a13.6,13.6,0,1,1,27.209,0Z" transform="translate(-141.767 -135.706)" fill="#d8e2f1"/>
      </g>
      <g id="Grupo_1172398" data-name="Grupo 1172398" transform="translate(12.651 15.418)">
        <path id="Trazado_1034692" data-name="Trazado 1034692" d="M253.383,143.845a12.115,12.115,0,0,1-5.39,10.13h14.558a13.61,13.61,0,0,0-9.5-12.974A12.362,12.362,0,0,1,253.383,143.845Z" transform="translate(-247.993 -141.001)" fill="#b9cbea"/>
      </g>
      <g id="Grupo_1172399" data-name="Grupo 1172399" transform="translate(6.211 0)">
        <circle id="Elipse_13795" data-name="Elipse 13795" cx="7.394" cy="7.394" r="7.394" fill="#b3dbf9"/>
      </g>
      <g id="Grupo_1172400" data-name="Grupo 1172400" transform="translate(6.985 0.774)">
        <path id="Trazado_1034693" data-name="Trazado 1034693" d="M210.327,18.038a7.394,7.394,0,0,1-9.913,9.913,7.394,7.394,0,1,0,9.913-9.913Z" transform="translate(-200.414 -18.038)" fill="#44a6f1"/>
      </g>
      <g id="Grupo_1172401" data-name="Grupo 1172401" transform="translate(10.89 14.788)">
        <path id="Trazado_1034694" data-name="Trazado 1034694" d="M238.636,135.977a13.721,13.721,0,0,0-5.429,0l1.571,3.95h2.287Z" transform="translate(-233.207 -135.706)" fill="#da387d"/>
      </g>
      <g id="Grupo_1172402" data-name="Grupo 1172402" transform="translate(10.746 19.008)">
        <path id="Trazado_1034695" data-name="Trazado 1034695" d="M234.858,180.53h2.858L236,171.146h-2.287L232,180.53Z" transform="translate(-232 -171.146)" fill="#dd5790"/>
      </g>
    </g>
    <g id="Grupo_1172415" data-name="Grupo 1172415" transform="translate(0.893 29.958)">
      <g id="Grupo_1172404" data-name="Grupo 1172404">
        <path id="Trazado_1034696" data-name="Trazado 1034696" d="M7.5,251.249a29.6,29.6,0,0,1,59.191,0Z" transform="translate(-7.5 -221.654)" fill="#a8aeb5"/>
      </g>
      <g id="Grupo_1172405" data-name="Grupo 1172405" transform="translate(28.152)">
        <path id="Trazado_1034697" data-name="Trazado 1034697" d="M245.322,221.654q-.726,0-1.444.035a29.6,29.6,0,0,1,28.152,29.56h2.887A29.6,29.6,0,0,0,245.322,221.654Z" transform="translate(-243.878 -221.654)" fill="#66757e"/>
      </g>
      <g id="Grupo_1172406" data-name="Grupo 1172406" transform="translate(4.09 4.09)">
        <path id="Trazado_1034698" data-name="Trazado 1034698" d="M41.845,281.5a25.505,25.505,0,0,1,51.01,0Z" transform="translate(-41.845 -256)" fill="#d8e2f1"/>
      </g>
      <g id="XMLID_1_" transform="translate(4.09 4.09)">
        <g id="Grupo_1172411" data-name="Grupo 1172411">
          <g id="Grupo_1172407" data-name="Grupo 1172407" transform="translate(40.641 7.478)">
            <path id="Trazado_1034699" data-name="Trazado 1034699" d="M393.458,336.817h-4.091a21.348,21.348,0,0,0-6.279-15.136l.007-.007,2.884-2.884A25.431,25.431,0,0,1,393.458,336.817Z" transform="translate(-383.089 -318.79)" fill="#2f73a8"/>
          </g>
          <g id="Grupo_1172408" data-name="Grupo 1172408" transform="translate(25.505)">
            <path id="Trazado_1034700" data-name="Trazado 1034700" d="M274.026,263.478l-2.884,2.884-.007.007A21.348,21.348,0,0,0,256,260.091V256A25.431,25.431,0,0,1,274.026,263.478Z" transform="translate(-255.999 -256)" fill="#44a6f1"/>
          </g>
          <g id="Grupo_1172409" data-name="Grupo 1172409" transform="translate(7.478 0)">
            <path id="Trazado_1034701" data-name="Trazado 1034701" d="M122.663,256v4.09a21.348,21.348,0,0,0-15.136,6.279l-.007-.007-2.884-2.884A25.431,25.431,0,0,1,122.663,256Z" transform="translate(-104.636 -256)" fill="#ffe07d"/>
          </g>
          <g id="Grupo_1172410" data-name="Grupo 1172410" transform="translate(0 7.478)">
            <path id="Trazado_1034702" data-name="Trazado 1034702" d="M52.207,321.676l.007.007a21.348,21.348,0,0,0-6.279,15.136H41.845a25.43,25.43,0,0,1,7.478-18.027Z" transform="translate(-41.845 -318.792)" fill="#fcd004"/>
          </g>
        </g>
      </g>
      <g id="Grupo_1172412" data-name="Grupo 1172412" transform="translate(26.708 12.753)">
        <path id="Trazado_1034703" data-name="Trazado 1034703" d="M234.643,328.732l-2.887,16.843h5.775Z" transform="translate(-231.756 -328.732)" fill="#fcd004"/>
      </g>
      <g id="Grupo_1172413" data-name="Grupo 1172413" transform="translate(25.986 25.986)">
        <circle id="Elipse_13796" data-name="Elipse 13796" cx="3.609" cy="3.609" r="3.609" fill="#b3dbf9"/>
      </g>
      <g id="Grupo_1172414" data-name="Grupo 1172414" transform="translate(26.288 26.288)">
        <path id="Trazado_1034704" data-name="Trazado 1034704" d="M232.979,442.384a3.607,3.607,0,0,1-4.75,4.75,3.609,3.609,0,1,0,4.75-4.75Z" transform="translate(-228.229 -442.384)" fill="#44a6f1"/>
      </g>
    </g>
    <g id="Grupo_1172416" data-name="Grupo 1172416" transform="translate(0 4.041)">
      <path id="Trazado_1034705" data-name="Trazado 1034705" d="M175.931,338.073H168.86a4.493,4.493,0,0,0-1.151-2.2l-2.382-13.9a.893.893,0,0,0-1.761,0l-2.382,13.9a4.5,4.5,0,0,0-1.151,2.2h-7.071a.893.893,0,1,0,0,1.786h7.071a4.5,4.5,0,0,0,8.826,0h7.071a.893.893,0,0,0,0-1.786Zm-11.484-10.662,1.239,7.229a4.478,4.478,0,0,0-2.478,0Zm0,14.272a2.716,2.716,0,1,1,2.716-2.716A2.719,2.719,0,0,1,164.447,341.683Z" transform="translate(-133.958 -283.455)"/>
      <path id="Trazado_1034706" data-name="Trazado 1034706" d="M52.047,37.994a30.6,30.6,0,0,0-7.074-5.284A14.517,14.517,0,0,0,34.716,19.452a8.287,8.287,0,1,0-8.454,0A14.517,14.517,0,0,0,16,32.71,30.6,30.6,0,0,0,8.93,37.994,30.289,30.289,0,0,0,0,59.553a.893.893,0,0,0,.893.893H14.827a.893.893,0,0,0,0-1.786H9.988a20.52,20.52,0,0,1,41,0H46.15a.893.893,0,0,0,0,1.786H60.084a.893.893,0,0,0,.893-.893,30.289,30.289,0,0,0-8.93-21.559Zm-8.942-6.213a30.248,30.248,0,0,0-9.6-2.571l-.946-5.176,1.19-2.992A12.784,12.784,0,0,1,43.105,31.782ZM30.489,20.615a12.7,12.7,0,0,1,1.471.086l-.934,2.348H29.951L29.017,20.7a12.7,12.7,0,0,1,1.471-.086Zm-.4,4.221h.8l.777,4.253c-.391-.015-.782-.024-1.176-.024s-.785.01-1.176.024Zm-6.1-12.508a6.5,6.5,0,1,1,6.5,6.5,6.508,6.508,0,0,1-6.5-6.5Zm3.242,8.715,1.19,2.992-.946,5.176a30.248,30.248,0,0,0-9.6,2.571A12.784,12.784,0,0,1,27.23,21.043ZM5.895,58.66A24.519,24.519,0,0,1,12.475,42.8L14.1,44.432A22.223,22.223,0,0,0,8.2,58.66ZM45.61,43.169a22.223,22.223,0,0,0-14.228-5.9V34.96a24.519,24.519,0,0,1,15.858,6.58ZM29.6,37.265a22.223,22.223,0,0,0-14.228,5.9l-1.629-1.629A24.519,24.519,0,0,1,29.6,34.959Zm17.278,7.167L48.5,42.8a24.519,24.519,0,0,1,6.58,15.857H52.777a22.223,22.223,0,0,0-5.9-14.228Zm10,14.228a26.4,26.4,0,0,0-52.763,0H1.8a28.7,28.7,0,0,1,57.377,0Z" transform="translate(0 -4.041)"/>
    </g>
  </g>
</svg>
