<svg xmlns="http://www.w3.org/2000/svg" width="61.414" height="61.007" viewBox="0 0 61.414 61.007">
  <g id="Grupo_1172429" data-name="Grupo 1172429" transform="translate(-6.796 -6.998)">
    <path id="Trazado_1034743" data-name="Trazado 1034743" d="M108.643,45.963l.527-.252,1.137-.284,1.137-.713s1.321-2.7,1.281-2.8.917-3.449.917-3.449l2.871-4.167,1.735-4.207-1.336-3.968-1-2.173-.758-3.23-1.216-4.426-2.283-3.185-2.321-.588-.548-.189-.277-.146h0l-5.017-2.078a1.41,1.41,0,0,1-.582-.448l-1.223-1.6a1.411,1.411,0,0,0-1.122-.556H96.59a1.41,1.41,0,0,0-1.122.556l-1.223,1.6a1.412,1.412,0,0,1-.582.448L88.614,12.2a1.41,1.41,0,0,1-.729.095l-2-.27a1.41,1.41,0,0,0-1.186.4l-2.812,2.812a1.411,1.411,0,0,0-.4,1.186l.27,2a1.411,1.411,0,0,1-.095.729L79.571,24.2a1.41,1.41,0,0,1-.448.582L77.518,26a1.411,1.411,0,0,0-.556,1.122V31.1a1.41,1.41,0,0,0,.556,1.122l1.6,1.223a1.411,1.411,0,0,1,.448.582l2.091,5.049a1.41,1.41,0,0,1,.095.729l-.27,2a1.411,1.411,0,0,0,.4,1.186L84.7,45.806a1.411,1.411,0,0,0,1.186.4l2-.27a1.411,1.411,0,0,1,.729.095l5.049,2.091a1.41,1.41,0,0,1,.582.448l1.223,1.6a1.411,1.411,0,0,0,1.122.556h3.977a1.41,1.41,0,0,0,1.122-.556l1.223-1.6a1.412,1.412,0,0,1,.582-.448l5.017-2.078ZM98.579,40.991a11.876,11.876,0,1,1,11.876-11.876A11.876,11.876,0,0,1,98.579,40.991Z" transform="translate(-61.075)" fill="#2f73a8"/>
    <g id="Grupo_1172423" data-name="Grupo 1172423" transform="translate(47.436 12.01)">
      <path id="Trazado_1034744" data-name="Trazado 1034744" d="M349.394,58.864l-1.6-1.223a1.41,1.41,0,0,1-.448-.582L345.25,52.01a1.41,1.41,0,0,1-.095-.729l.27-2a1.41,1.41,0,0,0-.4-1.186l-2.812-2.812a1.411,1.411,0,0,0-1.186-.4l-2,.27a1.41,1.41,0,0,1-.729-.095l-.032-.013,2.359,2.359a1.481,1.481,0,0,1,.42,1.246l-.284,2.1a1.482,1.482,0,0,0,.1.765l2.2,5.3a1.481,1.481,0,0,0,.471.611l1.685,1.283a1.481,1.481,0,0,1,.583,1.178v4.176a1.481,1.481,0,0,1-.583,1.178l-1.685,1.283a1.481,1.481,0,0,0-.471.611l-2.2,5.3a1.482,1.482,0,0,0-.1.765l.284,2.1a1.481,1.481,0,0,1-.42,1.246L338.266,78.9l.032-.013a1.41,1.41,0,0,1,.729-.095l2,.27a1.41,1.41,0,0,0,1.186-.4l2.812-2.812a1.411,1.411,0,0,0,.4-1.186l-.27-2a1.411,1.411,0,0,1,.095-.729l2.091-5.049a1.41,1.41,0,0,1,.448-.582l1.6-1.223a1.411,1.411,0,0,0,.556-1.122V59.986A1.411,1.411,0,0,0,349.394,58.864Z" transform="translate(-338.266 -44.87)" fill="#215278"/>
    </g>
    <g id="Grupo_1172426" data-name="Grupo 1172426" transform="translate(7.5 9.671)">
      <g id="Grupo_1172424" data-name="Grupo 1172424" transform="translate(0)">
        <path id="Trazado_1034745" data-name="Trazado 1034745" d="M35.578,25.493H29.183V36.465" transform="translate(-26.565 -25.493)" fill="none" stroke="#000" stroke-linecap="round" stroke-linejoin="round" stroke-miterlimit="10" stroke-width="1"/>
        <path id="Trazado_1034746" data-name="Trazado 1034746" d="M7.5,100.078l2.618,3.195,2.618-3.195" transform="translate(-7.5 -91.073)" fill="none" stroke="#000" stroke-linecap="round" stroke-linejoin="round" stroke-miterlimit="10" stroke-width="1"/>
      </g>
      <g id="Grupo_1172425" data-name="Grupo 1172425" transform="translate(50.994 26.688)">
        <path id="Trazado_1034747" data-name="Trazado 1034747" d="M429.853,267.683h6.395V256.712" transform="translate(-429.853 -255.484)" fill="none" stroke="#000" stroke-linecap="round" stroke-linejoin="round" stroke-miterlimit="10" stroke-width="1"/>
        <path id="Trazado_1034748" data-name="Trazado 1034748" d="M466.371,249.733l-2.618-3.195-2.618,3.195" transform="translate(-457.358 -246.538)" fill="none" stroke="#000" stroke-linecap="round" stroke-linejoin="round" stroke-miterlimit="10" stroke-width="1"/>
      </g>
    </g>
    <path id="Trazado_1034749" data-name="Trazado 1034749" d="M298.279,443.477H282.624l-4.158,7.368h19.813a.842.842,0,0,0,.842-.842v-5.684A.842.842,0,0,0,298.279,443.477Z" transform="translate(-238.25 -383.34)" fill="#fbf7f7"/>
    <path id="Trazado_1034750" data-name="Trazado 1034750" d="M420.177,443.477H417.1a.842.842,0,0,1,.842.842V450a.842.842,0,0,1-.842.842h3.075a.842.842,0,0,0,.842-.842v-5.684A.842.842,0,0,0,420.177,443.477Z" transform="translate(-360.148 -383.34)" fill="#f0eef0"/>
    <path id="Trazado_1034751" data-name="Trazado 1034751" d="M298.279,443.477H282.624l-4.158,7.368h19.813a.842.842,0,0,0,.842-.842v-5.684A.842.842,0,0,0,298.279,443.477Z" transform="translate(-238.25 -383.34)" fill="none" stroke="#000" stroke-linecap="round" stroke-linejoin="round" stroke-miterlimit="10" stroke-width="1"/>
    <path id="Trazado_1034752" data-name="Trazado 1034752" d="M62.459,444.32V450a.842.842,0,0,0,.842.842H88.539l4.158-7.368H63.3A.842.842,0,0,0,62.459,444.32Z" transform="translate(-48.323 -383.341)" fill="#feec9a"/>
    <path id="Trazado_1034753" data-name="Trazado 1034753" d="M256.5,443.477l-4.158,7.368H255.5l4.158-7.368Z" transform="translate(-215.284 -383.34)" fill="#af9002"/>
    <g id="Grupo_1172427" data-name="Grupo 1172427" transform="translate(31.812 23.052)">
      <path id="Trazado_1034754" data-name="Trazado 1034754" d="M218.082,147.379a6.015,6.015,0,1,0,0-8.507" transform="translate(-216.969 -137.015)" fill="none" stroke="#000" stroke-linecap="round" stroke-linejoin="round" stroke-miterlimit="10" stroke-width="1"/>
      <path id="Trazado_1034755" data-name="Trazado 1034755" d="M208.866,136.32v2.97h2.97" transform="translate(-208.866 -136.32)" fill="none" stroke="#000" stroke-linecap="round" stroke-linejoin="round" stroke-miterlimit="10" stroke-width="1"/>
    </g>
    <path id="Trazado_1034756" data-name="Trazado 1034756" d="M73.393,450.845H88.538l4.158-7.368H63.3a.842.842,0,0,0-.842.842V450a.842.842,0,0,0,.842.842h6.592" transform="translate(-48.322 -383.34)" fill="none" stroke="#000" stroke-linecap="round" stroke-linejoin="round" stroke-miterlimit="10" stroke-width="1"/>
    <path id="Trazado_1034757" data-name="Trazado 1034757" d="M117.208,34.945l.378-.913a1.411,1.411,0,0,1,.448-.582l1.6-1.223a1.411,1.411,0,0,0,.556-1.122V27.128a1.41,1.41,0,0,0-.556-1.122l-1.6-1.223a1.41,1.41,0,0,1-.448-.582L115.5,19.152a1.41,1.41,0,0,1-.095-.729l.27-2a1.411,1.411,0,0,0-.4-1.186l-2.812-2.812a1.411,1.411,0,0,0-1.186-.4l-2,.27a1.41,1.41,0,0,1-.729-.095l-5.049-2.091a1.41,1.41,0,0,1-.582-.448l-1.223-1.6a1.411,1.411,0,0,0-1.122-.556H96.59a1.41,1.41,0,0,0-1.122.556l-1.223,1.6a1.412,1.412,0,0,1-.582.448L88.614,12.2a1.41,1.41,0,0,1-.729.095l-2-.27a1.41,1.41,0,0,0-1.186.4l-2.812,2.812a1.411,1.411,0,0,0-.4,1.186l.27,2a1.411,1.411,0,0,1-.095.729L79.571,24.2a1.41,1.41,0,0,1-.448.582l-1.6,1.223a1.411,1.411,0,0,0-.556,1.122v3.977a1.41,1.41,0,0,0,.556,1.122l1.6,1.223a1.411,1.411,0,0,1,.448.582l2.091,5.049a1.41,1.41,0,0,1,.095.729l-.27,2a1.411,1.411,0,0,0,.4,1.186L84.7,45.808a1.411,1.411,0,0,0,1.186.4l2-.27a1.411,1.411,0,0,1,.729.095l5.049,2.091a1.41,1.41,0,0,1,.582.448l1.223,1.6a1.411,1.411,0,0,0,1.122.556h3.977a1.41,1.41,0,0,0,1.122-.556l1.223-1.6a1.412,1.412,0,0,1,.582-.448l5.049-2.091a1.41,1.41,0,0,1,.729-.095l2,.27a1.41,1.41,0,0,0,1.186-.4L115.27,43a1.411,1.411,0,0,0,.4-1.186l-.27-2a1.412,1.412,0,0,1,.095-.729l.373-.9M90.585,20.334a11.862,11.862,0,1,1-2.22,2.721" transform="translate(-61.075 -0.002)" fill="none" stroke="#000" stroke-linecap="round" stroke-linejoin="round" stroke-miterlimit="10" stroke-width="1"/>
    <g id="Grupo_1172428" data-name="Grupo 1172428" transform="translate(18.362 55.987)">
      <line id="Línea_786" data-name="Línea 786" x2="15.564" fill="none" stroke="#000" stroke-linecap="round" stroke-linejoin="round" stroke-miterlimit="10" stroke-width="1"/>
      <line id="Línea_787" data-name="Línea 787" x2="15.564" transform="translate(22.718)" fill="none" stroke="#000" stroke-linecap="round" stroke-linejoin="round" stroke-miterlimit="10" stroke-width="1"/>
    </g>
  </g>
</svg>
