<svg xmlns="http://www.w3.org/2000/svg" width="55.292" height="54.737" viewBox="0 0 55.292 54.737">
  <g id="Grupo_1172421" data-name="Grupo 1172421" transform="translate(0.338 -6.202)">
    <g id="Grupo_1172419" data-name="Grupo 1172419" transform="translate(0.809 7.501)">
      <g id="Grupo_1172418" data-name="Grupo 1172418" transform="translate(8.461 0)">
        <path id="Trazado_1034724" data-name="Trazado 1034724" d="M81,20.282V59.2a.739.739,0,0,0,.739.739H117.19a.739.739,0,0,0,.739-.739V8.24a.739.739,0,0,0-.739-.739H93.781A12.781,12.781,0,0,0,81,20.282Z" transform="translate(-81 -7.501)" fill="#eaf6ff"/>
        <path id="Trazado_1034725" data-name="Trazado 1034725" d="M402.532,7.5H400a.739.739,0,0,1,.739.739V59.2a.739.739,0,0,1-.739.739h2.532a.739.739,0,0,0,.739-.739V8.24A.739.739,0,0,0,402.532,7.5Z" transform="translate(-366.343 -7.501)" fill="#c4e2ff"/>
        <path id="Trazado_1034726" data-name="Trazado 1034726" d="M89.855,17.5A1.148,1.148,0,0,0,91,16.356v-5a3.829,3.829,0,0,1,2.084-3.409A12.783,12.783,0,0,0,81.445,19.588,3.829,3.829,0,0,1,84.854,17.5Z" transform="translate(-81.398 -7.899)" fill="#c4e2ff"/>
      </g>
      <rect id="Rectángulo_421085" data-name="Rectángulo 421085" width="4.205" height="7.431" transform="translate(36.161 35.252) rotate(-45)" fill="#60b7ff"/>
      <rect id="Rectángulo_421086" data-name="Rectángulo 421086" width="2.005" height="7.431" transform="translate(37.716 33.697) rotate(-45)" fill="#62a4fb"/>
      <path id="Trazado_1034727" data-name="Trazado 1034727" d="M379.183,353.594l8.393,8.393a1.055,1.055,0,0,0,1.492,0l3.028-3.028a1.055,1.055,0,0,0,0-1.492l-8.393-8.393Z" transform="translate(-339.261 -313.035)" fill="#2f73a8"/>
      <path id="Trazado_1034728" data-name="Trazado 1034728" d="M418.4,357.468,410,349.075l-1.418,1.418,8.393,8.393a1.055,1.055,0,0,1,0,1.492l-.805.805,2.223-2.223A1.055,1.055,0,0,0,418.4,357.468Z" transform="translate(-365.56 -313.036)" fill="#215278"/>
      <circle id="Elipse_13797" data-name="Elipse 13797" cx="9.796" cy="9.796" r="9.796" transform="translate(18.133 28.104) rotate(-45)" fill="#fee97d"/>
      <path id="Trazado_1034729" data-name="Trazado 1034729" d="M257.79,183.9a9.8,9.8,0,0,0-13.191-.6,9.8,9.8,0,0,1,11.562,15.558c-.213.213-.435.413-.662.6A9.8,9.8,0,0,0,257.79,183.9Z" transform="translate(-218.877 -162.72)" fill="#fec165"/>
      <circle id="Elipse_13798" data-name="Elipse 13798" cx="6.542" cy="6.542" r="6.542" transform="translate(22.735 28.104) rotate(-45)" fill="#60b7ff"/>
      <path id="Trazado_1034730" data-name="Trazado 1034730" d="M271.03,213.786a6.541,6.541,0,0,0-9.057-.185,6.542,6.542,0,0,1,7.428,10.537c-.064.064-.129.124-.194.185a6.543,6.543,0,0,0,1.823-10.537Z" transform="translate(-234.418 -190.308)" fill="#62a4fb"/>
      <path id="Trazado_1034731" data-name="Trazado 1034731" d="M367.933,332.231l-5.593,5.593a1.266,1.266,0,0,0,0,1.79l.476.476a1.266,1.266,0,0,0,1.79,0L370.2,334.5a1.266,1.266,0,0,0,0-1.79l-.476-.476A1.266,1.266,0,0,0,367.933,332.231Z" transform="translate(-323.864 -297.637)" fill="#6cf5c2"/>
      <path id="Trazado_1034732" data-name="Trazado 1034732" d="M392.552,332.708l-.476-.476a1.266,1.266,0,0,0-1.79,0l-1.418,1.418a1.266,1.266,0,0,1,1.79,0l.476.476a1.266,1.266,0,0,1,0,1.79l-4.175,4.175,5.593-5.593A1.265,1.265,0,0,0,392.552,332.708Z" transform="translate(-346.217 -297.638)" fill="#0ed2b3"/>
      <circle id="Elipse_13799" data-name="Elipse 13799" cx="4.795" cy="4.795" r="4.795" transform="translate(0 22.792) rotate(-80.782)" fill="#44a6f1"/>
      <circle id="Elipse_13800" data-name="Elipse 13800" cx="4.795" cy="4.795" r="4.795" transform="translate(0 35.386) rotate(-80.782)" fill="#44a6f1"/>
      <circle id="Elipse_13801" data-name="Elipse 13801" cx="4.795" cy="4.795" r="4.795" transform="translate(0 47.98) rotate(-80.782)" fill="#44a6f1"/>
    </g>
    <g id="Grupo_1172420" data-name="Grupo 1172420" transform="translate(0.809 7.501)">
      <path id="Trazado_1034733" data-name="Trazado 1034733" d="M81,22.553V20.282A12.782,12.782,0,0,1,93.781,7.5H117.19a.738.738,0,0,1,.739.739V41.8" transform="translate(-72.539 -7.501)" fill="none" stroke="#000" stroke-linecap="round" stroke-linejoin="round" stroke-miterlimit="10" stroke-width="2"/>
      <line id="Línea_779" data-name="Línea 779" y1="5.046" transform="translate(8.461 35.194)" fill="none" stroke="#000" stroke-linecap="round" stroke-linejoin="round" stroke-miterlimit="10" stroke-width="2"/>
      <path id="Trazado_1034734" data-name="Trazado 1034734" d="M81,460.431v3.911a.738.738,0,0,0,.739.739h5.628" transform="translate(-72.539 -412.643)" fill="none" stroke="#000" stroke-linecap="round" stroke-linejoin="round" stroke-miterlimit="10" stroke-width="2"/>
      <line id="Línea_780" data-name="Línea 780" y1="5.046" transform="translate(8.461 22.6)" fill="none" stroke="#000" stroke-linecap="round" stroke-linejoin="round" stroke-miterlimit="10" stroke-width="2"/>
      <path id="Trazado_1034735" data-name="Trazado 1034735" d="M203.209,443.731V449.4a.738.738,0,0,1-.739.739H176.34" transform="translate(-157.82 -397.705)" fill="none" stroke="#000" stroke-linecap="round" stroke-linejoin="round" stroke-miterlimit="10" stroke-width="2"/>
      <path id="Trazado_1034736" data-name="Trazado 1034736" d="M81.445,19.588A3.829,3.829,0,0,1,84.854,17.5h5A1.148,1.148,0,0,0,91,16.356v-5a3.829,3.829,0,0,1,2.084-3.409" transform="translate(-72.937 -7.899)" fill="none" stroke="#000" stroke-linecap="round" stroke-linejoin="round" stroke-miterlimit="10" stroke-width="2"/>
      <line id="Línea_781" data-name="Línea 781" x1="2.52" y1="2.521" transform="translate(37.266 36.356)" fill="none" stroke="#000" stroke-linecap="round" stroke-linejoin="round" stroke-miterlimit="10" stroke-width="2"/>
      <line id="Línea_782" data-name="Línea 782" x1="2.52" y1="2.519" transform="translate(40.24 33.384)" fill="none" stroke="#000" stroke-linecap="round" stroke-linejoin="round" stroke-miterlimit="10" stroke-width="2"/>
      <path id="Trazado_1034737" data-name="Trazado 1034737" d="M396.57,361.941l7.035,7.035a1.054,1.054,0,0,1,0,1.492l-3.028,3.028a1.054,1.054,0,0,1-1.492,0l-7.035-7.035" transform="translate(-350.771 -324.544)" fill="none" stroke="#000" stroke-linecap="round" stroke-linejoin="round" stroke-miterlimit="10" stroke-width="2"/>
      <path id="Trazado_1034738" data-name="Trazado 1034738" d="M226.818,182.99a9.793,9.793,0,1,0,2.475,2.73" transform="translate(-188.937 -162.712)" fill="none" stroke="#000" stroke-linecap="round" stroke-linejoin="round" stroke-miterlimit="10" stroke-width="2"/>
      <circle id="Elipse_13802" data-name="Elipse 13802" cx="6.542" cy="6.542" r="6.542" transform="translate(22.735 28.104) rotate(-45)" fill="none" stroke="#000" stroke-linecap="round" stroke-linejoin="round" stroke-miterlimit="10" stroke-width="2"/>
      <path id="Trazado_1034739" data-name="Trazado 1034739" d="M367.933,332.231l-5.593,5.593a1.266,1.266,0,0,0,0,1.79l.476.476a1.266,1.266,0,0,0,1.79,0L370.2,334.5a1.266,1.266,0,0,0,0-1.79l-.476-.476A1.266,1.266,0,0,0,367.933,332.231Z" transform="translate(-323.864 -297.637)" fill="none" stroke="#000" stroke-linecap="round" stroke-linejoin="round" stroke-miterlimit="10" stroke-width="2"/>
      <circle id="Elipse_13803" data-name="Elipse 13803" cx="4.795" cy="4.795" r="4.795" transform="translate(0 22.792) rotate(-80.782)" fill="none" stroke="#000" stroke-linecap="round" stroke-linejoin="round" stroke-miterlimit="10" stroke-width="2"/>
      <path id="Trazado_1034740" data-name="Trazado 1034740" d="M37.283,174.838l1.285,1.285L40.89,173.8" transform="translate(-33.435 -156.254)" fill="none" stroke="#000" stroke-linecap="round" stroke-linejoin="round" stroke-miterlimit="10" stroke-width="2"/>
      <line id="Línea_783" data-name="Línea 783" x2="7.851" transform="translate(10.296 18.826)" fill="none" stroke="#000" stroke-linecap="round" stroke-linejoin="round" stroke-miterlimit="10" stroke-width="2"/>
      <circle id="Elipse_13804" data-name="Elipse 13804" cx="4.795" cy="4.795" r="4.795" transform="translate(0 35.386) rotate(-80.782)" fill="none" stroke="#000" stroke-linecap="round" stroke-linejoin="round" stroke-miterlimit="10" stroke-width="2"/>
      <path id="Trazado_1034741" data-name="Trazado 1034741" d="M37.283,294.2l1.285,1.285,2.322-2.322" transform="translate(-33.435 -263.023)" fill="none" stroke="#000" stroke-linecap="round" stroke-linejoin="round" stroke-miterlimit="10" stroke-width="2"/>
      <line id="Línea_784" data-name="Línea 784" x2="7.851" transform="translate(10.296 31.42)" fill="none" stroke="#000" stroke-linecap="round" stroke-linejoin="round" stroke-miterlimit="10" stroke-width="2"/>
      <circle id="Elipse_13805" data-name="Elipse 13805" cx="4.795" cy="4.795" r="4.795" transform="translate(0 47.98) rotate(-80.782)" fill="none" stroke="#000" stroke-linecap="round" stroke-linejoin="round" stroke-miterlimit="10" stroke-width="2"/>
      <path id="Trazado_1034742" data-name="Trazado 1034742" d="M37.283,413.563l1.285,1.285,2.322-2.322" transform="translate(-33.435 -369.791)" fill="none" stroke="#000" stroke-linecap="round" stroke-linejoin="round" stroke-miterlimit="10" stroke-width="2"/>
      <line id="Línea_785" data-name="Línea 785" x2="7.851" transform="translate(10.296 44.014)" fill="none" stroke="#000" stroke-linecap="round" stroke-linejoin="round" stroke-miterlimit="10" stroke-width="2"/>
    </g>
  </g>
</svg>
