<svg xmlns="http://www.w3.org/2000/svg" width="57.334" height="59.54" viewBox="0 0 57.334 59.54">
  <g id="Layer_1" data-name="Layer 1" transform="translate(-13.291 -4)">
    <path id="Trazado_1034707" data-name="Trazado 1034707" d="M57.521,62.865H23.893a3.6,3.6,0,0,1-3.6-3.6V19.643L28.912,11H57.521a3.6,3.6,0,0,1,3.6,3.6V59.263a3.6,3.6,0,0,1-3.6,3.6Z" transform="translate(-6.173 -6.173)" fill="#f5f5f5"/>
    <path id="Trazado_1034708" data-name="Trazado 1034708" d="M26.993,62.865h-3.1a3.6,3.6,0,0,1-3.6-3.6V19.643L28.912,11l-5.521,8.643v39.62a3.6,3.6,0,0,0,3.6,3.6Z" transform="translate(-6.173 -6.173)" fill="#e6e6e6"/>
    <path id="Trazado_1034709" data-name="Trazado 1034709" d="M28.913,11v6.586a2.035,2.035,0,0,1-2.035,2.035H20.292Z" transform="translate(-6.174 -6.173)" fill="#bfbfbf"/>
    <path id="Trazado_1034710" data-name="Trazado 1034710" d="M94.357,191.771h-6.2v-9.717h6.2Z" transform="translate(-66.023 -157.024)" fill="#af9002"/>
    <path id="Trazado_1034711" data-name="Trazado 1034711" d="M91.257,191.771h-3.1v-9.717h3.1Z" transform="translate(-66.023 -157.024)" fill="#215278"/>
    <path id="Trazado_1034712" data-name="Trazado 1034712" d="M146.852,156.448h-6.2V142h6.2Z" transform="translate(-112.318 -121.701)" fill="#2f73a8"/>
    <path id="Trazado_1034713" data-name="Trazado 1034713" d="M143.752,156.448h-3.1V142h3.1Z" transform="translate(-112.318 -121.701)" fill="#215278"/>
    <path id="Trazado_1034714" data-name="Trazado 1034714" d="M199.346,121.125h-6.2V101.947h6.2Z" transform="translate(-158.612 -86.378)" fill="#feec9a"/>
    <path id="Trazado_1034715" data-name="Trazado 1034715" d="M196.246,121.125h-3.1V101.947h3.1Z" transform="translate(-158.612 -86.378)" fill="#fcd004"/>
    <path id="Trazado_1034716" data-name="Trazado 1034716" d="M251.841,85.8h-6.2V61.893h6.2Z" transform="translate(-204.907 -51.055)" fill="#b3dbf9"/>
    <path id="Trazado_1034717" data-name="Trazado 1034717" d="M248.741,85.8h-3.1V61.893h3.1Z" transform="translate(-204.907 -51.055)" fill="#44a6f1"/>
    <path id="Trazado_1034718" data-name="Trazado 1034718" d="M371.572,353.676l-4.372,4.372a12.387,12.387,0,0,0-4.906-1.852v-6.224A16.449,16.449,0,0,1,371.572,353.676Z" transform="translate(-307.782 -305.108)" fill="#fcd004"/>
    <path id="Trazado_1034719" data-name="Trazado 1034719" d="M219.819,397.819a15.161,15.161,0,0,0-5.635,7.069h-1.659a16.465,16.465,0,0,1,4.321-10.042Z" transform="translate(-175.703 -344.683)" fill="#66757e"/>
    <path id="Trazado_1034720" data-name="Trazado 1034720" d="M427.883,405.347H421.93a10.623,10.623,0,0,0-2.6-5.7l4.283-4.283A16.462,16.462,0,0,1,427.883,405.347Z" transform="translate(-358.086 -345.142)" fill="#44a6f1"/>
    <path id="Trazado_1034721" data-name="Trazado 1034721" d="M273.147,355.987c-.11,0-.219-.005-.331-.005a13.961,13.961,0,0,0-5.448,1.078l-3.435-3.435a16.448,16.448,0,0,1,9.213-3.652Z" transform="translate(-221.038 -305.11)" fill="#8fa4b1"/>
    <path id="Trazado_1034722" data-name="Trazado 1034722" d="M331.989,467.9a2.077,2.077,0,1,1-2.077-2.077,2.077,2.077,0,0,1,2.077,2.077Z" transform="translate(-277.393 -407.28)" fill="#393939"/>
    <path id="Trazado_1034723" data-name="Trazado 1034723" d="M21.307,40.32a.827.827,0,0,1,.827-.827h24.8a.827.827,0,0,1,0,1.654h-24.8a.827.827,0,0,1-.827-.827ZM44.7,43.4a.827.827,0,0,0-.827-.827H22.134a.827.827,0,1,0,0,1.654H43.876A.827.827,0,0,0,44.7,43.4Zm-4.518,2.253H22.134a.827.827,0,0,0,0,1.654H40.185a.827.827,0,0,0,0-1.654ZM37.57,48.731H22.134a.827.827,0,0,0,0,1.654H37.57a.827.827,0,1,0,0-1.654ZM21.307,34.747V25.03a.827.827,0,0,1,.827-.827h5.373V20.3a.827.827,0,0,1,.827-.827h5.374v-3.9a.827.827,0,0,1,.827-.827h5.373v-3.9a.827.827,0,0,1,.827-.827h6.2a.827.827,0,0,1,.827.827V34.747a.827.827,0,0,1-.827.827h-24.8a.827.827,0,0,1-.827-.827Zm20.254-.827h4.547V11.665H41.561Zm-6.2,0h4.547V16.4H35.361Zm-6.2,0h4.547V21.126H29.16Zm-6.2,0h4.547V25.857H22.96ZM64.375,49.153,60,53.524a.827.827,0,0,1-1.043.1,10.878,10.878,0,0,0-3.183-1.42v.883a4.434,4.434,0,0,1-4.429,4.429h-10.5a15.482,15.482,0,0,0-1.6,2.995.827.827,0,0,1-.768.519H36.823A.827.827,0,0,1,36,60.149a17.167,17.167,0,0,1,.387-2.63H17.72a4.434,4.434,0,0,1-4.429-4.429V13.47c0-.012,0-.023,0-.034a.825.825,0,0,1,.24-.572l8.621-8.621,0,0a.809.809,0,0,1,.08-.069l.023-.017a.826.826,0,0,1,.09-.057l.008,0a.828.828,0,0,1,.091-.04l.026-.009a.845.845,0,0,1,.1-.028h0a.83.83,0,0,1,.1-.013h.028l.028,0H51.348a4.434,4.434,0,0,1,4.429,4.429V44.17a17.212,17.212,0,0,1,8.538,3.76.827.827,0,0,1,.06,1.224ZM16.132,12.621H20.7a1.21,1.21,0,0,0,1.209-1.209V6.826ZM42.841,53.029l-1.655-1.655a15.746,15.746,0,0,0-3.452,8h.2A16.015,16.015,0,0,1,42.841,53.029Zm11.283.06V51.816a.827.827,0,0,1-.438-.729V44.863a.819.819,0,0,1,.438-.728V8.429a2.779,2.779,0,0,0-2.776-2.776H23.566v5.759A2.865,2.865,0,0,1,20.7,14.274H14.945V53.09a2.779,2.779,0,0,0,2.776,2.776H36.847A17.4,17.4,0,0,1,40.535,49.6a.827.827,0,0,1,1.193-.025L44.7,52.551a.827.827,0,0,1-.129,1.275,13.348,13.348,0,0,0-2.4,2.04h9.18a2.779,2.779,0,0,0,2.776-2.776Zm8.419-4.443a15.547,15.547,0,0,0-7.2-2.87V50.4a13.171,13.171,0,0,1,3.959,1.49ZM70.4,60.77a.827.827,0,0,1-.6.262H63.845a.827.827,0,0,1-.818-.7,9.8,9.8,0,0,0-2.389-5.263.827.827,0,0,1,.026-1.142l4.283-4.283a.839.839,0,0,1,.6-.242.827.827,0,0,1,.592.27,17.393,17.393,0,0,1,4.478,10.481.826.826,0,0,1-.221.621Zm-1.515-1.391a15.756,15.756,0,0,0-3.4-7.939l-3.116,3.116a11.393,11.393,0,0,1,2.167,4.823ZM52.672,44.258a.827.827,0,0,1,.264.605v6.014a.827.827,0,0,1-.247.59.814.814,0,0,1-.594.237l-.1,0c-.073,0-.146,0-.22,0a13.139,13.139,0,0,0-5.127,1.013.827.827,0,0,1-.905-.177L42.31,49.1a.827.827,0,0,1,.063-1.226,17.227,17.227,0,0,1,9.675-3.835.829.829,0,0,1,.622.219Zm-1.39,1.519A15.555,15.555,0,0,0,44.147,48.6l2.383,2.383a14.766,14.766,0,0,1,4.752-.928Zm7.984,9.3a.826.826,0,0,1,.191.6l-.181,2.1a.827.827,0,0,1-.823.756l-.072,0a.827.827,0,0,1-.753-.895l.011-.124-2.44,1.99a2.909,2.909,0,1,1-1.046-1.281l2.406-1.962-.319-.028a.827.827,0,1,1,.142-1.648l2.322.2a.827.827,0,0,1,.562.291Zm-5.5,5.545a1.25,1.25,0,1,0-1.25,1.25,1.25,1.25,0,0,0,1.25-1.25Z" transform="translate(0 0)"/>
  </g>
</svg>
