<svg xmlns="http://www.w3.org/2000/svg" width="60.006" height="60.008" viewBox="0 0 60.006 60.008">
  <g id="Page-1" transform="translate(0.003 0.002)">
    <g id="_078---Refresh-Conversation" data-name="078---Refresh-Conversation" transform="translate(-1 -1)">
      <path id="Path" d="M3.983,29.59A2.549,2.549,0,0,0,2,32.176,28.94,28.94,0,0,0,54.671,47.6l3.758,2.628A.994.994,0,0,0,60,49.411l-.007-8.422V36.944a.982.982,0,0,0-.567-.893.948.948,0,0,0-.783-.05l-4.836,1.783-4.762,1.749-2.082.766a1,1,0,0,0-.221,1.757l1.292.9,1.208.844,1.259.88A23.865,23.865,0,0,1,7.073,31.965a2.533,2.533,0,0,0-3.09-2.375Z" fill="#2f73a8" fill-rule="evenodd"/>
      <path id="Path-2" data-name="Path" d="M4.073,31.965a23.847,23.847,0,0,0,25.271,22.9,23.866,23.866,0,0,1-22.271-22.9,2.518,2.518,0,0,0-4.027-1.938,2.53,2.53,0,0,1,1.027,1.938Z" fill="#215278" fill-rule="evenodd"/>
      <path id="Path-3" data-name="Path" d="M59.993,40.989V36.944a.982.982,0,0,0-.567-.893A.951.951,0,0,0,58.647,36l-1.7.629a.987.987,0,0,1,.054.315V49.226l1.429,1A.994.994,0,0,0,60,49.411Z" fill="#215278" fill-rule="evenodd"/>
      <path id="Path-4" data-name="Path" d="M58.017,32.394A2.551,2.551,0,0,0,60,29.808,28.94,28.94,0,0,0,7.329,14.386L3.571,11.759A.993.993,0,0,0,2,12.572V25.039a.955.955,0,0,0,.42.8,1,1,0,0,0,.147.091.948.948,0,0,0,.783.05L8.189,24.2l6.844-2.515a1,1,0,0,0,.221-1.758L11.5,17.3A23.865,23.865,0,0,1,54.927,30.018a2.533,2.533,0,0,0,3.09,2.376Z" fill="#2f73a8" fill-rule="evenodd"/>
      <path id="Path-5" data-name="Path" d="M15.254,19.927,11.5,17.3A23.834,23.834,0,0,1,29.656,7.124,23.872,23.872,0,0,0,8.5,17.3l3.759,2.627a1,1,0,0,1-.221,1.758L5.189,24.2,2.058,25.354a.984.984,0,0,0,.365.488,1,1,0,0,0,.147.091.948.948,0,0,0,.783.05L8.189,24.2l6.844-2.514a1,1,0,0,0,.221-1.759Z" fill="#215278" fill-rule="evenodd"/>
      <path id="Path-6" data-name="Path" d="M47.652,7.2a28.764,28.764,0,0,0-18.01-5.164A28.919,28.919,0,0,1,57,29.808a2.538,2.538,0,0,1-1.044,2.148,2.507,2.507,0,0,0,2.063.438A2.551,2.551,0,0,0,60,29.808,29.007,29.007,0,0,0,47.652,7.2Z" fill="#215278" fill-rule="evenodd"/>
      <path id="Path-7" data-name="Path" d="M31,19c-7.732,0-14,5.373-14,12a10.764,10.764,0,0,0,2.341,6.638l-1.31,4.118a1,1,0,0,0,1.321,1.179l3.943-1.92A15.633,15.633,0,0,0,31,43c7.732,0,14-5.372,14-12S38.732,19,31,19Z" fill="#fcd004" fill-rule="evenodd"/>
      <path id="Path-8" data-name="Path" d="M31,19c-.507,0-1.007.026-1.5.071C36.526,19.709,42,24.8,42,31S36.539,42.27,29.525,42.922c.486.044.976.074,1.475.074,7.732,0,14-5.372,14-12S38.732,19,31,19Z" fill="#af9002" fill-rule="evenodd"/>
      <g id="Grupo_1172422" data-name="Grupo 1172422">
        <path id="Shape" d="M61,36.948a2.019,2.019,0,0,0-2.7-1.882l-11.674,4.3a2,2,0,0,0-.458,3.518l2.932,2.04a22.866,22.866,0,0,1-41.025-13,3.541,3.541,0,1,0-7.075.3A29.94,29.94,0,0,0,30.837,61.006a30.28,30.28,0,0,0,5.322-.473A29.723,29.723,0,0,0,54.9,48.985l2.951,2.064A1.994,1.994,0,0,0,61,49.414l-.007-8.42Zm-5.753,9.834a1,1,0,0,0-1.393.248A27.94,27.94,0,0,1,3,32.139a1.55,1.55,0,0,1,1.2-1.571A1.534,1.534,0,0,1,6.074,32.01,24.867,24.867,0,0,0,51.325,45.26a1,1,0,0,0-.247-1.391l-3.765-2.628L59,36.947V49.41Z"/>
        <path id="Shape-2" data-name="Shape" d="M53.928,30.063A3.539,3.539,0,1,0,61,29.77,29.945,29.945,0,0,0,7.1,13.007L4.145,10.943a2,2,0,0,0-2.081-.135A1.976,1.976,0,0,0,1,12.576V25.028a1.966,1.966,0,0,0,.843,1.635,1.693,1.693,0,0,0,.251.154,1.96,1.96,0,0,0,1.6.109l11.674-4.3a1.978,1.978,0,0,0,1.3-1.607,2,2,0,0,0-.842-1.91L12.9,17.068A22.865,22.865,0,0,1,53.928,30.063ZM31.146,6.072a25.24,25.24,0,0,0-4.417.392A24.71,24.71,0,0,0,10.675,16.732a1,1,0,0,0,.247,1.391l3.766,2.627L3,25.043V12.582L6.756,15.21a1,1,0,0,0,1.393-.248A27.94,27.94,0,0,1,59,29.853a1.549,1.549,0,0,1-1.205,1.57,1.522,1.522,0,0,1-1.264-.276,1.54,1.54,0,0,1-.6-1.166A24.873,24.873,0,0,0,31.146,6.072Z"/>
        <path id="Shape-3" data-name="Shape" d="M17.67,43.491a2.027,2.027,0,0,0,2.12.343l3.48-1.694A16.725,16.725,0,0,0,31,44c8.271,0,15-5.832,15-13S39.271,18,31,18,16,23.832,16,31a11.7,11.7,0,0,0,2.232,6.823l-1.17,3.691A1.991,1.991,0,0,0,17.67,43.491ZM18,31c0-6.065,5.832-11,13-11s13,4.935,13,11S38.168,42,31,42a14.658,14.658,0,0,1-7.212-1.855,1,1,0,0,0-.931-.03l-3.873,1.944,1.31-4.119a1,1,0,0,0-.163-.916A9.769,9.769,0,0,1,18,31Z"/>
        <path id="Path-9" data-name="Path" d="M24,27H38a1,1,0,0,0,0-2H24a1,1,0,0,0,0,2Z" fill-rule="evenodd"/>
        <path id="Path-10" data-name="Path" d="M24,32H38a1,1,0,0,0,0-2H24a1,1,0,0,0,0,2Z" fill-rule="evenodd"/>
        <path id="Path-11" data-name="Path" d="M24,37H38a1,1,0,0,0,0-2H24a1,1,0,0,0,0,2Z" fill-rule="evenodd"/>
      </g>
    </g>
  </g>
</svg>
