<svg xmlns="http://www.w3.org/2000/svg" xmlns:xlink="http://www.w3.org/1999/xlink" width="108.913" height="108.914" viewBox="0 0 108.913 108.914">
  <defs>
    <filter id="Trazado_1002827" x="0" y="0" width="108.913" height="108.914" filterUnits="userSpaceOnUse">
      <feOffset dy="3" input="SourceAlpha"/>
      <feGaussianBlur stdDeviation="3" result="blur"/>
      <feFlood flood-opacity="0.161"/>
      <feComposite operator="in" in2="blur"/>
      <feComposite in="SourceGraphic"/>
    </filter>
  </defs>
  <g id="Grupo_1173068" data-name="Grupo 1173068" transform="translate(-8669.861 9478.403)">
    <g transform="matrix(1, 0, 0, 1, 8669.86, -9478.4)" filter="url(#Trazado_1002827)">
      <g id="Trazado_1002827-2" data-name="Trazado 1002827" transform="translate(9 6)" fill="#a8aeb5" opacity="0.859">
        <path d="M 45.45676803588867 89.41407012939453 C 39.52198028564453 89.41407012939453 33.76551818847656 88.25206756591797 28.34726715087891 85.96034240722656 C 23.11311721801758 83.74648284912109 18.41204261779785 80.57682800292969 14.37464332580566 76.5394287109375 C 10.33724308013916 72.50202941894531 7.167593002319336 67.80095672607422 4.953730583190918 62.56679534912109 C 2.662005424499512 57.14855575561523 1.500005483627319 51.39208221435547 1.500005483627319 45.45729446411133 C 1.500005483627319 39.52198028564453 2.662005424499512 33.76551818847656 4.953730583190918 28.34726905822754 C 7.167593002319336 23.11310577392578 10.33724308013916 18.41203117370605 14.37464332580566 14.37464332580566 C 18.41204261779785 10.33724403381348 23.11311721801758 7.167593955993652 28.34726715087891 4.953731060028076 C 33.76551818847656 2.662006139755249 39.52198028564453 1.500006198883057 45.45676803588867 1.500006198883057 C 51.39155578613281 1.500006198883057 57.14802932739258 2.662006139755249 62.56626892089844 4.953731060028076 C 67.80043029785156 7.167593955993652 72.50150299072266 10.33724403381348 76.53890228271484 14.37464332580566 C 80.57630920410156 18.41203117370605 83.74595642089844 23.11310577392578 85.95981597900391 28.34726905822754 C 88.25154113769531 33.76551818847656 89.41354370117188 39.52198028564453 89.41354370117188 45.45676803588867 C 89.41354370117188 51.39208221435547 88.25154113769531 57.14855575561523 85.95981597900391 62.56679534912109 C 83.74595642089844 67.80095672607422 80.57630920410156 72.50202941894531 76.53890228271484 76.5394287109375 C 72.50150299072266 80.57682800292969 67.80043029785156 83.74648284912109 62.56626892089844 85.96034240722656 C 57.14802932739258 88.25206756591797 51.39155578613281 89.41407012939453 45.45676803588867 89.41407012939453 Z" stroke="none"/>
        <path d="M 45.45676803588867 3 C 39.72381210327148 3 34.1639404296875 4.12213134765625 28.93159484863281 6.335227966308594 C 23.87622833251953 8.473472595214844 19.33542633056641 11.53517150878906 15.43529510498047 15.435302734375 C 11.53517150878906 19.33543395996094 8.473464965820312 23.87622833251953 6.335227966308594 28.93160247802734 C 4.122123718261719 34.16394424438477 3 39.72381591796875 3 45.4572868347168 C 3 51.19024658203125 4.122123718261719 56.75011825561523 6.335227966308594 61.98246002197266 C 8.473464965820312 67.03782653808594 11.53517150878906 71.57862854003906 15.43529510498047 75.478759765625 C 19.33542633056641 79.37889099121094 23.87622833251953 82.44058990478516 28.93159484863281 84.57883453369141 C 34.1639404296875 86.79193115234375 39.72381210327148 87.9140625 45.45676803588867 87.9140625 C 51.18972396850586 87.9140625 56.74959564208984 86.79193115234375 61.98194122314453 84.57883453369141 C 67.03730773925781 82.44058990478516 71.57810974121094 79.37889099121094 75.47824096679688 75.478759765625 C 79.37837219238281 71.57862854003906 82.44007110595703 67.03782653808594 84.57830810546875 61.98246002197266 C 86.79141235351562 56.75011825561523 87.91353607177734 51.19024658203125 87.91353607177734 45.4567756652832 C 87.91353607177734 39.72381591796875 86.79141235351562 34.16394424438477 84.57830810546875 28.93160247802734 C 82.44007110595703 23.87622833251953 79.37837219238281 19.33543395996094 75.47824096679688 15.435302734375 C 71.57810974121094 11.53517150878906 67.03730773925781 8.473472595214844 61.98194122314453 6.335227966308594 C 56.74959564208984 4.12213134765625 51.18972396850586 3 45.45676803588867 3 M 45.45676803588867 0 C 70.56185150146484 0 90.91353607177734 20.35169219970703 90.91353607177734 45.4567756652832 L 90.91353607177734 45.4572868347168 C 90.91353607177734 70.5623779296875 70.56185150146484 90.9140625 45.45676803588867 90.9140625 C 20.3516845703125 90.9140625 0 70.5623779296875 0 45.4572868347168 L 0 45.4567756652832 C 0 20.35169219970703 20.3516845703125 0 45.45676803588867 0 Z" stroke="none" fill="#fff"/>
      </g>
    </g>
    <g id="Grupo_1172837" data-name="Grupo 1172837" transform="translate(8688.528 -9458.323)">
      <path id="Trazado_1036529" data-name="Trazado 1036529" d="M15.4,63.991H59.61V93.283H15.4Z" transform="translate(-4.508 -52.052)" fill="#e9e9ff"/>
      <circle id="Elipse_13829" data-name="Elipse 13829" cx="9.022" cy="9.022" r="9.022" transform="translate(14.997 6.511)" fill="#44a6f1"/>
      <path id="Trazado_1036530" data-name="Trazado 1036530" d="M81.527,11.451a9.023,9.023,0,0,1,0,17.951,9.023,9.023,0,0,1,0-17.951Z" transform="translate(-56.587 -4.894)" fill="#b3dbf9" fill-rule="evenodd"/>
      <path id="Trazado_1036531" data-name="Trazado 1036531" d="M103.726,61.249a1.17,1.17,0,0,1,0,1.65l-5.412,5.412a1.421,1.421,0,0,1-2.236-.294l-2.019-3.5a1.166,1.166,0,0,1,2.02-1.166L97.5,65.821l4.572-4.572a1.17,1.17,0,0,1,1.65,0Z" transform="translate(-74.966 -49.286)" fill="#f0f0ff" fill-rule="evenodd"/>
      <path id="Trazado_1036532" data-name="Trazado 1036532" d="M15.4,63.991h.951V93.283H15.4Z" transform="translate(-4.508 -52.052)" fill="#d1d1f0"/>
      <g id="Grupo_1172836" data-name="Grupo 1172836" transform="translate(43.082 34.143)">
        <path id="Trazado_1036533" data-name="Trazado 1036533" d="M419.68,405.921l3.753,7.924-2.928-.911-1.423,2.717-2.96-8.253Z" transform="translate(-407.264 -393.104)" fill="#dbdee1" fill-rule="evenodd"/>
        <path id="Trazado_1036534" data-name="Trazado 1036534" d="M426.211,405.921l3.31,6.989-2.126-.661-1.274,2.432-2.723-7.592Z" transform="translate(-413.796 -393.104)" fill="#edeef0" fill-rule="evenodd"/>
        <path id="Trazado_1036535" data-name="Trazado 1036535" d="M346.177,407.481l-2.949,8.257-1.426-2.715-2.927.915,3.743-7.929Z" transform="translate(-337.929 -393.183)" fill="#dbdee1" fill-rule="evenodd"/>
        <path id="Trazado_1036536" data-name="Trazado 1036536" d="M355.435,410.211l-2.572,7.2-1-1.907-2.672.835,3.44-7.288Z" transform="translate(-347.186 -395.913)" fill="#edeef0" fill-rule="evenodd"/>
        <path id="Trazado_1036537" data-name="Trazado 1036537" d="M340.047,281.8a2.151,2.151,0,0,0,2.156.893,2.2,2.2,0,0,1,2.627,2.627,2.151,2.151,0,0,0,.893,2.156,2.2,2.2,0,0,1,0,3.715,2.151,2.151,0,0,0-.893,2.156,2.2,2.2,0,0,1-2.627,2.627,2.151,2.151,0,0,0-2.156.893,2.2,2.2,0,0,1-3.715,0,2.151,2.151,0,0,0-2.156-.893,2.2,2.2,0,0,1-2.627-2.626,2.151,2.151,0,0,0-.893-2.156,2.2,2.2,0,0,1,0-3.714,2.151,2.151,0,0,0,.893-2.156,2.2,2.2,0,0,1,2.627-2.627,2.151,2.151,0,0,0,2.156-.893,2.2,2.2,0,0,1,3.714,0Z" transform="translate(-329.637 -280.783)" fill="#f9ac00" fill-rule="evenodd"/>
        <path id="Trazado_1036538" data-name="Trazado 1036538" d="M348.468,282.209a2.151,2.151,0,0,0,2.156.893,2.2,2.2,0,0,1,2.627,2.627,2.151,2.151,0,0,0,.893,2.156,2.2,2.2,0,0,1,0,3.715,2.151,2.151,0,0,0-.893,2.156,2.2,2.2,0,0,1-2.626,2.626,2.151,2.151,0,0,0-2.156.893,1.461,1.461,0,0,1-2.754,0,2.151,2.151,0,0,0-2.156-.893l-.109.017a2.234,2.234,0,0,0-.852-.017l-.011,0a2.065,2.065,0,0,1-1.062-.594,2.146,2.146,0,0,1-.592-2.034,2.151,2.151,0,0,0-.893-2.156,2.2,2.2,0,0,1,0-3.714,2.151,2.151,0,0,0,.893-2.156,2.146,2.146,0,0,1,.592-2.034,2.065,2.065,0,0,1,1.062-.594l.011,0a2.235,2.235,0,0,0,.852-.017l.109.017a2.151,2.151,0,0,0,2.156-.893,1.461,1.461,0,0,1,2.754,0Z" transform="translate(-338.058 -281.19)" fill="#fcd004" fill-rule="evenodd"/>
        <path id="Trazado_1036539" data-name="Trazado 1036539" d="M384.218,332.582a4.093,4.093,0,1,0-4.093-4.093A4.1,4.1,0,0,0,384.218,332.582Z" transform="translate(-374.954 -319.929)" fill="#f9ac00" fill-rule="evenodd"/>
      </g>
      <circle id="Elipse_13830" data-name="Elipse 13830" cx="4.093" cy="4.093" r="4.093" transform="translate(47.542 38.603)" fill="#f3f3ff"/>
      <path id="Trazado_1036540" data-name="Trazado 1036540" d="M63.911,269.443a1.758,1.758,0,0,1,1.753,1.753v-8.287a1.571,1.571,0,1,1,3.143,0v6.582a1.437,1.437,0,0,1,2.875,0v.471a1.379,1.379,0,0,1,2.758,0v1.131a1.336,1.336,0,1,1,2.671,0v7.035c0,1.9-1.285,5.769-3.18,5.769l-8.162-.292v-.562A3.33,3.33,0,0,0,64.64,280.5l-1.354-1.228a3.33,3.33,0,0,1-1.129-2.548V271.2a1.758,1.758,0,0,1,1.753-1.753Z" transform="translate(-46.472 -229.186)" fill="#f2c496" fill-rule="evenodd"/>
      <path id="Trazado_1036541" data-name="Trazado 1036541" d="M75.649,270.638a1.737,1.737,0,0,1,.092.56V262.91a1.571,1.571,0,0,1,3.143,0v6.582a1.437,1.437,0,0,1,2.875,0v.471a1.379,1.379,0,0,1,2.758,0v1.131a1.336,1.336,0,1,1,2.671,0v7.035c0,1.9-1.285,5.769-3.18,5.769L77,283.647v-1.118a3.33,3.33,0,0,0-1.129-2.548l-1.353-1.228a3.33,3.33,0,0,1-1.129-2.548v-5.193a1.163,1.163,0,0,1,2.265-.374Z" transform="translate(-56.548 -229.187)" fill="#fdd7ad" fill-rule="evenodd"/>
      <path id="Trazado_1036542" data-name="Trazado 1036542" d="M92.041,468.73H102.5a.614.614,0,0,1,.613.613v2.086a.614.614,0,0,1-.613.613H92.041a.614.614,0,0,1-.613-.613v-2.086a.614.614,0,0,1,.613-.613Z" transform="translate(-72.744 -415.336)" fill="#2a92fa"/>
      <path id="Trazado_1036543" data-name="Trazado 1036543" d="M113.717,468.73h8.24a.614.614,0,0,1,.613.613v2.086a.614.614,0,0,1-.613.613h-8.24a.614.614,0,0,1-.613-.613v-2.086a.614.614,0,0,1,.613-.613Z" transform="translate(-92.2 -415.336)" fill="#4eb1fc"/>
      <path id="Trazado_1036544" data-name="Trazado 1036544" d="M97.545,261.9v12.78a.575.575,0,0,1-1.15,0V263.419a1.578,1.578,0,0,1,1.15-1.514Z" transform="translate(-77.202 -229.695)" fill="#f2c496" fill-rule="evenodd"/>
      <path id="Trazado_1036545" data-name="Trazado 1036545" d="M128.23,327.191V330.5a.575.575,0,0,1-1.15,0v-1.9a1.443,1.443,0,0,1,1.15-1.408Z" transform="translate(-104.744 -288.294)" fill="#f2c496" fill-rule="evenodd"/>
      <path id="Trazado_1036546" data-name="Trazado 1036546" d="M156.295,332.264v2.917a.575.575,0,1,1-1.15,0v-1.557a1.384,1.384,0,0,1,1.15-1.36Z" transform="translate(-129.935 -292.848)" fill="#f2c496" fill-rule="evenodd"/>
      <path id="Trazado_1036547" data-name="Trazado 1036547" d="M183.227,343.669V346.1a.575.575,0,0,1-1.15,0v-1.112a1.341,1.341,0,0,1,1.15-1.323Z" transform="translate(-154.108 -303.085)" fill="#f2c496" fill-rule="evenodd"/>
      <path id="Trazado_1036548" data-name="Trazado 1036548" d="M19.536,14.979l2.017,3.5a.875.875,0,0,0,.672.447.855.855,0,0,0,.758-.258L28.4,13.251a.654.654,0,0,0-.923-.926L22.9,16.9a.5.5,0,0,1-.426.146.507.507,0,0,1-.376-.252L20.67,14.325a.64.64,0,0,0-.4-.3A.681.681,0,0,0,20.1,14a.654.654,0,0,0-.627.485.658.658,0,0,0,.065.5Zm-.888.512a1.68,1.68,0,0,1,2.91-1.679L22.647,15.7l4.1-4.1a1.678,1.678,0,0,1,2.373,2.374L23.71,19.388a1.889,1.889,0,0,1-1.355.567,2.021,2.021,0,0,1-.266-.018,1.893,1.893,0,0,1-1.42-.95l-2.022-3.5Zm36.59,27.2a3.6,3.6,0,1,0-3.6,3.6A3.607,3.607,0,0,0,55.238,42.693Zm1.024,0a4.626,4.626,0,1,1-4.626-4.628A4.631,4.631,0,0,1,56.261,42.693Zm3.412,0a1.637,1.637,0,0,1-.8,1.439,2.656,2.656,0,0,0-1.1,2.659,1.687,1.687,0,0,1-2.032,2.035,2.656,2.656,0,0,0-2.659,1.1,1.692,1.692,0,0,1-2.88,0,2.644,2.644,0,0,0-2.178-1.142,2.826,2.826,0,0,0-.477.04A1.688,1.688,0,0,1,45.5,46.791a2.656,2.656,0,0,0-1.1-2.659,1.691,1.691,0,0,1,0-2.878A2.657,2.657,0,0,0,45.5,38.6a1.689,1.689,0,0,1,2.037-2.035,2.643,2.643,0,0,0,2.654-1.1,1.692,1.692,0,0,1,2.88,0,2.654,2.654,0,0,0,2.659,1.1A1.687,1.687,0,0,1,57.767,38.6a2.657,2.657,0,0,0,1.1,2.659,1.637,1.637,0,0,1,.8,1.439Zm-3.362,7.191a3.409,3.409,0,0,1-.748-.048,1.653,1.653,0,0,0-1.656.684,3.223,3.223,0,0,1-.477.548l1.561,4.35.878-1.678a.514.514,0,0,1,.607-.251l1.806.563-1.972-4.168Zm-6.453,1.2a3.52,3.52,0,0,1-.5-.563,1.649,1.649,0,0,0-1.651-.684,3.5,3.5,0,0,1-.728.05l-1.972,4.179,1.806-.565a.514.514,0,0,1,.607.25l.878,1.677,1.556-4.343ZM30.71,40.719H43.436a4.05,4.05,0,0,1,.371-.3,1.654,1.654,0,0,0,.687-1.652,2.868,2.868,0,0,1,.1-1.517H22.847v1.343a1.949,1.949,0,0,1,2.584.692,1.893,1.893,0,0,1,2.981,1,1.844,1.844,0,0,1,2.3.43ZM29.852,54a.1.1,0,0,0-.1-.1H19.3a.1.1,0,0,0-.1.1v2.085a.1.1,0,0,0,.1.1H29.752a.1.1,0,0,0,.1-.1V54ZM19.7,52.876a3.814,3.814,0,0,0-1.179-1.95L17.162,49.7a2.816,2.816,0,0,1-.958-2.167V42.013a1.239,1.239,0,1,1,2.479,0v3.008a.512.512,0,1,0,1.024,0V33.731a1.059,1.059,0,0,1,2.118,0V42.2a.512.512,0,1,0,1.024,0V40.308a.926.926,0,0,1,1.852,0v2a.512.512,0,1,0,1.024,0V40.779a.863.863,0,0,1,1.475-.611.856.856,0,0,1,.256.611v2.259a.512.512,0,1,0,1.024,0V41.909a.823.823,0,0,1,1.646,0V48.94A9.033,9.033,0,0,1,29,52.876H19.7Zm-4.11-12.157H11.412V12.451h3.583a9.531,9.531,0,1,0,18.049,0H54.59V35.432a1.675,1.675,0,0,1-.682-.565,2.709,2.709,0,0,0-4.546,0,1.648,1.648,0,0,1-1.651.684,2.653,2.653,0,0,0-2.419.675H22.847v-2.5a2.134,2.134,0,0,0-.07-.541H50.31a.512.512,0,0,0,0-1.024H22.135a2.072,2.072,0,0,0-2.74,0h-3.7a.512.512,0,0,0,0,1.024h3.066a2.137,2.137,0,0,0-.075.541v2.5H15.692a.512.512,0,0,0,0,1.024h2.991v2.868a2.26,2.26,0,0,0-3.1.6Zm-.075-25.186a8.508,8.508,0,1,1,8.505,8.509,8.516,8.516,0,0,1-8.505-8.509ZM58.78,46.62a2.673,2.673,0,0,1-.738,2.481,2.737,2.737,0,0,1-.723.525l2.389,5.043a.5.5,0,0,1-.075.555.51.51,0,0,1-.537.154l-2.519-.783-1.219,2.334a.517.517,0,0,1-.457.274h-.035a.516.516,0,0,1-.447-.338l-1.882-5.254a2.876,2.876,0,0,1-1.786.007l-1.877,5.254a.505.505,0,0,1-.447.339l-.035,0a.516.516,0,0,1-.452-.274L46.717,54.6l-2.519.786a.51.51,0,0,1-.612-.707l2.383-5.048a2.768,2.768,0,0,1-.743-.535,2.658,2.658,0,0,1-.733-2.481,1.655,1.655,0,0,0-.687-1.652,2.661,2.661,0,0,1-1.234-2.274,2.774,2.774,0,0,1,.161-.95h-11.6c.005.055.01.109.01.166v7.03a10.113,10.113,0,0,1-1.019,4A1.128,1.128,0,0,1,30.881,54v2.085a1.129,1.129,0,0,1-1.129,1.125H19.3a1.124,1.124,0,0,1-1.124-1.125V54a1.123,1.123,0,0,1,.507-.94,2.849,2.849,0,0,0-.853-1.376l-1.355-1.227a3.853,3.853,0,0,1-1.295-2.926V42.013a2.375,2.375,0,0,1,.015-.269H10.9a.514.514,0,0,1-.517-.512V11.939a.514.514,0,0,1,.517-.512h4.516a9.532,9.532,0,0,1,17.206,0H55.1a.513.513,0,0,1,.512.512v23.6a2.64,2.64,0,0,1,2.429.743,2.674,2.674,0,0,1,.738,2.481,1.642,1.642,0,0,0,.682,1.652,2.712,2.712,0,0,1,0,4.548,1.642,1.642,0,0,0-.682,1.652ZM31.037,25.067H50.31a.512.512,0,0,0,0-1.025H31.037a.512.512,0,0,0,0,1.025ZM15.692,29.128H50.31a.512.512,0,0,0,0-1.024H15.692a.512.512,0,0,0,0,1.024Zm18.827-8.122H50.31a.512.512,0,0,0,0-1.025H34.519a.512.512,0,0,0,0,1.025Zm.447-4.573a.513.513,0,0,0,.512.512H50.31a.512.512,0,0,0,0-1.024H35.477a.513.513,0,0,0-.512.512Z" transform="translate(0 0)" fill-rule="evenodd"/>
    </g>
  </g>
</svg>
