<svg xmlns="http://www.w3.org/2000/svg" xmlns:xlink="http://www.w3.org/1999/xlink" width="111.301" height="111.301" viewBox="0 0 111.301 111.301">
  <defs>
    <filter id="Trazado_1002361" x="0" y="0" width="111.301" height="111.301" filterUnits="userSpaceOnUse">
      <feOffset dy="3" input="SourceAlpha"/>
      <feGaussianBlur stdDeviation="3" result="blur"/>
      <feFlood flood-opacity="0.412"/>
      <feComposite operator="in" in2="blur"/>
    </filter>
    <filter id="Trazado_1002361-2" x="0" y="0" width="111.301" height="111.301" filterUnits="userSpaceOnUse">
      <feOffset dy="3" input="SourceAlpha"/>
      <feGaussianBlur stdDeviation="3" result="blur-2"/>
      <feFlood flood-opacity="0.161" result="color"/>
      <feComposite operator="out" in="SourceGraphic" in2="blur-2"/>
      <feComposite operator="in" in="color"/>
      <feComposite operator="in" in2="SourceGraphic"/>
    </filter>
  </defs>
  <g id="Grupo_1172101" data-name="Grupo 1172101" transform="translate(-895.967 -396.586)">
    <g data-type="innerShadowGroup">
      <g transform="matrix(1, 0, 0, 1, 895.97, 396.59)" filter="url(#Trazado_1002361)">
        <g id="Trazado_1002361-3" data-name="Trazado 1002361" transform="translate(9 6)" fill="#a8aeb5">
          <path d="M 46.65038681030273 91.80055236816406 C 40.55446624755859 91.80055236816406 34.64168167114258 90.60699462890625 29.07628059387207 88.25302886962891 C 23.69998741149902 85.97905731201172 18.87125396728516 82.72333526611328 14.72424030303955 78.57633972167969 C 10.57722663879395 74.42932891845703 7.321506977081299 69.60061645507812 5.047520160675049 64.22434234619141 C 2.693560123443604 58.65895080566406 1.50000011920929 52.74617767333984 1.50000011920929 46.65027236938477 C 1.50000011920929 40.55436706542969 2.693560123443604 34.64159393310547 5.047520160675049 29.07620620727539 C 7.321506977081299 23.69992637634277 10.57722663879395 18.87121963500977 14.72424030303955 14.72420597076416 C 18.87125396728516 10.57720565795898 23.69998741149902 7.321498870849609 29.07628059387207 5.047525882720947 C 34.64168167114258 2.693565607070923 40.55446624755859 1.500005722045898 46.65038681030273 1.500005722045898 C 52.74630737304688 1.500005722045898 58.65909194946289 2.693565607070923 64.22449493408203 5.047525882720947 C 69.60078430175781 7.321498870849609 74.42950439453125 10.57720565795898 78.57652282714844 14.72420597076416 C 82.72354888916016 18.87121963500977 85.97926330566406 23.69992637634277 88.25324249267578 29.07620620727539 C 90.60721588134766 34.64159393310547 91.80077362060547 40.55436706542969 91.80077362060547 46.65027236938477 C 91.80077362060547 52.74617767333984 90.60721588134766 58.65895080566406 88.25324249267578 64.22432708740234 C 85.97926330566406 69.60061645507812 82.72354888916016 74.42932891845703 78.57652282714844 78.57633972167969 C 74.42950439453125 82.72333526611328 69.60078430175781 85.97905731201172 64.22449493408203 88.25302886962891 C 58.65909194946289 90.60699462890625 52.74630737304688 91.80055236816406 46.65038681030273 91.80055236816406 Z" stroke="none"/>
          <path d="M 46.65038681030273 3 C 40.75630187988281 3 35.04011535644531 4.1536865234375 29.66060256958008 6.429031372070312 C 24.46310424804688 8.627372741699219 19.79464721679688 11.775146484375 15.78490447998047 15.78487396240234 C 11.77516174316406 19.79460144042969 8.627388000488281 24.46305847167969 6.429031372070312 29.66054534912109 C 4.1536865234375 35.0400276184082 3 40.75620269775391 3 46.65027236938477 C 3 52.54434204101562 4.1536865234375 58.26051712036133 6.429031372070312 63.63999938964844 C 8.627388000488281 68.83748626708984 11.77516174316406 73.50594329833984 15.78490447998047 77.51567077636719 C 19.79464721679688 81.52539825439453 24.46310424804688 84.67317199707031 29.66060256958008 86.87151336669922 C 35.04011535644531 89.14685821533203 40.75630187988281 90.30054473876953 46.65038681030273 90.30054473876953 C 52.54447174072266 90.30054473876953 58.26065826416016 89.14685821533203 63.64015960693359 86.87151336669922 C 68.83766174316406 84.67317199707031 73.50611877441406 81.52539825439453 77.51586151123047 77.51567077636719 C 81.52561950683594 73.50592803955078 84.67338562011719 68.83748626708984 86.87174224853516 63.63999938964844 C 89.14707183837891 58.26051712036133 90.30077362060547 52.54434204101562 90.30077362060547 46.65027236938477 C 90.30077362060547 40.75620269775391 89.14707183837891 35.0400276184082 86.87174224853516 29.66054534912109 C 84.67338562011719 24.46305847167969 81.52561950683594 19.79461669921875 77.51586151123047 15.78487396240234 C 73.50611877441406 11.775146484375 68.83766174316406 8.627372741699219 63.64015960693359 6.429031372070312 C 58.26065826416016 4.1536865234375 52.54447174072266 3 46.65038681030273 3 M 46.65038681030273 0 C 72.41465759277344 0 93.30077362060547 20.88604736328125 93.30077362060547 46.65027236938477 C 93.30077362060547 72.41450500488281 72.41465759277344 93.30054473876953 46.65038681030273 93.30054473876953 C 20.88608551025391 93.30054473876953 0 72.41450500488281 0 46.65027236938477 C 0 20.88604736328125 20.88608551025391 0 46.65038681030273 0 Z" stroke="none" fill="#fff"/>
        </g>
      </g>
      <g id="Trazado_1002361-4" data-name="Trazado 1002361" transform="translate(904.967 402.586)" fill="#a8aeb5">
        <path d="M 46.65038681030273 91.80055236816406 C 40.55446624755859 91.80055236816406 34.64168167114258 90.60699462890625 29.07628059387207 88.25302886962891 C 23.69998741149902 85.97905731201172 18.87125396728516 82.72333526611328 14.72424030303955 78.57633972167969 C 10.57722663879395 74.42932891845703 7.321506977081299 69.60061645507812 5.047520160675049 64.22434234619141 C 2.693560123443604 58.65895080566406 1.50000011920929 52.74617767333984 1.50000011920929 46.65027236938477 C 1.50000011920929 40.55436706542969 2.693560123443604 34.64159393310547 5.047520160675049 29.07620620727539 C 7.321506977081299 23.69992637634277 10.57722663879395 18.87121963500977 14.72424030303955 14.72420597076416 C 18.87125396728516 10.57720565795898 23.69998741149902 7.321498870849609 29.07628059387207 5.047525882720947 C 34.64168167114258 2.693565607070923 40.55446624755859 1.500005722045898 46.65038681030273 1.500005722045898 C 52.74630737304688 1.500005722045898 58.65909194946289 2.693565607070923 64.22449493408203 5.047525882720947 C 69.60078430175781 7.321498870849609 74.42950439453125 10.57720565795898 78.57652282714844 14.72420597076416 C 82.72354888916016 18.87121963500977 85.97926330566406 23.69992637634277 88.25324249267578 29.07620620727539 C 90.60721588134766 34.64159393310547 91.80077362060547 40.55436706542969 91.80077362060547 46.65027236938477 C 91.80077362060547 52.74617767333984 90.60721588134766 58.65895080566406 88.25324249267578 64.22432708740234 C 85.97926330566406 69.60061645507812 82.72354888916016 74.42932891845703 78.57652282714844 78.57633972167969 C 74.42950439453125 82.72333526611328 69.60078430175781 85.97905731201172 64.22449493408203 88.25302886962891 C 58.65909194946289 90.60699462890625 52.74630737304688 91.80055236816406 46.65038681030273 91.80055236816406 Z" stroke="none"/>
        <path d="M 46.65038681030273 3 C 40.75630187988281 3 35.04011535644531 4.1536865234375 29.66060256958008 6.429031372070312 C 24.46310424804688 8.627372741699219 19.79464721679688 11.775146484375 15.78490447998047 15.78487396240234 C 11.77516174316406 19.79460144042969 8.627388000488281 24.46305847167969 6.429031372070312 29.66054534912109 C 4.1536865234375 35.0400276184082 3 40.75620269775391 3 46.65027236938477 C 3 52.54434204101562 4.1536865234375 58.26051712036133 6.429031372070312 63.63999938964844 C 8.627388000488281 68.83748626708984 11.77516174316406 73.50594329833984 15.78490447998047 77.51567077636719 C 19.79464721679688 81.52539825439453 24.46310424804688 84.67317199707031 29.66060256958008 86.87151336669922 C 35.04011535644531 89.14685821533203 40.75630187988281 90.30054473876953 46.65038681030273 90.30054473876953 C 52.54447174072266 90.30054473876953 58.26065826416016 89.14685821533203 63.64015960693359 86.87151336669922 C 68.83766174316406 84.67317199707031 73.50611877441406 81.52539825439453 77.51586151123047 77.51567077636719 C 81.52561950683594 73.50592803955078 84.67338562011719 68.83748626708984 86.87174224853516 63.63999938964844 C 89.14707183837891 58.26051712036133 90.30077362060547 52.54434204101562 90.30077362060547 46.65027236938477 C 90.30077362060547 40.75620269775391 89.14707183837891 35.0400276184082 86.87174224853516 29.66054534912109 C 84.67338562011719 24.46305847167969 81.52561950683594 19.79461669921875 77.51586151123047 15.78487396240234 C 73.50611877441406 11.775146484375 68.83766174316406 8.627372741699219 63.64015960693359 6.429031372070312 C 58.26065826416016 4.1536865234375 52.54447174072266 3 46.65038681030273 3 M 46.65038681030273 0 C 72.41465759277344 0 93.30077362060547 20.88604736328125 93.30077362060547 46.65027236938477 C 93.30077362060547 72.41450500488281 72.41465759277344 93.30054473876953 46.65038681030273 93.30054473876953 C 20.88608551025391 93.30054473876953 0 72.41450500488281 0 46.65027236938477 C 0 20.88604736328125 20.88608551025391 0 46.65038681030273 0 Z" stroke="none"/>
      </g>
      <g transform="matrix(1, 0, 0, 1, 895.97, 396.59)" filter="url(#Trazado_1002361-2)">
        <g id="Trazado_1002361-5" data-name="Trazado 1002361" transform="translate(9 6)" fill="#fff">
          <path d="M 46.65038681030273 91.80055236816406 C 40.55446624755859 91.80055236816406 34.64168167114258 90.60699462890625 29.07628059387207 88.25302886962891 C 23.69998741149902 85.97905731201172 18.87125396728516 82.72333526611328 14.72424030303955 78.57633972167969 C 10.57722663879395 74.42932891845703 7.321506977081299 69.60061645507812 5.047520160675049 64.22434234619141 C 2.693560123443604 58.65895080566406 1.50000011920929 52.74617767333984 1.50000011920929 46.65027236938477 C 1.50000011920929 40.55436706542969 2.693560123443604 34.64159393310547 5.047520160675049 29.07620620727539 C 7.321506977081299 23.69992637634277 10.57722663879395 18.87121963500977 14.72424030303955 14.72420597076416 C 18.87125396728516 10.57720565795898 23.69998741149902 7.321498870849609 29.07628059387207 5.047525882720947 C 34.64168167114258 2.693565607070923 40.55446624755859 1.500005722045898 46.65038681030273 1.500005722045898 C 52.74630737304688 1.500005722045898 58.65909194946289 2.693565607070923 64.22449493408203 5.047525882720947 C 69.60078430175781 7.321498870849609 74.42950439453125 10.57720565795898 78.57652282714844 14.72420597076416 C 82.72354888916016 18.87121963500977 85.97926330566406 23.69992637634277 88.25324249267578 29.07620620727539 C 90.60721588134766 34.64159393310547 91.80077362060547 40.55436706542969 91.80077362060547 46.65027236938477 C 91.80077362060547 52.74617767333984 90.60721588134766 58.65895080566406 88.25324249267578 64.22432708740234 C 85.97926330566406 69.60061645507812 82.72354888916016 74.42932891845703 78.57652282714844 78.57633972167969 C 74.42950439453125 82.72333526611328 69.60078430175781 85.97905731201172 64.22449493408203 88.25302886962891 C 58.65909194946289 90.60699462890625 52.74630737304688 91.80055236816406 46.65038681030273 91.80055236816406 Z" stroke="none"/>
          <path d="M 46.65038681030273 3 C 40.75630187988281 3 35.04011535644531 4.1536865234375 29.66060256958008 6.429031372070312 C 24.46310424804688 8.627372741699219 19.79464721679688 11.775146484375 15.78490447998047 15.78487396240234 C 11.77516174316406 19.79460144042969 8.627388000488281 24.46305847167969 6.429031372070312 29.66054534912109 C 4.1536865234375 35.0400276184082 3 40.75620269775391 3 46.65027236938477 C 3 52.54434204101562 4.1536865234375 58.26051712036133 6.429031372070312 63.63999938964844 C 8.627388000488281 68.83748626708984 11.77516174316406 73.50594329833984 15.78490447998047 77.51567077636719 C 19.79464721679688 81.52539825439453 24.46310424804688 84.67317199707031 29.66060256958008 86.87151336669922 C 35.04011535644531 89.14685821533203 40.75630187988281 90.30054473876953 46.65038681030273 90.30054473876953 C 52.54447174072266 90.30054473876953 58.26065826416016 89.14685821533203 63.64015960693359 86.87151336669922 C 68.83766174316406 84.67317199707031 73.50611877441406 81.52539825439453 77.51586151123047 77.51567077636719 C 81.52561950683594 73.50592803955078 84.67338562011719 68.83748626708984 86.87174224853516 63.63999938964844 C 89.14707183837891 58.26051712036133 90.30077362060547 52.54434204101562 90.30077362060547 46.65027236938477 C 90.30077362060547 40.75620269775391 89.14707183837891 35.0400276184082 86.87174224853516 29.66054534912109 C 84.67338562011719 24.46305847167969 81.52561950683594 19.79461669921875 77.51586151123047 15.78487396240234 C 73.50611877441406 11.775146484375 68.83766174316406 8.627372741699219 63.64015960693359 6.429031372070312 C 58.26065826416016 4.1536865234375 52.54447174072266 3 46.65038681030273 3 M 46.65038681030273 0 C 72.41465759277344 0 93.30077362060547 20.88604736328125 93.30077362060547 46.65027236938477 C 93.30077362060547 72.41450500488281 72.41465759277344 93.30054473876953 46.65038681030273 93.30054473876953 C 20.88608551025391 93.30054473876953 0 72.41450500488281 0 46.65027236938477 C 0 20.88604736328125 20.88608551025391 0 46.65038681030273 0 Z" stroke="none"/>
        </g>
      </g>
      <g id="Trazado_1002361-6" data-name="Trazado 1002361" transform="translate(904.967 402.586)" fill="none">
        <path d="M 46.65038681030273 91.80055236816406 C 40.55446624755859 91.80055236816406 34.64168167114258 90.60699462890625 29.07628059387207 88.25302886962891 C 23.69998741149902 85.97905731201172 18.87125396728516 82.72333526611328 14.72424030303955 78.57633972167969 C 10.57722663879395 74.42932891845703 7.321506977081299 69.60061645507812 5.047520160675049 64.22434234619141 C 2.693560123443604 58.65895080566406 1.50000011920929 52.74617767333984 1.50000011920929 46.65027236938477 C 1.50000011920929 40.55436706542969 2.693560123443604 34.64159393310547 5.047520160675049 29.07620620727539 C 7.321506977081299 23.69992637634277 10.57722663879395 18.87121963500977 14.72424030303955 14.72420597076416 C 18.87125396728516 10.57720565795898 23.69998741149902 7.321498870849609 29.07628059387207 5.047525882720947 C 34.64168167114258 2.693565607070923 40.55446624755859 1.500005722045898 46.65038681030273 1.500005722045898 C 52.74630737304688 1.500005722045898 58.65909194946289 2.693565607070923 64.22449493408203 5.047525882720947 C 69.60078430175781 7.321498870849609 74.42950439453125 10.57720565795898 78.57652282714844 14.72420597076416 C 82.72354888916016 18.87121963500977 85.97926330566406 23.69992637634277 88.25324249267578 29.07620620727539 C 90.60721588134766 34.64159393310547 91.80077362060547 40.55436706542969 91.80077362060547 46.65027236938477 C 91.80077362060547 52.74617767333984 90.60721588134766 58.65895080566406 88.25324249267578 64.22432708740234 C 85.97926330566406 69.60061645507812 82.72354888916016 74.42932891845703 78.57652282714844 78.57633972167969 C 74.42950439453125 82.72333526611328 69.60078430175781 85.97905731201172 64.22449493408203 88.25302886962891 C 58.65909194946289 90.60699462890625 52.74630737304688 91.80055236816406 46.65038681030273 91.80055236816406 Z" stroke="none"/>
        <path d="M 46.65038681030273 3 C 40.75630187988281 3 35.04011535644531 4.1536865234375 29.66060256958008 6.429031372070312 C 24.46310424804688 8.627372741699219 19.79464721679688 11.775146484375 15.78490447998047 15.78487396240234 C 11.77516174316406 19.79460144042969 8.627388000488281 24.46305847167969 6.429031372070312 29.66054534912109 C 4.1536865234375 35.0400276184082 3 40.75620269775391 3 46.65027236938477 C 3 52.54434204101562 4.1536865234375 58.26051712036133 6.429031372070312 63.63999938964844 C 8.627388000488281 68.83748626708984 11.77516174316406 73.50594329833984 15.78490447998047 77.51567077636719 C 19.79464721679688 81.52539825439453 24.46310424804688 84.67317199707031 29.66060256958008 86.87151336669922 C 35.04011535644531 89.14685821533203 40.75630187988281 90.30054473876953 46.65038681030273 90.30054473876953 C 52.54447174072266 90.30054473876953 58.26065826416016 89.14685821533203 63.64015960693359 86.87151336669922 C 68.83766174316406 84.67317199707031 73.50611877441406 81.52539825439453 77.51586151123047 77.51567077636719 C 81.52561950683594 73.50592803955078 84.67338562011719 68.83748626708984 86.87174224853516 63.63999938964844 C 89.14707183837891 58.26051712036133 90.30077362060547 52.54434204101562 90.30077362060547 46.65027236938477 C 90.30077362060547 40.75620269775391 89.14707183837891 35.0400276184082 86.87174224853516 29.66054534912109 C 84.67338562011719 24.46305847167969 81.52561950683594 19.79461669921875 77.51586151123047 15.78487396240234 C 73.50611877441406 11.775146484375 68.83766174316406 8.627372741699219 63.64015960693359 6.429031372070312 C 58.26065826416016 4.1536865234375 52.54447174072266 3 46.65038681030273 3 M 46.65038681030273 0 C 72.41465759277344 0 93.30077362060547 20.88604736328125 93.30077362060547 46.65027236938477 C 93.30077362060547 72.41450500488281 72.41465759277344 93.30054473876953 46.65038681030273 93.30054473876953 C 20.88608551025391 93.30054473876953 0 72.41450500488281 0 46.65027236938477 C 0 20.88604736328125 20.88608551025391 0 46.65038681030273 0 Z" stroke="none" fill="#fff"/>
      </g>
    </g>
    <g id="Grupo_1172032" data-name="Grupo 1172032" transform="translate(901.301 414.783)">
      <path id="Trazado_1032614" data-name="Trazado 1032614" d="M328.566,39.5h0c0,.006,0,.012,0,.017Z" transform="translate(-328.51 -21.27)" fill="#575756"/>
      <path id="Trazado_1032615" data-name="Trazado 1032615" d="M330.286,41.566l55.522,32.057v-2.74L402.287,80.4c4.976,2.873,13.356,2.692,18.717-.4l.2-.114c2.81-1.622,4.231-3.723,4.233-5.77l.067,2.664h0c.044,1.73-.931,3.506-2.9,5a12.457,12.457,0,0,1-1.4.93l-.2.114c-.08.046-.166.086-.247.13l-4.621,2.656c-.237.158-.481.314-.741.464l-.2.114c-.253.145-.517.278-.781.411l-.1.055h-.007c-5.363,2.637-13.122,2.659-17.833-.061L333.453,50.23a3.54,3.54,0,0,1-1.572-1.629h0l-3.109-8.542A3.639,3.639,0,0,0,330.286,41.566Z" transform="translate(-328.536 -21.341)" fill="#575756"/>
      <path id="Trazado_1032616" data-name="Trazado 1032616" d="M328.561,38.006c-.276-1.166.409-2.43,2.037-3.37l9.976-5.76a10.349,10.349,0,0,1,5.482-1.2l-11.571,6.68v5.656l11.2,6.464v0l15.752-9.095V35.357l36.918,21.315-8.306,4.8V66.85l-4.272,2.466v2.74L330.252,40a3.643,3.643,0,0,1-1.517-1.507,2.342,2.342,0,0,1-.17-.468Z" transform="translate(-328.502 -19.774)" fill="#cbbba0"/>
      <path id="Trazado_1032617" data-name="Trazado 1032617" d="M429.456,83.227l-.2.114c-5.361,3.1-13.741,3.276-18.717.4l-16.479-9.515,4.272-2.466V74.07l6.659,3.845v0l14.946-8.629V66.524l10.214,5.9c2.248,1.3,3.412,3,3.524,4.754l.005.081c0,.067.005.135.005.2C433.687,79.5,432.266,81.6,429.456,83.227Z" transform="translate(-336.79 -24.686)" fill="#bfb097"/>
      <path id="Trazado_1032618" data-name="Trazado 1032618" d="M346.549,40.474l-11.2-6.464,11.57-6.68,4.183-2.415,11.2,6.464Z" transform="translate(-329.368 -19.426)" fill="#bfb097"/>
      <path id="Trazado_1032619" data-name="Trazado 1032619" d="M346.549,41.79v5.655l-11.2-6.464V35.326Z" transform="translate(-329.368 -20.742)" fill="#a48a7b"/>
      <path id="Trazado_1032620" data-name="Trazado 1032620" d="M348.169,47.065V41.41l15.752-9.095V37.97Z" transform="translate(-330.988 -20.362)" fill="#d9d0c1"/>
      <g id="Grupo_1171950" data-name="Grupo 1171950" transform="translate(45.932 48.601)">
        <path id="Trazado_1032621" data-name="Trazado 1032621" d="M404.815,88.435a1.44,1.44,0,0,0,.652,1.129c.36.208.652.039.652-.377a1.44,1.44,0,0,0-.652-1.129C405.107,87.85,404.815,88.019,404.815,88.435Z" transform="translate(-384.081 -75.999)" fill="#fcd004"/>
        <path id="Trazado_1032622" data-name="Trazado 1032622" d="M401.424,86.477a1.44,1.44,0,0,0,.652,1.129c.36.208.652.039.652-.377a1.44,1.44,0,0,0-.652-1.129C401.716,85.893,401.424,86.061,401.424,86.477Z" transform="translate(-383.653 -75.751)" fill="#fcd004"/>
        <path id="Trazado_1032623" data-name="Trazado 1032623" d="M398.034,84.52a1.44,1.44,0,0,0,.652,1.129c.36.208.652.039.652-.377a1.44,1.44,0,0,0-.652-1.129C398.326,83.935,398.034,84.1,398.034,84.52Z" transform="translate(-383.224 -75.504)" fill="#fcd004"/>
        <path id="Trazado_1032624" data-name="Trazado 1032624" d="M394.643,82.562a1.44,1.44,0,0,0,.652,1.129c.36.208.652.039.652-.377a1.44,1.44,0,0,0-.652-1.129C394.935,81.978,394.643,82.147,394.643,82.562Z" transform="translate(-382.795 -75.256)" fill="#fcd004"/>
        <path id="Trazado_1032625" data-name="Trazado 1032625" d="M391.253,80.6a1.44,1.44,0,0,0,.652,1.129c.36.208.652.039.652-.377a1.44,1.44,0,0,0-.652-1.129C391.544,80.02,391.253,80.189,391.253,80.6Z" transform="translate(-382.367 -75.009)" fill="#fcd004"/>
        <path id="Trazado_1032626" data-name="Trazado 1032626" d="M387.862,78.647a1.44,1.44,0,0,0,.652,1.129c.36.208.652.039.652-.377a1.44,1.44,0,0,0-.652-1.129C388.154,78.063,387.862,78.231,387.862,78.647Z" transform="translate(-381.938 -74.761)" fill="#fcd004"/>
        <path id="Trazado_1032627" data-name="Trazado 1032627" d="M384.471,76.69a1.44,1.44,0,0,0,.652,1.129c.36.208.652.039.652-.377a1.44,1.44,0,0,0-.652-1.129C384.763,76.105,384.471,76.274,384.471,76.69Z" transform="translate(-381.51 -74.514)" fill="#fcd004"/>
        <path id="Trazado_1032628" data-name="Trazado 1032628" d="M381.081,74.732a1.44,1.44,0,0,0,.652,1.129c.36.208.652.039.652-.377a1.44,1.44,0,0,0-.652-1.129C381.373,74.148,381.081,74.316,381.081,74.732Z" transform="translate(-381.081 -74.267)" fill="#fcd004"/>
      </g>
      <g id="Grupo_1171951" data-name="Grupo 1171951" transform="translate(6.162 25.719)">
        <path id="Trazado_1032629" data-name="Trazado 1032629" d="M359.29,62.241a1.44,1.44,0,0,0,.652,1.129c.36.208.652.039.652-.377a1.44,1.44,0,0,0-.652-1.129C359.582,61.656,359.29,61.825,359.29,62.241Z" transform="translate(-338.556 -49.805)" fill="#fcd004"/>
        <path id="Trazado_1032630" data-name="Trazado 1032630" d="M355.9,60.283a1.44,1.44,0,0,0,.652,1.129c.36.208.652.039.652-.377a1.44,1.44,0,0,0-.652-1.129C356.191,59.7,355.9,59.868,355.9,60.283Z" transform="translate(-338.128 -49.557)" fill="#fcd004"/>
        <path id="Trazado_1032631" data-name="Trazado 1032631" d="M352.509,58.326a1.44,1.44,0,0,0,.652,1.129c.36.208.652.039.652-.377a1.44,1.44,0,0,0-.652-1.129C352.8,57.741,352.509,57.91,352.509,58.326Z" transform="translate(-337.699 -49.31)" fill="#fcd004"/>
        <path id="Trazado_1032632" data-name="Trazado 1032632" d="M349.118,56.368a1.44,1.44,0,0,0,.652,1.129c.36.208.652.039.652-.377a1.44,1.44,0,0,0-.652-1.129C349.41,55.784,349.118,55.952,349.118,56.368Z" transform="translate(-337.27 -49.062)" fill="#fcd004"/>
        <path id="Trazado_1032633" data-name="Trazado 1032633" d="M345.727,54.411a1.44,1.44,0,0,0,.652,1.129c.36.208.652.039.652-.377a1.44,1.44,0,0,0-.652-1.129C346.019,53.826,345.727,53.995,345.727,54.411Z" transform="translate(-336.842 -48.815)" fill="#fcd004"/>
        <path id="Trazado_1032634" data-name="Trazado 1032634" d="M342.337,52.453a1.44,1.44,0,0,0,.652,1.129c.36.208.652.039.652-.377a1.44,1.44,0,0,0-.652-1.129C342.629,51.868,342.337,52.037,342.337,52.453Z" transform="translate(-336.413 -48.567)" fill="#fcd004"/>
        <path id="Trazado_1032635" data-name="Trazado 1032635" d="M338.946,50.5a1.44,1.44,0,0,0,.652,1.129c.36.208.652.039.652-.377a1.44,1.44,0,0,0-.652-1.129C339.238,49.911,338.946,50.08,338.946,50.5Z" transform="translate(-335.985 -48.32)" fill="#fcd004"/>
        <path id="Trazado_1032636" data-name="Trazado 1032636" d="M335.556,48.538a1.44,1.44,0,0,0,.652,1.129c.36.208.652.039.652-.377a1.44,1.44,0,0,0-.652-1.129C335.848,47.954,335.556,48.122,335.556,48.538Z" transform="translate(-335.556 -48.073)" fill="#fcd004"/>
      </g>
      <g id="Grupo_1171952" data-name="Grupo 1171952" transform="translate(18.753 14.881)">
        <path id="Trazado_1032637" data-name="Trazado 1032637" d="M362.292,38.345l2.2-1.272V35.667l-2.2,1.272Z" transform="translate(-351.527 -35.667)" fill="#fffecc"/>
        <path id="Trazado_1032638" data-name="Trazado 1032638" d="M358.184,40.716l2.2-1.272V38.038l-2.2,1.272Z" transform="translate(-351.008 -35.967)" fill="#fffecc"/>
        <path id="Trazado_1032639" data-name="Trazado 1032639" d="M354.076,43.088l2.2-1.272V40.41l-2.2,1.272Z" transform="translate(-350.488 -36.267)" fill="#fffecc"/>
        <path id="Trazado_1032640" data-name="Trazado 1032640" d="M349.969,45.459l2.2-1.272V42.781l-2.2,1.272Z" transform="translate(-349.969 -36.566)" fill="#fffecc"/>
      </g>
      <g id="Grupo_1171953" data-name="Grupo 1171953" transform="translate(8.158 17.989)">
        <path id="Trazado_1032641" data-name="Trazado 1032641" d="M340.044,41.9l-2.2-1.272V39.224l2.2,1.272Z" transform="translate(-337.84 -39.224)" fill="#fcd004"/>
        <path id="Trazado_1032642" data-name="Trazado 1032642" d="M344.152,44.274,341.948,43V41.6l2.2,1.272Z" transform="translate(-338.359 -39.524)" fill="#fcd004"/>
      </g>
      <g id="Grupo_1171954" data-name="Grupo 1171954" transform="translate(78.143 48.423)">
        <path id="Trazado_1032643" data-name="Trazado 1032643" d="M417.953,77.058l5.574,3.093,4.989-2.995-5.574-3.093Z" transform="translate(-417.953 -74.063)" fill="#575756"/>
        <path id="Trazado_1032644" data-name="Trazado 1032644" d="M422.958,74.975l3.978,2.208-3.424,2.056-3.978-2.208,3.424-2.056Zm-.016-.912-4.989,2.995,5.574,3.093,4.989-2.995-5.574-3.093Z" transform="translate(-417.953 -74.063)" fill="#878787"/>
      </g>
      <g id="Grupo_1171956" data-name="Grupo 1171956" transform="translate(19.466 0)">
        <rect id="Rectángulo_420917" data-name="Rectángulo 420917" width="0.645" height="12.766" transform="translate(0 0.188)" fill="#575756"/>
        <g id="Grupo_1171955" data-name="Grupo 1171955">
          <path id="Trazado_1032645" data-name="Trazado 1032645" d="M350.785,18.82c0,.1.144.188.322.188s.322-.084.322-.188-.144-.188-.322-.188S350.785,18.716,350.785,18.82Z" transform="translate(-350.785 -18.632)" fill="#575756"/>
          <path id="Trazado_1032646" data-name="Trazado 1032646" d="M350.785,33.457c0,.1.144.188.322.188s.322-.084.322-.188-.144-.188-.322-.188S350.785,33.354,350.785,33.457Z" transform="translate(-350.785 -20.482)" fill="#575756"/>
        </g>
      </g>
      <g id="Grupo_1172022" data-name="Grupo 1172022" transform="translate(18.695 11.592)">
        <g id="Grupo_1171964" data-name="Grupo 1171964" transform="translate(12.349)">
          <g id="Grupo_1171957" data-name="Grupo 1171957">
            <path id="Trazado_1032647" data-name="Trazado 1032647" d="M381.119,38.486l-5.676,3.277-11.406-6.584,5.676-3.278Z" transform="translate(-364.038 -31.901)" fill="#feec9a"/>
            <path id="Trazado_1032648" data-name="Trazado 1032648" d="M369.714,32.433,380.2,38.486l-4.755,2.746-10.485-6.053,4.755-2.746Zm0-.532-5.676,3.277,11.4,6.585,5.676-3.277-11.4-6.585Z" transform="translate(-364.038 -31.901)" fill="#7d6701"/>
          </g>
          <g id="Grupo_1171960" data-name="Grupo 1171960" transform="translate(0 3.278)">
            <g id="Grupo_1171958" data-name="Grupo 1171958">
              <path id="Trazado_1032649" data-name="Trazado 1032649" d="M364.038,42.207V35.653l11.406,6.584v6.554Z" transform="translate(-364.038 -35.653)" fill="#feec9a"/>
              <path id="Trazado_1032650" data-name="Trazado 1032650" d="M374.983,47.994,364.5,41.941V36.45L374.983,42.5v5.491Zm.46.8V42.237l-11.4-6.584v6.554l11.4,6.584Z" transform="translate(-364.038 -35.653)" fill="#7d6701"/>
            </g>
            <g id="Grupo_1171959" data-name="Grupo 1171959" transform="translate(1.331 1.759)">
              <path id="Trazado_1032651" data-name="Trazado 1032651" d="M365.792,42.472a.509.509,0,0,1-.23-.4V37.83c0-.147.1-.206.23-.133a.507.507,0,0,1,.23.4V42.34C366.022,42.487,365.918,42.546,365.792,42.472Z" transform="translate(-365.562 -37.666)" fill="#7a7060"/>
              <path id="Trazado_1032652" data-name="Trazado 1032652" d="M366.977,43.157a.508.508,0,0,1-.231-.4V38.515c0-.147.1-.206.23-.133a.509.509,0,0,1,.23.4v4.244C367.206,43.171,367.1,43.231,366.977,43.157Z" transform="translate(-365.712 -37.753)" fill="#7a7060"/>
              <path id="Trazado_1032653" data-name="Trazado 1032653" d="M368.162,43.841a.509.509,0,0,1-.23-.4V39.2c0-.147.1-.206.23-.133a.51.51,0,0,1,.231.4v4.244C368.392,43.855,368.289,43.915,368.162,43.841Z" transform="translate(-365.862 -37.839)" fill="#7a7060"/>
              <path id="Trazado_1032654" data-name="Trazado 1032654" d="M369.347,44.526a.509.509,0,0,1-.23-.4V39.884c0-.147.1-.206.23-.133a.507.507,0,0,1,.23.4v4.244C369.577,44.54,369.474,44.6,369.347,44.526Z" transform="translate(-366.011 -37.926)" fill="#7a7060"/>
              <path id="Trazado_1032655" data-name="Trazado 1032655" d="M370.533,45.21a.507.507,0,0,1-.23-.4V40.568c0-.147.1-.206.23-.133a.509.509,0,0,1,.23.4v4.244C370.762,45.224,370.659,45.284,370.533,45.21Z" transform="translate(-366.161 -38.012)" fill="#7a7060"/>
              <path id="Trazado_1032656" data-name="Trazado 1032656" d="M371.718,45.894a.51.51,0,0,1-.231-.4V41.252c0-.147.1-.206.23-.133a.509.509,0,0,1,.23.4v4.244C371.947,45.908,371.844,45.968,371.718,45.894Z" transform="translate(-366.311 -38.099)" fill="#7a7060"/>
              <path id="Trazado_1032657" data-name="Trazado 1032657" d="M372.9,46.578a.509.509,0,0,1-.23-.4V41.936c0-.147.1-.206.23-.133a.509.509,0,0,1,.23.4v4.244C373.133,46.592,373.03,46.652,372.9,46.578Z" transform="translate(-366.461 -38.185)" fill="#7a7060"/>
              <path id="Trazado_1032658" data-name="Trazado 1032658" d="M374.089,47.263a.509.509,0,0,1-.23-.4V42.621c0-.147.1-.206.23-.133a.509.509,0,0,1,.23.4v4.244C374.319,47.277,374.215,47.337,374.089,47.263Z" transform="translate(-366.611 -38.272)" fill="#7a7060"/>
              <path id="Trazado_1032659" data-name="Trazado 1032659" d="M375.274,47.947a.509.509,0,0,1-.23-.4V43.305c0-.147.1-.206.231-.133a.509.509,0,0,1,.23.4v4.244C375.5,47.961,375.4,48.021,375.274,47.947Z" transform="translate(-366.761 -38.358)" fill="#7a7060"/>
            </g>
          </g>
          <g id="Grupo_1171963" data-name="Grupo 1171963" transform="translate(11.405 6.585)">
            <g id="Grupo_1171961" data-name="Grupo 1171961">
              <path id="Trazado_1032660" data-name="Trazado 1032660" d="M382.77,45.993l-5.676,3.277V42.716l5.676-3.277Z" transform="translate(-377.094 -39.439)" fill="#feec9a"/>
              <path id="Trazado_1032661" data-name="Trazado 1032661" d="M382.309,40.237v5.49l-4.756,2.746V42.981l4.756-2.745Zm.46-.8-5.676,3.277v6.554l5.676-3.277V39.439Z" transform="translate(-377.094 -39.439)" fill="#7d6701"/>
            </g>
            <g id="Grupo_1171962" data-name="Grupo 1171962" transform="translate(1.054 1.6)">
              <path id="Trazado_1032662" data-name="Trazado 1032662" d="M378.531,48.129c-.127.073-.23.014-.23-.133V43.753a.509.509,0,0,1,.23-.4c.128-.073.23-.014.23.133v4.244A.5.5,0,0,1,378.531,48.129Z" transform="translate(-378.301 -41.53)" fill="#857a68"/>
              <path id="Trazado_1032663" data-name="Trazado 1032663" d="M379.716,47.445c-.127.073-.23.014-.23-.133V43.069a.509.509,0,0,1,.23-.4c.127-.073.23-.014.23.133v4.244A.5.5,0,0,1,379.716,47.445Z" transform="translate(-378.451 -41.443)" fill="#857a68"/>
              <path id="Trazado_1032664" data-name="Trazado 1032664" d="M380.9,46.761c-.127.073-.23.014-.23-.133V42.385a.509.509,0,0,1,.23-.4c.128-.073.23-.014.23.133v4.244A.509.509,0,0,1,380.9,46.761Z" transform="translate(-378.601 -41.357)" fill="#857a68"/>
              <path id="Trazado_1032665" data-name="Trazado 1032665" d="M382.087,46.076c-.127.073-.23.014-.23-.133V41.7a.509.509,0,0,1,.23-.4c.127-.073.23-.014.23.133v4.244A.505.505,0,0,1,382.087,46.076Z" transform="translate(-378.751 -41.27)" fill="#857a68"/>
            </g>
          </g>
        </g>
        <g id="Grupo_1171981" data-name="Grupo 1171981" transform="translate(24.411 7.036)">
          <g id="Grupo_1171972" data-name="Grupo 1171972">
            <g id="Grupo_1171965" data-name="Grupo 1171965">
              <path id="Trazado_1032666" data-name="Trazado 1032666" d="M394.927,46.54l-5.676,3.277-11.406-6.585,5.676-3.277Z" transform="translate(-377.846 -39.955)" fill="#296aae"/>
              <path id="Trazado_1032667" data-name="Trazado 1032667" d="M383.522,40.486l10.485,6.053-4.755,2.746-10.485-6.053,4.755-2.746Zm0-.531-5.676,3.277,11.4,6.585,5.676-3.277-11.4-6.585Z" transform="translate(-377.846 -39.955)" fill="#296aae"/>
            </g>
            <g id="Grupo_1171968" data-name="Grupo 1171968" transform="translate(0 3.277)">
              <g id="Grupo_1171966" data-name="Grupo 1171966">
                <path id="Trazado_1032668" data-name="Trazado 1032668" d="M377.846,50.26V43.706l11.406,6.585v6.554Z" transform="translate(-377.846 -43.706)" fill="#296aae"/>
                <path id="Trazado_1032669" data-name="Trazado 1032669" d="M388.791,56.048,378.306,50V44.5l10.485,6.053v5.49Zm.46.8V50.291l-11.4-6.584v6.554l11.4,6.584Z" transform="translate(-377.846 -43.706)" fill="#296aae"/>
              </g>
              <g id="Grupo_1171967" data-name="Grupo 1171967" transform="translate(1.331 1.759)">
                <path id="Trazado_1032670" data-name="Trazado 1032670" d="M379.6,50.526a.509.509,0,0,1-.23-.4V45.884c0-.147.1-.206.23-.133a.509.509,0,0,1,.23.4v4.244C379.83,50.54,379.726,50.6,379.6,50.526Z" transform="translate(-379.37 -45.72)" fill="#296aae"/>
                <path id="Trazado_1032671" data-name="Trazado 1032671" d="M380.785,51.211a.509.509,0,0,1-.23-.4V46.569c0-.147.1-.206.23-.133a.509.509,0,0,1,.23.4v4.244C381.015,51.225,380.912,51.285,380.785,51.211Z" transform="translate(-379.52 -45.807)" fill="#296aae"/>
                <path id="Trazado_1032672" data-name="Trazado 1032672" d="M381.97,51.9a.509.509,0,0,1-.23-.4V47.253c0-.147.1-.206.23-.133a.509.509,0,0,1,.23.4v4.244C382.2,51.909,382.1,51.969,381.97,51.9Z" transform="translate(-379.67 -45.893)" fill="#296aae"/>
                <path id="Trazado_1032673" data-name="Trazado 1032673" d="M383.156,52.579a.509.509,0,0,1-.23-.4V47.937c0-.147.1-.206.23-.133a.509.509,0,0,1,.23.4v4.244C383.385,52.593,383.282,52.653,383.156,52.579Z" transform="translate(-379.82 -45.98)" fill="#296aae"/>
                <path id="Trazado_1032674" data-name="Trazado 1032674" d="M384.341,53.263a.509.509,0,0,1-.23-.4V48.621c0-.147.1-.206.23-.133a.507.507,0,0,1,.23.4v4.244C384.57,53.277,384.467,53.337,384.341,53.263Z" transform="translate(-379.969 -46.066)" fill="#296aae"/>
                <path id="Trazado_1032675" data-name="Trazado 1032675" d="M385.526,53.948a.507.507,0,0,1-.23-.4V49.306c0-.147.1-.206.23-.133a.509.509,0,0,1,.23.4v4.244C385.756,53.962,385.653,54.022,385.526,53.948Z" transform="translate(-380.119 -46.153)" fill="#296aae"/>
                <path id="Trazado_1032676" data-name="Trazado 1032676" d="M386.712,54.632a.507.507,0,0,1-.23-.4V49.99c0-.147.1-.206.23-.133a.509.509,0,0,1,.23.4V54.5C386.941,54.646,386.838,54.706,386.712,54.632Z" transform="translate(-380.269 -46.239)" fill="#296aae"/>
                <path id="Trazado_1032677" data-name="Trazado 1032677" d="M387.9,55.316a.509.509,0,0,1-.23-.4V50.674c0-.147.1-.206.23-.133a.509.509,0,0,1,.23.4v4.244C388.126,55.33,388.023,55.39,387.9,55.316Z" transform="translate(-380.419 -46.326)" fill="#296aae"/>
                <path id="Trazado_1032678" data-name="Trazado 1032678" d="M389.082,56a.508.508,0,0,1-.231-.4V51.359c0-.147.1-.206.23-.133a.509.509,0,0,1,.23.4v4.244C389.311,56.015,389.208,56.075,389.082,56Z" transform="translate(-380.569 -46.412)" fill="#296aae"/>
              </g>
            </g>
            <g id="Grupo_1171971" data-name="Grupo 1171971" transform="translate(11.405 6.585)">
              <g id="Grupo_1171969" data-name="Grupo 1171969">
                <path id="Trazado_1032679" data-name="Trazado 1032679" d="M396.578,54.047,390.9,57.323V50.77l5.676-3.277Z" transform="translate(-390.902 -47.493)" fill="#296aae"/>
                <path id="Trazado_1032680" data-name="Trazado 1032680" d="M396.117,48.29v5.49l-4.756,2.746V51.034l4.756-2.745Zm.46-.8L390.9,50.77v6.554l5.676-3.277V47.493Z" transform="translate(-390.902 -47.493)" fill="#296aae"/>
              </g>
              <g id="Grupo_1171970" data-name="Grupo 1171970" transform="translate(1.054 1.6)">
                <path id="Trazado_1032681" data-name="Trazado 1032681" d="M392.339,56.183c-.128.073-.23.014-.23-.133V51.807a.509.509,0,0,1,.23-.4c.127-.073.23-.014.23.133v4.244A.5.5,0,0,1,392.339,56.183Z" transform="translate(-392.109 -49.584)" fill="#296aae"/>
                <path id="Trazado_1032682" data-name="Trazado 1032682" d="M393.525,55.5c-.127.073-.23.014-.23-.133V51.123a.509.509,0,0,1,.23-.4c.127-.073.231-.014.231.133V55.1A.512.512,0,0,1,393.525,55.5Z" transform="translate(-392.259 -49.497)" fill="#296aae"/>
                <path id="Trazado_1032683" data-name="Trazado 1032683" d="M394.71,54.815c-.127.073-.231.014-.231-.133V50.438a.509.509,0,0,1,.23-.4c.127-.073.23-.014.23.133v4.244A.5.5,0,0,1,394.71,54.815Z" transform="translate(-392.409 -49.41)" fill="#296aae"/>
                <path id="Trazado_1032684" data-name="Trazado 1032684" d="M395.895,54.13c-.127.073-.23.014-.23-.133V49.754a.509.509,0,0,1,.23-.4c.127-.073.23-.014.23.133v4.244A.5.5,0,0,1,395.895,54.13Z" transform="translate(-392.559 -49.324)" fill="#296aae"/>
              </g>
            </g>
          </g>
          <g id="Grupo_1171980" data-name="Grupo 1171980">
            <g id="Grupo_1171973" data-name="Grupo 1171973">
              <path id="Trazado_1032685" data-name="Trazado 1032685" d="M394.927,46.54l-5.676,3.277-11.406-6.585,5.676-3.277Z" transform="translate(-377.846 -39.955)" fill="#008bad"/>
              <path id="Trazado_1032686" data-name="Trazado 1032686" d="M383.522,40.486l10.485,6.053-4.755,2.746-10.485-6.053,4.755-2.746Zm0-.531-5.676,3.277,11.4,6.585,5.676-3.277-11.4-6.585Z" transform="translate(-377.846 -39.955)" fill="#006b87"/>
            </g>
            <g id="Grupo_1171976" data-name="Grupo 1171976" transform="translate(0 3.277)">
              <g id="Grupo_1171974" data-name="Grupo 1171974">
                <path id="Trazado_1032687" data-name="Trazado 1032687" d="M377.846,50.26V43.706l11.406,6.585v6.554Z" transform="translate(-377.846 -43.706)" fill="#006a85"/>
                <path id="Trazado_1032688" data-name="Trazado 1032688" d="M388.791,56.048,378.306,50V44.5l10.485,6.053v5.49Zm.46.8V50.291l-11.4-6.584v6.554l11.4,6.584Z" transform="translate(-377.846 -43.706)" fill="#00576e"/>
              </g>
              <g id="Grupo_1171975" data-name="Grupo 1171975" transform="translate(1.331 1.759)">
                <path id="Trazado_1032689" data-name="Trazado 1032689" d="M379.6,50.526a.509.509,0,0,1-.23-.4V45.884c0-.147.1-.206.23-.133a.509.509,0,0,1,.23.4v4.244C379.83,50.54,379.726,50.6,379.6,50.526Z" transform="translate(-379.37 -45.72)" fill="#00576e"/>
                <path id="Trazado_1032690" data-name="Trazado 1032690" d="M380.785,51.211a.509.509,0,0,1-.23-.4V46.569c0-.147.1-.206.23-.133a.509.509,0,0,1,.23.4v4.244C381.015,51.225,380.912,51.285,380.785,51.211Z" transform="translate(-379.52 -45.807)" fill="#00576e"/>
                <path id="Trazado_1032691" data-name="Trazado 1032691" d="M381.97,51.9a.509.509,0,0,1-.23-.4V47.253c0-.147.1-.206.23-.133a.509.509,0,0,1,.23.4v4.244C382.2,51.909,382.1,51.969,381.97,51.9Z" transform="translate(-379.67 -45.893)" fill="#00576e"/>
                <path id="Trazado_1032692" data-name="Trazado 1032692" d="M383.156,52.579a.509.509,0,0,1-.23-.4V47.937c0-.147.1-.206.23-.133a.509.509,0,0,1,.23.4v4.244C383.385,52.593,383.282,52.653,383.156,52.579Z" transform="translate(-379.82 -45.98)" fill="#00576e"/>
                <path id="Trazado_1032693" data-name="Trazado 1032693" d="M384.341,53.263a.509.509,0,0,1-.23-.4V48.621c0-.147.1-.206.23-.133a.507.507,0,0,1,.23.4v4.244C384.57,53.277,384.467,53.337,384.341,53.263Z" transform="translate(-379.969 -46.066)" fill="#00576e"/>
                <path id="Trazado_1032694" data-name="Trazado 1032694" d="M385.526,53.948a.507.507,0,0,1-.23-.4V49.306c0-.147.1-.206.23-.133a.509.509,0,0,1,.23.4v4.244C385.756,53.962,385.653,54.022,385.526,53.948Z" transform="translate(-380.119 -46.153)" fill="#00576e"/>
                <path id="Trazado_1032695" data-name="Trazado 1032695" d="M386.712,54.632a.507.507,0,0,1-.23-.4V49.99c0-.147.1-.206.23-.133a.509.509,0,0,1,.23.4V54.5C386.941,54.646,386.838,54.706,386.712,54.632Z" transform="translate(-380.269 -46.239)" fill="#00576e"/>
                <path id="Trazado_1032696" data-name="Trazado 1032696" d="M387.9,55.316a.509.509,0,0,1-.23-.4V50.674c0-.147.1-.206.23-.133a.509.509,0,0,1,.23.4v4.244C388.126,55.33,388.023,55.39,387.9,55.316Z" transform="translate(-380.419 -46.326)" fill="#00576e"/>
                <path id="Trazado_1032697" data-name="Trazado 1032697" d="M389.082,56a.508.508,0,0,1-.231-.4V51.359c0-.147.1-.206.23-.133a.509.509,0,0,1,.23.4v4.244C389.311,56.015,389.208,56.075,389.082,56Z" transform="translate(-380.569 -46.412)" fill="#00576e"/>
              </g>
            </g>
            <g id="Grupo_1171979" data-name="Grupo 1171979" transform="translate(11.405 6.585)">
              <g id="Grupo_1171977" data-name="Grupo 1171977">
                <path id="Trazado_1032698" data-name="Trazado 1032698" d="M396.578,54.047,390.9,57.323V50.77l5.676-3.277Z" transform="translate(-390.902 -47.493)" fill="#007c9c"/>
                <path id="Trazado_1032699" data-name="Trazado 1032699" d="M396.117,48.29v5.49l-4.756,2.746V51.034l4.756-2.745Zm.46-.8L390.9,50.77v6.554l5.676-3.277V47.493Z" transform="translate(-390.902 -47.493)" fill="#005d75"/>
              </g>
              <g id="Grupo_1171978" data-name="Grupo 1171978" transform="translate(1.054 1.6)">
                <path id="Trazado_1032700" data-name="Trazado 1032700" d="M392.339,56.183c-.128.073-.23.014-.23-.133V51.807a.509.509,0,0,1,.23-.4c.127-.073.23-.014.23.133v4.244A.5.5,0,0,1,392.339,56.183Z" transform="translate(-392.109 -49.584)" fill="#005d75"/>
                <path id="Trazado_1032701" data-name="Trazado 1032701" d="M393.525,55.5c-.127.073-.23.014-.23-.133V51.123a.509.509,0,0,1,.23-.4c.127-.073.231-.014.231.133V55.1A.512.512,0,0,1,393.525,55.5Z" transform="translate(-392.259 -49.497)" fill="#005d75"/>
                <path id="Trazado_1032702" data-name="Trazado 1032702" d="M394.71,54.815c-.127.073-.231.014-.231-.133V50.438a.509.509,0,0,1,.23-.4c.127-.073.23-.014.23.133v4.244A.5.5,0,0,1,394.71,54.815Z" transform="translate(-392.409 -49.41)" fill="#005d75"/>
                <path id="Trazado_1032703" data-name="Trazado 1032703" d="M395.895,54.13c-.127.073-.23.014-.23-.133V49.754a.509.509,0,0,1,.23-.4c.127-.073.23-.014.23.133v4.244A.5.5,0,0,1,395.895,54.13Z" transform="translate(-392.559 -49.324)" fill="#005d75"/>
              </g>
            </g>
          </g>
        </g>
        <g id="Grupo_1171989" data-name="Grupo 1171989" transform="translate(36.681 18.365)">
          <g id="Grupo_1171982" data-name="Grupo 1171982" transform="translate(0.001)">
            <path id="Trazado_1032704" data-name="Trazado 1032704" d="M391.892,59.509l1.423.822,4.252,2.455,11.4-6.584L403.3,52.924Z" transform="translate(-391.892 -52.924)" fill="#008bad"/>
            <path id="Trazado_1032705" data-name="Trazado 1032705" d="M403.3,53.456l4.755,2.746-10.485,6.053-4.755-2.746L403.3,53.456Zm0-.532-11.4,6.585,5.676,3.277,11.4-6.585L403.3,52.924Z" transform="translate(-391.892 -52.924)" fill="#006b87"/>
          </g>
          <g id="Grupo_1171985" data-name="Grupo 1171985" transform="translate(5.677 3.278)">
            <g id="Grupo_1171983" data-name="Grupo 1171983">
              <path id="Trazado_1032706" data-name="Trazado 1032706" d="M409.794,63.23V56.676l-11.4,6.584v6.554Z" transform="translate(-398.389 -56.676)" fill="#008bad"/>
              <path id="Trazado_1032707" data-name="Trazado 1032707" d="M398.849,69.017V63.526l10.485-6.053v5.491l-10.485,6.053Zm-.46.8,11.4-6.584V56.676l-11.4,6.584v6.554Z" transform="translate(-398.389 -56.676)" fill="#005d75"/>
            </g>
            <g id="Grupo_1171984" data-name="Grupo 1171984" transform="translate(1.33 1.759)">
              <path id="Trazado_1032708" data-name="Trazado 1032708" d="M409.625,63.5a.509.509,0,0,0,.23-.4V58.854c0-.147-.1-.206-.23-.133a.509.509,0,0,0-.23.4v4.244C409.394,63.51,409.5,63.57,409.625,63.5Z" transform="translate(-401.111 -58.69)" fill="#005d75"/>
              <path id="Trazado_1032709" data-name="Trazado 1032709" d="M408.439,64.18a.509.509,0,0,0,.23-.4V59.538c0-.147-.1-.206-.23-.133a.507.507,0,0,0-.23.4v4.244C408.209,64.194,408.312,64.254,408.439,64.18Z" transform="translate(-400.961 -58.776)" fill="#005d75"/>
              <path id="Trazado_1032710" data-name="Trazado 1032710" d="M407.254,64.864a.509.509,0,0,0,.23-.4V60.222c0-.147-.1-.206-.23-.133a.509.509,0,0,0-.23.4v4.244C407.024,64.878,407.127,64.938,407.254,64.864Z" transform="translate(-400.811 -58.863)" fill="#005d75"/>
              <path id="Trazado_1032711" data-name="Trazado 1032711" d="M406.069,65.549a.509.509,0,0,0,.23-.4V60.907c0-.147-.1-.206-.23-.133a.509.509,0,0,0-.23.4v4.244C405.838,65.563,405.941,65.623,406.069,65.549Z" transform="translate(-400.661 -58.95)" fill="#005d75"/>
              <path id="Trazado_1032712" data-name="Trazado 1032712" d="M404.884,66.233a.509.509,0,0,0,.23-.4V61.591c0-.147-.1-.206-.23-.133a.509.509,0,0,0-.23.4V66.1C404.653,66.247,404.756,66.307,404.884,66.233Z" transform="translate(-400.511 -59.036)" fill="#005d75"/>
              <path id="Trazado_1032713" data-name="Trazado 1032713" d="M403.7,66.917a.509.509,0,0,0,.23-.4V62.275c0-.147-.1-.206-.23-.133a.507.507,0,0,0-.23.4v4.244C403.468,66.931,403.571,66.991,403.7,66.917Z" transform="translate(-400.362 -59.122)" fill="#005d75"/>
              <path id="Trazado_1032714" data-name="Trazado 1032714" d="M402.513,67.6a.509.509,0,0,0,.23-.4V62.96c0-.147-.1-.206-.231-.133a.509.509,0,0,0-.23.4V67.47C402.283,67.616,402.385,67.675,402.513,67.6Z" transform="translate(-400.212 -59.209)" fill="#005d75"/>
              <path id="Trazado_1032715" data-name="Trazado 1032715" d="M401.328,68.286a.509.509,0,0,0,.23-.4V63.644c0-.147-.1-.206-.23-.133a.509.509,0,0,0-.23.4v4.244C401.1,68.3,401.2,68.36,401.328,68.286Z" transform="translate(-400.062 -59.296)" fill="#005d75"/>
              <path id="Trazado_1032716" data-name="Trazado 1032716" d="M400.142,68.97a.509.509,0,0,0,.23-.4V64.328c0-.147-.1-.206-.23-.133a.509.509,0,0,0-.23.4v4.244C399.912,68.984,400.015,69.044,400.142,68.97Z" transform="translate(-399.912 -59.382)" fill="#005d75"/>
            </g>
          </g>
          <g id="Grupo_1171988" data-name="Grupo 1171988" transform="translate(0 6.585)">
            <g id="Grupo_1171986" data-name="Grupo 1171986">
              <path id="Trazado_1032717" data-name="Trazado 1032717" d="M391.891,67.016l5.677,3.277V63.739l-5.676-3.277Z" transform="translate(-391.891 -60.462)" fill="#008bad"/>
              <path id="Trazado_1032718" data-name="Trazado 1032718" d="M392.351,61.26l4.756,2.746V69.5l-4.755-2.746V61.26Zm-.46-.8v6.554l5.676,3.277V63.739l-5.676-3.277Z" transform="translate(-391.891 -60.462)" fill="#00576e"/>
            </g>
            <g id="Grupo_1171987" data-name="Grupo 1171987" transform="translate(1.054 1.6)">
              <path id="Trazado_1032719" data-name="Trazado 1032719" d="M396.885,69.153c.127.073.23.014.23-.133V64.777a.509.509,0,0,0-.23-.4c-.127-.073-.23-.014-.23.133v4.244A.51.51,0,0,0,396.885,69.153Z" transform="translate(-393.548 -62.554)" fill="#005d75"/>
              <path id="Trazado_1032720" data-name="Trazado 1032720" d="M395.7,68.468c.128.073.23.014.23-.133V64.092a.509.509,0,0,0-.23-.4c-.127-.073-.23-.014-.23.133V68.07A.5.5,0,0,0,395.7,68.468Z" transform="translate(-393.398 -62.467)" fill="#005d75"/>
              <path id="Trazado_1032721" data-name="Trazado 1032721" d="M394.514,67.784c.127.073.23.014.23-.133V63.408a.508.508,0,0,0-.231-.4c-.127-.073-.23-.014-.23.133v4.244A.512.512,0,0,0,394.514,67.784Z" transform="translate(-393.248 -62.38)" fill="#005d75"/>
              <path id="Trazado_1032722" data-name="Trazado 1032722" d="M393.329,67.1c.127.073.23.014.23-.133V62.724a.509.509,0,0,0-.23-.4c-.128-.073-.231-.014-.231.133V66.7A.514.514,0,0,0,393.329,67.1Z" transform="translate(-393.098 -62.294)" fill="#005d75"/>
            </g>
          </g>
        </g>
        <g id="Grupo_1171997" data-name="Grupo 1171997" transform="translate(6.174 3.701)">
          <g id="Grupo_1171990" data-name="Grupo 1171990">
            <path id="Trazado_1032723" data-name="Trazado 1032723" d="M374.051,42.723,368.375,46,356.97,39.415l5.676-3.277Z" transform="translate(-356.97 -36.138)" fill="#2f73a8"/>
            <path id="Trazado_1032724" data-name="Trazado 1032724" d="M362.646,36.669l10.485,6.053-4.755,2.746-10.485-6.053,4.755-2.746Zm0-.531-5.676,3.277L368.375,46l5.676-3.277-11.4-6.585Z" transform="translate(-356.97 -36.138)" fill="#215278"/>
          </g>
          <g id="Grupo_1171993" data-name="Grupo 1171993" transform="translate(0 3.278)">
            <g id="Grupo_1171991" data-name="Grupo 1171991">
              <path id="Trazado_1032725" data-name="Trazado 1032725" d="M356.97,46.444V39.89l11.405,6.584v6.554Z" transform="translate(-356.97 -39.89)" fill="#143956"/>
              <path id="Trazado_1032726" data-name="Trazado 1032726" d="M367.915,52.231,357.43,46.178V40.687l10.485,6.053v5.491Zm.46.8V46.474L356.97,39.89v6.554l11.405,6.584Z" transform="translate(-356.97 -39.89)" fill="#143956"/>
            </g>
            <g id="Grupo_1171992" data-name="Grupo 1171992" transform="translate(1.331 1.759)">
              <path id="Trazado_1032727" data-name="Trazado 1032727" d="M358.724,46.709a.509.509,0,0,1-.23-.4V42.067c0-.147.1-.206.23-.133a.509.509,0,0,1,.23.4v4.244C358.953,46.723,358.85,46.783,358.724,46.709Z" transform="translate(-358.494 -41.903)" fill="#143956"/>
              <path id="Trazado_1032728" data-name="Trazado 1032728" d="M359.909,47.394a.509.509,0,0,1-.23-.4V42.752c0-.147.1-.206.231-.133a.509.509,0,0,1,.23.4v4.244C360.139,47.408,360.035,47.468,359.909,47.394Z" transform="translate(-358.644 -41.99)" fill="#143956"/>
              <path id="Trazado_1032729" data-name="Trazado 1032729" d="M361.094,48.078a.509.509,0,0,1-.23-.4V43.436c0-.147.1-.206.23-.133a.509.509,0,0,1,.23.4v4.244C361.324,48.092,361.221,48.152,361.094,48.078Z" transform="translate(-358.794 -42.076)" fill="#143956"/>
              <path id="Trazado_1032730" data-name="Trazado 1032730" d="M362.28,48.762a.509.509,0,0,1-.23-.4V44.12c0-.147.1-.206.23-.133a.507.507,0,0,1,.23.4V48.63C362.509,48.776,362.406,48.836,362.28,48.762Z" transform="translate(-358.944 -42.163)" fill="#143956"/>
              <path id="Trazado_1032731" data-name="Trazado 1032731" d="M363.465,49.447a.509.509,0,0,1-.23-.4V44.805c0-.147.1-.206.23-.133a.509.509,0,0,1,.23.4v4.244C363.694,49.461,363.591,49.521,363.465,49.447Z" transform="translate(-359.093 -42.249)" fill="#143956"/>
              <path id="Trazado_1032732" data-name="Trazado 1032732" d="M364.65,50.131a.509.509,0,0,1-.23-.4V45.489c0-.147.1-.206.23-.133a.507.507,0,0,1,.23.4V50C364.88,50.145,364.777,50.2,364.65,50.131Z" transform="translate(-359.243 -42.336)" fill="#143956"/>
              <path id="Trazado_1032733" data-name="Trazado 1032733" d="M365.835,50.815a.509.509,0,0,1-.23-.4V46.173c0-.147.1-.206.23-.133a.509.509,0,0,1,.23.4v4.244C366.065,50.829,365.962,50.889,365.835,50.815Z" transform="translate(-359.393 -42.422)" fill="#143956"/>
              <path id="Trazado_1032734" data-name="Trazado 1032734" d="M367.021,51.5a.509.509,0,0,1-.23-.4V46.857c0-.147.1-.206.23-.133a.509.509,0,0,1,.23.4v4.244C367.251,51.513,367.147,51.573,367.021,51.5Z" transform="translate(-359.543 -42.509)" fill="#143956"/>
              <path id="Trazado_1032735" data-name="Trazado 1032735" d="M368.206,52.184a.509.509,0,0,1-.23-.4V47.542c0-.147.1-.206.23-.133a.509.509,0,0,1,.23.4v4.244C368.436,52.2,368.332,52.258,368.206,52.184Z" transform="translate(-359.693 -42.595)" fill="#143956"/>
            </g>
          </g>
          <g id="Grupo_1171996" data-name="Grupo 1171996" transform="translate(11.405 6.585)">
            <g id="Grupo_1171994" data-name="Grupo 1171994">
              <path id="Trazado_1032736" data-name="Trazado 1032736" d="M375.7,50.23l-5.676,3.277V46.953l5.676-3.277Z" transform="translate(-370.026 -43.676)" fill="#143956"/>
              <path id="Trazado_1032737" data-name="Trazado 1032737" d="M375.241,44.473v5.491l-4.756,2.746V47.218l4.756-2.746Zm.46-.8-5.676,3.277v6.554L375.7,50.23V43.676Z" transform="translate(-370.026 -43.676)" fill="#143956"/>
            </g>
            <g id="Grupo_1171995" data-name="Grupo 1171995" transform="translate(1.054 1.6)">
              <path id="Trazado_1032738" data-name="Trazado 1032738" d="M371.463,52.366c-.127.073-.23.014-.23-.133V47.99a.509.509,0,0,1,.23-.4c.127-.073.231-.014.231.133v4.244A.508.508,0,0,1,371.463,52.366Z" transform="translate(-371.233 -45.767)" fill="#143956"/>
              <path id="Trazado_1032739" data-name="Trazado 1032739" d="M372.649,51.682c-.128.073-.23.014-.23-.133V47.306a.509.509,0,0,1,.23-.4c.128-.073.23-.014.23.133v4.244A.509.509,0,0,1,372.649,51.682Z" transform="translate(-371.383 -45.68)" fill="#143956"/>
              <path id="Trazado_1032740" data-name="Trazado 1032740" d="M373.834,51c-.127.073-.23.014-.23-.133V46.622a.508.508,0,0,1,.231-.4c.127-.073.23-.014.23.133V50.6A.514.514,0,0,1,373.834,51Z" transform="translate(-371.533 -45.594)" fill="#143956"/>
              <path id="Trazado_1032741" data-name="Trazado 1032741" d="M375.019,50.313c-.127.073-.23.014-.23-.133V45.937a.509.509,0,0,1,.23-.4c.127-.073.231-.014.231.133v4.244A.508.508,0,0,1,375.019,50.313Z" transform="translate(-371.683 -45.507)" fill="#143956"/>
            </g>
          </g>
        </g>
        <g id="Grupo_1172005" data-name="Grupo 1172005" transform="translate(0 7.293)">
          <g id="Grupo_1171998" data-name="Grupo 1171998" transform="translate(0.001)">
            <path id="Trazado_1032742" data-name="Trazado 1032742" d="M366.983,46.834l-5.676,3.277-11.4-6.585,5.676-3.277Z" transform="translate(-349.903 -40.249)" fill="#2f73a8"/>
            <path id="Trazado_1032743" data-name="Trazado 1032743" d="M355.579,40.78l10.485,6.053-4.755,2.746-10.486-6.053,4.756-2.746Zm0-.531L349.9,43.526l11.4,6.585,5.676-3.277-11.4-6.585Z" transform="translate(-349.903 -40.249)" fill="#215278"/>
          </g>
          <g id="Grupo_1172001" data-name="Grupo 1172001" transform="translate(0 3.278)">
            <g id="Grupo_1171999" data-name="Grupo 1171999">
              <path id="Trazado_1032744" data-name="Trazado 1032744" d="M349.9,50.555V44l11.406,6.584v6.554Z" transform="translate(-349.902 -44.001)" fill="#2f73a8"/>
              <path id="Trazado_1032745" data-name="Trazado 1032745" d="M360.847,56.342l-10.485-6.053V44.8l10.485,6.053v5.491Zm.46.8V50.585L349.9,44v6.554l11.4,6.584Z" transform="translate(-349.902 -44.001)" fill="#215278"/>
            </g>
            <g id="Grupo_1172000" data-name="Grupo 1172000" transform="translate(1.331 1.759)">
              <path id="Trazado_1032746" data-name="Trazado 1032746" d="M351.656,50.82a.509.509,0,0,1-.23-.4V46.178c0-.147.1-.206.23-.133a.509.509,0,0,1,.23.4v4.244C351.886,50.834,351.782,50.894,351.656,50.82Z" transform="translate(-351.426 -46.014)" fill="#005d75"/>
              <path id="Trazado_1032747" data-name="Trazado 1032747" d="M352.841,51.505a.509.509,0,0,1-.23-.4V46.863c0-.147.1-.206.23-.133a.506.506,0,0,1,.23.4v4.244C353.071,51.519,352.968,51.579,352.841,51.505Z" transform="translate(-351.576 -46.101)" fill="#005d75"/>
              <path id="Trazado_1032748" data-name="Trazado 1032748" d="M354.026,52.189a.509.509,0,0,1-.23-.4V47.547c0-.147.1-.206.23-.133a.509.509,0,0,1,.23.4v4.244C354.256,52.2,354.153,52.263,354.026,52.189Z" transform="translate(-351.726 -46.187)" fill="#005d75"/>
              <path id="Trazado_1032749" data-name="Trazado 1032749" d="M355.212,52.873a.509.509,0,0,1-.23-.4V48.231c0-.147.1-.206.23-.133a.508.508,0,0,1,.231.4v4.244C355.442,52.887,355.338,52.947,355.212,52.873Z" transform="translate(-351.876 -46.274)" fill="#005d75"/>
              <path id="Trazado_1032750" data-name="Trazado 1032750" d="M356.4,53.558a.509.509,0,0,1-.23-.4V48.916c0-.147.1-.206.23-.133a.509.509,0,0,1,.23.4v4.244C356.626,53.572,356.524,53.632,356.4,53.558Z" transform="translate(-352.025 -46.36)" fill="#005d75"/>
              <path id="Trazado_1032751" data-name="Trazado 1032751" d="M357.582,54.242a.509.509,0,0,1-.23-.4V49.6c0-.147.1-.206.23-.133a.509.509,0,0,1,.23.4V54.11C357.812,54.256,357.709,54.316,357.582,54.242Z" transform="translate(-352.175 -46.447)" fill="#005d75"/>
              <path id="Trazado_1032752" data-name="Trazado 1032752" d="M358.768,54.926a.507.507,0,0,1-.23-.4V50.284c0-.147.1-.206.23-.133a.509.509,0,0,1,.23.4v4.244C359,54.94,358.894,55,358.768,54.926Z" transform="translate(-352.325 -46.533)" fill="#005d75"/>
              <path id="Trazado_1032753" data-name="Trazado 1032753" d="M359.953,55.61a.509.509,0,0,1-.23-.4V50.968c0-.147.1-.206.23-.133a.509.509,0,0,1,.23.4v4.244C360.182,55.624,360.079,55.684,359.953,55.61Z" transform="translate(-352.475 -46.62)" fill="#005d75"/>
              <path id="Trazado_1032754" data-name="Trazado 1032754" d="M361.138,56.3a.509.509,0,0,1-.23-.4V51.653c0-.147.1-.206.23-.133a.509.509,0,0,1,.23.4v4.244C361.368,56.309,361.265,56.369,361.138,56.3Z" transform="translate(-352.625 -46.706)" fill="#005d75"/>
            </g>
          </g>
          <g id="Grupo_1172004" data-name="Grupo 1172004" transform="translate(11.405 6.585)">
            <g id="Grupo_1172002" data-name="Grupo 1172002">
              <path id="Trazado_1032755" data-name="Trazado 1032755" d="M368.634,54.341l-5.676,3.277V51.064l5.676-3.277Z" transform="translate(-362.958 -47.787)" fill="#ab3914"/>
              <path id="Trazado_1032756" data-name="Trazado 1032756" d="M368.173,48.584v5.491l-4.755,2.746V51.329l4.755-2.746Zm.46-.8-5.676,3.277v6.554l5.676-3.277V47.787Z" transform="translate(-362.958 -47.787)" fill="#143956"/>
            </g>
            <g id="Grupo_1172003" data-name="Grupo 1172003" transform="translate(1.055 1.6)">
              <path id="Trazado_1032757" data-name="Trazado 1032757" d="M364.4,56.477c-.127.073-.23.014-.23-.133V52.1a.509.509,0,0,1,.23-.4c.127-.073.23-.014.23.133v4.244A.509.509,0,0,1,364.4,56.477Z" transform="translate(-364.166 -49.878)" fill="#8f3011"/>
              <path id="Trazado_1032758" data-name="Trazado 1032758" d="M365.581,55.793c-.127.073-.23.014-.23-.133V51.417a.509.509,0,0,1,.23-.4c.127-.073.23-.014.23.133V55.4A.509.509,0,0,1,365.581,55.793Z" transform="translate(-364.316 -49.791)" fill="#8f3011"/>
              <path id="Trazado_1032759" data-name="Trazado 1032759" d="M366.766,55.109c-.127.073-.23.014-.23-.133V50.733a.509.509,0,0,1,.23-.4c.127-.073.23-.014.23.133v4.244A.508.508,0,0,1,366.766,55.109Z" transform="translate(-364.466 -49.705)" fill="#8f3011"/>
              <path id="Trazado_1032760" data-name="Trazado 1032760" d="M367.951,54.424c-.128.073-.23.014-.23-.133V50.048a.509.509,0,0,1,.23-.4c.128-.073.231-.014.231.133v4.244A.508.508,0,0,1,367.951,54.424Z" transform="translate(-364.615 -49.618)" fill="#8f3011"/>
            </g>
          </g>
        </g>
        <g id="Grupo_1172013" data-name="Grupo 1172013" transform="translate(18.051 10.585)">
          <g id="Grupo_1172006" data-name="Grupo 1172006" transform="translate(0.001)">
            <path id="Trazado_1032761" data-name="Trazado 1032761" d="M387.646,50.6l-5.676,3.277-11.4-6.585,5.676-3.277Z" transform="translate(-370.566 -44.018)" fill="#feec9a"/>
            <path id="Trazado_1032762" data-name="Trazado 1032762" d="M376.242,44.549,386.726,50.6l-4.755,2.746-10.485-6.053,4.755-2.746Zm0-.531-5.676,3.277,11.4,6.585,5.676-3.277-11.4-6.585Z" transform="translate(-370.566 -44.018)" fill="#7d6701"/>
          </g>
          <g id="Grupo_1172009" data-name="Grupo 1172009" transform="translate(0 3.278)">
            <g id="Grupo_1172007" data-name="Grupo 1172007">
              <path id="Trazado_1032763" data-name="Trazado 1032763" d="M370.566,54.324V47.77l11.4,6.584v6.554Z" transform="translate(-370.565 -47.77)" fill="#feec9a"/>
              <path id="Trazado_1032764" data-name="Trazado 1032764" d="M381.51,60.111l-10.485-6.053v-5.49l10.485,6.053v5.49Zm.46.8V54.354L370.565,47.77v6.554l11.405,6.584Z" transform="translate(-370.565 -47.77)" fill="#7d6701"/>
            </g>
            <g id="Grupo_1172008" data-name="Grupo 1172008" transform="translate(1.331 1.759)">
              <path id="Trazado_1032765" data-name="Trazado 1032765" d="M372.319,54.589a.509.509,0,0,1-.23-.4V49.947c0-.147.1-.206.23-.133a.509.509,0,0,1,.23.4v4.244C372.549,54.6,372.446,54.663,372.319,54.589Z" transform="translate(-372.089 -49.783)" fill="#7a7060"/>
              <path id="Trazado_1032766" data-name="Trazado 1032766" d="M373.5,55.274a.509.509,0,0,1-.23-.4V50.632c0-.147.1-.206.23-.133a.509.509,0,0,1,.23.4v4.244C373.734,55.288,373.631,55.348,373.5,55.274Z" transform="translate(-372.239 -49.87)" fill="#7a7060"/>
              <path id="Trazado_1032767" data-name="Trazado 1032767" d="M374.69,55.958a.509.509,0,0,1-.23-.4V51.316c0-.147.1-.206.23-.133a.507.507,0,0,1,.23.4v4.244C374.919,55.972,374.816,56.032,374.69,55.958Z" transform="translate(-372.389 -49.956)" fill="#7a7060"/>
              <path id="Trazado_1032768" data-name="Trazado 1032768" d="M375.875,56.642a.507.507,0,0,1-.23-.4V52c0-.147.1-.206.23-.133a.507.507,0,0,1,.23.4V56.51C376.105,56.656,376,56.716,375.875,56.642Z" transform="translate(-372.539 -50.043)" fill="#7a7060"/>
              <path id="Trazado_1032769" data-name="Trazado 1032769" d="M377.061,57.327a.507.507,0,0,1-.23-.4V52.685c0-.147.1-.206.23-.133a.507.507,0,0,1,.23.4v4.244C377.29,57.341,377.187,57.4,377.061,57.327Z" transform="translate(-372.688 -50.129)" fill="#7a7060"/>
              <path id="Trazado_1032770" data-name="Trazado 1032770" d="M378.246,58.011a.509.509,0,0,1-.23-.4V53.369c0-.147.1-.206.23-.133a.508.508,0,0,1,.231.4v4.244C378.476,58.025,378.372,58.085,378.246,58.011Z" transform="translate(-372.838 -50.216)" fill="#7a7060"/>
              <path id="Trazado_1032771" data-name="Trazado 1032771" d="M379.431,58.7a.508.508,0,0,1-.231-.4V54.053c0-.147.1-.206.23-.133a.509.509,0,0,1,.23.4v4.244C379.66,58.709,379.557,58.769,379.431,58.7Z" transform="translate(-372.988 -50.302)" fill="#7a7060"/>
              <path id="Trazado_1032772" data-name="Trazado 1032772" d="M380.616,59.379a.509.509,0,0,1-.23-.4V54.737c0-.147.1-.206.23-.133a.509.509,0,0,1,.23.4v4.244C380.846,59.393,380.743,59.453,380.616,59.379Z" transform="translate(-373.138 -50.389)" fill="#7a7060"/>
              <path id="Trazado_1032773" data-name="Trazado 1032773" d="M381.8,60.064a.509.509,0,0,1-.23-.4V55.422c0-.147.1-.206.23-.133a.509.509,0,0,1,.23.4v4.244C382.031,60.078,381.928,60.138,381.8,60.064Z" transform="translate(-373.288 -50.475)" fill="#7a7060"/>
            </g>
          </g>
          <g id="Grupo_1172012" data-name="Grupo 1172012" transform="translate(11.405 6.585)">
            <g id="Grupo_1172010" data-name="Grupo 1172010">
              <path id="Trazado_1032774" data-name="Trazado 1032774" d="M389.3,58.11l-5.676,3.277V54.833l5.676-3.277Z" transform="translate(-383.621 -51.556)" fill="#feec9a"/>
              <path id="Trazado_1032775" data-name="Trazado 1032775" d="M388.837,52.353v5.49l-4.756,2.746V55.1l4.756-2.745Zm.46-.8-5.676,3.277v6.554L389.3,58.11V51.556Z" transform="translate(-383.621 -51.556)" fill="#7d6701"/>
            </g>
            <g id="Grupo_1172011" data-name="Grupo 1172011" transform="translate(1.055 1.6)">
              <path id="Trazado_1032776" data-name="Trazado 1032776" d="M385.059,60.246c-.127.073-.23.014-.23-.133V55.87a.509.509,0,0,1,.23-.4c.127-.073.23-.014.23.133v4.244A.509.509,0,0,1,385.059,60.246Z" transform="translate(-384.829 -53.647)" fill="#af9002"/>
              <path id="Trazado_1032777" data-name="Trazado 1032777" d="M386.244,59.562c-.127.073-.23.014-.23-.133V55.186a.509.509,0,0,1,.23-.4c.127-.073.23-.014.23.133v4.244A.5.5,0,0,1,386.244,59.562Z" transform="translate(-384.979 -53.56)" fill="#af9002"/>
              <path id="Trazado_1032778" data-name="Trazado 1032778" d="M387.43,58.878c-.127.073-.23.014-.23-.133V54.5a.509.509,0,0,1,.23-.4c.127-.073.231-.014.231.133V58.48A.514.514,0,0,1,387.43,58.878Z" transform="translate(-385.129 -53.474)" fill="#af9002"/>
              <path id="Trazado_1032779" data-name="Trazado 1032779" d="M388.615,58.193c-.128.073-.231.014-.231-.133V53.817a.509.509,0,0,1,.23-.4c.128-.073.23-.014.23.133V57.8A.506.506,0,0,1,388.615,58.193Z" transform="translate(-385.278 -53.387)" fill="#af9002"/>
            </g>
          </g>
        </g>
        <g id="Grupo_1172021" data-name="Grupo 1172021" transform="translate(11.589 14.176)">
          <g id="Grupo_1172014" data-name="Grupo 1172014" transform="translate(0.001)">
            <path id="Trazado_1032780" data-name="Trazado 1032780" d="M380.249,54.714l-5.676,3.277-11.4-6.585,5.676-3.277Z" transform="translate(-363.169 -48.129)" fill="#2f73a8"/>
            <path id="Trazado_1032781" data-name="Trazado 1032781" d="M368.845,48.66l10.485,6.053-4.755,2.746L364.09,51.406l4.755-2.746Zm0-.531-5.676,3.277,11.4,6.585,5.676-3.277-11.4-6.585Z" transform="translate(-363.169 -48.129)" fill="#215278"/>
          </g>
          <g id="Grupo_1172017" data-name="Grupo 1172017" transform="translate(0 3.278)">
            <g id="Grupo_1172015" data-name="Grupo 1172015">
              <path id="Trazado_1032782" data-name="Trazado 1032782" d="M363.169,58.435V51.881l11.4,6.584v6.554Z" transform="translate(-363.168 -51.881)" fill="#2f73a8"/>
              <path id="Trazado_1032783" data-name="Trazado 1032783" d="M374.113,64.222l-10.485-6.053V52.678l10.485,6.053v5.491Zm.46.8V58.465l-11.405-6.584v6.554l11.405,6.584Z" transform="translate(-363.168 -51.881)" fill="#143956"/>
            </g>
            <g id="Grupo_1172016" data-name="Grupo 1172016" transform="translate(1.331 1.759)">
              <path id="Trazado_1032784" data-name="Trazado 1032784" d="M364.922,58.7a.509.509,0,0,1-.23-.4V54.058c0-.147.1-.206.23-.133a.509.509,0,0,1,.23.4v4.244C365.152,58.714,365.049,58.774,364.922,58.7Z" transform="translate(-364.692 -53.894)" fill="#005d75"/>
              <path id="Trazado_1032785" data-name="Trazado 1032785" d="M366.108,59.385a.509.509,0,0,1-.23-.4V54.743c0-.147.1-.206.23-.133a.509.509,0,0,1,.23.4v4.244C366.337,59.4,366.234,59.459,366.108,59.385Z" transform="translate(-364.842 -53.981)" fill="#005d75"/>
              <path id="Trazado_1032786" data-name="Trazado 1032786" d="M367.293,60.069a.509.509,0,0,1-.23-.4V55.427c0-.147.1-.206.23-.133a.509.509,0,0,1,.23.4v4.244C367.522,60.083,367.419,60.143,367.293,60.069Z" transform="translate(-364.992 -54.067)" fill="#005d75"/>
              <path id="Trazado_1032787" data-name="Trazado 1032787" d="M368.478,60.753a.509.509,0,0,1-.23-.4V56.111c0-.147.1-.206.23-.133a.509.509,0,0,1,.23.4v4.244C368.708,60.767,368.605,60.827,368.478,60.753Z" transform="translate(-365.142 -54.154)" fill="#005d75"/>
              <path id="Trazado_1032788" data-name="Trazado 1032788" d="M369.663,61.438a.509.509,0,0,1-.23-.4V56.8c0-.147.1-.206.23-.133a.509.509,0,0,1,.23.4v4.244C369.893,61.452,369.79,61.511,369.663,61.438Z" transform="translate(-365.291 -54.24)" fill="#005d75"/>
              <path id="Trazado_1032789" data-name="Trazado 1032789" d="M370.849,62.122a.509.509,0,0,1-.23-.4V57.48c0-.147.1-.206.231-.133a.509.509,0,0,1,.23.4V61.99C371.078,62.136,370.975,62.2,370.849,62.122Z" transform="translate(-365.441 -54.327)" fill="#005d75"/>
              <path id="Trazado_1032790" data-name="Trazado 1032790" d="M372.034,62.806a.509.509,0,0,1-.23-.4V58.164c0-.147.1-.206.23-.133a.509.509,0,0,1,.23.4v4.244C372.263,62.82,372.16,62.88,372.034,62.806Z" transform="translate(-365.591 -54.413)" fill="#005d75"/>
              <path id="Trazado_1032791" data-name="Trazado 1032791" d="M373.219,63.491a.509.509,0,0,1-.23-.4V58.849c0-.147.1-.206.23-.133a.509.509,0,0,1,.23.4v4.244C373.449,63.5,373.346,63.564,373.219,63.491Z" transform="translate(-365.741 -54.5)" fill="#005d75"/>
              <path id="Trazado_1032792" data-name="Trazado 1032792" d="M374.4,64.175a.509.509,0,0,1-.23-.4V59.533c0-.147.1-.206.23-.133a.509.509,0,0,1,.23.4v4.244C374.635,64.189,374.531,64.249,374.4,64.175Z" transform="translate(-365.891 -54.586)" fill="#005d75"/>
            </g>
          </g>
          <g id="Grupo_1172020" data-name="Grupo 1172020" transform="translate(11.405 6.585)">
            <g id="Grupo_1172018" data-name="Grupo 1172018">
              <path id="Trazado_1032793" data-name="Trazado 1032793" d="M381.9,62.221,376.224,65.5V58.944l5.676-3.277Z" transform="translate(-376.224 -55.667)" fill="#2f73a8"/>
              <path id="Trazado_1032794" data-name="Trazado 1032794" d="M381.44,56.464v5.491L376.684,64.7V59.209l4.756-2.746Zm.46-.8-5.676,3.277V65.5l5.676-3.277V55.667Z" transform="translate(-376.224 -55.667)" fill="#143956"/>
            </g>
            <g id="Grupo_1172019" data-name="Grupo 1172019" transform="translate(1.054 1.6)">
              <path id="Trazado_1032795" data-name="Trazado 1032795" d="M377.662,64.357c-.127.073-.231.014-.231-.133V59.981a.509.509,0,0,1,.23-.4c.127-.073.23-.014.23.133v4.244A.506.506,0,0,1,377.662,64.357Z" transform="translate(-377.431 -57.758)" fill="#005d75"/>
              <path id="Trazado_1032796" data-name="Trazado 1032796" d="M378.847,63.673c-.127.073-.23.014-.23-.133V59.3a.509.509,0,0,1,.23-.4c.127-.073.23-.014.23.133v4.244A.5.5,0,0,1,378.847,63.673Z" transform="translate(-377.581 -57.671)" fill="#005d75"/>
              <path id="Trazado_1032797" data-name="Trazado 1032797" d="M380.032,62.989c-.127.073-.23.014-.23-.133V58.613a.509.509,0,0,1,.23-.4c.127-.073.23-.014.23.133v4.244A.505.505,0,0,1,380.032,62.989Z" transform="translate(-377.731 -57.585)" fill="#005d75"/>
              <path id="Trazado_1032798" data-name="Trazado 1032798" d="M381.218,62.3c-.127.073-.23.014-.23-.133V57.928a.509.509,0,0,1,.23-.4c.127-.073.23-.014.23.133v4.244A.509.509,0,0,1,381.218,62.3Z" transform="translate(-377.881 -57.498)" fill="#005d75"/>
            </g>
          </g>
        </g>
      </g>
      <g id="Grupo_1172031" data-name="Grupo 1172031" transform="translate(61.545 31.453)">
        <path id="Trazado_1032799" data-name="Trazado 1032799" d="M406.576,69.868,417.255,63.7h0Z" transform="translate(-399.917 -55.782)" fill="#36a9e1"/>
        <path id="Trazado_1032800" data-name="Trazado 1032800" d="M421.522,68.571,406.576,77.2V69.511l10.679-6.166,4.268-2.463v7.689Z" transform="translate(-399.917 -55.426)" fill="#d9d0c1"/>
        <g id="Grupo_1172023" data-name="Grupo 1172023" transform="translate(7.878 7.406)">
          <path id="Trazado_1032801" data-name="Trazado 1032801" d="M420.294,65.793l2.2-1.273V63.114l-2.2,1.273Z" transform="translate(-409.529 -63.114)" fill="#af9002"/>
          <path id="Trazado_1032802" data-name="Trazado 1032802" d="M416.186,68.164l2.2-1.272V65.486l-2.2,1.272Z" transform="translate(-409.009 -63.414)" fill="#af9002"/>
          <path id="Trazado_1032803" data-name="Trazado 1032803" d="M412.079,70.536l2.2-1.273V67.857l-2.2,1.273Z" transform="translate(-408.49 -63.714)" fill="#af9002"/>
          <path id="Trazado_1032804" data-name="Trazado 1032804" d="M407.971,72.907l2.2-1.272V70.229l-2.2,1.272Z" transform="translate(-407.971 -64.013)" fill="#af9002"/>
        </g>
        <g id="Grupo_1172024" data-name="Grupo 1172024" transform="translate(7.878 10.514)">
          <path id="Trazado_1032805" data-name="Trazado 1032805" d="M420.294,69.35l2.2-1.272V66.672l-2.2,1.272Z" transform="translate(-409.529 -66.672)" fill="#af9002"/>
          <path id="Trazado_1032806" data-name="Trazado 1032806" d="M416.186,71.721l2.2-1.272V69.043l-2.2,1.272Z" transform="translate(-409.009 -66.972)" fill="#af9002"/>
          <path id="Trazado_1032807" data-name="Trazado 1032807" d="M412.079,74.093l2.2-1.272V71.415l-2.2,1.272Z" transform="translate(-408.49 -67.272)" fill="#af9002"/>
          <path id="Trazado_1032808" data-name="Trazado 1032808" d="M407.971,76.464l2.2-1.272V73.786l-2.2,1.272Z" transform="translate(-407.971 -67.571)" fill="#af9002"/>
        </g>
        <path id="Trazado_1032809" data-name="Trazado 1032809" d="M405.612,68.955l-6.659-3.845,8.306-4.8L413.9,56.48l6.659,3.845-4.267,2.464Z" transform="translate(-398.953 -54.869)" fill="#bfb097"/>
        <g id="Grupo_1172029" data-name="Grupo 1172029" transform="translate(8.251)">
          <g id="Grupo_1172025" data-name="Grupo 1172025" transform="translate(0.283 5.446)">
            <ellipse id="Elipse_13773" data-name="Elipse 13773" cx="2.41" cy="1.392" rx="2.41" ry="1.392" transform="translate(0 0.575)" fill="#ccc"/>
            <rect id="Rectángulo_420918" data-name="Rectángulo 420918" width="4.82" height="0.576" transform="translate(0 1.391)" fill="#ccc"/>
            <path id="Trazado_1032810" data-name="Trazado 1032810" d="M412.837,61.278a1.039,1.039,0,0,1,0,1.968,3.768,3.768,0,0,1-3.409,0,1.039,1.039,0,0,1,0-1.968A3.768,3.768,0,0,1,412.837,61.278Z" transform="translate(-408.722 -60.87)" fill="#ededed"/>
          </g>
          <g id="Grupo_1172026" data-name="Grupo 1172026" transform="translate(1.003 5.14)">
            <path id="Trazado_1032811" data-name="Trazado 1032811" d="M412.431,61.269a.728.728,0,0,1,0,1.38,2.643,2.643,0,0,1-2.39,0,.728.728,0,0,1,0-1.38A2.643,2.643,0,0,1,412.431,61.269Z" transform="translate(-409.546 -60.579)" fill="#ccc"/>
            <rect id="Rectángulo_420919" data-name="Rectángulo 420919" width="3.38" height="0.404" transform="translate(0 0.976)" fill="#ccc"/>
            <path id="Trazado_1032812" data-name="Trazado 1032812" d="M412.431,60.806a.728.728,0,0,1,0,1.38,2.643,2.643,0,0,1-2.39,0,.728.728,0,0,1,0-1.38A2.643,2.643,0,0,1,412.431,60.806Z" transform="translate(-409.546 -60.52)" fill="#ededed"/>
          </g>
          <g id="Grupo_1172027" data-name="Grupo 1172027" transform="translate(2.395 0.341)">
            <path id="Trazado_1032813" data-name="Trazado 1032813" d="M411.648,61.491a.129.129,0,0,1,0,.244.466.466,0,0,1-.422,0,.129.129,0,0,1,0-.244A.466.466,0,0,1,411.648,61.491Z" transform="translate(-411.139 -55.837)" fill="#ccc"/>
            <path id="Trazado_1032814" data-name="Trazado 1032814" d="M411.648,55.077a.129.129,0,0,1,0,.244.466.466,0,0,1-.422,0,.129.129,0,0,1,0-.244A.466.466,0,0,1,411.648,55.077Z" transform="translate(-411.139 -55.026)" fill="#ccc"/>
            <rect id="Rectángulo_420920" data-name="Rectángulo 420920" width="0.597" height="5.603" transform="translate(0 0.172)" fill="#ccc"/>
          </g>
          <g id="Grupo_1172028" data-name="Grupo 1172028">
            <path id="Trazado_1032815" data-name="Trazado 1032815" d="M412.59,59.714a.162.162,0,0,1-.046-.04,6.389,6.389,0,0,0-4.011-2.317c-.107-.024-.161-.1-.118-.157a.278.278,0,0,1,.272-.068,6.758,6.758,0,0,1,4.247,2.452c.043.062-.009.133-.117.157A.33.33,0,0,1,412.59,59.714Z" transform="translate(-408.398 -54.951)" fill="#ededed"/>
            <path id="Trazado_1032816" data-name="Trazado 1032816" d="M412.948,59.316a7.821,7.821,0,0,0-4.55-2.382V54.746a9.484,9.484,0,0,1,4.55,2.382Z" transform="translate(-408.398 -54.65)" fill="#ededed"/>
            <path id="Trazado_1032817" data-name="Trazado 1032817" d="M412.59,57.227a.149.149,0,0,1-.046-.04,6.389,6.389,0,0,0-4.011-2.317c-.107-.024-.161-.1-.118-.157a.278.278,0,0,1,.272-.068,6.758,6.758,0,0,1,4.247,2.452c.043.062-.009.133-.117.157A.33.33,0,0,1,412.59,57.227Z" transform="translate(-408.398 -54.636)" fill="#ccc"/>
          </g>
        </g>
        <path id="Trazado_1032818" data-name="Trazado 1032818" d="M405.612,70.2v7.689l-6.659-3.845V66.359Z" transform="translate(-398.953 -56.118)" fill="#a48a7b"/>
        <g id="Grupo_1172030" data-name="Grupo 1172030" transform="translate(1.956 14.353)">
          <path id="Trazado_1032819" data-name="Trazado 1032819" d="M403.4,73.746l-2.2-1.273V71.067l2.2,1.273Z" transform="translate(-401.192 -71.067)" fill="#fcd004"/>
        </g>
      </g>
    </g>
  </g>
</svg>
