<svg xmlns="http://www.w3.org/2000/svg" xmlns:xlink="http://www.w3.org/1999/xlink" width="109.814" height="104.069" viewBox="0 0 109.814 104.069">
  <defs>
    <filter id="Trazado_1002360" x="0" y="0" width="104.069" height="104.069" filterUnits="userSpaceOnUse">
      <feOffset dy="3" input="SourceAlpha"/>
      <feGaussianBlur stdDeviation="3" result="blur"/>
      <feFlood flood-opacity="0.412"/>
      <feComposite operator="in" in2="blur"/>
    </filter>
    <filter id="Trazado_1002360-2" x="0" y="0" width="104.069" height="104.069" filterUnits="userSpaceOnUse">
      <feOffset dy="3" input="SourceAlpha"/>
      <feGaussianBlur stdDeviation="3" result="blur-2"/>
      <feFlood flood-opacity="0.161" result="color"/>
      <feComposite operator="out" in="SourceGraphic" in2="blur-2"/>
      <feComposite operator="in" in="color"/>
      <feComposite operator="in" in2="SourceGraphic"/>
    </filter>
  </defs>
  <g id="Grupo_1172102" data-name="Grupo 1172102" transform="translate(-1296.333 -269.229)">
    <g data-type="innerShadowGroup">
      <g transform="matrix(1, 0, 0, 1, 1296.33, 269.23)" filter="url(#Trazado_1002360)">
        <g id="Trazado_1002360-3" data-name="Trazado 1002360" transform="translate(9 6)" fill="#a8aeb5">
          <path d="M 43.03450775146484 84.56902313232422 C 37.42671966552734 84.56902313232422 31.98748207092285 83.47105407714844 26.86787033081055 81.30564880371094 C 21.92214584350586 79.21378326416016 17.4801197052002 76.21878051757812 13.66518306732178 72.40384674072266 C 9.850245475769043 68.58889770507812 6.855245113372803 64.14687347412109 4.763382911682129 59.20115661621094 C 2.597970247268677 54.0815315246582 1.500007748603821 48.64229583740234 1.500007748603821 43.03450775146484 C 1.500007748603821 37.42671966552734 2.597970247268677 31.98748207092285 4.763382911682129 26.86787033081055 C 6.855245113372803 21.92214584350586 9.850245475769043 17.4801197052002 13.66518306732178 13.66518306732178 C 17.4801197052002 9.850245475769043 21.92214584350586 6.855245113372803 26.86787033081055 4.763382911682129 C 31.98748207092285 2.597970247268677 37.42671966552734 1.500007748603821 43.03450775146484 1.500007748603821 C 48.64229583740234 1.500007748603821 54.0815315246582 2.597970247268677 59.20115661621094 4.763382911682129 C 64.14687347412109 6.855245113372803 68.58889770507812 9.850245475769043 72.40384674072266 13.66518306732178 C 76.21878051757812 17.4801197052002 79.21378326416016 21.92214584350586 81.30564880371094 26.86787033081055 C 83.47105407714844 31.98748207092285 84.56902313232422 37.42671966552734 84.56902313232422 43.03450775146484 C 84.56902313232422 48.64229583740234 83.47105407714844 54.0815315246582 81.30564880371094 59.20115661621094 C 79.21378326416016 64.14687347412109 76.21878051757812 68.58889770507812 72.40384674072266 72.40384674072266 C 68.58889770507812 76.21878051757812 64.14687347412109 79.21378326416016 59.20115661621094 81.30564880371094 C 54.0815315246582 83.47105407714844 48.64229583740234 84.56902313232422 43.03450775146484 84.56902313232422 Z" stroke="none"/>
          <path d="M 43.03450775146484 3 C 37.62856292724609 3 32.38590621948242 4.058097839355469 27.45218658447266 6.144882202148438 C 22.68526840209961 8.161117553710938 18.40351104736328 11.04816436767578 14.72583770751953 14.72583770751953 C 11.04816436767578 18.40351104736328 8.161117553710938 22.68526840209961 6.144882202148438 27.45218658447266 C 4.058097839355469 32.38590621948242 3 37.62856292724609 3 43.03450775146484 C 3 48.44045257568359 4.058097839355469 53.6830940246582 6.144882202148438 58.61681365966797 C 8.161117553710938 63.38374710083008 11.04816436767578 67.66551208496094 14.72583770751953 71.34317016601562 C 18.40351104736328 75.02084350585938 22.68526840209961 77.90789794921875 27.45218658447266 79.92413330078125 C 32.38590621948242 82.01091766357422 37.62856292724609 83.06901550292969 43.03450775146484 83.06901550292969 C 48.44045257568359 83.06901550292969 53.6830940246582 82.01091766357422 58.61681365966797 79.92413330078125 C 63.38374710083008 77.90789794921875 67.66551208496094 75.02084350585938 71.34317016601562 71.34317016601562 C 75.02084350585938 67.66551208496094 77.90789794921875 63.38374710083008 79.92413330078125 58.61681365966797 C 82.01091766357422 53.6830940246582 83.06901550292969 48.44045257568359 83.06901550292969 43.03450775146484 C 83.06901550292969 37.62856292724609 82.01091766357422 32.38590621948242 79.92413330078125 27.45218658447266 C 77.90789794921875 22.68526840209961 75.02084350585938 18.40351104736328 71.34317016601562 14.72583770751953 C 67.66551208496094 11.04816436767578 63.38374710083008 8.161117553710938 58.61681365966797 6.144882202148438 C 53.6830940246582 4.058097839355469 48.44045257568359 3 43.03450775146484 3 M 43.03450775146484 0 C 66.80180358886719 0 86.06901550292969 19.26720428466797 86.06901550292969 43.03450775146484 C 86.06901550292969 66.80180358886719 66.80180358886719 86.06901550292969 43.03450775146484 86.06901550292969 C 19.26720428466797 86.06901550292969 0 66.80180358886719 0 43.03450775146484 C 0 19.26720428466797 19.26720428466797 0 43.03450775146484 0 Z" stroke="none" fill="#fff"/>
        </g>
      </g>
      <g id="Trazado_1002360-4" data-name="Trazado 1002360" transform="translate(1305.333 275.229)" fill="#a8aeb5">
        <path d="M 43.03450775146484 84.56902313232422 C 37.42671966552734 84.56902313232422 31.98748207092285 83.47105407714844 26.86787033081055 81.30564880371094 C 21.92214584350586 79.21378326416016 17.4801197052002 76.21878051757812 13.66518306732178 72.40384674072266 C 9.850245475769043 68.58889770507812 6.855245113372803 64.14687347412109 4.763382911682129 59.20115661621094 C 2.597970247268677 54.0815315246582 1.500007748603821 48.64229583740234 1.500007748603821 43.03450775146484 C 1.500007748603821 37.42671966552734 2.597970247268677 31.98748207092285 4.763382911682129 26.86787033081055 C 6.855245113372803 21.92214584350586 9.850245475769043 17.4801197052002 13.66518306732178 13.66518306732178 C 17.4801197052002 9.850245475769043 21.92214584350586 6.855245113372803 26.86787033081055 4.763382911682129 C 31.98748207092285 2.597970247268677 37.42671966552734 1.500007748603821 43.03450775146484 1.500007748603821 C 48.64229583740234 1.500007748603821 54.0815315246582 2.597970247268677 59.20115661621094 4.763382911682129 C 64.14687347412109 6.855245113372803 68.58889770507812 9.850245475769043 72.40384674072266 13.66518306732178 C 76.21878051757812 17.4801197052002 79.21378326416016 21.92214584350586 81.30564880371094 26.86787033081055 C 83.47105407714844 31.98748207092285 84.56902313232422 37.42671966552734 84.56902313232422 43.03450775146484 C 84.56902313232422 48.64229583740234 83.47105407714844 54.0815315246582 81.30564880371094 59.20115661621094 C 79.21378326416016 64.14687347412109 76.21878051757812 68.58889770507812 72.40384674072266 72.40384674072266 C 68.58889770507812 76.21878051757812 64.14687347412109 79.21378326416016 59.20115661621094 81.30564880371094 C 54.0815315246582 83.47105407714844 48.64229583740234 84.56902313232422 43.03450775146484 84.56902313232422 Z" stroke="none"/>
        <path d="M 43.03450775146484 3 C 37.62856292724609 3 32.38590621948242 4.058097839355469 27.45218658447266 6.144882202148438 C 22.68526840209961 8.161117553710938 18.40351104736328 11.04816436767578 14.72583770751953 14.72583770751953 C 11.04816436767578 18.40351104736328 8.161117553710938 22.68526840209961 6.144882202148438 27.45218658447266 C 4.058097839355469 32.38590621948242 3 37.62856292724609 3 43.03450775146484 C 3 48.44045257568359 4.058097839355469 53.6830940246582 6.144882202148438 58.61681365966797 C 8.161117553710938 63.38374710083008 11.04816436767578 67.66551208496094 14.72583770751953 71.34317016601562 C 18.40351104736328 75.02084350585938 22.68526840209961 77.90789794921875 27.45218658447266 79.92413330078125 C 32.38590621948242 82.01091766357422 37.62856292724609 83.06901550292969 43.03450775146484 83.06901550292969 C 48.44045257568359 83.06901550292969 53.6830940246582 82.01091766357422 58.61681365966797 79.92413330078125 C 63.38374710083008 77.90789794921875 67.66551208496094 75.02084350585938 71.34317016601562 71.34317016601562 C 75.02084350585938 67.66551208496094 77.90789794921875 63.38374710083008 79.92413330078125 58.61681365966797 C 82.01091766357422 53.6830940246582 83.06901550292969 48.44045257568359 83.06901550292969 43.03450775146484 C 83.06901550292969 37.62856292724609 82.01091766357422 32.38590621948242 79.92413330078125 27.45218658447266 C 77.90789794921875 22.68526840209961 75.02084350585938 18.40351104736328 71.34317016601562 14.72583770751953 C 67.66551208496094 11.04816436767578 63.38374710083008 8.161117553710938 58.61681365966797 6.144882202148438 C 53.6830940246582 4.058097839355469 48.44045257568359 3 43.03450775146484 3 M 43.03450775146484 0 C 66.80180358886719 0 86.06901550292969 19.26720428466797 86.06901550292969 43.03450775146484 C 86.06901550292969 66.80180358886719 66.80180358886719 86.06901550292969 43.03450775146484 86.06901550292969 C 19.26720428466797 86.06901550292969 0 66.80180358886719 0 43.03450775146484 C 0 19.26720428466797 19.26720428466797 0 43.03450775146484 0 Z" stroke="none"/>
      </g>
      <g transform="matrix(1, 0, 0, 1, 1296.33, 269.23)" filter="url(#Trazado_1002360-2)">
        <g id="Trazado_1002360-5" data-name="Trazado 1002360" transform="translate(9 6)" fill="#fff">
          <path d="M 43.03450775146484 84.56902313232422 C 37.42671966552734 84.56902313232422 31.98748207092285 83.47105407714844 26.86787033081055 81.30564880371094 C 21.92214584350586 79.21378326416016 17.4801197052002 76.21878051757812 13.66518306732178 72.40384674072266 C 9.850245475769043 68.58889770507812 6.855245113372803 64.14687347412109 4.763382911682129 59.20115661621094 C 2.597970247268677 54.0815315246582 1.500007748603821 48.64229583740234 1.500007748603821 43.03450775146484 C 1.500007748603821 37.42671966552734 2.597970247268677 31.98748207092285 4.763382911682129 26.86787033081055 C 6.855245113372803 21.92214584350586 9.850245475769043 17.4801197052002 13.66518306732178 13.66518306732178 C 17.4801197052002 9.850245475769043 21.92214584350586 6.855245113372803 26.86787033081055 4.763382911682129 C 31.98748207092285 2.597970247268677 37.42671966552734 1.500007748603821 43.03450775146484 1.500007748603821 C 48.64229583740234 1.500007748603821 54.0815315246582 2.597970247268677 59.20115661621094 4.763382911682129 C 64.14687347412109 6.855245113372803 68.58889770507812 9.850245475769043 72.40384674072266 13.66518306732178 C 76.21878051757812 17.4801197052002 79.21378326416016 21.92214584350586 81.30564880371094 26.86787033081055 C 83.47105407714844 31.98748207092285 84.56902313232422 37.42671966552734 84.56902313232422 43.03450775146484 C 84.56902313232422 48.64229583740234 83.47105407714844 54.0815315246582 81.30564880371094 59.20115661621094 C 79.21378326416016 64.14687347412109 76.21878051757812 68.58889770507812 72.40384674072266 72.40384674072266 C 68.58889770507812 76.21878051757812 64.14687347412109 79.21378326416016 59.20115661621094 81.30564880371094 C 54.0815315246582 83.47105407714844 48.64229583740234 84.56902313232422 43.03450775146484 84.56902313232422 Z" stroke="none"/>
          <path d="M 43.03450775146484 3 C 37.62856292724609 3 32.38590621948242 4.058097839355469 27.45218658447266 6.144882202148438 C 22.68526840209961 8.161117553710938 18.40351104736328 11.04816436767578 14.72583770751953 14.72583770751953 C 11.04816436767578 18.40351104736328 8.161117553710938 22.68526840209961 6.144882202148438 27.45218658447266 C 4.058097839355469 32.38590621948242 3 37.62856292724609 3 43.03450775146484 C 3 48.44045257568359 4.058097839355469 53.6830940246582 6.144882202148438 58.61681365966797 C 8.161117553710938 63.38374710083008 11.04816436767578 67.66551208496094 14.72583770751953 71.34317016601562 C 18.40351104736328 75.02084350585938 22.68526840209961 77.90789794921875 27.45218658447266 79.92413330078125 C 32.38590621948242 82.01091766357422 37.62856292724609 83.06901550292969 43.03450775146484 83.06901550292969 C 48.44045257568359 83.06901550292969 53.6830940246582 82.01091766357422 58.61681365966797 79.92413330078125 C 63.38374710083008 77.90789794921875 67.66551208496094 75.02084350585938 71.34317016601562 71.34317016601562 C 75.02084350585938 67.66551208496094 77.90789794921875 63.38374710083008 79.92413330078125 58.61681365966797 C 82.01091766357422 53.6830940246582 83.06901550292969 48.44045257568359 83.06901550292969 43.03450775146484 C 83.06901550292969 37.62856292724609 82.01091766357422 32.38590621948242 79.92413330078125 27.45218658447266 C 77.90789794921875 22.68526840209961 75.02084350585938 18.40351104736328 71.34317016601562 14.72583770751953 C 67.66551208496094 11.04816436767578 63.38374710083008 8.161117553710938 58.61681365966797 6.144882202148438 C 53.6830940246582 4.058097839355469 48.44045257568359 3 43.03450775146484 3 M 43.03450775146484 0 C 66.80180358886719 0 86.06901550292969 19.26720428466797 86.06901550292969 43.03450775146484 C 86.06901550292969 66.80180358886719 66.80180358886719 86.06901550292969 43.03450775146484 86.06901550292969 C 19.26720428466797 86.06901550292969 0 66.80180358886719 0 43.03450775146484 C 0 19.26720428466797 19.26720428466797 0 43.03450775146484 0 Z" stroke="none"/>
        </g>
      </g>
      <g id="Trazado_1002360-6" data-name="Trazado 1002360" transform="translate(1305.333 275.229)" fill="none">
        <path d="M 43.03450775146484 84.56902313232422 C 37.42671966552734 84.56902313232422 31.98748207092285 83.47105407714844 26.86787033081055 81.30564880371094 C 21.92214584350586 79.21378326416016 17.4801197052002 76.21878051757812 13.66518306732178 72.40384674072266 C 9.850245475769043 68.58889770507812 6.855245113372803 64.14687347412109 4.763382911682129 59.20115661621094 C 2.597970247268677 54.0815315246582 1.500007748603821 48.64229583740234 1.500007748603821 43.03450775146484 C 1.500007748603821 37.42671966552734 2.597970247268677 31.98748207092285 4.763382911682129 26.86787033081055 C 6.855245113372803 21.92214584350586 9.850245475769043 17.4801197052002 13.66518306732178 13.66518306732178 C 17.4801197052002 9.850245475769043 21.92214584350586 6.855245113372803 26.86787033081055 4.763382911682129 C 31.98748207092285 2.597970247268677 37.42671966552734 1.500007748603821 43.03450775146484 1.500007748603821 C 48.64229583740234 1.500007748603821 54.0815315246582 2.597970247268677 59.20115661621094 4.763382911682129 C 64.14687347412109 6.855245113372803 68.58889770507812 9.850245475769043 72.40384674072266 13.66518306732178 C 76.21878051757812 17.4801197052002 79.21378326416016 21.92214584350586 81.30564880371094 26.86787033081055 C 83.47105407714844 31.98748207092285 84.56902313232422 37.42671966552734 84.56902313232422 43.03450775146484 C 84.56902313232422 48.64229583740234 83.47105407714844 54.0815315246582 81.30564880371094 59.20115661621094 C 79.21378326416016 64.14687347412109 76.21878051757812 68.58889770507812 72.40384674072266 72.40384674072266 C 68.58889770507812 76.21878051757812 64.14687347412109 79.21378326416016 59.20115661621094 81.30564880371094 C 54.0815315246582 83.47105407714844 48.64229583740234 84.56902313232422 43.03450775146484 84.56902313232422 Z" stroke="none"/>
        <path d="M 43.03450775146484 3 C 37.62856292724609 3 32.38590621948242 4.058097839355469 27.45218658447266 6.144882202148438 C 22.68526840209961 8.161117553710938 18.40351104736328 11.04816436767578 14.72583770751953 14.72583770751953 C 11.04816436767578 18.40351104736328 8.161117553710938 22.68526840209961 6.144882202148438 27.45218658447266 C 4.058097839355469 32.38590621948242 3 37.62856292724609 3 43.03450775146484 C 3 48.44045257568359 4.058097839355469 53.6830940246582 6.144882202148438 58.61681365966797 C 8.161117553710938 63.38374710083008 11.04816436767578 67.66551208496094 14.72583770751953 71.34317016601562 C 18.40351104736328 75.02084350585938 22.68526840209961 77.90789794921875 27.45218658447266 79.92413330078125 C 32.38590621948242 82.01091766357422 37.62856292724609 83.06901550292969 43.03450775146484 83.06901550292969 C 48.44045257568359 83.06901550292969 53.6830940246582 82.01091766357422 58.61681365966797 79.92413330078125 C 63.38374710083008 77.90789794921875 67.66551208496094 75.02084350585938 71.34317016601562 71.34317016601562 C 75.02084350585938 67.66551208496094 77.90789794921875 63.38374710083008 79.92413330078125 58.61681365966797 C 82.01091766357422 53.6830940246582 83.06901550292969 48.44045257568359 83.06901550292969 43.03450775146484 C 83.06901550292969 37.62856292724609 82.01091766357422 32.38590621948242 79.92413330078125 27.45218658447266 C 77.90789794921875 22.68526840209961 75.02084350585938 18.40351104736328 71.34317016601562 14.72583770751953 C 67.66551208496094 11.04816436767578 63.38374710083008 8.161117553710938 58.61681365966797 6.144882202148438 C 53.6830940246582 4.058097839355469 48.44045257568359 3 43.03450775146484 3 M 43.03450775146484 0 C 66.80180358886719 0 86.06901550292969 19.26720428466797 86.06901550292969 43.03450775146484 C 86.06901550292969 66.80180358886719 66.80180358886719 86.06901550292969 43.03450775146484 86.06901550292969 C 19.26720428466797 86.06901550292969 0 66.80180358886719 0 43.03450775146484 C 0 19.26720428466797 19.26720428466797 0 43.03450775146484 0 Z" stroke="none" fill="#fff"/>
      </g>
    </g>
    <g id="Grupo_1171942" data-name="Grupo 1171942" transform="translate(1089.819 248.697)">
      <g id="Grupo_1171926" data-name="Grupo 1171926">
        <g id="Grupo_1171925" data-name="Grupo 1171925">
          <path id="Trazado_1032540" data-name="Trazado 1032540" d="M247.1,38.8l-4.874,5.081a4.289,4.289,0,0,0-.99,3.009v8.737a3.063,3.063,0,0,0,1.381,2.393L287.55,83.966V70.394a2.4,2.4,0,0,0-1.077-1.866l-3.965-2.289L258.1,52.148a7.533,7.533,0,0,1-3.4-5.805c0-.027-.007-.056-.007-.083V43.692a1.651,1.651,0,0,0-.747-1.294L247.7,38.792A.484.484,0,0,0,247.1,38.8Z" fill="#215278"/>
          <path id="Trazado_1032541" data-name="Trazado 1032541" d="M247.1,38.8l5.828,13.387,34.628,31.777L264.93,97.026,230.7,65.694l-6.227-13.832Z" fill="#215278"/>
          <g id="Grupo_1171924" data-name="Grupo 1171924">
            <path id="Trazado_1032542" data-name="Trazado 1032542" d="M219.6,56.942l4.874-5.081a.485.485,0,0,1,.608-.01l6.246,3.606a1.652,1.652,0,0,1,.747,1.294v2.568c0,.027.007.056.007.083a7.535,7.535,0,0,0,3.4,5.805L259.887,79.3l3.965,2.289a2.4,2.4,0,0,1,1.077,1.866V97.025L219.99,71.081a3.062,3.062,0,0,1-1.381-2.392V59.952A4.3,4.3,0,0,1,219.6,56.942Z" fill="#2f73a8"/>
            <g id="Grupo_1171923" data-name="Grupo 1171923">
              <path id="Trazado_1032543" data-name="Trazado 1032543" d="M224.441,57.275l5.426,3.133c.21.121.38.023.38-.219V60.18a.84.84,0,0,0-.38-.658l-5.426-3.133c-.21-.121-.38-.023-.38.219v.009A.84.84,0,0,0,224.441,57.275Z" fill="#3c3c3b"/>
              <path id="Trazado_1032544" data-name="Trazado 1032544" d="M224.441,58.911l5.426,3.133c.21.121.38.023.38-.219v-.009a.84.84,0,0,0-.38-.658l-5.426-3.133c-.21-.121-.38-.023-.38.219v.009A.838.838,0,0,0,224.441,58.911Z" fill="#3c3c3b"/>
              <path id="Trazado_1032545" data-name="Trazado 1032545" d="M224.441,60.548l5.426,3.133c.21.121.38.023.38-.219v-.009a.84.84,0,0,0-.38-.658l-5.426-3.133c-.21-.121-.38-.023-.38.219v.009A.838.838,0,0,0,224.441,60.548Z" fill="#3c3c3b"/>
              <path id="Trazado_1032546" data-name="Trazado 1032546" d="M224.441,62.185l5.426,3.133c.21.121.38.023.38-.219V65.09a.839.839,0,0,0-.38-.658L224.441,61.3c-.21-.121-.38-.023-.38.219v.009A.84.84,0,0,0,224.441,62.185Z" fill="#3c3c3b"/>
            </g>
            <path id="Trazado_1032547" data-name="Trazado 1032547" d="M218.61,65.037v3.651a3.063,3.063,0,0,0,1.381,2.392L264.93,97.025V91.78Z" fill="#1d1d1b" opacity="0.2"/>
          </g>
        </g>
        <path id="Trazado_1032548" data-name="Trazado 1032548" d="M255.852,53.923l20.532,11.854-5.913-28.393a5.332,5.332,0,0,0-2.292-3.344l-13.274-7.664c-1.055-.609-1.911-.115-1.911,1.1V49.04A6.335,6.335,0,0,0,255.852,53.923Zm.437-1.854a3.248,3.248,0,0,1-1.469-2.545v-19.7c0-.767.538-1.078,1.2-.694l11.518,6.65a3.1,3.1,0,0,1,1.335,1.947l4.8,23.026c.161.772-.282,1.186-.892.834Z" fill="#706f6f"/>
        <path id="Trazado_1032549" data-name="Trazado 1032549" d="M256.777,73.183l-19.9-11.936-.334-23.888,14.963,8.587Z" fill="#d9ecfc"/>
        <path id="Trazado_1032550" data-name="Trazado 1032550" d="M275.084,65.369,259.7,74.388,254.82,49.524l15.248-8.61Z" fill="#b3dbf9"/>
        <path id="Trazado_1032551" data-name="Trazado 1032551" d="M253.467,26.292,268.527,35l2.4,5.189-17.263,9.967-1.535-4.4-15.928-9.505Z" fill="#706f6f"/>
        <path id="Trazado_1032552" data-name="Trazado 1032552" d="M238.5,63.941l20.532,11.854L253.119,47.4a5.328,5.328,0,0,0-2.292-3.344l-13.274-7.664c-1.055-.609-1.911-.115-1.911,1.1v21.56A6.335,6.335,0,0,0,238.5,63.941Zm.437-1.854a3.25,3.25,0,0,1-1.469-2.545v-19.7c0-.767.538-1.078,1.2-.694l11.518,6.65a3.1,3.1,0,0,1,1.335,1.947l4.8,23.026c.161.772-.282,1.186-.892.834Z" fill="#575756"/>
        <path id="Trazado_1032553" data-name="Trazado 1032553" d="M259.031,75.795l17.352-10.018L270.9,39.449,253.548,49.467Zm10.693-33.718,4.758,22.849-14.274,8.241-4.759-22.848Z" fill="#575756"/>
      </g>
      <g id="Grupo_1171933" data-name="Grupo 1171933">
        <g id="Grupo_1171927" data-name="Grupo 1171927">
          <path id="Trazado_1032554" data-name="Trazado 1032554" d="M283.923,85.982,268.286,95.01V82.162l15.637-9.027Z" fill="#575756"/>
          <path id="Trazado_1032555" data-name="Trazado 1032555" d="M273.913,85.411l-5.627-3.249V95.01l5.627,3.249Z" fill="#3c3c3b"/>
          <path id="Trazado_1032556" data-name="Trazado 1032556" d="M289.55,89.232l-15.637,9.027V85.411l15.637-9.027Z" fill="#575756"/>
          <path id="Trazado_1032557" data-name="Trazado 1032557" d="M283.923,73.135l-15.637,9.027,5.627,3.249,15.637-9.027Z" fill="#706f6f"/>
        </g>
        <g id="Grupo_1171928" data-name="Grupo 1171928">
          <path id="Trazado_1032558" data-name="Trazado 1032558" d="M281.043,49.266l-2.067-1.193V95.336l2.067,1.194Z" fill="#3c3c3b"/>
          <path id="Trazado_1032559" data-name="Trazado 1032559" d="M286.787,93.214l-5.744,3.316V49.266l5.744-3.316Z" fill="#575756"/>
          <path id="Trazado_1032560" data-name="Trazado 1032560" d="M284.72,44.757l-5.744,3.316,2.067,1.193,5.744-3.316Z" fill="#706f6f"/>
        </g>
        <g id="Grupo_1171930" data-name="Grupo 1171930">
          <path id="Trazado_1032561" data-name="Trazado 1032561" d="M275.971,82.012l-1.582-.914V73.79l1.582.913Z" fill="#878787"/>
          <g id="Grupo_1171929" data-name="Grupo 1171929">
            <path id="Trazado_1032562" data-name="Trazado 1032562" d="M294.126,71.53,275.971,82.012V74.7l18.155-10.481Z" fill="#9d9d9c"/>
            <path id="Trazado_1032563" data-name="Trazado 1032563" d="M292.544,63.308,274.389,73.79l1.582.913,18.155-10.481Z" fill="#dadada"/>
          </g>
        </g>
        <g id="Grupo_1171931" data-name="Grupo 1171931">
          <path id="Trazado_1032564" data-name="Trazado 1032564" d="M300.745,90.941l-20.864-11.16V77.9l22.152,12.789V90.7C302.033,91.222,301.468,91.328,300.745,90.941Z" fill="#9d9d9c"/>
          <path id="Trazado_1032565" data-name="Trazado 1032565" d="M302.033,90.7l-.136.362-3.909,2.257.136-.362Z" fill="#9d9d9c"/>
          <path id="Trazado_1032566" data-name="Trazado 1032566" d="M296.836,93.2l-20.864-11.16V80.158l22.152,12.789v.009C298.124,93.479,297.559,93.585,296.836,93.2Z" fill="#878787"/>
          <path id="Trazado_1032567" data-name="Trazado 1032567" d="M302.033,90.7,279.881,77.9l-3.91,2.257,22.153,12.8Z" fill="#b2b2b2"/>
        </g>
        <g id="Grupo_1171932" data-name="Grupo 1171932">
          <path id="Trazado_1032568" data-name="Trazado 1032568" d="M315.04,82.582l-20.864-11.16V69.541L316.328,82.33v.009C316.327,82.863,315.763,82.969,315.04,82.582Z" fill="#9d9d9c"/>
          <path id="Trazado_1032569" data-name="Trazado 1032569" d="M316.327,82.34l-.135.362-3.909,2.257.135-.362Z" fill="#9d9d9c"/>
          <path id="Trazado_1032570" data-name="Trazado 1032570" d="M311.13,84.839l-20.864-11.16V71.8l22.152,12.789V84.6C312.418,85.12,311.853,85.226,311.13,84.839Z" fill="#878787"/>
          <path id="Trazado_1032571" data-name="Trazado 1032571" d="M316.327,82.34l-22.152-12.8L290.266,71.8l22.152,12.8Z" fill="#b2b2b2"/>
        </g>
      </g>
      <g id="Grupo_1171935" data-name="Grupo 1171935">
        <path id="Trazado_1032572" data-name="Trazado 1032572" d="M223.183,71.533c-.005,5.291,3.706,11.73,8.293,14.382s8.305.512,8.307-4.78-3.706-11.729-8.293-14.383S223.185,66.241,223.183,71.533Z" fill="#3c3c3b"/>
        <rect id="Rect치ngulo_420911" data-name="Rect치ngulo 420911" width="6.269" height="23.48" transform="matrix(0.866, -0.5, 0.5, 0.866, 220.178, 69.3)" fill="#3c3c3b"/>
        <g id="Grupo_1171934" data-name="Grupo 1171934">
          <path id="Trazado_1032573" data-name="Trazado 1032573" d="M220.759,76.411c0-3.375,2.369-4.744,5.295-3.055a11.7,11.7,0,0,1,5.294,9.169c0,3.377-2.369,4.744-5.295,3.056A11.7,11.7,0,0,1,220.759,76.411Z" fill="#9b9b9b"/>
          <path id="Trazado_1032574" data-name="Trazado 1032574" d="M226.046,89.049c4.585,2.652,8.305.512,8.307-4.78s-3.706-11.729-8.293-14.383-8.305-.511-8.307,4.782S221.46,86.4,226.046,89.049Zm.012-15.479a11.3,11.3,0,0,1,5.106,8.853c0,3.258-2.293,4.575-5.115,2.943a11.3,11.3,0,0,1-5.106-8.855C220.945,73.255,223.236,71.938,226.058,73.57Z" fill="#3c3c3b"/>
          <path id="Trazado_1032575" data-name="Trazado 1032575" d="M222.85,77.618c0-2.042,1.434-2.87,3.2-1.848a7.078,7.078,0,0,1,3.2,5.547c0,2.043-1.434,2.871-3.2,1.85A7.082,7.082,0,0,1,222.85,77.618Z" fill="#d6d6d6"/>
        </g>
      </g>
      <g id="Grupo_1171937" data-name="Grupo 1171937">
        <path id="Trazado_1032576" data-name="Trazado 1032576" d="M246.145,83.439a14.78,14.78,0,0,0,6.683,11.589c3.694,2.137,6.692.413,6.694-3.852a14.783,14.783,0,0,0-6.683-11.59C249.145,77.45,246.147,79.175,246.145,83.439Z" fill="#3c3c3b"/>
        <rect id="Rect치ngulo_420912" data-name="Rect치ngulo 420912" width="5.052" height="18.92" transform="matrix(0.866, -0.5, 0.5, 0.866, 243.722, 81.638)" fill="#3c3c3b"/>
        <g id="Grupo_1171936" data-name="Grupo 1171936">
          <path id="Trazado_1032577" data-name="Trazado 1032577" d="M244.192,87.37c0-2.72,1.909-3.823,4.266-2.462a9.429,9.429,0,0,1,4.266,7.388c0,2.721-1.909,3.823-4.266,2.462A9.425,9.425,0,0,1,244.192,87.37Z" fill="#9b9b9b"/>
          <path id="Trazado_1032578" data-name="Trazado 1032578" d="M248.452,97.554c3.694,2.137,6.692.413,6.694-3.852a14.783,14.783,0,0,0-6.683-11.59c-3.694-2.136-6.692-.411-6.694,3.853A14.784,14.784,0,0,0,248.452,97.554Zm.01-12.473a9.1,9.1,0,0,1,4.114,7.134c0,2.626-1.848,3.686-4.122,2.371a9.1,9.1,0,0,1-4.115-7.135C244.342,84.827,246.188,83.766,248.462,85.081Z" fill="#3c3c3b"/>
          <path id="Trazado_1032579" data-name="Trazado 1032579" d="M245.877,88.343c0-1.645,1.156-2.313,2.581-1.489a5.7,5.7,0,0,1,2.581,4.47c0,1.647-1.155,2.314-2.581,1.491A5.708,5.708,0,0,1,245.877,88.343Z" fill="#d6d6d6"/>
        </g>
      </g>
      <g id="Grupo_1171941" data-name="Grupo 1171941">
        <g id="Grupo_1171938" data-name="Grupo 1171938">
          <path id="Trazado_1032580" data-name="Trazado 1032580" d="M294.175,90.615,275.924,80.078V61.091l18.251,10.537Z" fill="#d6be98"/>
          <path id="Trazado_1032581" data-name="Trazado 1032581" d="M292.556,75.579V72.067l-3.21-1.854v3.512A3.516,3.516,0,0,0,290.7,76.29v2.442l-1.081-.624v.57l2.655,1.533v-.57l-1.081-.624V76.575C291.961,76.882,292.556,76.5,292.556,75.579Z" fill="#3c3c3b" opacity="0.5"/>
        </g>
        <g id="Grupo_1171939" data-name="Grupo 1171939">
          <path id="Trazado_1032582" data-name="Trazado 1032582" d="M312.426,80.078,294.175,90.615V71.628l18.251-10.537Z" fill="#c4ae8b"/>
        </g>
        <g id="Grupo_1171940" data-name="Grupo 1171940">
          <path id="Trazado_1032583" data-name="Trazado 1032583" d="M294.175,50.555,275.924,61.091l18.251,10.537,18.251-10.537Z" fill="#edd9b9"/>
        </g>
      </g>
    </g>
  </g>
</svg>
