<svg xmlns="http://www.w3.org/2000/svg" xmlns:xlink="http://www.w3.org/1999/xlink" width="89.278" height="89.278" viewBox="0 0 89.278 89.278">
  <defs>
    <filter id="Trazado_1002357" x="0" y="0" width="89.278" height="89.278" filterUnits="userSpaceOnUse">
      <feOffset dy="3" input="SourceAlpha"/>
      <feGaussianBlur stdDeviation="3" result="blur"/>
      <feFlood flood-opacity="0.412"/>
      <feComposite operator="in" in2="blur"/>
    </filter>
    <filter id="Trazado_1002357-2" x="0" y="0" width="89.278" height="89.278" filterUnits="userSpaceOnUse">
      <feOffset dy="3" input="SourceAlpha"/>
      <feGaussianBlur stdDeviation="3" result="blur-2"/>
      <feFlood flood-opacity="0.161" result="color"/>
      <feComposite operator="out" in="SourceGraphic" in2="blur-2"/>
      <feComposite operator="in" in="color"/>
      <feComposite operator="in" in2="SourceGraphic"/>
    </filter>
  </defs>
  <g id="Grupo_1172100" data-name="Grupo 1172100" transform="translate(-1102.349 -186.861)">
    <g data-type="innerShadowGroup">
      <g transform="matrix(1, 0, 0, 1, 1102.35, 186.86)" filter="url(#Trazado_1002357)">
        <g id="Trazado_1002357-3" data-name="Trazado 1002357" transform="translate(9 6)" fill="#a8aeb5">
          <path d="M 35.63915634155273 69.77815246582031 C 31.02973365783691 69.77815246582031 26.55899047851562 68.87572479248047 22.35111236572266 67.095947265625 C 18.2860221862793 65.37656402587891 14.63488960266113 62.9148063659668 11.49912261962891 59.77903747558594 C 8.363356590270996 56.64328384399414 5.901589870452881 52.99214935302734 4.182211875915527 48.92707061767578 C 2.402422904968262 44.71920394897461 1.500000834465027 40.24847412109375 1.500000834465027 35.63907241821289 C 1.500000834465027 31.02966117858887 2.402422904968262 26.55892753601074 4.182211875915527 22.35106086730957 C 5.901589870452881 18.28598403930664 8.363356590270996 14.63486099243164 11.49912261962891 11.49910545349121 C 14.63488960266113 8.363349914550781 18.2860221862793 5.901583671569824 22.35111236572266 4.182205677032471 C 26.55899047851562 2.402427911758423 31.02973365783691 1.500005722045898 35.63915634155273 1.500005722045898 C 40.24857711791992 1.500005722045898 44.71931076049805 2.402427911758423 48.92718887329102 4.182205677032471 C 52.99227905273438 5.901583671569824 56.6434211730957 8.363349914550781 59.77917861938477 11.49910545349121 C 62.91494369506836 14.63486099243164 65.376708984375 18.28598403930664 67.09609985351562 22.35106086730957 C 68.87589263916016 26.55893898010254 69.77831268310547 31.02966117858887 69.77831268310547 35.63907241821289 C 69.77831268310547 40.24847412109375 68.87589263916016 44.71920394897461 67.09609985351562 48.92707061767578 C 65.376708984375 52.99214935302734 62.91494369506836 56.64328384399414 59.77917861938477 59.77903747558594 C 56.6434211730957 62.9148063659668 52.99227905273438 65.37656402587891 48.92718887329102 67.095947265625 C 44.71931076049805 68.87572479248047 40.24856567382812 69.77815246582031 35.63915634155273 69.77815246582031 Z" stroke="none"/>
          <path d="M 35.63915634155273 3 C 31.2315788269043 3 26.95742797851562 3.862556457519531 22.93544006347656 5.563705444335938 C 19.04915618896484 7.207473754882812 15.55827331542969 9.561283111572266 12.55979156494141 12.55976486206055 C 9.561298370361328 15.55825042724609 7.207473754882812 19.04911804199219 5.563720703125 22.93539047241211 C 3.862556457519531 26.95736694335938 3 31.23150634765625 3 35.63907241821289 C 3 40.04663848876953 3.862556457519531 44.32076644897461 5.563720703125 48.34274291992188 C 7.207473754882812 52.22902679443359 9.561298370361328 55.71989440917969 12.55979156494141 58.71837615966797 C 15.55827331542969 61.71686172485352 19.04915618896484 64.07067108154297 22.93544006347656 65.71443939208984 C 26.95742797851562 67.41558837890625 31.2315788269043 68.27814483642578 35.63915634155273 68.27814483642578 C 40.04673004150391 68.27814483642578 44.32087326049805 67.41558837890625 48.34286499023438 65.71443939208984 C 52.22915649414062 64.07067108154297 55.72002792358398 61.71686172485352 58.71852111816406 58.71837615966797 C 61.71701431274414 55.71988296508789 64.07082366943359 52.22902679443359 65.71459197998047 48.34274291992188 C 67.41575622558594 44.32076644897461 68.27831268310547 40.04663848876953 68.27831268310547 35.63907241821289 C 68.27831268310547 31.23150634765625 67.41575622558594 26.95736694335938 65.71459197998047 22.93539047241211 C 64.07082366943359 19.04911804199219 61.71701431274414 15.55825042724609 58.71852111816406 12.55976486206055 C 55.72002792358398 9.561283111572266 52.22915649414062 7.207473754882812 48.34286499023438 5.563705444335938 C 44.32088470458984 3.862556457519531 40.04673004150391 3 35.63915634155273 3 M 35.63915634155273 0 C 55.32210922241211 0 71.27831268310547 15.95615386962891 71.27831268310547 35.63907241821289 C 71.27831268310547 55.32197952270508 55.32210922241211 71.27814483642578 35.63915634155273 71.27814483642578 C 15.95619201660156 71.27814483642578 0 55.32197952270508 0 35.63907241821289 C 0 15.95615386962891 15.95619201660156 0 35.63915634155273 0 Z" stroke="none" fill="#fff"/>
        </g>
      </g>
      <g id="Trazado_1002357-4" data-name="Trazado 1002357" transform="translate(1111.349 192.861)" fill="#a8aeb5">
        <path d="M 35.63915634155273 69.77815246582031 C 31.02973365783691 69.77815246582031 26.55899047851562 68.87572479248047 22.35111236572266 67.095947265625 C 18.2860221862793 65.37656402587891 14.63488960266113 62.9148063659668 11.49912261962891 59.77903747558594 C 8.363356590270996 56.64328384399414 5.901589870452881 52.99214935302734 4.182211875915527 48.92707061767578 C 2.402422904968262 44.71920394897461 1.500000834465027 40.24847412109375 1.500000834465027 35.63907241821289 C 1.500000834465027 31.02966117858887 2.402422904968262 26.55892753601074 4.182211875915527 22.35106086730957 C 5.901589870452881 18.28598403930664 8.363356590270996 14.63486099243164 11.49912261962891 11.49910545349121 C 14.63488960266113 8.363349914550781 18.2860221862793 5.901583671569824 22.35111236572266 4.182205677032471 C 26.55899047851562 2.402427911758423 31.02973365783691 1.500005722045898 35.63915634155273 1.500005722045898 C 40.24857711791992 1.500005722045898 44.71931076049805 2.402427911758423 48.92718887329102 4.182205677032471 C 52.99227905273438 5.901583671569824 56.6434211730957 8.363349914550781 59.77917861938477 11.49910545349121 C 62.91494369506836 14.63486099243164 65.376708984375 18.28598403930664 67.09609985351562 22.35106086730957 C 68.87589263916016 26.55893898010254 69.77831268310547 31.02966117858887 69.77831268310547 35.63907241821289 C 69.77831268310547 40.24847412109375 68.87589263916016 44.71920394897461 67.09609985351562 48.92707061767578 C 65.376708984375 52.99214935302734 62.91494369506836 56.64328384399414 59.77917861938477 59.77903747558594 C 56.6434211730957 62.9148063659668 52.99227905273438 65.37656402587891 48.92718887329102 67.095947265625 C 44.71931076049805 68.87572479248047 40.24856567382812 69.77815246582031 35.63915634155273 69.77815246582031 Z" stroke="none"/>
        <path d="M 35.63915634155273 3 C 31.2315788269043 3 26.95742797851562 3.862556457519531 22.93544006347656 5.563705444335938 C 19.04915618896484 7.207473754882812 15.55827331542969 9.561283111572266 12.55979156494141 12.55976486206055 C 9.561298370361328 15.55825042724609 7.207473754882812 19.04911804199219 5.563720703125 22.93539047241211 C 3.862556457519531 26.95736694335938 3 31.23150634765625 3 35.63907241821289 C 3 40.04663848876953 3.862556457519531 44.32076644897461 5.563720703125 48.34274291992188 C 7.207473754882812 52.22902679443359 9.561298370361328 55.71989440917969 12.55979156494141 58.71837615966797 C 15.55827331542969 61.71686172485352 19.04915618896484 64.07067108154297 22.93544006347656 65.71443939208984 C 26.95742797851562 67.41558837890625 31.2315788269043 68.27814483642578 35.63915634155273 68.27814483642578 C 40.04673004150391 68.27814483642578 44.32087326049805 67.41558837890625 48.34286499023438 65.71443939208984 C 52.22915649414062 64.07067108154297 55.72002792358398 61.71686172485352 58.71852111816406 58.71837615966797 C 61.71701431274414 55.71988296508789 64.07082366943359 52.22902679443359 65.71459197998047 48.34274291992188 C 67.41575622558594 44.32076644897461 68.27831268310547 40.04663848876953 68.27831268310547 35.63907241821289 C 68.27831268310547 31.23150634765625 67.41575622558594 26.95736694335938 65.71459197998047 22.93539047241211 C 64.07082366943359 19.04911804199219 61.71701431274414 15.55825042724609 58.71852111816406 12.55976486206055 C 55.72002792358398 9.561283111572266 52.22915649414062 7.207473754882812 48.34286499023438 5.563705444335938 C 44.32088470458984 3.862556457519531 40.04673004150391 3 35.63915634155273 3 M 35.63915634155273 0 C 55.32210922241211 0 71.27831268310547 15.95615386962891 71.27831268310547 35.63907241821289 C 71.27831268310547 55.32197952270508 55.32210922241211 71.27814483642578 35.63915634155273 71.27814483642578 C 15.95619201660156 71.27814483642578 0 55.32197952270508 0 35.63907241821289 C 0 15.95615386962891 15.95619201660156 0 35.63915634155273 0 Z" stroke="none"/>
      </g>
      <g transform="matrix(1, 0, 0, 1, 1102.35, 186.86)" filter="url(#Trazado_1002357-2)">
        <g id="Trazado_1002357-5" data-name="Trazado 1002357" transform="translate(9 6)" fill="#fff">
          <path d="M 35.63915634155273 69.77815246582031 C 31.02973365783691 69.77815246582031 26.55899047851562 68.87572479248047 22.35111236572266 67.095947265625 C 18.2860221862793 65.37656402587891 14.63488960266113 62.9148063659668 11.49912261962891 59.77903747558594 C 8.363356590270996 56.64328384399414 5.901589870452881 52.99214935302734 4.182211875915527 48.92707061767578 C 2.402422904968262 44.71920394897461 1.500000834465027 40.24847412109375 1.500000834465027 35.63907241821289 C 1.500000834465027 31.02966117858887 2.402422904968262 26.55892753601074 4.182211875915527 22.35106086730957 C 5.901589870452881 18.28598403930664 8.363356590270996 14.63486099243164 11.49912261962891 11.49910545349121 C 14.63488960266113 8.363349914550781 18.2860221862793 5.901583671569824 22.35111236572266 4.182205677032471 C 26.55899047851562 2.402427911758423 31.02973365783691 1.500005722045898 35.63915634155273 1.500005722045898 C 40.24857711791992 1.500005722045898 44.71931076049805 2.402427911758423 48.92718887329102 4.182205677032471 C 52.99227905273438 5.901583671569824 56.6434211730957 8.363349914550781 59.77917861938477 11.49910545349121 C 62.91494369506836 14.63486099243164 65.376708984375 18.28598403930664 67.09609985351562 22.35106086730957 C 68.87589263916016 26.55893898010254 69.77831268310547 31.02966117858887 69.77831268310547 35.63907241821289 C 69.77831268310547 40.24847412109375 68.87589263916016 44.71920394897461 67.09609985351562 48.92707061767578 C 65.376708984375 52.99214935302734 62.91494369506836 56.64328384399414 59.77917861938477 59.77903747558594 C 56.6434211730957 62.9148063659668 52.99227905273438 65.37656402587891 48.92718887329102 67.095947265625 C 44.71931076049805 68.87572479248047 40.24856567382812 69.77815246582031 35.63915634155273 69.77815246582031 Z" stroke="none"/>
          <path d="M 35.63915634155273 3 C 31.2315788269043 3 26.95742797851562 3.862556457519531 22.93544006347656 5.563705444335938 C 19.04915618896484 7.207473754882812 15.55827331542969 9.561283111572266 12.55979156494141 12.55976486206055 C 9.561298370361328 15.55825042724609 7.207473754882812 19.04911804199219 5.563720703125 22.93539047241211 C 3.862556457519531 26.95736694335938 3 31.23150634765625 3 35.63907241821289 C 3 40.04663848876953 3.862556457519531 44.32076644897461 5.563720703125 48.34274291992188 C 7.207473754882812 52.22902679443359 9.561298370361328 55.71989440917969 12.55979156494141 58.71837615966797 C 15.55827331542969 61.71686172485352 19.04915618896484 64.07067108154297 22.93544006347656 65.71443939208984 C 26.95742797851562 67.41558837890625 31.2315788269043 68.27814483642578 35.63915634155273 68.27814483642578 C 40.04673004150391 68.27814483642578 44.32087326049805 67.41558837890625 48.34286499023438 65.71443939208984 C 52.22915649414062 64.07067108154297 55.72002792358398 61.71686172485352 58.71852111816406 58.71837615966797 C 61.71701431274414 55.71988296508789 64.07082366943359 52.22902679443359 65.71459197998047 48.34274291992188 C 67.41575622558594 44.32076644897461 68.27831268310547 40.04663848876953 68.27831268310547 35.63907241821289 C 68.27831268310547 31.23150634765625 67.41575622558594 26.95736694335938 65.71459197998047 22.93539047241211 C 64.07082366943359 19.04911804199219 61.71701431274414 15.55825042724609 58.71852111816406 12.55976486206055 C 55.72002792358398 9.561283111572266 52.22915649414062 7.207473754882812 48.34286499023438 5.563705444335938 C 44.32088470458984 3.862556457519531 40.04673004150391 3 35.63915634155273 3 M 35.63915634155273 0 C 55.32210922241211 0 71.27831268310547 15.95615386962891 71.27831268310547 35.63907241821289 C 71.27831268310547 55.32197952270508 55.32210922241211 71.27814483642578 35.63915634155273 71.27814483642578 C 15.95619201660156 71.27814483642578 0 55.32197952270508 0 35.63907241821289 C 0 15.95615386962891 15.95619201660156 0 35.63915634155273 0 Z" stroke="none"/>
        </g>
      </g>
      <g id="Trazado_1002357-6" data-name="Trazado 1002357" transform="translate(1111.349 192.861)" fill="none">
        <path d="M 35.63915634155273 69.77815246582031 C 31.02973365783691 69.77815246582031 26.55899047851562 68.87572479248047 22.35111236572266 67.095947265625 C 18.2860221862793 65.37656402587891 14.63488960266113 62.9148063659668 11.49912261962891 59.77903747558594 C 8.363356590270996 56.64328384399414 5.901589870452881 52.99214935302734 4.182211875915527 48.92707061767578 C 2.402422904968262 44.71920394897461 1.500000834465027 40.24847412109375 1.500000834465027 35.63907241821289 C 1.500000834465027 31.02966117858887 2.402422904968262 26.55892753601074 4.182211875915527 22.35106086730957 C 5.901589870452881 18.28598403930664 8.363356590270996 14.63486099243164 11.49912261962891 11.49910545349121 C 14.63488960266113 8.363349914550781 18.2860221862793 5.901583671569824 22.35111236572266 4.182205677032471 C 26.55899047851562 2.402427911758423 31.02973365783691 1.500005722045898 35.63915634155273 1.500005722045898 C 40.24857711791992 1.500005722045898 44.71931076049805 2.402427911758423 48.92718887329102 4.182205677032471 C 52.99227905273438 5.901583671569824 56.6434211730957 8.363349914550781 59.77917861938477 11.49910545349121 C 62.91494369506836 14.63486099243164 65.376708984375 18.28598403930664 67.09609985351562 22.35106086730957 C 68.87589263916016 26.55893898010254 69.77831268310547 31.02966117858887 69.77831268310547 35.63907241821289 C 69.77831268310547 40.24847412109375 68.87589263916016 44.71920394897461 67.09609985351562 48.92707061767578 C 65.376708984375 52.99214935302734 62.91494369506836 56.64328384399414 59.77917861938477 59.77903747558594 C 56.6434211730957 62.9148063659668 52.99227905273438 65.37656402587891 48.92718887329102 67.095947265625 C 44.71931076049805 68.87572479248047 40.24856567382812 69.77815246582031 35.63915634155273 69.77815246582031 Z" stroke="none"/>
        <path d="M 35.63915634155273 3 C 31.2315788269043 3 26.95742797851562 3.862556457519531 22.93544006347656 5.563705444335938 C 19.04915618896484 7.207473754882812 15.55827331542969 9.561283111572266 12.55979156494141 12.55976486206055 C 9.561298370361328 15.55825042724609 7.207473754882812 19.04911804199219 5.563720703125 22.93539047241211 C 3.862556457519531 26.95736694335938 3 31.23150634765625 3 35.63907241821289 C 3 40.04663848876953 3.862556457519531 44.32076644897461 5.563720703125 48.34274291992188 C 7.207473754882812 52.22902679443359 9.561298370361328 55.71989440917969 12.55979156494141 58.71837615966797 C 15.55827331542969 61.71686172485352 19.04915618896484 64.07067108154297 22.93544006347656 65.71443939208984 C 26.95742797851562 67.41558837890625 31.2315788269043 68.27814483642578 35.63915634155273 68.27814483642578 C 40.04673004150391 68.27814483642578 44.32087326049805 67.41558837890625 48.34286499023438 65.71443939208984 C 52.22915649414062 64.07067108154297 55.72002792358398 61.71686172485352 58.71852111816406 58.71837615966797 C 61.71701431274414 55.71988296508789 64.07082366943359 52.22902679443359 65.71459197998047 48.34274291992188 C 67.41575622558594 44.32076644897461 68.27831268310547 40.04663848876953 68.27831268310547 35.63907241821289 C 68.27831268310547 31.23150634765625 67.41575622558594 26.95736694335938 65.71459197998047 22.93539047241211 C 64.07082366943359 19.04911804199219 61.71701431274414 15.55825042724609 58.71852111816406 12.55976486206055 C 55.72002792358398 9.561283111572266 52.22915649414062 7.207473754882812 48.34286499023438 5.563705444335938 C 44.32088470458984 3.862556457519531 40.04673004150391 3 35.63915634155273 3 M 35.63915634155273 0 C 55.32210922241211 0 71.27831268310547 15.95615386962891 71.27831268310547 35.63907241821289 C 71.27831268310547 55.32197952270508 55.32210922241211 71.27814483642578 35.63915634155273 71.27814483642578 C 15.95619201660156 71.27814483642578 0 55.32197952270508 0 35.63907241821289 C 0 15.95615386962891 15.95619201660156 0 35.63915634155273 0 Z" stroke="none" fill="#fff"/>
      </g>
    </g>
    <g id="Grupo_1171876" data-name="Grupo 1171876" transform="translate(1085.028 62.331)">
      <g id="Grupo_1171817" data-name="Grupo 1171817" transform="translate(33.657 153.386)">
        <g id="Grupo_1171810" data-name="Grupo 1171810" transform="translate(0.001 0)">
          <path id="Trazado_1032135" data-name="Trazado 1032135" d="M33.658,169.164,44.626,175.5l22.039-12.724L55.7,156.439Z" transform="translate(-33.658 -156.439)" fill="#feec9a"/>
          <path id="Trazado_1032136" data-name="Trazado 1032136" d="M55.7,157.466l9.19,5.305-20.261,11.7-9.19-5.305,20.261-11.7Zm0-1.027L33.658,169.164,44.626,175.5l22.039-12.724L55.7,156.439Z" transform="translate(-33.658 -156.439)" fill="#fcd004"/>
        </g>
        <g id="Grupo_1171813" data-name="Grupo 1171813" transform="translate(10.969 6.333)">
          <g id="Grupo_1171811" data-name="Grupo 1171811">
            <path id="Trazado_1032137" data-name="Trazado 1032137" d="M68.131,176.283V163.618l-22.04,12.724v12.665Z" transform="translate(-46.091 -163.618)" fill="#8d7e65"/>
            <path id="Trazado_1032138" data-name="Trazado 1032138" d="M46.98,187.468V176.856l20.261-11.7v10.611l-20.261,11.7Zm-.889,1.54,22.04-12.724V163.618l-22.04,12.724v12.665Z" transform="translate(-46.091 -163.618)" fill="#756c5c"/>
          </g>
          <g id="Grupo_1171812" data-name="Grupo 1171812" transform="translate(2.572 3.399)">
            <path id="Trazado_1032139" data-name="Trazado 1032139" d="M67.6,176.76a.983.983,0,0,0,.445-.77v-8.2c0-.284-.2-.4-.445-.257a.985.985,0,0,0-.445.77v8.2C67.152,176.788,67.351,176.9,67.6,176.76Z" transform="translate(-51.144 -167.471)" fill="#725849"/>
            <path id="Trazado_1032140" data-name="Trazado 1032140" d="M65.328,178.07a.985.985,0,0,0,.445-.77v-8.2c0-.284-.2-.4-.445-.257a.983.983,0,0,0-.445.77v8.2C64.883,178.1,65.082,178.211,65.328,178.07Z" transform="translate(-50.877 -167.625)" fill="#725849"/>
            <path id="Trazado_1032141" data-name="Trazado 1032141" d="M63.06,179.379a.985.985,0,0,0,.445-.77v-8.2c0-.283-.2-.4-.445-.257a.985.985,0,0,0-.445.77v8.2C62.615,179.407,62.814,179.521,63.06,179.379Z" transform="translate(-50.61 -167.78)" fill="#725849"/>
            <path id="Trazado_1032142" data-name="Trazado 1032142" d="M60.792,180.689a.983.983,0,0,0,.445-.77v-8.2c0-.284-.2-.4-.445-.257a.985.985,0,0,0-.445.77v8.2C60.347,180.716,60.546,180.83,60.792,180.689Z" transform="translate(-50.342 -167.934)" fill="#725849"/>
            <path id="Trazado_1032143" data-name="Trazado 1032143" d="M58.524,182a.983.983,0,0,0,.445-.77v-8.2c0-.283-.2-.4-.445-.257a.983.983,0,0,0-.445.77v8.2C58.079,182.026,58.278,182.14,58.524,182Z" transform="translate(-50.075 -168.088)" fill="#725849"/>
            <path id="Trazado_1032144" data-name="Trazado 1032144" d="M56.256,183.308a.983.983,0,0,0,.445-.77v-8.2c0-.283-.2-.4-.445-.257a.985.985,0,0,0-.445.77v8.2C55.811,183.335,56.009,183.449,56.256,183.308Z" transform="translate(-49.808 -168.242)" fill="#725849"/>
            <path id="Trazado_1032145" data-name="Trazado 1032145" d="M53.987,184.617a.985.985,0,0,0,.445-.77v-8.2c0-.284-.2-.4-.445-.257a.983.983,0,0,0-.445.77v8.2C53.542,184.645,53.741,184.759,53.987,184.617Z" transform="translate(-49.54 -168.397)" fill="#725849"/>
            <path id="Trazado_1032146" data-name="Trazado 1032146" d="M51.719,185.927a.983.983,0,0,0,.445-.77v-8.2c0-.283-.2-.4-.445-.257a.985.985,0,0,0-.445.77v8.2C51.274,185.954,51.473,186.069,51.719,185.927Z" transform="translate(-49.273 -168.551)" fill="#725849"/>
            <path id="Trazado_1032147" data-name="Trazado 1032147" d="M49.451,187.236a.983.983,0,0,0,.445-.77v-8.2c0-.284-.2-.4-.445-.257a.985.985,0,0,0-.445.77v8.2C49.006,187.264,49.205,187.378,49.451,187.236Z" transform="translate(-49.006 -168.705)" fill="#725849"/>
          </g>
        </g>
        <g id="Grupo_1171816" data-name="Grupo 1171816" transform="translate(0 12.725)">
          <g id="Grupo_1171814" data-name="Grupo 1171814">
            <path id="Trazado_1032148" data-name="Trazado 1032148" d="M33.657,183.529l10.969,6.332V177.2l-10.968-6.332Z" transform="translate(-33.657 -170.864)" fill="#feec9a"/>
            <path id="Trazado_1032149" data-name="Trazado 1032149" d="M34.547,172.4l9.19,5.305v10.612l-9.19-5.305V172.4Zm-.889-1.54v12.665l10.968,6.332V177.2l-10.968-6.332Z" transform="translate(-33.657 -170.864)" fill="#7d6701"/>
          </g>
          <g id="Grupo_1171815" data-name="Grupo 1171815" transform="translate(2.039 3.091)">
            <path id="Trazado_1032150" data-name="Trazado 1032150" d="M43.218,187.585c.245.142.445.027.445-.257v-8.2a.985.985,0,0,0-.445-.77c-.245-.142-.445-.027-.445.257v8.2A.977.977,0,0,0,43.218,187.585Z" transform="translate(-36.77 -174.831)" fill="#af9002"/>
            <path id="Trazado_1032151" data-name="Trazado 1032151" d="M40.949,186.276c.245.142.445.027.445-.257v-8.2a.982.982,0,0,0-.445-.77c-.245-.142-.445-.026-.445.257v8.2A.985.985,0,0,0,40.949,186.276Z" transform="translate(-36.502 -174.677)" fill="#af9002"/>
            <path id="Trazado_1032152" data-name="Trazado 1032152" d="M38.681,184.966c.245.142.445.026.445-.257v-8.2a.983.983,0,0,0-.445-.77c-.245-.142-.445-.027-.445.257v8.2A.982.982,0,0,0,38.681,184.966Z" transform="translate(-36.235 -174.522)" fill="#af9002"/>
            <path id="Trazado_1032153" data-name="Trazado 1032153" d="M36.413,183.657c.245.142.445.027.445-.257v-8.2a.985.985,0,0,0-.445-.77c-.245-.142-.445-.026-.445.257v8.2A.982.982,0,0,0,36.413,183.657Z" transform="translate(-35.968 -174.368)" fill="#af9002"/>
          </g>
        </g>
      </g>
      <g id="Grupo_1171825" data-name="Grupo 1171825" transform="translate(45.233 159.93)">
        <g id="Grupo_1171818" data-name="Grupo 1171818" transform="translate(0.001)">
          <path id="Trazado_1032154" data-name="Trazado 1032154" d="M46.78,176.582l10.968,6.332L79.787,170.19l-10.968-6.333Z" transform="translate(-46.78 -163.857)" fill="#f1e2c9"/>
          <path id="Trazado_1032155" data-name="Trazado 1032155" d="M68.819,164.884l9.19,5.305-20.261,11.7-9.19-5.305,20.261-11.7Zm0-1.027L46.78,176.582l10.968,6.332L79.787,170.19l-10.968-6.333Z" transform="translate(-46.78 -163.857)" fill="#9e917c"/>
        </g>
        <g id="Grupo_1171821" data-name="Grupo 1171821" transform="translate(10.969 6.333)">
          <g id="Grupo_1171819" data-name="Grupo 1171819">
            <path id="Trazado_1032156" data-name="Trazado 1032156" d="M81.253,183.7V171.036L59.213,183.76v12.665Z" transform="translate(-59.213 -171.036)" fill="#8d7e65"/>
            <path id="Trazado_1032157" data-name="Trazado 1032157" d="M60.1,194.886V184.274l20.261-11.7v10.611L60.1,194.886Zm-.889,1.54L81.253,183.7V171.036L59.213,183.76v12.665Z" transform="translate(-59.213 -171.036)" fill="#756c5c"/>
          </g>
          <g id="Grupo_1171820" data-name="Grupo 1171820" transform="translate(2.572 3.399)">
            <path id="Trazado_1032158" data-name="Trazado 1032158" d="M80.719,184.178a.983.983,0,0,0,.445-.77v-8.2c0-.283-.2-.4-.445-.257a.983.983,0,0,0-.445.77v8.2C80.274,184.206,80.472,184.32,80.719,184.178Z" transform="translate(-64.266 -174.889)" fill="#725849"/>
            <path id="Trazado_1032159" data-name="Trazado 1032159" d="M78.45,185.488a.985.985,0,0,0,.445-.77v-8.2c0-.284-.2-.4-.445-.257a.983.983,0,0,0-.445.77v8.2C78,185.515,78.2,185.629,78.45,185.488Z" transform="translate(-63.999 -175.043)" fill="#725849"/>
            <path id="Trazado_1032160" data-name="Trazado 1032160" d="M76.182,186.8a.985.985,0,0,0,.445-.77v-8.2c0-.284-.2-.4-.445-.257a.983.983,0,0,0-.445.77v8.2C75.737,186.824,75.936,186.939,76.182,186.8Z" transform="translate(-63.732 -175.198)" fill="#725849"/>
            <path id="Trazado_1032161" data-name="Trazado 1032161" d="M73.914,188.107a.983.983,0,0,0,.445-.77v-8.2c0-.284-.2-.4-.445-.257a.985.985,0,0,0-.445.77v8.2C73.469,188.134,73.668,188.248,73.914,188.107Z" transform="translate(-63.464 -175.352)" fill="#725849"/>
            <path id="Trazado_1032162" data-name="Trazado 1032162" d="M71.646,189.416a.985.985,0,0,0,.445-.77v-8.2c0-.283-.2-.4-.445-.257a.983.983,0,0,0-.445.77v8.2C71.2,189.444,71.4,189.558,71.646,189.416Z" transform="translate(-63.197 -175.506)" fill="#725849"/>
            <path id="Trazado_1032163" data-name="Trazado 1032163" d="M69.378,190.726a.983.983,0,0,0,.445-.77v-8.2c0-.284-.2-.4-.445-.257a.983.983,0,0,0-.445.77v8.2C68.933,190.753,69.131,190.867,69.378,190.726Z" transform="translate(-62.93 -175.661)" fill="#725849"/>
            <path id="Trazado_1032164" data-name="Trazado 1032164" d="M67.109,192.035a.985.985,0,0,0,.445-.77v-8.2c0-.283-.2-.4-.445-.257a.983.983,0,0,0-.445.77v8.2C66.664,192.063,66.863,192.177,67.109,192.035Z" transform="translate(-62.662 -175.815)" fill="#725849"/>
            <path id="Trazado_1032165" data-name="Trazado 1032165" d="M64.841,193.345a.983.983,0,0,0,.445-.77v-8.2c0-.283-.2-.4-.445-.257a.985.985,0,0,0-.445.77v8.2C64.4,193.372,64.6,193.487,64.841,193.345Z" transform="translate(-62.395 -175.969)" fill="#725849"/>
            <path id="Trazado_1032166" data-name="Trazado 1032166" d="M62.573,194.654a.983.983,0,0,0,.445-.77v-8.2c0-.284-.2-.4-.445-.257a.985.985,0,0,0-.445.77v8.2C62.128,194.682,62.327,194.8,62.573,194.654Z" transform="translate(-62.128 -176.123)" fill="#725849"/>
          </g>
        </g>
        <g id="Grupo_1171824" data-name="Grupo 1171824" transform="translate(0 12.725)">
          <g id="Grupo_1171822" data-name="Grupo 1171822">
            <path id="Trazado_1032167" data-name="Trazado 1032167" d="M46.779,190.947l10.969,6.332V184.614l-10.969-6.332Z" transform="translate(-46.779 -178.282)" fill="#feec9a"/>
            <path id="Trazado_1032168" data-name="Trazado 1032168" d="M47.669,179.822l9.19,5.305v10.612l-9.19-5.305V179.822Zm-.89-1.54v12.665l10.968,6.332V184.614l-10.968-6.332Z" transform="translate(-46.779 -178.282)" fill="#7d6701"/>
          </g>
          <g id="Grupo_1171823" data-name="Grupo 1171823" transform="translate(2.039 3.091)">
            <path id="Trazado_1032169" data-name="Trazado 1032169" d="M56.339,195c.245.142.445.027.445-.257v-8.2a.985.985,0,0,0-.445-.77c-.245-.142-.445-.027-.445.257v8.2A.982.982,0,0,0,56.339,195Z" transform="translate(-49.892 -182.249)" fill="#af9002"/>
            <path id="Trazado_1032170" data-name="Trazado 1032170" d="M54.071,193.694c.245.142.445.027.445-.257v-8.2a.985.985,0,0,0-.445-.77c-.245-.142-.445-.026-.445.257v8.2A.985.985,0,0,0,54.071,193.694Z" transform="translate(-49.624 -182.095)" fill="#af9002"/>
            <path id="Trazado_1032171" data-name="Trazado 1032171" d="M51.8,192.384c.245.142.445.026.445-.257v-8.2a.983.983,0,0,0-.445-.77c-.245-.142-.445-.027-.445.257v8.2A.98.98,0,0,0,51.8,192.384Z" transform="translate(-49.357 -181.94)" fill="#af9002"/>
            <path id="Trazado_1032172" data-name="Trazado 1032172" d="M49.535,191.075c.245.142.445.027.445-.257v-8.2a.985.985,0,0,0-.445-.77c-.245-.142-.445-.026-.445.257v8.2A.982.982,0,0,0,49.535,191.075Z" transform="translate(-49.09 -181.786)" fill="#af9002"/>
          </g>
        </g>
      </g>
      <g id="Grupo_1171842" data-name="Grupo 1171842" transform="translate(38.352 142.946)">
        <g id="Grupo_1171833" data-name="Grupo 1171833" transform="translate(0 0)">
          <g id="Grupo_1171826" data-name="Grupo 1171826">
            <path id="Trazado_1032173" data-name="Trazado 1032173" d="M38.979,157.328l10.968,6.332,22.039-12.724L61.018,144.6Z" transform="translate(-38.979 -144.604)" fill="#296aae"/>
            <path id="Trazado_1032174" data-name="Trazado 1032174" d="M61.018,145.631l9.19,5.305-20.261,11.7-9.19-5.305,20.261-11.7Zm0-1.027L38.979,157.329l10.968,6.332,22.039-12.725L61.018,144.6Z" transform="translate(-38.979 -144.604)" fill="#296aae"/>
          </g>
          <g id="Grupo_1171829" data-name="Grupo 1171829" transform="translate(10.968 6.332)">
            <g id="Grupo_1171827" data-name="Grupo 1171827">
              <path id="Trazado_1032175" data-name="Trazado 1032175" d="M73.452,164.447V151.782l-22.04,12.724v12.665Z" transform="translate(-51.412 -151.782)" fill="#296aae"/>
              <path id="Trazado_1032176" data-name="Trazado 1032176" d="M52.3,175.632V165.02l20.262-11.7v10.612L52.3,175.632Zm-.889,1.54,22.04-12.724V151.782L51.413,164.506v12.665Z" transform="translate(-51.412 -151.782)" fill="#296aae"/>
            </g>
            <g id="Grupo_1171828" data-name="Grupo 1171828" transform="translate(2.572 3.399)">
              <path id="Trazado_1032177" data-name="Trazado 1032177" d="M72.918,164.924a.983.983,0,0,0,.445-.77v-8.2c0-.284-.2-.4-.445-.257a.983.983,0,0,0-.445.77v8.2C72.473,164.952,72.672,165.066,72.918,164.924Z" transform="translate(-56.465 -155.635)" fill="#296aae"/>
              <path id="Trazado_1032178" data-name="Trazado 1032178" d="M70.65,166.234a.985.985,0,0,0,.445-.77v-8.2c0-.284-.2-.4-.445-.257a.983.983,0,0,0-.445.77v8.2C70.205,166.261,70.4,166.375,70.65,166.234Z" transform="translate(-56.198 -155.789)" fill="#296aae"/>
              <path id="Trazado_1032179" data-name="Trazado 1032179" d="M68.381,167.543a.983.983,0,0,0,.445-.77v-8.2c0-.284-.2-.4-.445-.257a.985.985,0,0,0-.445.77v8.2C67.937,167.571,68.135,167.685,68.381,167.543Z" transform="translate(-55.931 -155.944)" fill="#296aae"/>
              <path id="Trazado_1032180" data-name="Trazado 1032180" d="M66.113,168.853a.985.985,0,0,0,.445-.77v-8.2c0-.284-.2-.4-.445-.257a.983.983,0,0,0-.445.77v8.2C65.668,168.88,65.867,168.994,66.113,168.853Z" transform="translate(-55.663 -156.098)" fill="#296aae"/>
              <path id="Trazado_1032181" data-name="Trazado 1032181" d="M63.845,170.162a.985.985,0,0,0,.445-.77v-8.2c0-.283-.2-.4-.445-.257a.983.983,0,0,0-.445.77v8.2C63.4,170.19,63.6,170.3,63.845,170.162Z" transform="translate(-55.396 -156.252)" fill="#296aae"/>
              <path id="Trazado_1032182" data-name="Trazado 1032182" d="M61.577,171.472a.983.983,0,0,0,.445-.77v-8.2c0-.283-.2-.4-.445-.257a.985.985,0,0,0-.445.77v8.2C61.132,171.5,61.331,171.613,61.577,171.472Z" transform="translate(-55.129 -156.406)" fill="#296aae"/>
              <path id="Trazado_1032183" data-name="Trazado 1032183" d="M59.309,172.781a.985.985,0,0,0,.445-.77v-8.2c0-.284-.2-.4-.445-.257a.983.983,0,0,0-.445.77v8.2C58.863,172.809,59.062,172.923,59.309,172.781Z" transform="translate(-54.862 -156.561)" fill="#296aae"/>
              <path id="Trazado_1032184" data-name="Trazado 1032184" d="M57.04,174.091a.983.983,0,0,0,.445-.77v-8.2c0-.284-.2-.4-.445-.257a.983.983,0,0,0-.445.77v8.2C56.595,174.118,56.794,174.232,57.04,174.091Z" transform="translate(-54.594 -156.715)" fill="#296aae"/>
              <path id="Trazado_1032185" data-name="Trazado 1032185" d="M54.772,175.4a.985.985,0,0,0,.445-.77v-8.2c0-.284-.2-.4-.445-.257a.983.983,0,0,0-.445.77v8.2C54.327,175.428,54.526,175.542,54.772,175.4Z" transform="translate(-54.327 -156.869)" fill="#296aae"/>
            </g>
          </g>
          <g id="Grupo_1171832" data-name="Grupo 1171832" transform="translate(0 12.724)">
            <g id="Grupo_1171830" data-name="Grupo 1171830">
              <path id="Trazado_1032186" data-name="Trazado 1032186" d="M38.979,171.693l10.968,6.332V165.36l-10.968-6.332Z" transform="translate(-38.979 -159.028)" fill="#296aae"/>
              <path id="Trazado_1032187" data-name="Trazado 1032187" d="M39.868,160.568l9.19,5.305v10.612l-9.19-5.305V160.568Zm-.889-1.54v12.665l10.968,6.332V165.361l-10.968-6.333Z" transform="translate(-38.979 -159.028)" fill="#296aae"/>
            </g>
            <g id="Grupo_1171831" data-name="Grupo 1171831" transform="translate(2.038 3.091)">
              <path id="Trazado_1032188" data-name="Trazado 1032188" d="M48.539,175.749c.245.142.445.026.445-.257v-8.2a.983.983,0,0,0-.445-.77c-.245-.142-.445-.027-.445.257v8.2A.98.98,0,0,0,48.539,175.749Z" transform="translate(-42.091 -162.995)" fill="#296aae"/>
              <path id="Trazado_1032189" data-name="Trazado 1032189" d="M46.27,174.44c.245.142.445.027.445-.257v-8.2a.983.983,0,0,0-.445-.77c-.245-.142-.445-.027-.445.257v8.2A.985.985,0,0,0,46.27,174.44Z" transform="translate(-41.823 -162.841)" fill="#296aae"/>
              <path id="Trazado_1032190" data-name="Trazado 1032190" d="M44,173.13c.245.142.445.026.445-.257v-8.2A.983.983,0,0,0,44,163.9c-.245-.142-.445-.027-.445.257v8.2A.982.982,0,0,0,44,173.13Z" transform="translate(-41.556 -162.686)" fill="#296aae"/>
              <path id="Trazado_1032191" data-name="Trazado 1032191" d="M41.734,171.821c.245.142.445.027.445-.257v-8.2a.983.983,0,0,0-.445-.77c-.245-.142-.445-.026-.445.257v8.2A.985.985,0,0,0,41.734,171.821Z" transform="translate(-41.289 -162.532)" fill="#296aae"/>
            </g>
          </g>
        </g>
        <g id="Grupo_1171841" data-name="Grupo 1171841" transform="translate(0 0)">
          <g id="Grupo_1171834" data-name="Grupo 1171834">
            <path id="Trazado_1032192" data-name="Trazado 1032192" d="M38.979,157.328l10.968,6.332,22.039-12.724L61.018,144.6Z" transform="translate(-38.979 -144.604)" fill="#008bad"/>
            <path id="Trazado_1032193" data-name="Trazado 1032193" d="M61.018,145.631l9.19,5.305-20.261,11.7-9.19-5.305,20.261-11.7Zm0-1.027L38.979,157.329l10.968,6.332,22.039-12.725L61.018,144.6Z" transform="translate(-38.979 -144.604)" fill="#006b87"/>
          </g>
          <g id="Grupo_1171837" data-name="Grupo 1171837" transform="translate(10.968 6.332)">
            <g id="Grupo_1171835" data-name="Grupo 1171835">
              <path id="Trazado_1032194" data-name="Trazado 1032194" d="M73.452,164.447V151.782l-22.04,12.724v12.665Z" transform="translate(-51.412 -151.782)" fill="#367ba1"/>
              <path id="Trazado_1032195" data-name="Trazado 1032195" d="M52.3,175.632V165.02l20.262-11.7v10.612L52.3,175.632Zm-.889,1.54,22.04-12.724V151.782L51.413,164.506v12.665Z" transform="translate(-51.412 -151.782)" fill="#235c97"/>
            </g>
            <g id="Grupo_1171836" data-name="Grupo 1171836" transform="translate(2.572 3.399)">
              <path id="Trazado_1032196" data-name="Trazado 1032196" d="M72.918,164.924a.983.983,0,0,0,.445-.77v-8.2c0-.284-.2-.4-.445-.257a.983.983,0,0,0-.445.77v8.2C72.473,164.952,72.672,165.066,72.918,164.924Z" transform="translate(-56.465 -155.635)" fill="#235c97"/>
              <path id="Trazado_1032197" data-name="Trazado 1032197" d="M70.65,166.234a.985.985,0,0,0,.445-.77v-8.2c0-.284-.2-.4-.445-.257a.983.983,0,0,0-.445.77v8.2C70.205,166.261,70.4,166.375,70.65,166.234Z" transform="translate(-56.198 -155.789)" fill="#235c97"/>
              <path id="Trazado_1032198" data-name="Trazado 1032198" d="M68.381,167.543a.983.983,0,0,0,.445-.77v-8.2c0-.284-.2-.4-.445-.257a.985.985,0,0,0-.445.77v8.2C67.937,167.571,68.135,167.685,68.381,167.543Z" transform="translate(-55.931 -155.944)" fill="#235c97"/>
              <path id="Trazado_1032199" data-name="Trazado 1032199" d="M66.113,168.853a.985.985,0,0,0,.445-.77v-8.2c0-.284-.2-.4-.445-.257a.983.983,0,0,0-.445.77v8.2C65.668,168.88,65.867,168.994,66.113,168.853Z" transform="translate(-55.663 -156.098)" fill="#235c97"/>
              <path id="Trazado_1032200" data-name="Trazado 1032200" d="M63.845,170.162a.985.985,0,0,0,.445-.77v-8.2c0-.283-.2-.4-.445-.257a.983.983,0,0,0-.445.77v8.2C63.4,170.19,63.6,170.3,63.845,170.162Z" transform="translate(-55.396 -156.252)" fill="#235c97"/>
              <path id="Trazado_1032201" data-name="Trazado 1032201" d="M61.577,171.472a.983.983,0,0,0,.445-.77v-8.2c0-.283-.2-.4-.445-.257a.985.985,0,0,0-.445.77v8.2C61.132,171.5,61.331,171.613,61.577,171.472Z" transform="translate(-55.129 -156.406)" fill="#235c97"/>
              <path id="Trazado_1032202" data-name="Trazado 1032202" d="M59.309,172.781a.985.985,0,0,0,.445-.77v-8.2c0-.284-.2-.4-.445-.257a.983.983,0,0,0-.445.77v8.2C58.863,172.809,59.062,172.923,59.309,172.781Z" transform="translate(-54.862 -156.561)" fill="#235c97"/>
              <path id="Trazado_1032203" data-name="Trazado 1032203" d="M57.04,174.091a.983.983,0,0,0,.445-.77v-8.2c0-.284-.2-.4-.445-.257a.983.983,0,0,0-.445.77v8.2C56.595,174.118,56.794,174.232,57.04,174.091Z" transform="translate(-54.594 -156.715)" fill="#235c97"/>
              <path id="Trazado_1032204" data-name="Trazado 1032204" d="M54.772,175.4a.985.985,0,0,0,.445-.77v-8.2c0-.284-.2-.4-.445-.257a.983.983,0,0,0-.445.77v8.2C54.327,175.428,54.526,175.542,54.772,175.4Z" transform="translate(-54.327 -156.869)" fill="#235c97"/>
            </g>
          </g>
          <g id="Grupo_1171840" data-name="Grupo 1171840" transform="translate(0 12.724)">
            <g id="Grupo_1171838" data-name="Grupo 1171838">
              <path id="Trazado_1032205" data-name="Trazado 1032205" d="M38.979,171.693l10.968,6.332V165.36l-10.968-6.332Z" transform="translate(-38.979 -159.028)" fill="#007c9c"/>
              <path id="Trazado_1032206" data-name="Trazado 1032206" d="M39.868,160.568l9.19,5.305v10.612l-9.19-5.305V160.568Zm-.889-1.54v12.665l10.968,6.332V165.361l-10.968-6.333Z" transform="translate(-38.979 -159.028)" fill="#005d75"/>
            </g>
            <g id="Grupo_1171839" data-name="Grupo 1171839" transform="translate(2.038 3.091)">
              <path id="Trazado_1032207" data-name="Trazado 1032207" d="M48.539,175.749c.245.142.445.026.445-.257v-8.2a.983.983,0,0,0-.445-.77c-.245-.142-.445-.027-.445.257v8.2A.98.98,0,0,0,48.539,175.749Z" transform="translate(-42.091 -162.995)" fill="#005d75"/>
              <path id="Trazado_1032208" data-name="Trazado 1032208" d="M46.27,174.44c.245.142.445.027.445-.257v-8.2a.983.983,0,0,0-.445-.77c-.245-.142-.445-.027-.445.257v8.2A.985.985,0,0,0,46.27,174.44Z" transform="translate(-41.823 -162.841)" fill="#005d75"/>
              <path id="Trazado_1032209" data-name="Trazado 1032209" d="M44,173.13c.245.142.445.026.445-.257v-8.2A.983.983,0,0,0,44,163.9c-.245-.142-.445-.027-.445.257v8.2A.982.982,0,0,0,44,173.13Z" transform="translate(-41.556 -162.686)" fill="#005d75"/>
              <path id="Trazado_1032210" data-name="Trazado 1032210" d="M41.734,171.821c.245.142.445.027.445-.257v-8.2a.983.983,0,0,0-.445-.77c-.245-.142-.445-.026-.445.257v8.2A.985.985,0,0,0,41.734,171.821Z" transform="translate(-41.289 -162.532)" fill="#005d75"/>
            </g>
          </g>
        </g>
      </g>
      <g id="Grupo_1171850" data-name="Grupo 1171850" transform="translate(57.253 166.792)">
        <g id="Grupo_1171843" data-name="Grupo 1171843" transform="translate(0.001)">
          <path id="Trazado_1032211" data-name="Trazado 1032211" d="M60.406,184.359l10.968,6.333,22.039-12.725-10.968-6.332Z" transform="translate(-60.406 -171.635)" fill="#feec9a"/>
          <path id="Trazado_1032212" data-name="Trazado 1032212" d="M82.445,172.662l9.19,5.305-20.261,11.7-9.19-5.305,20.261-11.7Zm0-1.027L60.406,184.359l10.968,6.332,22.039-12.724-10.968-6.332Z" transform="translate(-60.406 -171.635)" fill="#fcd004"/>
        </g>
        <g id="Grupo_1171846" data-name="Grupo 1171846" transform="translate(10.969 6.332)">
          <g id="Grupo_1171844" data-name="Grupo 1171844">
            <path id="Trazado_1032213" data-name="Trazado 1032213" d="M94.879,191.479V178.814L72.839,191.538V204.2Z" transform="translate(-72.839 -178.813)" fill="#feec9a"/>
            <path id="Trazado_1032214" data-name="Trazado 1032214" d="M73.728,202.663V192.051l20.261-11.7v10.611l-20.261,11.7Zm-.889,1.54,22.04-12.724V178.813l-22.04,12.724V204.2Z" transform="translate(-72.839 -178.813)" fill="#756c5c"/>
          </g>
          <g id="Grupo_1171845" data-name="Grupo 1171845" transform="translate(2.572 3.4)">
            <path id="Trazado_1032215" data-name="Trazado 1032215" d="M94.345,191.956a.983.983,0,0,0,.445-.77v-8.2c0-.284-.2-.4-.445-.257a.985.985,0,0,0-.445.77v8.2C93.9,191.983,94.1,192.1,94.345,191.956Z" transform="translate(-77.892 -182.667)" fill="#af9002"/>
            <path id="Trazado_1032216" data-name="Trazado 1032216" d="M92.076,193.265a.985.985,0,0,0,.445-.77v-8.2c0-.284-.2-.4-.445-.257a.983.983,0,0,0-.445.77v8.2C91.631,193.293,91.83,193.407,92.076,193.265Z" transform="translate(-77.625 -182.821)" fill="#af9002"/>
            <path id="Trazado_1032217" data-name="Trazado 1032217" d="M89.808,194.575a.985.985,0,0,0,.445-.77v-8.2c0-.283-.2-.4-.445-.257a.985.985,0,0,0-.445.77v8.2C89.363,194.6,89.562,194.717,89.808,194.575Z" transform="translate(-77.358 -182.976)" fill="#af9002"/>
            <path id="Trazado_1032218" data-name="Trazado 1032218" d="M87.54,195.884a.983.983,0,0,0,.445-.77v-8.2c0-.284-.2-.4-.445-.257a.983.983,0,0,0-.445.77v8.2C87.1,195.912,87.294,196.026,87.54,195.884Z" transform="translate(-77.09 -183.13)" fill="#af9002"/>
            <path id="Trazado_1032219" data-name="Trazado 1032219" d="M85.272,197.194a.985.985,0,0,0,.445-.77v-8.2c0-.283-.2-.4-.445-.257a.985.985,0,0,0-.445.77v8.2C84.827,197.221,85.025,197.336,85.272,197.194Z" transform="translate(-76.823 -183.284)" fill="#af9002"/>
            <path id="Trazado_1032220" data-name="Trazado 1032220" d="M83,198.5a.983.983,0,0,0,.445-.77v-8.2c0-.283-.2-.4-.445-.257a.985.985,0,0,0-.445.77v8.2C82.559,198.531,82.757,198.645,83,198.5Z" transform="translate(-76.556 -183.438)" fill="#af9002"/>
            <path id="Trazado_1032221" data-name="Trazado 1032221" d="M80.735,199.813a.983.983,0,0,0,.445-.77v-8.2c0-.283-.2-.4-.445-.257a.983.983,0,0,0-.445.77v8.2C80.29,199.84,80.489,199.954,80.735,199.813Z" transform="translate(-76.288 -183.593)" fill="#af9002"/>
            <path id="Trazado_1032222" data-name="Trazado 1032222" d="M78.467,201.122a.983.983,0,0,0,.445-.77v-8.2c0-.284-.2-.4-.445-.257a.985.985,0,0,0-.445.77v8.2C78.022,201.15,78.221,201.264,78.467,201.122Z" transform="translate(-76.021 -183.747)" fill="#af9002"/>
            <path id="Trazado_1032223" data-name="Trazado 1032223" d="M76.2,202.432a.983.983,0,0,0,.445-.77v-8.2c0-.284-.2-.4-.445-.257a.985.985,0,0,0-.445.77v8.2C75.754,202.46,75.952,202.573,76.2,202.432Z" transform="translate(-75.754 -183.901)" fill="#af9002"/>
          </g>
        </g>
        <g id="Grupo_1171849" data-name="Grupo 1171849" transform="translate(0 12.725)">
          <g id="Grupo_1171847" data-name="Grupo 1171847">
            <path id="Trazado_1032224" data-name="Trazado 1032224" d="M60.4,198.725l10.969,6.331V192.392L60.4,186.06Z" transform="translate(-60.405 -186.06)" fill="#feec9a"/>
            <path id="Trazado_1032225" data-name="Trazado 1032225" d="M61.3,187.6l9.19,5.305v10.612l-9.19-5.305V187.6Zm-.89-1.54v12.665l10.968,6.332V192.392L60.4,186.06Z" transform="translate(-60.405 -186.06)" fill="#7d6701"/>
          </g>
          <g id="Grupo_1171848" data-name="Grupo 1171848" transform="translate(2.039 3.09)">
            <path id="Trazado_1032226" data-name="Trazado 1032226" d="M69.965,202.781c.245.142.445.027.445-.257v-8.2a.985.985,0,0,0-.445-.77c-.245-.142-.445-.027-.445.257v8.2A.985.985,0,0,0,69.965,202.781Z" transform="translate(-63.518 -190.026)" fill="#af9002"/>
            <path id="Trazado_1032227" data-name="Trazado 1032227" d="M67.7,201.471c.245.142.445.027.445-.257v-8.2a.985.985,0,0,0-.445-.77c-.245-.142-.445-.026-.445.257v8.2A.982.982,0,0,0,67.7,201.471Z" transform="translate(-63.25 -189.872)" fill="#af9002"/>
            <path id="Trazado_1032228" data-name="Trazado 1032228" d="M65.429,200.162c.245.142.445.026.445-.257v-8.2a.982.982,0,0,0-.445-.77c-.245-.142-.445-.027-.445.257v8.2A.985.985,0,0,0,65.429,200.162Z" transform="translate(-62.983 -189.717)" fill="#af9002"/>
            <path id="Trazado_1032229" data-name="Trazado 1032229" d="M63.161,198.852c.245.142.445.027.445-.257v-8.2a.985.985,0,0,0-.445-.77c-.245-.142-.445-.026-.445.257v8.2A.98.98,0,0,0,63.161,198.852Z" transform="translate(-62.716 -189.563)" fill="#af9002"/>
          </g>
        </g>
      </g>
      <g id="Grupo_1171867" data-name="Grupo 1171867" transform="translate(49.161 149.374)">
        <g id="Grupo_1171858" data-name="Grupo 1171858">
          <g id="Grupo_1171851" data-name="Grupo 1171851">
            <path id="Trazado_1032230" data-name="Trazado 1032230" d="M51.232,164.616,62.2,170.949,84.24,158.224l-10.968-6.333Z" transform="translate(-51.232 -151.891)" fill="#296aae"/>
            <path id="Trazado_1032231" data-name="Trazado 1032231" d="M73.272,152.918l9.19,5.305L62.2,169.921l-9.19-5.305,20.261-11.7Zm0-1.027L51.233,164.616,62.2,170.949,84.24,158.224l-10.968-6.333Z" transform="translate(-51.232 -151.891)" fill="#296aae"/>
          </g>
          <g id="Grupo_1171854" data-name="Grupo 1171854" transform="translate(10.969 6.333)">
            <g id="Grupo_1171852" data-name="Grupo 1171852">
              <path id="Trazado_1032232" data-name="Trazado 1032232" d="M85.705,171.735V159.07L63.666,171.794V184.46Z" transform="translate(-63.666 -159.07)" fill="#296aae"/>
              <path id="Trazado_1032233" data-name="Trazado 1032233" d="M64.555,182.92V172.308l20.261-11.7v10.612l-20.261,11.7Zm-.889,1.54,22.04-12.724V159.07l-22.04,12.724V184.46Z" transform="translate(-63.666 -159.07)" fill="#296aae"/>
            </g>
            <g id="Grupo_1171853" data-name="Grupo 1171853" transform="translate(2.571 3.399)">
              <path id="Trazado_1032234" data-name="Trazado 1032234" d="M85.171,172.212a.983.983,0,0,0,.445-.77v-8.2c0-.283-.2-.4-.445-.257a.985.985,0,0,0-.445.77v8.2C84.726,172.24,84.925,172.353,85.171,172.212Z" transform="translate(-68.718 -162.923)" fill="#296aae"/>
              <path id="Trazado_1032235" data-name="Trazado 1032235" d="M82.9,173.521a.985.985,0,0,0,.445-.77v-8.2c0-.283-.2-.4-.445-.257a.983.983,0,0,0-.445.77v8.2C82.458,173.549,82.657,173.663,82.9,173.521Z" transform="translate(-68.451 -163.077)" fill="#296aae"/>
              <path id="Trazado_1032236" data-name="Trazado 1032236" d="M80.635,174.831a.983.983,0,0,0,.445-.77v-8.2c0-.284-.2-.4-.445-.257a.983.983,0,0,0-.445.77v8.2C80.19,174.858,80.389,174.973,80.635,174.831Z" transform="translate(-68.184 -163.232)" fill="#296aae"/>
              <path id="Trazado_1032237" data-name="Trazado 1032237" d="M78.366,176.141a.985.985,0,0,0,.445-.77v-8.2c0-.284-.2-.4-.445-.257a.983.983,0,0,0-.445.77v8.2C77.922,176.168,78.12,176.282,78.366,176.141Z" transform="translate(-67.916 -163.386)" fill="#296aae"/>
              <path id="Trazado_1032238" data-name="Trazado 1032238" d="M76.1,177.45a.985.985,0,0,0,.445-.77v-8.2c0-.283-.2-.4-.445-.257a.983.983,0,0,0-.445.77v8.2C75.653,177.477,75.852,177.592,76.1,177.45Z" transform="translate(-67.649 -163.54)" fill="#296aae"/>
              <path id="Trazado_1032239" data-name="Trazado 1032239" d="M73.83,178.76a.983.983,0,0,0,.445-.77v-8.2c0-.283-.2-.4-.445-.257a.985.985,0,0,0-.445.77v8.2C73.385,178.787,73.584,178.9,73.83,178.76Z" transform="translate(-67.382 -163.695)" fill="#296aae"/>
              <path id="Trazado_1032240" data-name="Trazado 1032240" d="M71.562,180.069a.985.985,0,0,0,.445-.77v-8.2c0-.284-.2-.4-.445-.257a.983.983,0,0,0-.445.77v8.2C71.117,180.1,71.316,180.211,71.562,180.069Z" transform="translate(-67.115 -163.849)" fill="#296aae"/>
              <path id="Trazado_1032241" data-name="Trazado 1032241" d="M69.294,181.379a.983.983,0,0,0,.445-.77v-8.2c0-.283-.2-.4-.445-.257a.985.985,0,0,0-.445.77v8.2C68.849,181.406,69.047,181.52,69.294,181.379Z" transform="translate(-66.847 -164.003)" fill="#296aae"/>
              <path id="Trazado_1032242" data-name="Trazado 1032242" d="M67.025,182.688a.985.985,0,0,0,.445-.77v-8.2c0-.284-.2-.4-.445-.257a.983.983,0,0,0-.445.77v8.2C66.58,182.716,66.779,182.83,67.025,182.688Z" transform="translate(-66.58 -164.157)" fill="#296aae"/>
            </g>
          </g>
          <g id="Grupo_1171857" data-name="Grupo 1171857" transform="translate(0 12.725)">
            <g id="Grupo_1171855" data-name="Grupo 1171855">
              <path id="Trazado_1032243" data-name="Trazado 1032243" d="M51.232,178.981,62.2,185.314V172.648l-10.969-6.332Z" transform="translate(-51.232 -166.316)" fill="#296aae"/>
              <path id="Trazado_1032244" data-name="Trazado 1032244" d="M52.121,167.856l9.19,5.305v10.612l-9.19-5.305V167.856Zm-.889-1.54v12.665L62.2,185.314V172.649l-10.968-6.333Z" transform="translate(-51.232 -166.316)" fill="#296aae"/>
            </g>
            <g id="Grupo_1171856" data-name="Grupo 1171856" transform="translate(2.038 3.091)">
              <path id="Trazado_1032245" data-name="Trazado 1032245" d="M60.792,183.037c.245.142.445.026.445-.257v-8.2a.982.982,0,0,0-.445-.77c-.245-.142-.445-.026-.445.257v8.2A.982.982,0,0,0,60.792,183.037Z" transform="translate(-54.344 -170.283)" fill="#296aae"/>
              <path id="Trazado_1032246" data-name="Trazado 1032246" d="M58.524,181.728c.245.142.445.027.445-.257v-8.2a.985.985,0,0,0-.445-.77c-.245-.142-.445-.027-.445.257v8.2A.982.982,0,0,0,58.524,181.728Z" transform="translate(-54.077 -170.129)" fill="#296aae"/>
              <path id="Trazado_1032247" data-name="Trazado 1032247" d="M56.255,180.418c.245.142.445.026.445-.257v-8.2a.983.983,0,0,0-.445-.77c-.245-.142-.445-.027-.445.257v8.2A.982.982,0,0,0,56.255,180.418Z" transform="translate(-53.809 -169.974)" fill="#296aae"/>
              <path id="Trazado_1032248" data-name="Trazado 1032248" d="M53.987,179.109c.245.142.445.027.445-.257v-8.2a.985.985,0,0,0-.445-.77c-.245-.142-.445-.027-.445.257v8.2A.985.985,0,0,0,53.987,179.109Z" transform="translate(-53.542 -169.82)" fill="#296aae"/>
            </g>
          </g>
        </g>
        <g id="Grupo_1171866" data-name="Grupo 1171866">
          <g id="Grupo_1171859" data-name="Grupo 1171859">
            <path id="Trazado_1032249" data-name="Trazado 1032249" d="M51.232,164.616,62.2,170.949,84.24,158.224l-10.968-6.333Z" transform="translate(-51.232 -151.891)" fill="#008bad"/>
            <path id="Trazado_1032250" data-name="Trazado 1032250" d="M73.272,152.918l9.19,5.305L62.2,169.921l-9.19-5.305,20.261-11.7Zm0-1.027L51.233,164.616,62.2,170.949,84.24,158.224l-10.968-6.333Z" transform="translate(-51.232 -151.891)" fill="#006b87"/>
          </g>
          <g id="Grupo_1171862" data-name="Grupo 1171862" transform="translate(10.969 6.333)">
            <g id="Grupo_1171860" data-name="Grupo 1171860">
              <path id="Trazado_1032251" data-name="Trazado 1032251" d="M85.705,171.735V159.07L63.666,171.794V184.46Z" transform="translate(-63.666 -159.07)" fill="#006a85"/>
              <path id="Trazado_1032252" data-name="Trazado 1032252" d="M64.555,182.92V172.308l20.261-11.7v10.612l-20.261,11.7Zm-.889,1.54,22.04-12.724V159.07l-22.04,12.724V184.46Z" transform="translate(-63.666 -159.07)" fill="#00576e"/>
            </g>
            <g id="Grupo_1171861" data-name="Grupo 1171861" transform="translate(2.571 3.399)">
              <path id="Trazado_1032253" data-name="Trazado 1032253" d="M85.171,172.212a.983.983,0,0,0,.445-.77v-8.2c0-.283-.2-.4-.445-.257a.985.985,0,0,0-.445.77v8.2C84.726,172.24,84.925,172.353,85.171,172.212Z" transform="translate(-68.718 -162.923)" fill="#00576e"/>
              <path id="Trazado_1032254" data-name="Trazado 1032254" d="M82.9,173.521a.985.985,0,0,0,.445-.77v-8.2c0-.283-.2-.4-.445-.257a.983.983,0,0,0-.445.77v8.2C82.458,173.549,82.657,173.663,82.9,173.521Z" transform="translate(-68.451 -163.077)" fill="#00576e"/>
              <path id="Trazado_1032255" data-name="Trazado 1032255" d="M80.635,174.831a.983.983,0,0,0,.445-.77v-8.2c0-.284-.2-.4-.445-.257a.983.983,0,0,0-.445.77v8.2C80.19,174.858,80.389,174.973,80.635,174.831Z" transform="translate(-68.184 -163.232)" fill="#00576e"/>
              <path id="Trazado_1032256" data-name="Trazado 1032256" d="M78.366,176.141a.985.985,0,0,0,.445-.77v-8.2c0-.284-.2-.4-.445-.257a.983.983,0,0,0-.445.77v8.2C77.922,176.168,78.12,176.282,78.366,176.141Z" transform="translate(-67.916 -163.386)" fill="#00576e"/>
              <path id="Trazado_1032257" data-name="Trazado 1032257" d="M76.1,177.45a.985.985,0,0,0,.445-.77v-8.2c0-.283-.2-.4-.445-.257a.983.983,0,0,0-.445.77v8.2C75.653,177.477,75.852,177.592,76.1,177.45Z" transform="translate(-67.649 -163.54)" fill="#00576e"/>
              <path id="Trazado_1032258" data-name="Trazado 1032258" d="M73.83,178.76a.983.983,0,0,0,.445-.77v-8.2c0-.283-.2-.4-.445-.257a.985.985,0,0,0-.445.77v8.2C73.385,178.787,73.584,178.9,73.83,178.76Z" transform="translate(-67.382 -163.695)" fill="#00576e"/>
              <path id="Trazado_1032259" data-name="Trazado 1032259" d="M71.562,180.069a.985.985,0,0,0,.445-.77v-8.2c0-.284-.2-.4-.445-.257a.983.983,0,0,0-.445.77v8.2C71.117,180.1,71.316,180.211,71.562,180.069Z" transform="translate(-67.115 -163.849)" fill="#00576e"/>
              <path id="Trazado_1032260" data-name="Trazado 1032260" d="M69.294,181.379a.983.983,0,0,0,.445-.77v-8.2c0-.283-.2-.4-.445-.257a.985.985,0,0,0-.445.77v8.2C68.849,181.406,69.047,181.52,69.294,181.379Z" transform="translate(-66.847 -164.003)" fill="#00576e"/>
              <path id="Trazado_1032261" data-name="Trazado 1032261" d="M67.025,182.688a.985.985,0,0,0,.445-.77v-8.2c0-.284-.2-.4-.445-.257a.983.983,0,0,0-.445.77v8.2C66.58,182.716,66.779,182.83,67.025,182.688Z" transform="translate(-66.58 -164.157)" fill="#00576e"/>
            </g>
          </g>
          <g id="Grupo_1171865" data-name="Grupo 1171865" transform="translate(0 12.725)">
            <g id="Grupo_1171863" data-name="Grupo 1171863">
              <path id="Trazado_1032262" data-name="Trazado 1032262" d="M51.232,178.981,62.2,185.314V172.648l-10.969-6.332Z" transform="translate(-51.232 -166.316)" fill="#007c9c"/>
              <path id="Trazado_1032263" data-name="Trazado 1032263" d="M52.121,167.856l9.19,5.305v10.612l-9.19-5.305V167.856Zm-.889-1.54v12.665L62.2,185.314V172.649l-10.968-6.333Z" transform="translate(-51.232 -166.316)" fill="#005d75"/>
            </g>
            <g id="Grupo_1171864" data-name="Grupo 1171864" transform="translate(2.038 3.091)">
              <path id="Trazado_1032264" data-name="Trazado 1032264" d="M60.792,183.037c.245.142.445.026.445-.257v-8.2a.982.982,0,0,0-.445-.77c-.245-.142-.445-.026-.445.257v8.2A.982.982,0,0,0,60.792,183.037Z" transform="translate(-54.344 -170.283)" fill="#005d75"/>
              <path id="Trazado_1032265" data-name="Trazado 1032265" d="M58.524,181.728c.245.142.445.027.445-.257v-8.2a.985.985,0,0,0-.445-.77c-.245-.142-.445-.027-.445.257v8.2A.982.982,0,0,0,58.524,181.728Z" transform="translate(-54.077 -170.129)" fill="#005d75"/>
              <path id="Trazado_1032266" data-name="Trazado 1032266" d="M56.255,180.418c.245.142.445.026.445-.257v-8.2a.983.983,0,0,0-.445-.77c-.245-.142-.445-.027-.445.257v8.2A.982.982,0,0,0,56.255,180.418Z" transform="translate(-53.809 -169.974)" fill="#005d75"/>
              <path id="Trazado_1032267" data-name="Trazado 1032267" d="M53.987,179.109c.245.142.445.027.445-.257v-8.2a.985.985,0,0,0-.445-.77c-.245-.142-.445-.027-.445.257v8.2A.985.985,0,0,0,53.987,179.109Z" transform="translate(-53.542 -169.82)" fill="#005d75"/>
            </g>
          </g>
        </g>
      </g>
      <g id="Grupo_1171875" data-name="Grupo 1171875" transform="translate(48.79 130.53)">
        <g id="Grupo_1171868" data-name="Grupo 1171868" transform="translate(0.001)">
          <path id="Trazado_1032268" data-name="Trazado 1032268" d="M83.82,143.255l-10.968,6.332-22.04-12.724L61.78,130.53Z" transform="translate(-50.812 -130.53)" fill="#2f73a8"/>
          <path id="Trazado_1032269" data-name="Trazado 1032269" d="M61.78,131.557l20.261,11.7-9.19,5.305-20.261-11.7,9.19-5.305Zm0-1.027-10.968,6.332,22.039,12.725,10.968-6.333L61.78,130.53Z" transform="translate(-50.812 -130.53)" fill="#a8aeb5"/>
        </g>
        <g id="Grupo_1171871" data-name="Grupo 1171871" transform="translate(0 6.333)">
          <g id="Grupo_1171869" data-name="Grupo 1171869">
            <path id="Trazado_1032270" data-name="Trazado 1032270" d="M50.812,150.374V137.709l22.04,12.724V163.1Z" transform="translate(-50.811 -137.709)" fill="#215278"/>
            <path id="Trazado_1032271" data-name="Trazado 1032271" d="M71.962,161.559,51.7,149.861V139.249l20.261,11.7v10.612Zm.889,1.54V150.433l-22.04-12.724v12.665L72.851,163.1Z" transform="translate(-50.811 -137.709)" fill="#66757e"/>
          </g>
          <g id="Grupo_1171870" data-name="Grupo 1171870" transform="translate(2.572 3.399)">
            <path id="Trazado_1032272" data-name="Trazado 1032272" d="M54.171,150.851a.985.985,0,0,1-.445-.77v-8.2c0-.284.2-.4.445-.257a.983.983,0,0,1,.445.77v8.2C54.616,150.878,54.417,150.992,54.171,150.851Z" transform="translate(-53.726 -141.562)" fill="#2f73a8"/>
            <path id="Trazado_1032273" data-name="Trazado 1032273" d="M56.44,152.16a.985.985,0,0,1-.445-.77v-8.2c0-.283.2-.4.445-.257a.985.985,0,0,1,.445.77v8.2C56.884,152.188,56.685,152.3,56.44,152.16Z" transform="translate(-53.993 -141.716)" fill="#2f73a8"/>
            <path id="Trazado_1032274" data-name="Trazado 1032274" d="M58.708,153.47a.983.983,0,0,1-.445-.77v-8.2c0-.284.2-.4.445-.257a.983.983,0,0,1,.445.77v8.2C59.152,153.5,58.953,153.612,58.708,153.47Z" transform="translate(-54.261 -141.871)" fill="#2f73a8"/>
            <path id="Trazado_1032275" data-name="Trazado 1032275" d="M60.976,154.779a.985.985,0,0,1-.445-.77v-8.2c0-.284.2-.4.445-.257a.983.983,0,0,1,.445.77v8.2C61.42,154.807,61.222,154.921,60.976,154.779Z" transform="translate(-54.528 -142.025)" fill="#2f73a8"/>
            <path id="Trazado_1032276" data-name="Trazado 1032276" d="M63.244,156.089a.983.983,0,0,1-.445-.77v-8.2c0-.284.2-.4.445-.257a.985.985,0,0,1,.445.77v8.2C63.689,156.117,63.49,156.23,63.244,156.089Z" transform="translate(-54.795 -142.179)" fill="#2f73a8"/>
            <path id="Trazado_1032277" data-name="Trazado 1032277" d="M65.513,157.4a.985.985,0,0,1-.445-.77v-8.2c0-.284.2-.4.445-.257a.983.983,0,0,1,.445.77v8.2C65.957,157.426,65.758,157.54,65.513,157.4Z" transform="translate(-55.062 -142.333)" fill="#2f73a8"/>
            <path id="Trazado_1032278" data-name="Trazado 1032278" d="M67.781,158.708a.983.983,0,0,1-.445-.77v-8.2c0-.284.2-.4.445-.257a.985.985,0,0,1,.445.77v8.2C68.225,158.735,68.026,158.85,67.781,158.708Z" transform="translate(-55.33 -142.488)" fill="#2f73a8"/>
            <path id="Trazado_1032279" data-name="Trazado 1032279" d="M70.049,160.017a.983.983,0,0,1-.445-.77v-8.2c0-.284.2-.4.445-.257a.983.983,0,0,1,.445.77v8.2C70.493,160.045,70.294,160.159,70.049,160.017Z" transform="translate(-55.597 -142.642)" fill="#2f73a8"/>
            <path id="Trazado_1032280" data-name="Trazado 1032280" d="M72.317,161.327a.985.985,0,0,1-.445-.77v-8.2c0-.283.2-.4.445-.257a.985.985,0,0,1,.445.77v8.2C72.761,161.354,72.563,161.469,72.317,161.327Z" transform="translate(-55.864 -142.796)" fill="#2f73a8"/>
          </g>
        </g>
        <g id="Grupo_1171874" data-name="Grupo 1171874" transform="translate(22.041 12.725)">
          <g id="Grupo_1171872" data-name="Grupo 1171872">
            <path id="Trazado_1032281" data-name="Trazado 1032281" d="M86.764,157.619,75.8,163.953V151.287l10.968-6.332Z" transform="translate(-75.796 -144.955)" fill="#215278"/>
            <path id="Trazado_1032282" data-name="Trazado 1032282" d="M85.875,146.5v10.612l-9.19,5.305V151.8l9.19-5.305Zm.889-1.54L75.8,151.287v12.665l10.968-6.332V144.955Z" transform="translate(-75.796 -144.955)" fill="#66757e"/>
          </g>
          <g id="Grupo_1171873" data-name="Grupo 1171873" transform="translate(2.038 3.091)">
            <path id="Trazado_1032283" data-name="Trazado 1032283" d="M78.551,161.676c-.245.142-.445.027-.445-.257v-8.2a.985.985,0,0,1,.445-.77c.245-.142.445-.026.445.257v8.2A.983.983,0,0,1,78.551,161.676Z" transform="translate(-78.106 -148.922)" fill="#2f73a8"/>
            <path id="Trazado_1032284" data-name="Trazado 1032284" d="M80.819,160.367c-.245.142-.445.026-.445-.257v-8.2a.983.983,0,0,1,.445-.77c.245-.142.445-.027.445.257v8.2A.982.982,0,0,1,80.819,160.367Z" transform="translate(-78.373 -148.768)" fill="#2f73a8"/>
            <path id="Trazado_1032285" data-name="Trazado 1032285" d="M83.087,159.057c-.245.142-.445.027-.445-.257v-8.2a.983.983,0,0,1,.445-.77c.245-.142.445-.026.445.257v8.2A.981.981,0,0,1,83.087,159.057Z" transform="translate(-78.64 -148.613)" fill="#2f73a8"/>
            <path id="Trazado_1032286" data-name="Trazado 1032286" d="M85.356,157.748c-.245.142-.445.026-.445-.257v-8.2a.983.983,0,0,1,.445-.77c.245-.142.445-.027.445.257v8.2A.985.985,0,0,1,85.356,157.748Z" transform="translate(-78.908 -148.459)" fill="#2f73a8"/>
          </g>
        </g>
      </g>
    </g>
  </g>
</svg>
