<svg xmlns="http://www.w3.org/2000/svg" xmlns:xlink="http://www.w3.org/1999/xlink" width="820.401" height="196.954" viewBox="0 0 820.401 196.954">
  <defs>
    <clipPath id="clip-path">
      <path id="Rectángulo_417870" data-name="Rectángulo 417870" d="M0,0H122.333a0,0,0,0,1,0,0V14.536a17,17,0,0,1-17,17H0a0,0,0,0,1,0,0V0A0,0,0,0,1,0,0Z" fill="none"/>
    </clipPath>
  </defs>
  <g id="Grupo_1162062" data-name="Grupo 1162062" transform="translate(-600 -544.379)">
    <rect id="Rectángulo_405239" data-name="Rectángulo 405239" width="820" height="196.954" rx="15" transform="translate(1420.401 741.333) rotate(180)" fill="#ebf7ff"/>
    <g id="Grupo_1160604" data-name="Grupo 1160604" transform="translate(600 619)" opacity="0.5">
      <g id="Grupo_1160598" data-name="Grupo 1160598" transform="translate(45.108 107.805) rotate(180)">
        <g id="Grupo_1160456" data-name="Grupo 1160456" transform="translate(0 47.218) rotate(-90)">
          <rect id="Rectángulo_414825" data-name="Rectángulo 414825" width="12.681" height="2.551" transform="translate(30.418 11.053)" fill="#fff6cc"/>
          <rect id="Rectángulo_414824" data-name="Rectángulo 414824" width="30.418" height="2.551" transform="translate(0 11.053)" fill="#2f73a8"/>
          <g id="Grupo_1137236" data-name="Grupo 1137236" transform="translate(0)">
            <g id="Grupo_15" data-name="Grupo 15">
              <line id="Línea_1" data-name="Línea 1" x1="6.897" y1="6.897" fill="none" stroke="#fcd004" stroke-miterlimit="10" stroke-width="1"/>
              <line id="Línea_2" data-name="Línea 2" x1="6.897" y1="6.897" transform="translate(3.36)" fill="none" stroke="#fcd004" stroke-miterlimit="10" stroke-width="1"/>
              <line id="Línea_3" data-name="Línea 3" x1="6.897" y1="6.897" transform="translate(6.72)" fill="none" stroke="#fcd004" stroke-miterlimit="10" stroke-width="1"/>
              <line id="Línea_4" data-name="Línea 4" x1="6.897" y1="6.897" transform="translate(10.08)" fill="none" stroke="#fcd004" stroke-miterlimit="10" stroke-width="1"/>
              <line id="Línea_5" data-name="Línea 5" x1="6.897" y1="6.897" transform="translate(13.44)" fill="none" stroke="#fcd004" stroke-miterlimit="10" stroke-width="1"/>
              <line id="Línea_6" data-name="Línea 6" x1="6.897" y1="6.897" transform="translate(16.8)" fill="none" stroke="#fcd004" stroke-miterlimit="10" stroke-width="1"/>
              <line id="Línea_7" data-name="Línea 7" x1="6.897" y1="6.897" transform="translate(20.161)" fill="none" stroke="#fcd004" stroke-miterlimit="10" stroke-width="1"/>
              <line id="Línea_8" data-name="Línea 8" x1="6.897" y1="6.897" transform="translate(23.521)" fill="none" stroke="#fcd004" stroke-miterlimit="10" stroke-width="1"/>
              <line id="Línea_9" data-name="Línea 9" x1="6.897" y1="6.897" transform="translate(26.881)" fill="none" stroke="#fcd004" stroke-miterlimit="10" stroke-width="1"/>
              <line id="Línea_10" data-name="Línea 10" x1="6.897" y1="6.897" transform="translate(30.241)" fill="none" stroke="#fcd004" stroke-miterlimit="10" stroke-width="1"/>
              <line id="Línea_11" data-name="Línea 11" x1="6.897" y1="6.897" transform="translate(33.601)" fill="none" stroke="#fcd004" stroke-miterlimit="10" stroke-width="1"/>
              <line id="Línea_12" data-name="Línea 12" x1="6.897" y1="6.897" transform="translate(36.961)" fill="none" stroke="#fcd004" stroke-miterlimit="10" stroke-width="1"/>
              <line id="Línea_13" data-name="Línea 13" x1="6.897" y1="6.897" transform="translate(40.321)" fill="none" stroke="#fcd004" stroke-miterlimit="10" stroke-width="1"/>
            </g>
          </g>
        </g>
        <g id="Grupo_1160458" data-name="Grupo 1160458" transform="translate(13.543 61.756) rotate(-90)">
          <path id="Trazado_100597" data-name="Trazado 100597" d="M10.915,1.988,8.927,0,1.988,6.939,0,8.927l1.988,1.988,6.939,6.939,1.988-1.988L3.976,8.927Z" fill="#fcd004"/>
          <path id="Trazado_100598" data-name="Trazado 100598" d="M10.915,1.988,8.927,0,1.988,6.939,0,8.927l1.988,1.988,6.939,6.939,1.988-1.988L3.976,8.927Z" transform="translate(9.053)" fill="#fcd004"/>
          <path id="Trazado_100599" data-name="Trazado 100599" d="M10.915,1.988,8.927,0,1.988,6.939,0,8.927l1.988,1.988,6.939,6.939,1.988-1.988L3.976,8.927Z" transform="translate(18.105)" fill="#fcd004"/>
          <path id="Trazado_100600" data-name="Trazado 100600" d="M10.915,1.988,8.927,0,1.988,6.939,0,8.927l1.988,1.988,6.939,6.939,1.988-1.988L3.976,8.927Z" transform="translate(27.158)" fill="#fcd004"/>
          <path id="Trazado_100601" data-name="Trazado 100601" d="M3.976,8.927l6.939-6.939L8.927,0,1.988,6.939,0,8.927l1.988,1.988,6.939,6.939,1.988-1.988Z" transform="translate(36.211)" fill="#fcd004"/>
        </g>
      </g>
      <g id="Grupo_1160560" data-name="Grupo 1160560" transform="translate(31.536) rotate(90)">
        <g id="Grupo_1160560-2" data-name="Grupo 1160560" clip-path="url(#clip-path)">
          <path id="Trazado_1002309" data-name="Trazado 1002309" d="M63.016,22.845V0H15.862c-1.869,0-3.659,1.309-4.98,3.64L0,22.845Z" transform="translate(59.317 -0.001)" fill="#2f537d"/>
          <path id="Trazado_1002310" data-name="Trazado 1002310" d="M115.579,13.163V0H12.629C9.317,0,6.144,2.319,3.8,6.449L0,13.163Z" transform="translate(0 18.374)" fill="#fcd004"/>
          <path id="Trazado_1002311" data-name="Trazado 1002311" d="M47.067,20.118V0H14.317C12.448,0,10.66,1.317,9.338,3.638L0,20.118Z" transform="translate(75.266 11.419)" fill="#488fe0"/>
          <path id="Trazado_1002312" data-name="Trazado 1002312" d="M7.88,20.118H0L9.338,3.638C10.66,1.317,12.448,0,14.317,0H22.2c-1.869,0-3.656,1.317-4.979,3.638Z" transform="translate(75.266 11.419)" fill="#67a3e7"/>
        </g>
      </g>
    </g>
  </g>
</svg>
